G04 #@! TF.GenerationSoftware,KiCad,Pcbnew,(6.0.10)*
G04 #@! TF.CreationDate,2023-01-06T17:15:24+11:00*
G04 #@! TF.ProjectId,exp60,65787036-302e-46b6-9963-61645f706362,rev?*
G04 #@! TF.SameCoordinates,Original*
G04 #@! TF.FileFunction,Soldermask,Bot*
G04 #@! TF.FilePolarity,Negative*
%FSLAX46Y46*%
G04 Gerber Fmt 4.6, Leading zero omitted, Abs format (unit mm)*
G04 Created by KiCad (PCBNEW (6.0.10)) date 2023-01-06 17:15:24*
%MOMM*%
%LPD*%
G01*
G04 APERTURE LIST*
G04 Aperture macros list*
%AMRoundRect*
0 Rectangle with rounded corners*
0 $1 Rounding radius*
0 $2 $3 $4 $5 $6 $7 $8 $9 X,Y pos of 4 corners*
0 Add a 4 corners polygon primitive as box body*
4,1,4,$2,$3,$4,$5,$6,$7,$8,$9,$2,$3,0*
0 Add four circle primitives for the rounded corners*
1,1,$1+$1,$2,$3*
1,1,$1+$1,$4,$5*
1,1,$1+$1,$6,$7*
1,1,$1+$1,$8,$9*
0 Add four rect primitives between the rounded corners*
20,1,$1+$1,$2,$3,$4,$5,0*
20,1,$1+$1,$4,$5,$6,$7,0*
20,1,$1+$1,$6,$7,$8,$9,0*
20,1,$1+$1,$8,$9,$2,$3,0*%
G04 Aperture macros list end*
%ADD10C,1.750000*%
%ADD11C,3.000000*%
%ADD12C,3.987800*%
%ADD13R,2.550000X2.500000*%
%ADD14C,3.048000*%
%ADD15R,1.200000X0.900000*%
%ADD16R,2.100000X1.800000*%
%ADD17RoundRect,0.250000X-0.475000X0.250000X-0.475000X-0.250000X0.475000X-0.250000X0.475000X0.250000X0*%
%ADD18RoundRect,0.250000X-0.262500X-0.450000X0.262500X-0.450000X0.262500X0.450000X-0.262500X0.450000X0*%
%ADD19R,1.700000X1.000000*%
%ADD20R,1.700000X0.600000*%
%ADD21RoundRect,0.250000X0.450000X-0.262500X0.450000X0.262500X-0.450000X0.262500X-0.450000X-0.262500X0*%
%ADD22R,0.900000X1.200000*%
%ADD23R,1.600000X0.550000*%
%ADD24R,0.550000X1.600000*%
%ADD25C,0.990600*%
%ADD26C,0.787400*%
%ADD27C,0.650000*%
%ADD28R,0.600000X2.000000*%
%ADD29R,0.300000X2.000000*%
%ADD30O,1.050000X2.100000*%
%ADD31O,1.000000X2.000000*%
%ADD32RoundRect,0.250000X0.250000X0.475000X-0.250000X0.475000X-0.250000X-0.475000X0.250000X-0.475000X0*%
%ADD33R,1.100000X1.800000*%
%ADD34RoundRect,0.250000X-0.450000X0.262500X-0.450000X-0.262500X0.450000X-0.262500X0.450000X0.262500X0*%
%ADD35RoundRect,0.250000X0.625000X-0.375000X0.625000X0.375000X-0.625000X0.375000X-0.625000X-0.375000X0*%
%ADD36RoundRect,0.250000X-0.700000X0.275000X-0.700000X-0.275000X0.700000X-0.275000X0.700000X0.275000X0*%
G04 APERTURE END LIST*
D10*
X133160000Y-112205000D03*
D11*
X130620000Y-107125000D03*
D12*
X128080000Y-112205000D03*
D11*
X124270000Y-109665000D03*
D10*
X123000000Y-112205000D03*
D13*
X120995000Y-109665000D03*
X133922000Y-107125000D03*
D12*
X151892500Y-131255000D03*
D11*
X154432500Y-126175000D03*
D10*
X156972500Y-131255000D03*
X146812500Y-131255000D03*
D11*
X148082500Y-128715000D03*
D13*
X144807500Y-128715000D03*
X157734500Y-126175000D03*
D10*
X176022500Y-131255000D03*
D12*
X170942500Y-131255000D03*
D11*
X167132500Y-128715000D03*
D10*
X165862500Y-131255000D03*
D11*
X173482500Y-126175000D03*
D13*
X163857500Y-128715000D03*
X176784500Y-126175000D03*
D10*
X340328750Y-131255000D03*
D11*
X331438750Y-128715000D03*
D14*
X347186750Y-124270000D03*
D12*
X323310750Y-139510000D03*
D10*
X330168750Y-131255000D03*
D14*
X323310750Y-124270000D03*
D12*
X347186750Y-139510000D03*
X335248750Y-131255000D03*
D11*
X337788750Y-126175000D03*
D13*
X328163750Y-128715000D03*
X341090750Y-126175000D03*
D12*
X275717500Y-169355000D03*
D11*
X271907500Y-166815000D03*
D10*
X270637500Y-169355000D03*
D11*
X278257500Y-164275000D03*
D10*
X280797500Y-169355000D03*
D13*
X268632500Y-166815000D03*
X281559500Y-164275000D03*
D11*
X183007500Y-145225000D03*
D10*
X185547500Y-150305000D03*
X175387500Y-150305000D03*
D12*
X180467500Y-150305000D03*
D11*
X176657500Y-147765000D03*
D13*
X173382500Y-147765000D03*
X186309500Y-145225000D03*
D10*
X147447500Y-150305000D03*
D11*
X144907500Y-145225000D03*
D10*
X137287500Y-150305000D03*
D11*
X138557500Y-147765000D03*
D12*
X142367500Y-150305000D03*
D13*
X135282500Y-147765000D03*
X148209500Y-145225000D03*
D10*
X132525000Y-93155000D03*
X142685000Y-93155000D03*
D11*
X140145000Y-88075000D03*
X133795000Y-90615000D03*
D12*
X137605000Y-93155000D03*
D13*
X130520000Y-90615000D03*
X143447000Y-88075000D03*
D11*
X155226250Y-166815000D03*
D12*
X159036250Y-169355000D03*
D10*
X164116250Y-169355000D03*
D11*
X161576250Y-164275000D03*
D10*
X153956250Y-169355000D03*
D13*
X151951250Y-166815000D03*
X164878250Y-164275000D03*
D11*
X342551250Y-145225000D03*
D12*
X340011250Y-150305000D03*
D11*
X336201250Y-147765000D03*
D10*
X345091250Y-150305000D03*
X334931250Y-150305000D03*
D13*
X332926250Y-147765000D03*
X345853250Y-145225000D03*
D10*
X218250000Y-112205000D03*
D11*
X219520000Y-109665000D03*
D12*
X223330000Y-112205000D03*
D10*
X228410000Y-112205000D03*
D11*
X225870000Y-107125000D03*
D13*
X216245000Y-109665000D03*
X229172000Y-107125000D03*
D12*
X337630000Y-93155000D03*
D10*
X342710000Y-93155000D03*
D14*
X349568000Y-86170000D03*
X325692000Y-86170000D03*
D12*
X325692000Y-101410000D03*
D11*
X333820000Y-90615000D03*
D10*
X332550000Y-93155000D03*
D12*
X349568000Y-101410000D03*
D11*
X340170000Y-88075000D03*
D13*
X330545000Y-90615000D03*
X343472000Y-88075000D03*
D10*
X202216250Y-169355000D03*
D11*
X199676250Y-164275000D03*
D12*
X197136250Y-169355000D03*
D11*
X193326250Y-166815000D03*
D14*
X185198250Y-176340000D03*
D10*
X192056250Y-169355000D03*
D14*
X209074250Y-176340000D03*
D12*
X185198250Y-161100000D03*
X209074250Y-161100000D03*
D13*
X190051250Y-166815000D03*
X202978250Y-164275000D03*
D11*
X306832500Y-126175000D03*
D10*
X299212500Y-131255000D03*
D12*
X304292500Y-131255000D03*
D11*
X300482500Y-128715000D03*
D10*
X309372500Y-131255000D03*
D13*
X297207500Y-128715000D03*
X310134500Y-126175000D03*
D11*
X235395000Y-88075000D03*
D10*
X227775000Y-93155000D03*
X237935000Y-93155000D03*
D11*
X229045000Y-90615000D03*
D12*
X232855000Y-93155000D03*
D13*
X225770000Y-90615000D03*
X238697000Y-88075000D03*
D12*
X235236250Y-169355000D03*
D10*
X230156250Y-169355000D03*
X240316250Y-169355000D03*
D11*
X237776250Y-164275000D03*
X231426250Y-166815000D03*
D13*
X228151250Y-166815000D03*
X241078250Y-164275000D03*
D11*
X88551250Y-147765000D03*
D14*
X80423250Y-143320000D03*
D10*
X87281250Y-150305000D03*
D12*
X104299250Y-158560000D03*
X92361250Y-150305000D03*
D10*
X97441250Y-150305000D03*
D11*
X94901250Y-145225000D03*
D12*
X80423250Y-158560000D03*
D14*
X104299250Y-143320000D03*
D13*
X85276250Y-147765000D03*
X98203250Y-145225000D03*
D12*
X99505000Y-93155000D03*
D10*
X104585000Y-93155000D03*
D11*
X96965000Y-98235000D03*
X103315000Y-95695000D03*
D10*
X94425000Y-93155000D03*
D13*
X106590000Y-95695000D03*
X93663000Y-98235000D03*
D11*
X109982500Y-128715000D03*
D10*
X108712500Y-131255000D03*
D11*
X116332500Y-126175000D03*
D12*
X113792500Y-131255000D03*
D10*
X118872500Y-131255000D03*
D13*
X106707500Y-128715000D03*
X119634500Y-126175000D03*
D11*
X81407500Y-109665000D03*
D10*
X80137500Y-112205000D03*
X90297500Y-112205000D03*
D12*
X85217500Y-112205000D03*
D11*
X87757500Y-107125000D03*
D13*
X78132500Y-109665000D03*
X91059500Y-107125000D03*
D12*
X118555000Y-169355000D03*
D10*
X123635000Y-169355000D03*
X113475000Y-169355000D03*
D11*
X121095000Y-164275000D03*
X114745000Y-166815000D03*
D13*
X111470000Y-166815000D03*
X124397000Y-164275000D03*
D11*
X159195000Y-88075000D03*
X152845000Y-90615000D03*
D12*
X156655000Y-93155000D03*
D10*
X161735000Y-93155000D03*
X151575000Y-93155000D03*
D13*
X149570000Y-90615000D03*
X162497000Y-88075000D03*
D11*
X99663750Y-164275000D03*
D10*
X92043750Y-169355000D03*
D12*
X97123750Y-169355000D03*
D11*
X93313750Y-166815000D03*
D10*
X102203750Y-169355000D03*
D13*
X90038750Y-166815000D03*
X102965750Y-164275000D03*
D10*
X171260000Y-112205000D03*
D11*
X168720000Y-107125000D03*
D12*
X166180000Y-112205000D03*
D11*
X162370000Y-109665000D03*
D10*
X161100000Y-112205000D03*
D13*
X159095000Y-109665000D03*
X172022000Y-107125000D03*
D11*
X286195000Y-90615000D03*
D10*
X295085000Y-93155000D03*
X284925000Y-93155000D03*
D11*
X292545000Y-88075000D03*
D12*
X290005000Y-93155000D03*
D13*
X282920000Y-90615000D03*
X295847000Y-88075000D03*
D11*
X244920000Y-107125000D03*
D12*
X242380000Y-112205000D03*
D10*
X247460000Y-112205000D03*
D11*
X238570000Y-109665000D03*
D10*
X237300000Y-112205000D03*
D13*
X235295000Y-109665000D03*
X248222000Y-107125000D03*
D10*
X204597500Y-150305000D03*
D11*
X195707500Y-147765000D03*
D10*
X194437500Y-150305000D03*
D12*
X199517500Y-150305000D03*
D11*
X202057500Y-145225000D03*
D13*
X192432500Y-147765000D03*
X205359500Y-145225000D03*
D11*
X271907500Y-147765000D03*
X278257500Y-145225000D03*
D10*
X270637500Y-150305000D03*
X280797500Y-150305000D03*
D12*
X275717500Y-150305000D03*
D13*
X268632500Y-147765000D03*
X281559500Y-145225000D03*
D10*
X304610000Y-112205000D03*
D11*
X295720000Y-109665000D03*
D10*
X294450000Y-112205000D03*
D12*
X299530000Y-112205000D03*
D11*
X302070000Y-107125000D03*
D13*
X292445000Y-109665000D03*
X305372000Y-107125000D03*
D10*
X289687500Y-150305000D03*
D12*
X294767500Y-150305000D03*
D10*
X299847500Y-150305000D03*
D11*
X290957500Y-147765000D03*
X297307500Y-145225000D03*
D13*
X287682500Y-147765000D03*
X300609500Y-145225000D03*
D11*
X140145000Y-164275000D03*
D10*
X142685000Y-169355000D03*
X132525000Y-169355000D03*
D12*
X137605000Y-169355000D03*
D11*
X133795000Y-166815000D03*
D13*
X130520000Y-166815000D03*
X143447000Y-164275000D03*
D11*
X338582500Y-109665000D03*
D10*
X337312500Y-112205000D03*
D11*
X344932500Y-107125000D03*
D10*
X347472500Y-112205000D03*
D12*
X342392500Y-112205000D03*
D13*
X335307500Y-109665000D03*
X348234500Y-107125000D03*
D11*
X254445000Y-88075000D03*
D12*
X251905000Y-93155000D03*
D11*
X248095000Y-90615000D03*
D10*
X256985000Y-93155000D03*
X246825000Y-93155000D03*
D13*
X244820000Y-90615000D03*
X257747000Y-88075000D03*
D11*
X268732500Y-126175000D03*
X262382500Y-128715000D03*
D10*
X261112500Y-131255000D03*
X271272500Y-131255000D03*
D12*
X266192500Y-131255000D03*
D13*
X259107500Y-128715000D03*
X272034500Y-126175000D03*
D11*
X267145000Y-90615000D03*
D10*
X265875000Y-93155000D03*
D12*
X270955000Y-93155000D03*
D11*
X273495000Y-88075000D03*
D10*
X276035000Y-93155000D03*
D13*
X263870000Y-90615000D03*
X276797000Y-88075000D03*
D11*
X287782500Y-126175000D03*
D10*
X280162500Y-131255000D03*
D12*
X285242500Y-131255000D03*
D11*
X281432500Y-128715000D03*
D10*
X290322500Y-131255000D03*
D13*
X278157500Y-128715000D03*
X291084500Y-126175000D03*
D11*
X305245000Y-90615000D03*
D12*
X309055000Y-93155000D03*
D10*
X314135000Y-93155000D03*
D11*
X311595000Y-88075000D03*
D10*
X303975000Y-93155000D03*
D13*
X301970000Y-90615000D03*
X314897000Y-88075000D03*
D12*
X132842500Y-131255000D03*
D11*
X129032500Y-128715000D03*
D10*
X137922500Y-131255000D03*
D11*
X135382500Y-126175000D03*
D10*
X127762500Y-131255000D03*
D13*
X125757500Y-128715000D03*
X138684500Y-126175000D03*
D10*
X114110000Y-112205000D03*
D11*
X111570000Y-107125000D03*
X105220000Y-109665000D03*
D12*
X109030000Y-112205000D03*
D10*
X103950000Y-112205000D03*
D13*
X101945000Y-109665000D03*
X114872000Y-107125000D03*
D11*
X276670000Y-109665000D03*
D12*
X280480000Y-112205000D03*
D11*
X283020000Y-107125000D03*
D10*
X275400000Y-112205000D03*
X285560000Y-112205000D03*
D13*
X273395000Y-109665000D03*
X286322000Y-107125000D03*
D11*
X178245000Y-88075000D03*
D12*
X175705000Y-93155000D03*
D10*
X180785000Y-93155000D03*
D11*
X171895000Y-90615000D03*
D10*
X170625000Y-93155000D03*
D13*
X168620000Y-90615000D03*
X181547000Y-88075000D03*
D11*
X252857500Y-147765000D03*
X259207500Y-145225000D03*
D12*
X256667500Y-150305000D03*
D10*
X251587500Y-150305000D03*
X261747500Y-150305000D03*
D13*
X249582500Y-147765000D03*
X262509500Y-145225000D03*
D11*
X214757500Y-147765000D03*
D12*
X218567500Y-150305000D03*
D11*
X221107500Y-145225000D03*
D10*
X213487500Y-150305000D03*
X223647500Y-150305000D03*
D13*
X211482500Y-147765000D03*
X224409500Y-145225000D03*
D10*
X318897500Y-150305000D03*
D11*
X316357500Y-145225000D03*
D10*
X308737500Y-150305000D03*
D12*
X313817500Y-150305000D03*
D11*
X310007500Y-147765000D03*
D13*
X306732500Y-147765000D03*
X319659500Y-145225000D03*
D10*
X261747500Y-169355000D03*
D11*
X252857500Y-166815000D03*
D12*
X256667500Y-169355000D03*
D10*
X251587500Y-169355000D03*
D11*
X259207500Y-164275000D03*
D13*
X249582500Y-166815000D03*
X262509500Y-164275000D03*
D10*
X118237500Y-150305000D03*
X128397500Y-150305000D03*
D11*
X119507500Y-147765000D03*
X125857500Y-145225000D03*
D12*
X123317500Y-150305000D03*
D13*
X116232500Y-147765000D03*
X129159500Y-145225000D03*
D11*
X121095000Y-88075000D03*
D10*
X113475000Y-93155000D03*
D11*
X114745000Y-90615000D03*
D10*
X123635000Y-93155000D03*
D12*
X118555000Y-93155000D03*
D13*
X111470000Y-90615000D03*
X124397000Y-88075000D03*
D11*
X290957500Y-166815000D03*
D10*
X299847500Y-169355000D03*
D11*
X297307500Y-164275000D03*
D10*
X289687500Y-169355000D03*
D12*
X294767500Y-169355000D03*
D13*
X287682500Y-166815000D03*
X300609500Y-164275000D03*
D10*
X82518750Y-131255000D03*
D11*
X90138750Y-126175000D03*
X83788750Y-128715000D03*
D12*
X87598750Y-131255000D03*
D10*
X92678750Y-131255000D03*
D13*
X80513750Y-128715000D03*
X93440750Y-126175000D03*
D10*
X323660000Y-112205000D03*
D12*
X318580000Y-112205000D03*
D11*
X314770000Y-109665000D03*
D10*
X313500000Y-112205000D03*
D11*
X321120000Y-107125000D03*
D13*
X311495000Y-109665000D03*
X324422000Y-107125000D03*
D12*
X204280000Y-112205000D03*
D11*
X206820000Y-107125000D03*
D10*
X209360000Y-112205000D03*
X199200000Y-112205000D03*
D11*
X200470000Y-109665000D03*
D13*
X197195000Y-109665000D03*
X210122000Y-107125000D03*
D10*
X337947500Y-169355000D03*
X327787500Y-169355000D03*
D12*
X332867500Y-169355000D03*
D11*
X335407500Y-164275000D03*
X329057500Y-166815000D03*
D13*
X325782500Y-166815000D03*
X338709500Y-164275000D03*
D10*
X203962500Y-131255000D03*
D11*
X205232500Y-128715000D03*
D10*
X214122500Y-131255000D03*
D11*
X211582500Y-126175000D03*
D12*
X209042500Y-131255000D03*
D13*
X201957500Y-128715000D03*
X214884500Y-126175000D03*
D10*
X85535000Y-93155000D03*
D11*
X77915000Y-98235000D03*
X84265000Y-95695000D03*
D10*
X75375000Y-93155000D03*
D12*
X80455000Y-93155000D03*
D13*
X87540000Y-95695000D03*
X74613000Y-98235000D03*
D11*
X216345000Y-88075000D03*
D12*
X213805000Y-93155000D03*
D10*
X208725000Y-93155000D03*
X218885000Y-93155000D03*
D11*
X209995000Y-90615000D03*
D13*
X206720000Y-90615000D03*
X219647000Y-88075000D03*
D10*
X232537500Y-150305000D03*
D12*
X237617500Y-150305000D03*
D11*
X233807500Y-147765000D03*
X240157500Y-145225000D03*
D10*
X242697500Y-150305000D03*
D13*
X230532500Y-147765000D03*
X243459500Y-145225000D03*
D10*
X195072500Y-131255000D03*
D12*
X189992500Y-131255000D03*
D11*
X192532500Y-126175000D03*
D10*
X184912500Y-131255000D03*
D11*
X186182500Y-128715000D03*
D13*
X182907500Y-128715000D03*
X195834500Y-126175000D03*
D11*
X316357500Y-164275000D03*
D10*
X308737500Y-169355000D03*
D11*
X310007500Y-166815000D03*
D10*
X318897500Y-169355000D03*
D12*
X313817500Y-169355000D03*
D13*
X306732500Y-166815000D03*
X319659500Y-164275000D03*
D10*
X142050000Y-112205000D03*
D11*
X143320000Y-109665000D03*
D10*
X152210000Y-112205000D03*
D12*
X147130000Y-112205000D03*
D11*
X149670000Y-107125000D03*
D13*
X140045000Y-109665000D03*
X152972000Y-107125000D03*
D11*
X243332500Y-128715000D03*
D10*
X242062500Y-131255000D03*
D11*
X249682500Y-126175000D03*
D12*
X247142500Y-131255000D03*
D10*
X252222500Y-131255000D03*
D13*
X240057500Y-128715000D03*
X252984500Y-126175000D03*
D10*
X199835000Y-93155000D03*
D12*
X194755000Y-93155000D03*
D11*
X190945000Y-90615000D03*
X197295000Y-88075000D03*
D10*
X189675000Y-93155000D03*
D13*
X187670000Y-90615000D03*
X200597000Y-88075000D03*
D10*
X190310000Y-112205000D03*
D11*
X187770000Y-107125000D03*
D12*
X185230000Y-112205000D03*
D11*
X181420000Y-109665000D03*
D10*
X180150000Y-112205000D03*
D13*
X178145000Y-109665000D03*
X191072000Y-107125000D03*
D12*
X228092500Y-131255000D03*
D11*
X230632500Y-126175000D03*
D10*
X233172500Y-131255000D03*
D11*
X224282500Y-128715000D03*
D10*
X223012500Y-131255000D03*
D13*
X221007500Y-128715000D03*
X233934500Y-126175000D03*
D10*
X256350000Y-112205000D03*
X266510000Y-112205000D03*
D12*
X261430000Y-112205000D03*
D11*
X257620000Y-109665000D03*
X263970000Y-107125000D03*
D13*
X254345000Y-109665000D03*
X267272000Y-107125000D03*
D11*
X163957500Y-145225000D03*
D12*
X161417500Y-150305000D03*
D10*
X156337500Y-150305000D03*
X166497500Y-150305000D03*
D11*
X157607500Y-147765000D03*
D13*
X154332500Y-147765000D03*
X167259500Y-145225000D03*
D15*
X269081250Y-115355000D03*
X269081250Y-112055000D03*
X302418750Y-172505000D03*
X302418750Y-169205000D03*
X197643750Y-134405000D03*
X197643750Y-131105000D03*
D16*
X170518750Y-173393750D03*
X167618750Y-173393750D03*
X167618750Y-171093750D03*
X170518750Y-171093750D03*
D17*
X163512500Y-158593750D03*
X163512500Y-160493750D03*
D18*
X176093750Y-156305000D03*
X177918750Y-156305000D03*
D15*
X211931250Y-115355000D03*
X211931250Y-112055000D03*
D19*
X91987500Y-100606250D03*
D20*
X91987500Y-102306250D03*
X88987500Y-102306250D03*
X88987500Y-100406250D03*
D17*
X156368750Y-158593750D03*
X156368750Y-160493750D03*
D21*
X82550000Y-89812500D03*
X82550000Y-87987500D03*
D15*
X288131250Y-115355000D03*
X288131250Y-112055000D03*
X273843750Y-134405000D03*
X273843750Y-131105000D03*
X307181250Y-115355000D03*
X307181250Y-112055000D03*
X345281250Y-96305000D03*
X345281250Y-93005000D03*
X283368750Y-172505000D03*
X283368750Y-169205000D03*
X202406250Y-96305000D03*
X202406250Y-93005000D03*
D22*
X129443750Y-137350000D03*
X126143750Y-137350000D03*
D15*
X230981250Y-115355000D03*
X230981250Y-112055000D03*
D22*
X115156250Y-96300000D03*
X111856250Y-96300000D03*
D15*
X207168750Y-153455000D03*
X207168750Y-150155000D03*
X96837500Y-102331250D03*
X96837500Y-105631250D03*
X350043750Y-115355000D03*
X350043750Y-112055000D03*
X183356250Y-96305000D03*
X183356250Y-93005000D03*
X242887500Y-172505000D03*
X242887500Y-169205000D03*
X104775000Y-172505000D03*
X104775000Y-169205000D03*
X126206250Y-96305000D03*
X126206250Y-93005000D03*
D17*
X165100000Y-171837500D03*
X165100000Y-173737500D03*
D15*
X145256250Y-172505000D03*
X145256250Y-169205000D03*
X321468750Y-172505000D03*
X321468750Y-169205000D03*
D23*
X171962500Y-166312500D03*
X171962500Y-165512500D03*
X171962500Y-164712500D03*
X171962500Y-163912500D03*
X171962500Y-163112500D03*
X171962500Y-162312500D03*
X171962500Y-161512500D03*
X171962500Y-160712500D03*
D24*
X173412500Y-159262500D03*
X174212500Y-159262500D03*
X175012500Y-159262500D03*
X175812500Y-159262500D03*
X176612500Y-159262500D03*
X177412500Y-159262500D03*
X178212500Y-159262500D03*
X179012500Y-159262500D03*
D23*
X180462500Y-160712500D03*
X180462500Y-161512500D03*
X180462500Y-162312500D03*
X180462500Y-163112500D03*
X180462500Y-163912500D03*
X180462500Y-164712500D03*
X180462500Y-165512500D03*
X180462500Y-166312500D03*
D24*
X179012500Y-167762500D03*
X178212500Y-167762500D03*
X177412500Y-167762500D03*
X176612500Y-167762500D03*
X175812500Y-167762500D03*
X175012500Y-167762500D03*
X174212500Y-167762500D03*
X173412500Y-167762500D03*
D22*
X138937500Y-156400000D03*
X135637500Y-156400000D03*
D15*
X342900000Y-134405000D03*
X342900000Y-131105000D03*
X245268750Y-153455000D03*
X245268750Y-150155000D03*
X159543750Y-134405000D03*
X159543750Y-131105000D03*
X226218750Y-153455000D03*
X226218750Y-150155000D03*
X173831250Y-115355000D03*
X173831250Y-112055000D03*
D25*
X215106250Y-165735000D03*
X216122250Y-170815000D03*
X214090250Y-170815000D03*
D26*
X215741250Y-167005000D03*
X214471250Y-167005000D03*
X215741250Y-168275000D03*
X214471250Y-168275000D03*
X215741250Y-169545000D03*
X214471250Y-169545000D03*
D22*
X124681250Y-118300000D03*
X121381250Y-118300000D03*
D27*
X87090000Y-89111250D03*
X92870000Y-89111250D03*
D28*
X86780000Y-90611250D03*
X87580000Y-90611250D03*
D29*
X88730000Y-90611250D03*
X89730000Y-90611250D03*
X90230000Y-90611250D03*
X91230000Y-90611250D03*
D28*
X93180000Y-90611250D03*
X92380000Y-90611250D03*
D29*
X91730000Y-90611250D03*
X90730000Y-90611250D03*
X89230000Y-90611250D03*
X88230000Y-90611250D03*
D30*
X85660000Y-89611250D03*
D31*
X85660000Y-85431250D03*
X94300000Y-85431250D03*
D30*
X94300000Y-89611250D03*
D15*
X321468750Y-153455000D03*
X321468750Y-150155000D03*
X254793750Y-134405000D03*
X254793750Y-131105000D03*
X154781250Y-115355000D03*
X154781250Y-112055000D03*
X311943750Y-134405000D03*
X311943750Y-131105000D03*
D32*
X169225000Y-175768750D03*
X167325000Y-175768750D03*
D15*
X149225000Y-172505000D03*
X149225000Y-169205000D03*
X164306250Y-96305000D03*
X164306250Y-93005000D03*
X240506250Y-96305000D03*
X240506250Y-93005000D03*
X297656250Y-96305000D03*
X297656250Y-93005000D03*
X347662500Y-153455000D03*
X347662500Y-150155000D03*
D33*
X220400000Y-170581250D03*
X220400000Y-164381250D03*
X224100000Y-164381250D03*
X224100000Y-170581250D03*
D15*
X188118750Y-153455000D03*
X188118750Y-150155000D03*
X126206250Y-172505000D03*
X126206250Y-169205000D03*
X259556250Y-96305000D03*
X259556250Y-93005000D03*
D34*
X174262500Y-172918750D03*
X174262500Y-174743750D03*
D15*
X145256250Y-96305000D03*
X145256250Y-93005000D03*
D22*
X129443750Y-134400000D03*
X126143750Y-134400000D03*
D15*
X169068750Y-153455000D03*
X169068750Y-150155000D03*
X283368750Y-153455000D03*
X283368750Y-150155000D03*
X140493750Y-134405000D03*
X140493750Y-131105000D03*
X216693750Y-134405000D03*
X216693750Y-131105000D03*
D22*
X124681250Y-115350000D03*
X121381250Y-115350000D03*
D15*
X340518750Y-172505000D03*
X340518750Y-169205000D03*
D17*
X158750000Y-158593750D03*
X158750000Y-160493750D03*
D22*
X138937500Y-153450000D03*
X135637500Y-153450000D03*
D35*
X100012500Y-105381250D03*
X100012500Y-102581250D03*
D15*
X316706250Y-96305000D03*
X316706250Y-93005000D03*
X150018750Y-153455000D03*
X150018750Y-150155000D03*
D36*
X96837500Y-86531250D03*
X96837500Y-89681250D03*
D15*
X235743750Y-134405000D03*
X235743750Y-131105000D03*
X292893750Y-134405000D03*
X292893750Y-131105000D03*
X250031250Y-115355000D03*
X250031250Y-112055000D03*
D21*
X80168750Y-89812500D03*
X80168750Y-87987500D03*
D15*
X178593750Y-134405000D03*
X178593750Y-131105000D03*
X221456250Y-96305000D03*
X221456250Y-93005000D03*
X264318750Y-172505000D03*
X264318750Y-169205000D03*
D34*
X176562500Y-172918750D03*
X176562500Y-174743750D03*
D15*
X192881250Y-115355000D03*
X192881250Y-112055000D03*
X264318750Y-153455000D03*
X264318750Y-150155000D03*
X278606250Y-96305000D03*
X278606250Y-93005000D03*
X302418750Y-153455000D03*
X302418750Y-150155000D03*
D32*
X179543750Y-170656250D03*
X177643750Y-170656250D03*
D22*
X115156250Y-99250000D03*
X111856250Y-99250000D03*
D15*
X245837500Y-172505000D03*
X245837500Y-169205000D03*
D34*
X211931250Y-164981250D03*
X211931250Y-166806250D03*
D15*
X135731250Y-115355000D03*
X135731250Y-112055000D03*
D17*
X161131250Y-158593750D03*
X161131250Y-160493750D03*
D15*
X326231250Y-115355000D03*
X326231250Y-112055000D03*
M02*
