M48
; DRILL file {KiCad (6.0.10)} date Fri Jan  6 19:07:42 2023
; FORMAT={-:-/ absolute / inch / decimal}
; #@! TF.CreationDate,2023-01-06T19:07:42+11:00
; #@! TF.GenerationSoftware,Kicad,Pcbnew,(6.0.10)
; #@! TF.FileFunction,Plated,1,2,PTH
FMAT,2
INCH
; #@! TA.AperFunction,Plated,PTH,ViaDrill
T1C0.0157
; #@! TA.AperFunction,Plated,PTH,ComponentDrill
T2C0.0236
%
G90
G05
T1
X2.9375Y-3.9688
X3.0625Y-4.4062
X3.125Y-4.8438
X3.1562Y-3.4062
X3.1562Y-5.1562
X3.1875Y-4.7812
X3.3125Y-3.4449
X3.3438Y-5.9062
X3.4375Y-3.9688
X3.4609Y-3.6954
X3.4858Y-3.6435
X3.496Y-3.875
X3.5231Y-3.8206
X3.5312Y-6.4688
X3.5938Y-4.0689
X3.5938Y-4.125
X3.5969Y-3.6562
X3.5969Y-3.7225
X3.6562Y-3.7188
X3.6562Y-3.7812
X3.6875Y-4.6562
X3.7188Y-4.0
X3.75Y-3.9688
X3.7812Y-6.3438
X4.0Y-4.4062
X4.0Y-5.4062
X4.1562Y-4.6562
X4.1875Y-5.1562
X4.1875Y-6.1562
X4.2795Y-6.342
X4.2812Y-6.375
X4.375Y-3.6562
X4.375Y-5.4062
X4.375Y-6.4688
X4.5295Y-6.2795
X4.5312Y-6.1562
X4.533Y-6.2482
X4.5625Y-5.9062
X4.5625Y-6.2188
X4.75Y-4.4062
X4.9375Y-5.1562
X5.125Y-3.6562
X5.125Y-6.4688
X5.3125Y-5.9062
X5.3125Y-6.2322
X5.5Y-4.4062
X5.6875Y-5.1562
X5.7812Y-6.5938
X5.8127Y-6.5938
X5.875Y-3.6562
X5.9688Y-6.4688
X6.0625Y-5.9062
X6.0625Y-6.0661
X6.25Y-4.4062
X6.4375Y-5.1562
X6.625Y-3.6562
X6.6538Y-6.4397
X6.6538Y-6.6226
X6.7032Y-6.4532
X6.8125Y-5.9062
X6.8125Y-6.0661
X6.8657Y-6.6875
X6.875Y-6.1562
X6.875Y-6.9375
X6.9375Y-6.9375
X6.9463Y-6.7188
X7.0Y-4.4062
X7.0Y-6.0415
X7.1713Y-6.3588
X7.1875Y-5.1562
X7.375Y-3.6562
X7.375Y-6.7812
X7.3969Y-6.8275
X7.4688Y-6.4688
X7.5625Y-5.9062
X7.5625Y-6.0661
X7.75Y-4.4062
X7.9375Y-5.1562
X8.0312Y-5.2915
X8.0625Y-6.4688
X8.0709Y-6.7853
X8.0938Y-6.8125
X8.125Y-3.6562
X8.2812Y-6.1875
X8.3125Y-5.9062
X8.3125Y-6.0661
X8.375Y-6.625
X8.4062Y-6.4062
X8.4375Y-6.1562
X8.5Y-4.4062
X8.5625Y-6.2188
X8.5625Y-6.5625
X8.5625Y-6.625
X8.5938Y-4.5415
X8.6006Y-6.1361
X8.6875Y-5.1562
X8.875Y-3.6562
X8.9688Y-6.4688
X9.0312Y-6.1715
X9.0625Y-5.9062
X9.0625Y-6.0661
X9.25Y-4.4062
X9.4375Y-5.1562
X9.4688Y-3.8438
X9.625Y-3.6562
X9.7812Y-6.1562
X9.8125Y-5.9062
X9.8125Y-6.0661
X9.8125Y-6.4688
X10.0Y-4.4062
X10.1875Y-5.1562
X10.375Y-3.6562
X10.5625Y-5.9062
X10.5625Y-6.0661
X10.5625Y-6.4688
X10.75Y-4.4062
X10.9375Y-5.1562
X11.125Y-3.6562
X11.3125Y-5.9062
X11.3125Y-6.0661
X11.3125Y-6.4688
X11.5Y-4.4062
X11.6875Y-5.1562
X11.875Y-3.6562
X12.0625Y-5.9062
X12.0625Y-6.0661
X12.0625Y-6.4688
X12.25Y-4.4062
X12.8125Y-6.4688
X12.9062Y-5.1562
X13.0Y-3.6562
X13.0312Y-6.0661
X13.0938Y-5.9062
X13.0938Y-6.0661
X13.1875Y-4.4062
T2
G00X3.3724Y-3.3477
M15
G01X3.3724Y-3.3792
M16
G05
G00X3.3724Y-3.5063
M15
G01X3.3724Y-3.5497
M16
G05
G00X3.7126Y-3.3477
M15
G01X3.7126Y-3.3792
M16
G05
G00X3.7126Y-3.5063
M15
G01X3.7126Y-3.5497
M16
G05
T0
M30
