G04 #@! TF.GenerationSoftware,KiCad,Pcbnew,(6.0.10)*
G04 #@! TF.CreationDate,2023-01-02T02:40:23+11:00*
G04 #@! TF.ProjectId,exp60,65787036-302e-46b6-9963-61645f706362,rev?*
G04 #@! TF.SameCoordinates,Original*
G04 #@! TF.FileFunction,Legend,Bot*
G04 #@! TF.FilePolarity,Positive*
%FSLAX46Y46*%
G04 Gerber Fmt 4.6, Leading zero omitted, Abs format (unit mm)*
G04 Created by KiCad (PCBNEW (6.0.10)) date 2023-01-02 02:40:23*
%MOMM*%
%LPD*%
G01*
G04 APERTURE LIST*
%ADD10C,0.150000*%
%ADD11C,0.120000*%
G04 APERTURE END LIST*
D10*
X129294285Y-115705380D02*
X129294285Y-114705380D01*
X128722857Y-115705380D02*
X129151428Y-115133952D01*
X128722857Y-114705380D02*
X129294285Y-115276809D01*
X127770476Y-115705380D02*
X128341904Y-115705380D01*
X128056190Y-115705380D02*
X128056190Y-114705380D01*
X128151428Y-114848238D01*
X128246666Y-114943476D01*
X128341904Y-114991095D01*
X126913333Y-114705380D02*
X127103809Y-114705380D01*
X127199047Y-114753000D01*
X127246666Y-114800619D01*
X127341904Y-114943476D01*
X127389523Y-115133952D01*
X127389523Y-115514904D01*
X127341904Y-115610142D01*
X127294285Y-115657761D01*
X127199047Y-115705380D01*
X127008571Y-115705380D01*
X126913333Y-115657761D01*
X126865714Y-115610142D01*
X126818095Y-115514904D01*
X126818095Y-115276809D01*
X126865714Y-115181571D01*
X126913333Y-115133952D01*
X127008571Y-115086333D01*
X127199047Y-115086333D01*
X127294285Y-115133952D01*
X127341904Y-115181571D01*
X127389523Y-115276809D01*
X153106785Y-134755380D02*
X153106785Y-133755380D01*
X152535357Y-134755380D02*
X152963928Y-134183952D01*
X152535357Y-133755380D02*
X153106785Y-134326809D01*
X152202023Y-133755380D02*
X151582976Y-133755380D01*
X151916309Y-134136333D01*
X151773452Y-134136333D01*
X151678214Y-134183952D01*
X151630595Y-134231571D01*
X151582976Y-134326809D01*
X151582976Y-134564904D01*
X151630595Y-134660142D01*
X151678214Y-134707761D01*
X151773452Y-134755380D01*
X152059166Y-134755380D01*
X152154404Y-134707761D01*
X152202023Y-134660142D01*
X150630595Y-134755380D02*
X151202023Y-134755380D01*
X150916309Y-134755380D02*
X150916309Y-133755380D01*
X151011547Y-133898238D01*
X151106785Y-133993476D01*
X151202023Y-134041095D01*
X172156785Y-134755380D02*
X172156785Y-133755380D01*
X171585357Y-134755380D02*
X172013928Y-134183952D01*
X171585357Y-133755380D02*
X172156785Y-134326809D01*
X171252023Y-133755380D02*
X170632976Y-133755380D01*
X170966309Y-134136333D01*
X170823452Y-134136333D01*
X170728214Y-134183952D01*
X170680595Y-134231571D01*
X170632976Y-134326809D01*
X170632976Y-134564904D01*
X170680595Y-134660142D01*
X170728214Y-134707761D01*
X170823452Y-134755380D01*
X171109166Y-134755380D01*
X171204404Y-134707761D01*
X171252023Y-134660142D01*
X170252023Y-133850619D02*
X170204404Y-133803000D01*
X170109166Y-133755380D01*
X169871071Y-133755380D01*
X169775833Y-133803000D01*
X169728214Y-133850619D01*
X169680595Y-133945857D01*
X169680595Y-134041095D01*
X169728214Y-134183952D01*
X170299642Y-134755380D01*
X169680595Y-134755380D01*
X336463035Y-134755380D02*
X336463035Y-133755380D01*
X335891607Y-134755380D02*
X336320178Y-134183952D01*
X335891607Y-133755380D02*
X336463035Y-134326809D01*
X335034464Y-134088714D02*
X335034464Y-134755380D01*
X335272559Y-133707761D02*
X335510654Y-134422047D01*
X334891607Y-134422047D01*
X334320178Y-133755380D02*
X334224940Y-133755380D01*
X334129702Y-133803000D01*
X334082083Y-133850619D01*
X334034464Y-133945857D01*
X333986845Y-134136333D01*
X333986845Y-134374428D01*
X334034464Y-134564904D01*
X334082083Y-134660142D01*
X334129702Y-134707761D01*
X334224940Y-134755380D01*
X334320178Y-134755380D01*
X334415416Y-134707761D01*
X334463035Y-134660142D01*
X334510654Y-134564904D01*
X334558273Y-134374428D01*
X334558273Y-134136333D01*
X334510654Y-133945857D01*
X334463035Y-133850619D01*
X334415416Y-133803000D01*
X334320178Y-133755380D01*
X276931785Y-172855380D02*
X276931785Y-171855380D01*
X276360357Y-172855380D02*
X276788928Y-172283952D01*
X276360357Y-171855380D02*
X276931785Y-172426809D01*
X275503214Y-171855380D02*
X275693690Y-171855380D01*
X275788928Y-171903000D01*
X275836547Y-171950619D01*
X275931785Y-172093476D01*
X275979404Y-172283952D01*
X275979404Y-172664904D01*
X275931785Y-172760142D01*
X275884166Y-172807761D01*
X275788928Y-172855380D01*
X275598452Y-172855380D01*
X275503214Y-172807761D01*
X275455595Y-172760142D01*
X275407976Y-172664904D01*
X275407976Y-172426809D01*
X275455595Y-172331571D01*
X275503214Y-172283952D01*
X275598452Y-172236333D01*
X275788928Y-172236333D01*
X275884166Y-172283952D01*
X275931785Y-172331571D01*
X275979404Y-172426809D01*
X274455595Y-172855380D02*
X275027023Y-172855380D01*
X274741309Y-172855380D02*
X274741309Y-171855380D01*
X274836547Y-171998238D01*
X274931785Y-172093476D01*
X275027023Y-172141095D01*
X181681785Y-153805380D02*
X181681785Y-152805380D01*
X181110357Y-153805380D02*
X181538928Y-153233952D01*
X181110357Y-152805380D02*
X181681785Y-153376809D01*
X180253214Y-153138714D02*
X180253214Y-153805380D01*
X180491309Y-152757761D02*
X180729404Y-153472047D01*
X180110357Y-153472047D01*
X179253214Y-152805380D02*
X179729404Y-152805380D01*
X179777023Y-153281571D01*
X179729404Y-153233952D01*
X179634166Y-153186333D01*
X179396071Y-153186333D01*
X179300833Y-153233952D01*
X179253214Y-153281571D01*
X179205595Y-153376809D01*
X179205595Y-153614904D01*
X179253214Y-153710142D01*
X179300833Y-153757761D01*
X179396071Y-153805380D01*
X179634166Y-153805380D01*
X179729404Y-153757761D01*
X179777023Y-153710142D01*
X143581785Y-153805380D02*
X143581785Y-152805380D01*
X143010357Y-153805380D02*
X143438928Y-153233952D01*
X143010357Y-152805380D02*
X143581785Y-153376809D01*
X142153214Y-153138714D02*
X142153214Y-153805380D01*
X142391309Y-152757761D02*
X142629404Y-153472047D01*
X142010357Y-153472047D01*
X141724642Y-152805380D02*
X141105595Y-152805380D01*
X141438928Y-153186333D01*
X141296071Y-153186333D01*
X141200833Y-153233952D01*
X141153214Y-153281571D01*
X141105595Y-153376809D01*
X141105595Y-153614904D01*
X141153214Y-153710142D01*
X141200833Y-153757761D01*
X141296071Y-153805380D01*
X141581785Y-153805380D01*
X141677023Y-153757761D01*
X141724642Y-153710142D01*
X138343095Y-96655380D02*
X138343095Y-95655380D01*
X137771666Y-96655380D02*
X138200238Y-96083952D01*
X137771666Y-95655380D02*
X138343095Y-96226809D01*
X137438333Y-95655380D02*
X136819285Y-95655380D01*
X137152619Y-96036333D01*
X137009761Y-96036333D01*
X136914523Y-96083952D01*
X136866904Y-96131571D01*
X136819285Y-96226809D01*
X136819285Y-96464904D01*
X136866904Y-96560142D01*
X136914523Y-96607761D01*
X137009761Y-96655380D01*
X137295476Y-96655380D01*
X137390714Y-96607761D01*
X137438333Y-96560142D01*
X160250535Y-172855380D02*
X160250535Y-171855380D01*
X159679107Y-172855380D02*
X160107678Y-172283952D01*
X159679107Y-171855380D02*
X160250535Y-172426809D01*
X158774345Y-171855380D02*
X159250535Y-171855380D01*
X159298154Y-172331571D01*
X159250535Y-172283952D01*
X159155297Y-172236333D01*
X158917202Y-172236333D01*
X158821964Y-172283952D01*
X158774345Y-172331571D01*
X158726726Y-172426809D01*
X158726726Y-172664904D01*
X158774345Y-172760142D01*
X158821964Y-172807761D01*
X158917202Y-172855380D01*
X159155297Y-172855380D01*
X159250535Y-172807761D01*
X159298154Y-172760142D01*
X158393392Y-171855380D02*
X157726726Y-171855380D01*
X158155297Y-172855380D01*
X341225535Y-153805380D02*
X341225535Y-152805380D01*
X340654107Y-153805380D02*
X341082678Y-153233952D01*
X340654107Y-152805380D02*
X341225535Y-153376809D01*
X339749345Y-152805380D02*
X340225535Y-152805380D01*
X340273154Y-153281571D01*
X340225535Y-153233952D01*
X340130297Y-153186333D01*
X339892202Y-153186333D01*
X339796964Y-153233952D01*
X339749345Y-153281571D01*
X339701726Y-153376809D01*
X339701726Y-153614904D01*
X339749345Y-153710142D01*
X339796964Y-153757761D01*
X339892202Y-153805380D01*
X340130297Y-153805380D01*
X340225535Y-153757761D01*
X340273154Y-153710142D01*
X339368392Y-152805380D02*
X338749345Y-152805380D01*
X339082678Y-153186333D01*
X338939821Y-153186333D01*
X338844583Y-153233952D01*
X338796964Y-153281571D01*
X338749345Y-153376809D01*
X338749345Y-153614904D01*
X338796964Y-153710142D01*
X338844583Y-153757761D01*
X338939821Y-153805380D01*
X339225535Y-153805380D01*
X339320773Y-153757761D01*
X339368392Y-153710142D01*
X224544285Y-115705380D02*
X224544285Y-114705380D01*
X223972857Y-115705380D02*
X224401428Y-115133952D01*
X223972857Y-114705380D02*
X224544285Y-115276809D01*
X223591904Y-114800619D02*
X223544285Y-114753000D01*
X223449047Y-114705380D01*
X223210952Y-114705380D01*
X223115714Y-114753000D01*
X223068095Y-114800619D01*
X223020476Y-114895857D01*
X223020476Y-114991095D01*
X223068095Y-115133952D01*
X223639523Y-115705380D01*
X223020476Y-115705380D01*
X222068095Y-115705380D02*
X222639523Y-115705380D01*
X222353809Y-115705380D02*
X222353809Y-114705380D01*
X222449047Y-114848238D01*
X222544285Y-114943476D01*
X222639523Y-114991095D01*
X198350535Y-172855380D02*
X198350535Y-171855380D01*
X197779107Y-172855380D02*
X198207678Y-172283952D01*
X197779107Y-171855380D02*
X198350535Y-172426809D01*
X196874345Y-171855380D02*
X197350535Y-171855380D01*
X197398154Y-172331571D01*
X197350535Y-172283952D01*
X197255297Y-172236333D01*
X197017202Y-172236333D01*
X196921964Y-172283952D01*
X196874345Y-172331571D01*
X196826726Y-172426809D01*
X196826726Y-172664904D01*
X196874345Y-172760142D01*
X196921964Y-172807761D01*
X197017202Y-172855380D01*
X197255297Y-172855380D01*
X197350535Y-172807761D01*
X197398154Y-172760142D01*
X196255297Y-172283952D02*
X196350535Y-172236333D01*
X196398154Y-172188714D01*
X196445773Y-172093476D01*
X196445773Y-172045857D01*
X196398154Y-171950619D01*
X196350535Y-171903000D01*
X196255297Y-171855380D01*
X196064821Y-171855380D01*
X195969583Y-171903000D01*
X195921964Y-171950619D01*
X195874345Y-172045857D01*
X195874345Y-172093476D01*
X195921964Y-172188714D01*
X195969583Y-172236333D01*
X196064821Y-172283952D01*
X196255297Y-172283952D01*
X196350535Y-172331571D01*
X196398154Y-172379190D01*
X196445773Y-172474428D01*
X196445773Y-172664904D01*
X196398154Y-172760142D01*
X196350535Y-172807761D01*
X196255297Y-172855380D01*
X196064821Y-172855380D01*
X195969583Y-172807761D01*
X195921964Y-172760142D01*
X195874345Y-172664904D01*
X195874345Y-172474428D01*
X195921964Y-172379190D01*
X195969583Y-172331571D01*
X196064821Y-172283952D01*
X305506785Y-134755380D02*
X305506785Y-133755380D01*
X304935357Y-134755380D02*
X305363928Y-134183952D01*
X304935357Y-133755380D02*
X305506785Y-134326809D01*
X304602023Y-133755380D02*
X303982976Y-133755380D01*
X304316309Y-134136333D01*
X304173452Y-134136333D01*
X304078214Y-134183952D01*
X304030595Y-134231571D01*
X303982976Y-134326809D01*
X303982976Y-134564904D01*
X304030595Y-134660142D01*
X304078214Y-134707761D01*
X304173452Y-134755380D01*
X304459166Y-134755380D01*
X304554404Y-134707761D01*
X304602023Y-134660142D01*
X303506785Y-134755380D02*
X303316309Y-134755380D01*
X303221071Y-134707761D01*
X303173452Y-134660142D01*
X303078214Y-134517285D01*
X303030595Y-134326809D01*
X303030595Y-133945857D01*
X303078214Y-133850619D01*
X303125833Y-133803000D01*
X303221071Y-133755380D01*
X303411547Y-133755380D01*
X303506785Y-133803000D01*
X303554404Y-133850619D01*
X303602023Y-133945857D01*
X303602023Y-134183952D01*
X303554404Y-134279190D01*
X303506785Y-134326809D01*
X303411547Y-134374428D01*
X303221071Y-134374428D01*
X303125833Y-134326809D01*
X303078214Y-134279190D01*
X303030595Y-134183952D01*
X233593095Y-96655380D02*
X233593095Y-95655380D01*
X233021666Y-96655380D02*
X233450238Y-96083952D01*
X233021666Y-95655380D02*
X233593095Y-96226809D01*
X232450238Y-96083952D02*
X232545476Y-96036333D01*
X232593095Y-95988714D01*
X232640714Y-95893476D01*
X232640714Y-95845857D01*
X232593095Y-95750619D01*
X232545476Y-95703000D01*
X232450238Y-95655380D01*
X232259761Y-95655380D01*
X232164523Y-95703000D01*
X232116904Y-95750619D01*
X232069285Y-95845857D01*
X232069285Y-95893476D01*
X232116904Y-95988714D01*
X232164523Y-96036333D01*
X232259761Y-96083952D01*
X232450238Y-96083952D01*
X232545476Y-96131571D01*
X232593095Y-96179190D01*
X232640714Y-96274428D01*
X232640714Y-96464904D01*
X232593095Y-96560142D01*
X232545476Y-96607761D01*
X232450238Y-96655380D01*
X232259761Y-96655380D01*
X232164523Y-96607761D01*
X232116904Y-96560142D01*
X232069285Y-96464904D01*
X232069285Y-96274428D01*
X232116904Y-96179190D01*
X232164523Y-96131571D01*
X232259761Y-96083952D01*
X236450535Y-172855380D02*
X236450535Y-171855380D01*
X235879107Y-172855380D02*
X236307678Y-172283952D01*
X235879107Y-171855380D02*
X236450535Y-172426809D01*
X234974345Y-171855380D02*
X235450535Y-171855380D01*
X235498154Y-172331571D01*
X235450535Y-172283952D01*
X235355297Y-172236333D01*
X235117202Y-172236333D01*
X235021964Y-172283952D01*
X234974345Y-172331571D01*
X234926726Y-172426809D01*
X234926726Y-172664904D01*
X234974345Y-172760142D01*
X235021964Y-172807761D01*
X235117202Y-172855380D01*
X235355297Y-172855380D01*
X235450535Y-172807761D01*
X235498154Y-172760142D01*
X234450535Y-172855380D02*
X234260059Y-172855380D01*
X234164821Y-172807761D01*
X234117202Y-172760142D01*
X234021964Y-172617285D01*
X233974345Y-172426809D01*
X233974345Y-172045857D01*
X234021964Y-171950619D01*
X234069583Y-171903000D01*
X234164821Y-171855380D01*
X234355297Y-171855380D01*
X234450535Y-171903000D01*
X234498154Y-171950619D01*
X234545773Y-172045857D01*
X234545773Y-172283952D01*
X234498154Y-172379190D01*
X234450535Y-172426809D01*
X234355297Y-172474428D01*
X234164821Y-172474428D01*
X234069583Y-172426809D01*
X234021964Y-172379190D01*
X233974345Y-172283952D01*
X93575535Y-153805380D02*
X93575535Y-152805380D01*
X93004107Y-153805380D02*
X93432678Y-153233952D01*
X93004107Y-152805380D02*
X93575535Y-153376809D01*
X92146964Y-153138714D02*
X92146964Y-153805380D01*
X92385059Y-152757761D02*
X92623154Y-153472047D01*
X92004107Y-153472047D01*
X91099345Y-153805380D02*
X91670773Y-153805380D01*
X91385059Y-153805380D02*
X91385059Y-152805380D01*
X91480297Y-152948238D01*
X91575535Y-153043476D01*
X91670773Y-153091095D01*
X100243095Y-90559380D02*
X100243095Y-89559380D01*
X99671666Y-90559380D02*
X100100238Y-89987952D01*
X99671666Y-89559380D02*
X100243095Y-90130809D01*
X98719285Y-90559380D02*
X99290714Y-90559380D01*
X99005000Y-90559380D02*
X99005000Y-89559380D01*
X99100238Y-89702238D01*
X99195476Y-89797476D01*
X99290714Y-89845095D01*
X115006785Y-134755380D02*
X115006785Y-133755380D01*
X114435357Y-134755380D02*
X114863928Y-134183952D01*
X114435357Y-133755380D02*
X115006785Y-134326809D01*
X114054404Y-133850619D02*
X114006785Y-133803000D01*
X113911547Y-133755380D01*
X113673452Y-133755380D01*
X113578214Y-133803000D01*
X113530595Y-133850619D01*
X113482976Y-133945857D01*
X113482976Y-134041095D01*
X113530595Y-134183952D01*
X114102023Y-134755380D01*
X113482976Y-134755380D01*
X113006785Y-134755380D02*
X112816309Y-134755380D01*
X112721071Y-134707761D01*
X112673452Y-134660142D01*
X112578214Y-134517285D01*
X112530595Y-134326809D01*
X112530595Y-133945857D01*
X112578214Y-133850619D01*
X112625833Y-133803000D01*
X112721071Y-133755380D01*
X112911547Y-133755380D01*
X113006785Y-133803000D01*
X113054404Y-133850619D01*
X113102023Y-133945857D01*
X113102023Y-134183952D01*
X113054404Y-134279190D01*
X113006785Y-134326809D01*
X112911547Y-134374428D01*
X112721071Y-134374428D01*
X112625833Y-134326809D01*
X112578214Y-134279190D01*
X112530595Y-134183952D01*
X86431785Y-115705380D02*
X86431785Y-114705380D01*
X85860357Y-115705380D02*
X86288928Y-115133952D01*
X85860357Y-114705380D02*
X86431785Y-115276809D01*
X84907976Y-115705380D02*
X85479404Y-115705380D01*
X85193690Y-115705380D02*
X85193690Y-114705380D01*
X85288928Y-114848238D01*
X85384166Y-114943476D01*
X85479404Y-114991095D01*
X84050833Y-115038714D02*
X84050833Y-115705380D01*
X84288928Y-114657761D02*
X84527023Y-115372047D01*
X83907976Y-115372047D01*
X119769285Y-172855380D02*
X119769285Y-171855380D01*
X119197857Y-172855380D02*
X119626428Y-172283952D01*
X119197857Y-171855380D02*
X119769285Y-172426809D01*
X118293095Y-171855380D02*
X118769285Y-171855380D01*
X118816904Y-172331571D01*
X118769285Y-172283952D01*
X118674047Y-172236333D01*
X118435952Y-172236333D01*
X118340714Y-172283952D01*
X118293095Y-172331571D01*
X118245476Y-172426809D01*
X118245476Y-172664904D01*
X118293095Y-172760142D01*
X118340714Y-172807761D01*
X118435952Y-172855380D01*
X118674047Y-172855380D01*
X118769285Y-172807761D01*
X118816904Y-172760142D01*
X117340714Y-171855380D02*
X117816904Y-171855380D01*
X117864523Y-172331571D01*
X117816904Y-172283952D01*
X117721666Y-172236333D01*
X117483571Y-172236333D01*
X117388333Y-172283952D01*
X117340714Y-172331571D01*
X117293095Y-172426809D01*
X117293095Y-172664904D01*
X117340714Y-172760142D01*
X117388333Y-172807761D01*
X117483571Y-172855380D01*
X117721666Y-172855380D01*
X117816904Y-172807761D01*
X117864523Y-172760142D01*
X157393095Y-96655380D02*
X157393095Y-95655380D01*
X156821666Y-96655380D02*
X157250238Y-96083952D01*
X156821666Y-95655380D02*
X157393095Y-96226809D01*
X155964523Y-95988714D02*
X155964523Y-96655380D01*
X156202619Y-95607761D02*
X156440714Y-96322047D01*
X155821666Y-96322047D01*
X98338035Y-172855380D02*
X98338035Y-171855380D01*
X97766607Y-172855380D02*
X98195178Y-172283952D01*
X97766607Y-171855380D02*
X98338035Y-172426809D01*
X96861845Y-171855380D02*
X97338035Y-171855380D01*
X97385654Y-172331571D01*
X97338035Y-172283952D01*
X97242797Y-172236333D01*
X97004702Y-172236333D01*
X96909464Y-172283952D01*
X96861845Y-172331571D01*
X96814226Y-172426809D01*
X96814226Y-172664904D01*
X96861845Y-172760142D01*
X96909464Y-172807761D01*
X97004702Y-172855380D01*
X97242797Y-172855380D01*
X97338035Y-172807761D01*
X97385654Y-172760142D01*
X95957083Y-172188714D02*
X95957083Y-172855380D01*
X96195178Y-171807761D02*
X96433273Y-172522047D01*
X95814226Y-172522047D01*
X167394285Y-115705380D02*
X167394285Y-114705380D01*
X166822857Y-115705380D02*
X167251428Y-115133952D01*
X166822857Y-114705380D02*
X167394285Y-115276809D01*
X165870476Y-115705380D02*
X166441904Y-115705380D01*
X166156190Y-115705380D02*
X166156190Y-114705380D01*
X166251428Y-114848238D01*
X166346666Y-114943476D01*
X166441904Y-114991095D01*
X165299047Y-115133952D02*
X165394285Y-115086333D01*
X165441904Y-115038714D01*
X165489523Y-114943476D01*
X165489523Y-114895857D01*
X165441904Y-114800619D01*
X165394285Y-114753000D01*
X165299047Y-114705380D01*
X165108571Y-114705380D01*
X165013333Y-114753000D01*
X164965714Y-114800619D01*
X164918095Y-114895857D01*
X164918095Y-114943476D01*
X164965714Y-115038714D01*
X165013333Y-115086333D01*
X165108571Y-115133952D01*
X165299047Y-115133952D01*
X165394285Y-115181571D01*
X165441904Y-115229190D01*
X165489523Y-115324428D01*
X165489523Y-115514904D01*
X165441904Y-115610142D01*
X165394285Y-115657761D01*
X165299047Y-115705380D01*
X165108571Y-115705380D01*
X165013333Y-115657761D01*
X164965714Y-115610142D01*
X164918095Y-115514904D01*
X164918095Y-115324428D01*
X164965714Y-115229190D01*
X165013333Y-115181571D01*
X165108571Y-115133952D01*
X291219285Y-96655380D02*
X291219285Y-95655380D01*
X290647857Y-96655380D02*
X291076428Y-96083952D01*
X290647857Y-95655380D02*
X291219285Y-96226809D01*
X289695476Y-96655380D02*
X290266904Y-96655380D01*
X289981190Y-96655380D02*
X289981190Y-95655380D01*
X290076428Y-95798238D01*
X290171666Y-95893476D01*
X290266904Y-95941095D01*
X288743095Y-96655380D02*
X289314523Y-96655380D01*
X289028809Y-96655380D02*
X289028809Y-95655380D01*
X289124047Y-95798238D01*
X289219285Y-95893476D01*
X289314523Y-95941095D01*
X243594285Y-115705380D02*
X243594285Y-114705380D01*
X243022857Y-115705380D02*
X243451428Y-115133952D01*
X243022857Y-114705380D02*
X243594285Y-115276809D01*
X242641904Y-114800619D02*
X242594285Y-114753000D01*
X242499047Y-114705380D01*
X242260952Y-114705380D01*
X242165714Y-114753000D01*
X242118095Y-114800619D01*
X242070476Y-114895857D01*
X242070476Y-114991095D01*
X242118095Y-115133952D01*
X242689523Y-115705380D01*
X242070476Y-115705380D01*
X241689523Y-114800619D02*
X241641904Y-114753000D01*
X241546666Y-114705380D01*
X241308571Y-114705380D01*
X241213333Y-114753000D01*
X241165714Y-114800619D01*
X241118095Y-114895857D01*
X241118095Y-114991095D01*
X241165714Y-115133952D01*
X241737142Y-115705380D01*
X241118095Y-115705380D01*
X200731785Y-153805380D02*
X200731785Y-152805380D01*
X200160357Y-153805380D02*
X200588928Y-153233952D01*
X200160357Y-152805380D02*
X200731785Y-153376809D01*
X199303214Y-153138714D02*
X199303214Y-153805380D01*
X199541309Y-152757761D02*
X199779404Y-153472047D01*
X199160357Y-153472047D01*
X198350833Y-152805380D02*
X198541309Y-152805380D01*
X198636547Y-152853000D01*
X198684166Y-152900619D01*
X198779404Y-153043476D01*
X198827023Y-153233952D01*
X198827023Y-153614904D01*
X198779404Y-153710142D01*
X198731785Y-153757761D01*
X198636547Y-153805380D01*
X198446071Y-153805380D01*
X198350833Y-153757761D01*
X198303214Y-153710142D01*
X198255595Y-153614904D01*
X198255595Y-153376809D01*
X198303214Y-153281571D01*
X198350833Y-153233952D01*
X198446071Y-153186333D01*
X198636547Y-153186333D01*
X198731785Y-153233952D01*
X198779404Y-153281571D01*
X198827023Y-153376809D01*
X276931785Y-153805380D02*
X276931785Y-152805380D01*
X276360357Y-153805380D02*
X276788928Y-153233952D01*
X276360357Y-152805380D02*
X276931785Y-153376809D01*
X275455595Y-152805380D02*
X275931785Y-152805380D01*
X275979404Y-153281571D01*
X275931785Y-153233952D01*
X275836547Y-153186333D01*
X275598452Y-153186333D01*
X275503214Y-153233952D01*
X275455595Y-153281571D01*
X275407976Y-153376809D01*
X275407976Y-153614904D01*
X275455595Y-153710142D01*
X275503214Y-153757761D01*
X275598452Y-153805380D01*
X275836547Y-153805380D01*
X275931785Y-153757761D01*
X275979404Y-153710142D01*
X274788928Y-152805380D02*
X274693690Y-152805380D01*
X274598452Y-152853000D01*
X274550833Y-152900619D01*
X274503214Y-152995857D01*
X274455595Y-153186333D01*
X274455595Y-153424428D01*
X274503214Y-153614904D01*
X274550833Y-153710142D01*
X274598452Y-153757761D01*
X274693690Y-153805380D01*
X274788928Y-153805380D01*
X274884166Y-153757761D01*
X274931785Y-153710142D01*
X274979404Y-153614904D01*
X275027023Y-153424428D01*
X275027023Y-153186333D01*
X274979404Y-152995857D01*
X274931785Y-152900619D01*
X274884166Y-152853000D01*
X274788928Y-152805380D01*
X300744285Y-115705380D02*
X300744285Y-114705380D01*
X300172857Y-115705380D02*
X300601428Y-115133952D01*
X300172857Y-114705380D02*
X300744285Y-115276809D01*
X299791904Y-114800619D02*
X299744285Y-114753000D01*
X299649047Y-114705380D01*
X299410952Y-114705380D01*
X299315714Y-114753000D01*
X299268095Y-114800619D01*
X299220476Y-114895857D01*
X299220476Y-114991095D01*
X299268095Y-115133952D01*
X299839523Y-115705380D01*
X299220476Y-115705380D01*
X298315714Y-114705380D02*
X298791904Y-114705380D01*
X298839523Y-115181571D01*
X298791904Y-115133952D01*
X298696666Y-115086333D01*
X298458571Y-115086333D01*
X298363333Y-115133952D01*
X298315714Y-115181571D01*
X298268095Y-115276809D01*
X298268095Y-115514904D01*
X298315714Y-115610142D01*
X298363333Y-115657761D01*
X298458571Y-115705380D01*
X298696666Y-115705380D01*
X298791904Y-115657761D01*
X298839523Y-115610142D01*
X295981785Y-153805380D02*
X295981785Y-152805380D01*
X295410357Y-153805380D02*
X295838928Y-153233952D01*
X295410357Y-152805380D02*
X295981785Y-153376809D01*
X294505595Y-152805380D02*
X294981785Y-152805380D01*
X295029404Y-153281571D01*
X294981785Y-153233952D01*
X294886547Y-153186333D01*
X294648452Y-153186333D01*
X294553214Y-153233952D01*
X294505595Y-153281571D01*
X294457976Y-153376809D01*
X294457976Y-153614904D01*
X294505595Y-153710142D01*
X294553214Y-153757761D01*
X294648452Y-153805380D01*
X294886547Y-153805380D01*
X294981785Y-153757761D01*
X295029404Y-153710142D01*
X293505595Y-153805380D02*
X294077023Y-153805380D01*
X293791309Y-153805380D02*
X293791309Y-152805380D01*
X293886547Y-152948238D01*
X293981785Y-153043476D01*
X294077023Y-153091095D01*
X138819285Y-172855380D02*
X138819285Y-171855380D01*
X138247857Y-172855380D02*
X138676428Y-172283952D01*
X138247857Y-171855380D02*
X138819285Y-172426809D01*
X137343095Y-171855380D02*
X137819285Y-171855380D01*
X137866904Y-172331571D01*
X137819285Y-172283952D01*
X137724047Y-172236333D01*
X137485952Y-172236333D01*
X137390714Y-172283952D01*
X137343095Y-172331571D01*
X137295476Y-172426809D01*
X137295476Y-172664904D01*
X137343095Y-172760142D01*
X137390714Y-172807761D01*
X137485952Y-172855380D01*
X137724047Y-172855380D01*
X137819285Y-172807761D01*
X137866904Y-172760142D01*
X136438333Y-171855380D02*
X136628809Y-171855380D01*
X136724047Y-171903000D01*
X136771666Y-171950619D01*
X136866904Y-172093476D01*
X136914523Y-172283952D01*
X136914523Y-172664904D01*
X136866904Y-172760142D01*
X136819285Y-172807761D01*
X136724047Y-172855380D01*
X136533571Y-172855380D01*
X136438333Y-172807761D01*
X136390714Y-172760142D01*
X136343095Y-172664904D01*
X136343095Y-172426809D01*
X136390714Y-172331571D01*
X136438333Y-172283952D01*
X136533571Y-172236333D01*
X136724047Y-172236333D01*
X136819285Y-172283952D01*
X136866904Y-172331571D01*
X136914523Y-172426809D01*
X343606785Y-115705380D02*
X343606785Y-114705380D01*
X343035357Y-115705380D02*
X343463928Y-115133952D01*
X343035357Y-114705380D02*
X343606785Y-115276809D01*
X342654404Y-114800619D02*
X342606785Y-114753000D01*
X342511547Y-114705380D01*
X342273452Y-114705380D01*
X342178214Y-114753000D01*
X342130595Y-114800619D01*
X342082976Y-114895857D01*
X342082976Y-114991095D01*
X342130595Y-115133952D01*
X342702023Y-115705380D01*
X342082976Y-115705380D01*
X341749642Y-114705380D02*
X341082976Y-114705380D01*
X341511547Y-115705380D01*
X252643095Y-96655380D02*
X252643095Y-95655380D01*
X252071666Y-96655380D02*
X252500238Y-96083952D01*
X252071666Y-95655380D02*
X252643095Y-96226809D01*
X251595476Y-96655380D02*
X251405000Y-96655380D01*
X251309761Y-96607761D01*
X251262142Y-96560142D01*
X251166904Y-96417285D01*
X251119285Y-96226809D01*
X251119285Y-95845857D01*
X251166904Y-95750619D01*
X251214523Y-95703000D01*
X251309761Y-95655380D01*
X251500238Y-95655380D01*
X251595476Y-95703000D01*
X251643095Y-95750619D01*
X251690714Y-95845857D01*
X251690714Y-96083952D01*
X251643095Y-96179190D01*
X251595476Y-96226809D01*
X251500238Y-96274428D01*
X251309761Y-96274428D01*
X251214523Y-96226809D01*
X251166904Y-96179190D01*
X251119285Y-96083952D01*
X267406785Y-134755380D02*
X267406785Y-133755380D01*
X266835357Y-134755380D02*
X267263928Y-134183952D01*
X266835357Y-133755380D02*
X267406785Y-134326809D01*
X266502023Y-133755380D02*
X265882976Y-133755380D01*
X266216309Y-134136333D01*
X266073452Y-134136333D01*
X265978214Y-134183952D01*
X265930595Y-134231571D01*
X265882976Y-134326809D01*
X265882976Y-134564904D01*
X265930595Y-134660142D01*
X265978214Y-134707761D01*
X266073452Y-134755380D01*
X266359166Y-134755380D01*
X266454404Y-134707761D01*
X266502023Y-134660142D01*
X265549642Y-133755380D02*
X264882976Y-133755380D01*
X265311547Y-134755380D01*
X272169285Y-96655380D02*
X272169285Y-95655380D01*
X271597857Y-96655380D02*
X272026428Y-96083952D01*
X271597857Y-95655380D02*
X272169285Y-96226809D01*
X270645476Y-96655380D02*
X271216904Y-96655380D01*
X270931190Y-96655380D02*
X270931190Y-95655380D01*
X271026428Y-95798238D01*
X271121666Y-95893476D01*
X271216904Y-95941095D01*
X270026428Y-95655380D02*
X269931190Y-95655380D01*
X269835952Y-95703000D01*
X269788333Y-95750619D01*
X269740714Y-95845857D01*
X269693095Y-96036333D01*
X269693095Y-96274428D01*
X269740714Y-96464904D01*
X269788333Y-96560142D01*
X269835952Y-96607761D01*
X269931190Y-96655380D01*
X270026428Y-96655380D01*
X270121666Y-96607761D01*
X270169285Y-96560142D01*
X270216904Y-96464904D01*
X270264523Y-96274428D01*
X270264523Y-96036333D01*
X270216904Y-95845857D01*
X270169285Y-95750619D01*
X270121666Y-95703000D01*
X270026428Y-95655380D01*
X286456785Y-134755380D02*
X286456785Y-133755380D01*
X285885357Y-134755380D02*
X286313928Y-134183952D01*
X285885357Y-133755380D02*
X286456785Y-134326809D01*
X285552023Y-133755380D02*
X284932976Y-133755380D01*
X285266309Y-134136333D01*
X285123452Y-134136333D01*
X285028214Y-134183952D01*
X284980595Y-134231571D01*
X284932976Y-134326809D01*
X284932976Y-134564904D01*
X284980595Y-134660142D01*
X285028214Y-134707761D01*
X285123452Y-134755380D01*
X285409166Y-134755380D01*
X285504404Y-134707761D01*
X285552023Y-134660142D01*
X284361547Y-134183952D02*
X284456785Y-134136333D01*
X284504404Y-134088714D01*
X284552023Y-133993476D01*
X284552023Y-133945857D01*
X284504404Y-133850619D01*
X284456785Y-133803000D01*
X284361547Y-133755380D01*
X284171071Y-133755380D01*
X284075833Y-133803000D01*
X284028214Y-133850619D01*
X283980595Y-133945857D01*
X283980595Y-133993476D01*
X284028214Y-134088714D01*
X284075833Y-134136333D01*
X284171071Y-134183952D01*
X284361547Y-134183952D01*
X284456785Y-134231571D01*
X284504404Y-134279190D01*
X284552023Y-134374428D01*
X284552023Y-134564904D01*
X284504404Y-134660142D01*
X284456785Y-134707761D01*
X284361547Y-134755380D01*
X284171071Y-134755380D01*
X284075833Y-134707761D01*
X284028214Y-134660142D01*
X283980595Y-134564904D01*
X283980595Y-134374428D01*
X284028214Y-134279190D01*
X284075833Y-134231571D01*
X284171071Y-134183952D01*
X310269285Y-96655380D02*
X310269285Y-95655380D01*
X309697857Y-96655380D02*
X310126428Y-96083952D01*
X309697857Y-95655380D02*
X310269285Y-96226809D01*
X308745476Y-96655380D02*
X309316904Y-96655380D01*
X309031190Y-96655380D02*
X309031190Y-95655380D01*
X309126428Y-95798238D01*
X309221666Y-95893476D01*
X309316904Y-95941095D01*
X308364523Y-95750619D02*
X308316904Y-95703000D01*
X308221666Y-95655380D01*
X307983571Y-95655380D01*
X307888333Y-95703000D01*
X307840714Y-95750619D01*
X307793095Y-95845857D01*
X307793095Y-95941095D01*
X307840714Y-96083952D01*
X308412142Y-96655380D01*
X307793095Y-96655380D01*
X134056785Y-134755380D02*
X134056785Y-133755380D01*
X133485357Y-134755380D02*
X133913928Y-134183952D01*
X133485357Y-133755380D02*
X134056785Y-134326809D01*
X133152023Y-133755380D02*
X132532976Y-133755380D01*
X132866309Y-134136333D01*
X132723452Y-134136333D01*
X132628214Y-134183952D01*
X132580595Y-134231571D01*
X132532976Y-134326809D01*
X132532976Y-134564904D01*
X132580595Y-134660142D01*
X132628214Y-134707761D01*
X132723452Y-134755380D01*
X133009166Y-134755380D01*
X133104404Y-134707761D01*
X133152023Y-134660142D01*
X131913928Y-133755380D02*
X131818690Y-133755380D01*
X131723452Y-133803000D01*
X131675833Y-133850619D01*
X131628214Y-133945857D01*
X131580595Y-134136333D01*
X131580595Y-134374428D01*
X131628214Y-134564904D01*
X131675833Y-134660142D01*
X131723452Y-134707761D01*
X131818690Y-134755380D01*
X131913928Y-134755380D01*
X132009166Y-134707761D01*
X132056785Y-134660142D01*
X132104404Y-134564904D01*
X132152023Y-134374428D01*
X132152023Y-134136333D01*
X132104404Y-133945857D01*
X132056785Y-133850619D01*
X132009166Y-133803000D01*
X131913928Y-133755380D01*
X110244285Y-115705380D02*
X110244285Y-114705380D01*
X109672857Y-115705380D02*
X110101428Y-115133952D01*
X109672857Y-114705380D02*
X110244285Y-115276809D01*
X108720476Y-115705380D02*
X109291904Y-115705380D01*
X109006190Y-115705380D02*
X109006190Y-114705380D01*
X109101428Y-114848238D01*
X109196666Y-114943476D01*
X109291904Y-114991095D01*
X107815714Y-114705380D02*
X108291904Y-114705380D01*
X108339523Y-115181571D01*
X108291904Y-115133952D01*
X108196666Y-115086333D01*
X107958571Y-115086333D01*
X107863333Y-115133952D01*
X107815714Y-115181571D01*
X107768095Y-115276809D01*
X107768095Y-115514904D01*
X107815714Y-115610142D01*
X107863333Y-115657761D01*
X107958571Y-115705380D01*
X108196666Y-115705380D01*
X108291904Y-115657761D01*
X108339523Y-115610142D01*
X281694285Y-115705380D02*
X281694285Y-114705380D01*
X281122857Y-115705380D02*
X281551428Y-115133952D01*
X281122857Y-114705380D02*
X281694285Y-115276809D01*
X280741904Y-114800619D02*
X280694285Y-114753000D01*
X280599047Y-114705380D01*
X280360952Y-114705380D01*
X280265714Y-114753000D01*
X280218095Y-114800619D01*
X280170476Y-114895857D01*
X280170476Y-114991095D01*
X280218095Y-115133952D01*
X280789523Y-115705380D01*
X280170476Y-115705380D01*
X279313333Y-115038714D02*
X279313333Y-115705380D01*
X279551428Y-114657761D02*
X279789523Y-115372047D01*
X279170476Y-115372047D01*
X176443095Y-96655380D02*
X176443095Y-95655380D01*
X175871666Y-96655380D02*
X176300238Y-96083952D01*
X175871666Y-95655380D02*
X176443095Y-96226809D01*
X174966904Y-95655380D02*
X175443095Y-95655380D01*
X175490714Y-96131571D01*
X175443095Y-96083952D01*
X175347857Y-96036333D01*
X175109761Y-96036333D01*
X175014523Y-96083952D01*
X174966904Y-96131571D01*
X174919285Y-96226809D01*
X174919285Y-96464904D01*
X174966904Y-96560142D01*
X175014523Y-96607761D01*
X175109761Y-96655380D01*
X175347857Y-96655380D01*
X175443095Y-96607761D01*
X175490714Y-96560142D01*
X257881785Y-153805380D02*
X257881785Y-152805380D01*
X257310357Y-153805380D02*
X257738928Y-153233952D01*
X257310357Y-152805380D02*
X257881785Y-153376809D01*
X256453214Y-153138714D02*
X256453214Y-153805380D01*
X256691309Y-152757761D02*
X256929404Y-153472047D01*
X256310357Y-153472047D01*
X255881785Y-153805380D02*
X255691309Y-153805380D01*
X255596071Y-153757761D01*
X255548452Y-153710142D01*
X255453214Y-153567285D01*
X255405595Y-153376809D01*
X255405595Y-152995857D01*
X255453214Y-152900619D01*
X255500833Y-152853000D01*
X255596071Y-152805380D01*
X255786547Y-152805380D01*
X255881785Y-152853000D01*
X255929404Y-152900619D01*
X255977023Y-152995857D01*
X255977023Y-153233952D01*
X255929404Y-153329190D01*
X255881785Y-153376809D01*
X255786547Y-153424428D01*
X255596071Y-153424428D01*
X255500833Y-153376809D01*
X255453214Y-153329190D01*
X255405595Y-153233952D01*
X219781785Y-153805380D02*
X219781785Y-152805380D01*
X219210357Y-153805380D02*
X219638928Y-153233952D01*
X219210357Y-152805380D02*
X219781785Y-153376809D01*
X218353214Y-153138714D02*
X218353214Y-153805380D01*
X218591309Y-152757761D02*
X218829404Y-153472047D01*
X218210357Y-153472047D01*
X217924642Y-152805380D02*
X217257976Y-152805380D01*
X217686547Y-153805380D01*
X315031785Y-153805380D02*
X315031785Y-152805380D01*
X314460357Y-153805380D02*
X314888928Y-153233952D01*
X314460357Y-152805380D02*
X315031785Y-153376809D01*
X313555595Y-152805380D02*
X314031785Y-152805380D01*
X314079404Y-153281571D01*
X314031785Y-153233952D01*
X313936547Y-153186333D01*
X313698452Y-153186333D01*
X313603214Y-153233952D01*
X313555595Y-153281571D01*
X313507976Y-153376809D01*
X313507976Y-153614904D01*
X313555595Y-153710142D01*
X313603214Y-153757761D01*
X313698452Y-153805380D01*
X313936547Y-153805380D01*
X314031785Y-153757761D01*
X314079404Y-153710142D01*
X313127023Y-152900619D02*
X313079404Y-152853000D01*
X312984166Y-152805380D01*
X312746071Y-152805380D01*
X312650833Y-152853000D01*
X312603214Y-152900619D01*
X312555595Y-152995857D01*
X312555595Y-153091095D01*
X312603214Y-153233952D01*
X313174642Y-153805380D01*
X312555595Y-153805380D01*
X257881785Y-172855380D02*
X257881785Y-171855380D01*
X257310357Y-172855380D02*
X257738928Y-172283952D01*
X257310357Y-171855380D02*
X257881785Y-172426809D01*
X256453214Y-171855380D02*
X256643690Y-171855380D01*
X256738928Y-171903000D01*
X256786547Y-171950619D01*
X256881785Y-172093476D01*
X256929404Y-172283952D01*
X256929404Y-172664904D01*
X256881785Y-172760142D01*
X256834166Y-172807761D01*
X256738928Y-172855380D01*
X256548452Y-172855380D01*
X256453214Y-172807761D01*
X256405595Y-172760142D01*
X256357976Y-172664904D01*
X256357976Y-172426809D01*
X256405595Y-172331571D01*
X256453214Y-172283952D01*
X256548452Y-172236333D01*
X256738928Y-172236333D01*
X256834166Y-172283952D01*
X256881785Y-172331571D01*
X256929404Y-172426809D01*
X255738928Y-171855380D02*
X255643690Y-171855380D01*
X255548452Y-171903000D01*
X255500833Y-171950619D01*
X255453214Y-172045857D01*
X255405595Y-172236333D01*
X255405595Y-172474428D01*
X255453214Y-172664904D01*
X255500833Y-172760142D01*
X255548452Y-172807761D01*
X255643690Y-172855380D01*
X255738928Y-172855380D01*
X255834166Y-172807761D01*
X255881785Y-172760142D01*
X255929404Y-172664904D01*
X255977023Y-172474428D01*
X255977023Y-172236333D01*
X255929404Y-172045857D01*
X255881785Y-171950619D01*
X255834166Y-171903000D01*
X255738928Y-171855380D01*
X124531785Y-153805380D02*
X124531785Y-152805380D01*
X123960357Y-153805380D02*
X124388928Y-153233952D01*
X123960357Y-152805380D02*
X124531785Y-153376809D01*
X123103214Y-153138714D02*
X123103214Y-153805380D01*
X123341309Y-152757761D02*
X123579404Y-153472047D01*
X122960357Y-153472047D01*
X122627023Y-152900619D02*
X122579404Y-152853000D01*
X122484166Y-152805380D01*
X122246071Y-152805380D01*
X122150833Y-152853000D01*
X122103214Y-152900619D01*
X122055595Y-152995857D01*
X122055595Y-153091095D01*
X122103214Y-153233952D01*
X122674642Y-153805380D01*
X122055595Y-153805380D01*
X119293095Y-96655380D02*
X119293095Y-95655380D01*
X118721666Y-96655380D02*
X119150238Y-96083952D01*
X118721666Y-95655380D02*
X119293095Y-96226809D01*
X118340714Y-95750619D02*
X118293095Y-95703000D01*
X118197857Y-95655380D01*
X117959761Y-95655380D01*
X117864523Y-95703000D01*
X117816904Y-95750619D01*
X117769285Y-95845857D01*
X117769285Y-95941095D01*
X117816904Y-96083952D01*
X118388333Y-96655380D01*
X117769285Y-96655380D01*
X295981785Y-172855380D02*
X295981785Y-171855380D01*
X295410357Y-172855380D02*
X295838928Y-172283952D01*
X295410357Y-171855380D02*
X295981785Y-172426809D01*
X294553214Y-171855380D02*
X294743690Y-171855380D01*
X294838928Y-171903000D01*
X294886547Y-171950619D01*
X294981785Y-172093476D01*
X295029404Y-172283952D01*
X295029404Y-172664904D01*
X294981785Y-172760142D01*
X294934166Y-172807761D01*
X294838928Y-172855380D01*
X294648452Y-172855380D01*
X294553214Y-172807761D01*
X294505595Y-172760142D01*
X294457976Y-172664904D01*
X294457976Y-172426809D01*
X294505595Y-172331571D01*
X294553214Y-172283952D01*
X294648452Y-172236333D01*
X294838928Y-172236333D01*
X294934166Y-172283952D01*
X294981785Y-172331571D01*
X295029404Y-172426809D01*
X294077023Y-171950619D02*
X294029404Y-171903000D01*
X293934166Y-171855380D01*
X293696071Y-171855380D01*
X293600833Y-171903000D01*
X293553214Y-171950619D01*
X293505595Y-172045857D01*
X293505595Y-172141095D01*
X293553214Y-172283952D01*
X294124642Y-172855380D01*
X293505595Y-172855380D01*
X88813035Y-134755380D02*
X88813035Y-133755380D01*
X88241607Y-134755380D02*
X88670178Y-134183952D01*
X88241607Y-133755380D02*
X88813035Y-134326809D01*
X87860654Y-133850619D02*
X87813035Y-133803000D01*
X87717797Y-133755380D01*
X87479702Y-133755380D01*
X87384464Y-133803000D01*
X87336845Y-133850619D01*
X87289226Y-133945857D01*
X87289226Y-134041095D01*
X87336845Y-134183952D01*
X87908273Y-134755380D01*
X87289226Y-134755380D01*
X86717797Y-134183952D02*
X86813035Y-134136333D01*
X86860654Y-134088714D01*
X86908273Y-133993476D01*
X86908273Y-133945857D01*
X86860654Y-133850619D01*
X86813035Y-133803000D01*
X86717797Y-133755380D01*
X86527321Y-133755380D01*
X86432083Y-133803000D01*
X86384464Y-133850619D01*
X86336845Y-133945857D01*
X86336845Y-133993476D01*
X86384464Y-134088714D01*
X86432083Y-134136333D01*
X86527321Y-134183952D01*
X86717797Y-134183952D01*
X86813035Y-134231571D01*
X86860654Y-134279190D01*
X86908273Y-134374428D01*
X86908273Y-134564904D01*
X86860654Y-134660142D01*
X86813035Y-134707761D01*
X86717797Y-134755380D01*
X86527321Y-134755380D01*
X86432083Y-134707761D01*
X86384464Y-134660142D01*
X86336845Y-134564904D01*
X86336845Y-134374428D01*
X86384464Y-134279190D01*
X86432083Y-134231571D01*
X86527321Y-134183952D01*
X319794285Y-115705380D02*
X319794285Y-114705380D01*
X319222857Y-115705380D02*
X319651428Y-115133952D01*
X319222857Y-114705380D02*
X319794285Y-115276809D01*
X318841904Y-114800619D02*
X318794285Y-114753000D01*
X318699047Y-114705380D01*
X318460952Y-114705380D01*
X318365714Y-114753000D01*
X318318095Y-114800619D01*
X318270476Y-114895857D01*
X318270476Y-114991095D01*
X318318095Y-115133952D01*
X318889523Y-115705380D01*
X318270476Y-115705380D01*
X317413333Y-114705380D02*
X317603809Y-114705380D01*
X317699047Y-114753000D01*
X317746666Y-114800619D01*
X317841904Y-114943476D01*
X317889523Y-115133952D01*
X317889523Y-115514904D01*
X317841904Y-115610142D01*
X317794285Y-115657761D01*
X317699047Y-115705380D01*
X317508571Y-115705380D01*
X317413333Y-115657761D01*
X317365714Y-115610142D01*
X317318095Y-115514904D01*
X317318095Y-115276809D01*
X317365714Y-115181571D01*
X317413333Y-115133952D01*
X317508571Y-115086333D01*
X317699047Y-115086333D01*
X317794285Y-115133952D01*
X317841904Y-115181571D01*
X317889523Y-115276809D01*
X205494285Y-115705380D02*
X205494285Y-114705380D01*
X204922857Y-115705380D02*
X205351428Y-115133952D01*
X204922857Y-114705380D02*
X205494285Y-115276809D01*
X204541904Y-114800619D02*
X204494285Y-114753000D01*
X204399047Y-114705380D01*
X204160952Y-114705380D01*
X204065714Y-114753000D01*
X204018095Y-114800619D01*
X203970476Y-114895857D01*
X203970476Y-114991095D01*
X204018095Y-115133952D01*
X204589523Y-115705380D01*
X203970476Y-115705380D01*
X203351428Y-114705380D02*
X203256190Y-114705380D01*
X203160952Y-114753000D01*
X203113333Y-114800619D01*
X203065714Y-114895857D01*
X203018095Y-115086333D01*
X203018095Y-115324428D01*
X203065714Y-115514904D01*
X203113333Y-115610142D01*
X203160952Y-115657761D01*
X203256190Y-115705380D01*
X203351428Y-115705380D01*
X203446666Y-115657761D01*
X203494285Y-115610142D01*
X203541904Y-115514904D01*
X203589523Y-115324428D01*
X203589523Y-115086333D01*
X203541904Y-114895857D01*
X203494285Y-114800619D01*
X203446666Y-114753000D01*
X203351428Y-114705380D01*
X334081785Y-172855380D02*
X334081785Y-171855380D01*
X333510357Y-172855380D02*
X333938928Y-172283952D01*
X333510357Y-171855380D02*
X334081785Y-172426809D01*
X332653214Y-171855380D02*
X332843690Y-171855380D01*
X332938928Y-171903000D01*
X332986547Y-171950619D01*
X333081785Y-172093476D01*
X333129404Y-172283952D01*
X333129404Y-172664904D01*
X333081785Y-172760142D01*
X333034166Y-172807761D01*
X332938928Y-172855380D01*
X332748452Y-172855380D01*
X332653214Y-172807761D01*
X332605595Y-172760142D01*
X332557976Y-172664904D01*
X332557976Y-172426809D01*
X332605595Y-172331571D01*
X332653214Y-172283952D01*
X332748452Y-172236333D01*
X332938928Y-172236333D01*
X333034166Y-172283952D01*
X333081785Y-172331571D01*
X333129404Y-172426809D01*
X331700833Y-172188714D02*
X331700833Y-172855380D01*
X331938928Y-171807761D02*
X332177023Y-172522047D01*
X331557976Y-172522047D01*
X210256785Y-134755380D02*
X210256785Y-133755380D01*
X209685357Y-134755380D02*
X210113928Y-134183952D01*
X209685357Y-133755380D02*
X210256785Y-134326809D01*
X209352023Y-133755380D02*
X208732976Y-133755380D01*
X209066309Y-134136333D01*
X208923452Y-134136333D01*
X208828214Y-134183952D01*
X208780595Y-134231571D01*
X208732976Y-134326809D01*
X208732976Y-134564904D01*
X208780595Y-134660142D01*
X208828214Y-134707761D01*
X208923452Y-134755380D01*
X209209166Y-134755380D01*
X209304404Y-134707761D01*
X209352023Y-134660142D01*
X207875833Y-134088714D02*
X207875833Y-134755380D01*
X208113928Y-133707761D02*
X208352023Y-134422047D01*
X207732976Y-134422047D01*
X81193095Y-90559380D02*
X81193095Y-89559380D01*
X80621666Y-90559380D02*
X81050238Y-89987952D01*
X80621666Y-89559380D02*
X81193095Y-90130809D01*
X80002619Y-89559380D02*
X79907380Y-89559380D01*
X79812142Y-89607000D01*
X79764523Y-89654619D01*
X79716904Y-89749857D01*
X79669285Y-89940333D01*
X79669285Y-90178428D01*
X79716904Y-90368904D01*
X79764523Y-90464142D01*
X79812142Y-90511761D01*
X79907380Y-90559380D01*
X80002619Y-90559380D01*
X80097857Y-90511761D01*
X80145476Y-90464142D01*
X80193095Y-90368904D01*
X80240714Y-90178428D01*
X80240714Y-89940333D01*
X80193095Y-89749857D01*
X80145476Y-89654619D01*
X80097857Y-89607000D01*
X80002619Y-89559380D01*
X214543095Y-96655380D02*
X214543095Y-95655380D01*
X213971666Y-96655380D02*
X214400238Y-96083952D01*
X213971666Y-95655380D02*
X214543095Y-96226809D01*
X213638333Y-95655380D02*
X212971666Y-95655380D01*
X213400238Y-96655380D01*
X238831785Y-153805380D02*
X238831785Y-152805380D01*
X238260357Y-153805380D02*
X238688928Y-153233952D01*
X238260357Y-152805380D02*
X238831785Y-153376809D01*
X237403214Y-153138714D02*
X237403214Y-153805380D01*
X237641309Y-152757761D02*
X237879404Y-153472047D01*
X237260357Y-153472047D01*
X236736547Y-153233952D02*
X236831785Y-153186333D01*
X236879404Y-153138714D01*
X236927023Y-153043476D01*
X236927023Y-152995857D01*
X236879404Y-152900619D01*
X236831785Y-152853000D01*
X236736547Y-152805380D01*
X236546071Y-152805380D01*
X236450833Y-152853000D01*
X236403214Y-152900619D01*
X236355595Y-152995857D01*
X236355595Y-153043476D01*
X236403214Y-153138714D01*
X236450833Y-153186333D01*
X236546071Y-153233952D01*
X236736547Y-153233952D01*
X236831785Y-153281571D01*
X236879404Y-153329190D01*
X236927023Y-153424428D01*
X236927023Y-153614904D01*
X236879404Y-153710142D01*
X236831785Y-153757761D01*
X236736547Y-153805380D01*
X236546071Y-153805380D01*
X236450833Y-153757761D01*
X236403214Y-153710142D01*
X236355595Y-153614904D01*
X236355595Y-153424428D01*
X236403214Y-153329190D01*
X236450833Y-153281571D01*
X236546071Y-153233952D01*
X191206785Y-134755380D02*
X191206785Y-133755380D01*
X190635357Y-134755380D02*
X191063928Y-134183952D01*
X190635357Y-133755380D02*
X191206785Y-134326809D01*
X190302023Y-133755380D02*
X189682976Y-133755380D01*
X190016309Y-134136333D01*
X189873452Y-134136333D01*
X189778214Y-134183952D01*
X189730595Y-134231571D01*
X189682976Y-134326809D01*
X189682976Y-134564904D01*
X189730595Y-134660142D01*
X189778214Y-134707761D01*
X189873452Y-134755380D01*
X190159166Y-134755380D01*
X190254404Y-134707761D01*
X190302023Y-134660142D01*
X189349642Y-133755380D02*
X188730595Y-133755380D01*
X189063928Y-134136333D01*
X188921071Y-134136333D01*
X188825833Y-134183952D01*
X188778214Y-134231571D01*
X188730595Y-134326809D01*
X188730595Y-134564904D01*
X188778214Y-134660142D01*
X188825833Y-134707761D01*
X188921071Y-134755380D01*
X189206785Y-134755380D01*
X189302023Y-134707761D01*
X189349642Y-134660142D01*
X315031785Y-172855380D02*
X315031785Y-171855380D01*
X314460357Y-172855380D02*
X314888928Y-172283952D01*
X314460357Y-171855380D02*
X315031785Y-172426809D01*
X313603214Y-171855380D02*
X313793690Y-171855380D01*
X313888928Y-171903000D01*
X313936547Y-171950619D01*
X314031785Y-172093476D01*
X314079404Y-172283952D01*
X314079404Y-172664904D01*
X314031785Y-172760142D01*
X313984166Y-172807761D01*
X313888928Y-172855380D01*
X313698452Y-172855380D01*
X313603214Y-172807761D01*
X313555595Y-172760142D01*
X313507976Y-172664904D01*
X313507976Y-172426809D01*
X313555595Y-172331571D01*
X313603214Y-172283952D01*
X313698452Y-172236333D01*
X313888928Y-172236333D01*
X313984166Y-172283952D01*
X314031785Y-172331571D01*
X314079404Y-172426809D01*
X313174642Y-171855380D02*
X312555595Y-171855380D01*
X312888928Y-172236333D01*
X312746071Y-172236333D01*
X312650833Y-172283952D01*
X312603214Y-172331571D01*
X312555595Y-172426809D01*
X312555595Y-172664904D01*
X312603214Y-172760142D01*
X312650833Y-172807761D01*
X312746071Y-172855380D01*
X313031785Y-172855380D01*
X313127023Y-172807761D01*
X313174642Y-172760142D01*
X148344285Y-115705380D02*
X148344285Y-114705380D01*
X147772857Y-115705380D02*
X148201428Y-115133952D01*
X147772857Y-114705380D02*
X148344285Y-115276809D01*
X146820476Y-115705380D02*
X147391904Y-115705380D01*
X147106190Y-115705380D02*
X147106190Y-114705380D01*
X147201428Y-114848238D01*
X147296666Y-114943476D01*
X147391904Y-114991095D01*
X146487142Y-114705380D02*
X145820476Y-114705380D01*
X146249047Y-115705380D01*
X248356785Y-134755380D02*
X248356785Y-133755380D01*
X247785357Y-134755380D02*
X248213928Y-134183952D01*
X247785357Y-133755380D02*
X248356785Y-134326809D01*
X247452023Y-133755380D02*
X246832976Y-133755380D01*
X247166309Y-134136333D01*
X247023452Y-134136333D01*
X246928214Y-134183952D01*
X246880595Y-134231571D01*
X246832976Y-134326809D01*
X246832976Y-134564904D01*
X246880595Y-134660142D01*
X246928214Y-134707761D01*
X247023452Y-134755380D01*
X247309166Y-134755380D01*
X247404404Y-134707761D01*
X247452023Y-134660142D01*
X245975833Y-133755380D02*
X246166309Y-133755380D01*
X246261547Y-133803000D01*
X246309166Y-133850619D01*
X246404404Y-133993476D01*
X246452023Y-134183952D01*
X246452023Y-134564904D01*
X246404404Y-134660142D01*
X246356785Y-134707761D01*
X246261547Y-134755380D01*
X246071071Y-134755380D01*
X245975833Y-134707761D01*
X245928214Y-134660142D01*
X245880595Y-134564904D01*
X245880595Y-134326809D01*
X245928214Y-134231571D01*
X245975833Y-134183952D01*
X246071071Y-134136333D01*
X246261547Y-134136333D01*
X246356785Y-134183952D01*
X246404404Y-134231571D01*
X246452023Y-134326809D01*
X195493095Y-96655380D02*
X195493095Y-95655380D01*
X194921666Y-96655380D02*
X195350238Y-96083952D01*
X194921666Y-95655380D02*
X195493095Y-96226809D01*
X194064523Y-95655380D02*
X194255000Y-95655380D01*
X194350238Y-95703000D01*
X194397857Y-95750619D01*
X194493095Y-95893476D01*
X194540714Y-96083952D01*
X194540714Y-96464904D01*
X194493095Y-96560142D01*
X194445476Y-96607761D01*
X194350238Y-96655380D01*
X194159761Y-96655380D01*
X194064523Y-96607761D01*
X194016904Y-96560142D01*
X193969285Y-96464904D01*
X193969285Y-96226809D01*
X194016904Y-96131571D01*
X194064523Y-96083952D01*
X194159761Y-96036333D01*
X194350238Y-96036333D01*
X194445476Y-96083952D01*
X194493095Y-96131571D01*
X194540714Y-96226809D01*
X186444285Y-115705380D02*
X186444285Y-114705380D01*
X185872857Y-115705380D02*
X186301428Y-115133952D01*
X185872857Y-114705380D02*
X186444285Y-115276809D01*
X184920476Y-115705380D02*
X185491904Y-115705380D01*
X185206190Y-115705380D02*
X185206190Y-114705380D01*
X185301428Y-114848238D01*
X185396666Y-114943476D01*
X185491904Y-114991095D01*
X184444285Y-115705380D02*
X184253809Y-115705380D01*
X184158571Y-115657761D01*
X184110952Y-115610142D01*
X184015714Y-115467285D01*
X183968095Y-115276809D01*
X183968095Y-114895857D01*
X184015714Y-114800619D01*
X184063333Y-114753000D01*
X184158571Y-114705380D01*
X184349047Y-114705380D01*
X184444285Y-114753000D01*
X184491904Y-114800619D01*
X184539523Y-114895857D01*
X184539523Y-115133952D01*
X184491904Y-115229190D01*
X184444285Y-115276809D01*
X184349047Y-115324428D01*
X184158571Y-115324428D01*
X184063333Y-115276809D01*
X184015714Y-115229190D01*
X183968095Y-115133952D01*
X229306785Y-134755380D02*
X229306785Y-133755380D01*
X228735357Y-134755380D02*
X229163928Y-134183952D01*
X228735357Y-133755380D02*
X229306785Y-134326809D01*
X228402023Y-133755380D02*
X227782976Y-133755380D01*
X228116309Y-134136333D01*
X227973452Y-134136333D01*
X227878214Y-134183952D01*
X227830595Y-134231571D01*
X227782976Y-134326809D01*
X227782976Y-134564904D01*
X227830595Y-134660142D01*
X227878214Y-134707761D01*
X227973452Y-134755380D01*
X228259166Y-134755380D01*
X228354404Y-134707761D01*
X228402023Y-134660142D01*
X226878214Y-133755380D02*
X227354404Y-133755380D01*
X227402023Y-134231571D01*
X227354404Y-134183952D01*
X227259166Y-134136333D01*
X227021071Y-134136333D01*
X226925833Y-134183952D01*
X226878214Y-134231571D01*
X226830595Y-134326809D01*
X226830595Y-134564904D01*
X226878214Y-134660142D01*
X226925833Y-134707761D01*
X227021071Y-134755380D01*
X227259166Y-134755380D01*
X227354404Y-134707761D01*
X227402023Y-134660142D01*
X262644285Y-115705380D02*
X262644285Y-114705380D01*
X262072857Y-115705380D02*
X262501428Y-115133952D01*
X262072857Y-114705380D02*
X262644285Y-115276809D01*
X261691904Y-114800619D02*
X261644285Y-114753000D01*
X261549047Y-114705380D01*
X261310952Y-114705380D01*
X261215714Y-114753000D01*
X261168095Y-114800619D01*
X261120476Y-114895857D01*
X261120476Y-114991095D01*
X261168095Y-115133952D01*
X261739523Y-115705380D01*
X261120476Y-115705380D01*
X260787142Y-114705380D02*
X260168095Y-114705380D01*
X260501428Y-115086333D01*
X260358571Y-115086333D01*
X260263333Y-115133952D01*
X260215714Y-115181571D01*
X260168095Y-115276809D01*
X260168095Y-115514904D01*
X260215714Y-115610142D01*
X260263333Y-115657761D01*
X260358571Y-115705380D01*
X260644285Y-115705380D01*
X260739523Y-115657761D01*
X260787142Y-115610142D01*
X162631785Y-153805380D02*
X162631785Y-152805380D01*
X162060357Y-153805380D02*
X162488928Y-153233952D01*
X162060357Y-152805380D02*
X162631785Y-153376809D01*
X161203214Y-153138714D02*
X161203214Y-153805380D01*
X161441309Y-152757761D02*
X161679404Y-153472047D01*
X161060357Y-153472047D01*
X160250833Y-153138714D02*
X160250833Y-153805380D01*
X160488928Y-152757761D02*
X160727023Y-153472047D01*
X160107976Y-153472047D01*
X97083630Y-102866964D02*
X96083630Y-102866964D01*
X96083630Y-103105059D01*
X96131250Y-103247916D01*
X96226488Y-103343154D01*
X96321726Y-103390773D01*
X96512202Y-103438392D01*
X96655059Y-103438392D01*
X96845535Y-103390773D01*
X96940773Y-103343154D01*
X97036011Y-103247916D01*
X97083630Y-103105059D01*
X97083630Y-102866964D01*
X96083630Y-104295535D02*
X96083630Y-104105059D01*
X96131250Y-104009821D01*
X96178869Y-103962202D01*
X96321726Y-103866964D01*
X96512202Y-103819345D01*
X96893154Y-103819345D01*
X96988392Y-103866964D01*
X97036011Y-103914583D01*
X97083630Y-104009821D01*
X97083630Y-104200297D01*
X97036011Y-104295535D01*
X96988392Y-104343154D01*
X96893154Y-104390773D01*
X96655059Y-104390773D01*
X96559821Y-104343154D01*
X96512202Y-104295535D01*
X96464583Y-104200297D01*
X96464583Y-104009821D01*
X96512202Y-103914583D01*
X96559821Y-103866964D01*
X96655059Y-103819345D01*
X96083630Y-105295535D02*
X96083630Y-104819345D01*
X96559821Y-104771726D01*
X96512202Y-104819345D01*
X96464583Y-104914583D01*
X96464583Y-105152678D01*
X96512202Y-105247916D01*
X96559821Y-105295535D01*
X96655059Y-105343154D01*
X96893154Y-105343154D01*
X96988392Y-105295535D01*
X97036011Y-105247916D01*
X97083630Y-105152678D01*
X97083630Y-104914583D01*
X97036011Y-104819345D01*
X96988392Y-104771726D01*
X271533630Y-112490714D02*
X270533630Y-112490714D01*
X270533630Y-112728809D01*
X270581250Y-112871666D01*
X270676488Y-112966904D01*
X270771726Y-113014523D01*
X270962202Y-113062142D01*
X271105059Y-113062142D01*
X271295535Y-113014523D01*
X271390773Y-112966904D01*
X271486011Y-112871666D01*
X271533630Y-112728809D01*
X271533630Y-112490714D01*
X270628869Y-113443095D02*
X270581250Y-113490714D01*
X270533630Y-113585952D01*
X270533630Y-113824047D01*
X270581250Y-113919285D01*
X270628869Y-113966904D01*
X270724107Y-114014523D01*
X270819345Y-114014523D01*
X270962202Y-113966904D01*
X271533630Y-113395476D01*
X271533630Y-114014523D01*
X270533630Y-114347857D02*
X270533630Y-114966904D01*
X270914583Y-114633571D01*
X270914583Y-114776428D01*
X270962202Y-114871666D01*
X271009821Y-114919285D01*
X271105059Y-114966904D01*
X271343154Y-114966904D01*
X271438392Y-114919285D01*
X271486011Y-114871666D01*
X271533630Y-114776428D01*
X271533630Y-114490714D01*
X271486011Y-114395476D01*
X271438392Y-114347857D01*
X304871130Y-169640714D02*
X303871130Y-169640714D01*
X303871130Y-169878809D01*
X303918750Y-170021666D01*
X304013988Y-170116904D01*
X304109226Y-170164523D01*
X304299702Y-170212142D01*
X304442559Y-170212142D01*
X304633035Y-170164523D01*
X304728273Y-170116904D01*
X304823511Y-170021666D01*
X304871130Y-169878809D01*
X304871130Y-169640714D01*
X303871130Y-171069285D02*
X303871130Y-170878809D01*
X303918750Y-170783571D01*
X303966369Y-170735952D01*
X304109226Y-170640714D01*
X304299702Y-170593095D01*
X304680654Y-170593095D01*
X304775892Y-170640714D01*
X304823511Y-170688333D01*
X304871130Y-170783571D01*
X304871130Y-170974047D01*
X304823511Y-171069285D01*
X304775892Y-171116904D01*
X304680654Y-171164523D01*
X304442559Y-171164523D01*
X304347321Y-171116904D01*
X304299702Y-171069285D01*
X304252083Y-170974047D01*
X304252083Y-170783571D01*
X304299702Y-170688333D01*
X304347321Y-170640714D01*
X304442559Y-170593095D01*
X303966369Y-171545476D02*
X303918750Y-171593095D01*
X303871130Y-171688333D01*
X303871130Y-171926428D01*
X303918750Y-172021666D01*
X303966369Y-172069285D01*
X304061607Y-172116904D01*
X304156845Y-172116904D01*
X304299702Y-172069285D01*
X304871130Y-171497857D01*
X304871130Y-172116904D01*
X200096130Y-131540714D02*
X199096130Y-131540714D01*
X199096130Y-131778809D01*
X199143750Y-131921666D01*
X199238988Y-132016904D01*
X199334226Y-132064523D01*
X199524702Y-132112142D01*
X199667559Y-132112142D01*
X199858035Y-132064523D01*
X199953273Y-132016904D01*
X200048511Y-131921666D01*
X200096130Y-131778809D01*
X200096130Y-131540714D01*
X199096130Y-132445476D02*
X199096130Y-133064523D01*
X199477083Y-132731190D01*
X199477083Y-132874047D01*
X199524702Y-132969285D01*
X199572321Y-133016904D01*
X199667559Y-133064523D01*
X199905654Y-133064523D01*
X200000892Y-133016904D01*
X200048511Y-132969285D01*
X200096130Y-132874047D01*
X200096130Y-132588333D01*
X200048511Y-132493095D01*
X200000892Y-132445476D01*
X199096130Y-133397857D02*
X199096130Y-134016904D01*
X199477083Y-133683571D01*
X199477083Y-133826428D01*
X199524702Y-133921666D01*
X199572321Y-133969285D01*
X199667559Y-134016904D01*
X199905654Y-134016904D01*
X200000892Y-133969285D01*
X200048511Y-133921666D01*
X200096130Y-133826428D01*
X200096130Y-133540714D01*
X200048511Y-133445476D01*
X200000892Y-133397857D01*
X169544940Y-168376190D02*
X169544940Y-168852380D01*
X169878273Y-167852380D02*
X169544940Y-168376190D01*
X169211607Y-167852380D01*
X168687797Y-167852380D02*
X168592559Y-167852380D01*
X168497321Y-167900000D01*
X168449702Y-167947619D01*
X168402083Y-168042857D01*
X168354464Y-168233333D01*
X168354464Y-168471428D01*
X168402083Y-168661904D01*
X168449702Y-168757142D01*
X168497321Y-168804761D01*
X168592559Y-168852380D01*
X168687797Y-168852380D01*
X168783035Y-168804761D01*
X168830654Y-168757142D01*
X168878273Y-168661904D01*
X168925892Y-168471428D01*
X168925892Y-168233333D01*
X168878273Y-168042857D01*
X168830654Y-167947619D01*
X168783035Y-167900000D01*
X168687797Y-167852380D01*
X214383630Y-112490714D02*
X213383630Y-112490714D01*
X213383630Y-112728809D01*
X213431250Y-112871666D01*
X213526488Y-112966904D01*
X213621726Y-113014523D01*
X213812202Y-113062142D01*
X213955059Y-113062142D01*
X214145535Y-113014523D01*
X214240773Y-112966904D01*
X214336011Y-112871666D01*
X214383630Y-112728809D01*
X214383630Y-112490714D01*
X213478869Y-113443095D02*
X213431250Y-113490714D01*
X213383630Y-113585952D01*
X213383630Y-113824047D01*
X213431250Y-113919285D01*
X213478869Y-113966904D01*
X213574107Y-114014523D01*
X213669345Y-114014523D01*
X213812202Y-113966904D01*
X214383630Y-113395476D01*
X214383630Y-114014523D01*
X213383630Y-114633571D02*
X213383630Y-114728809D01*
X213431250Y-114824047D01*
X213478869Y-114871666D01*
X213574107Y-114919285D01*
X213764583Y-114966904D01*
X214002678Y-114966904D01*
X214193154Y-114919285D01*
X214288392Y-114871666D01*
X214336011Y-114824047D01*
X214383630Y-114728809D01*
X214383630Y-114633571D01*
X214336011Y-114538333D01*
X214288392Y-114490714D01*
X214193154Y-114443095D01*
X214002678Y-114395476D01*
X213764583Y-114395476D01*
X213574107Y-114443095D01*
X213478869Y-114490714D01*
X213431250Y-114538333D01*
X213383630Y-114633571D01*
X91249404Y-103258630D02*
X91249404Y-104068154D01*
X91201785Y-104163392D01*
X91154166Y-104211011D01*
X91058928Y-104258630D01*
X90868452Y-104258630D01*
X90773214Y-104211011D01*
X90725595Y-104163392D01*
X90677976Y-104068154D01*
X90677976Y-103258630D01*
X89677976Y-104258630D02*
X90249404Y-104258630D01*
X89963690Y-104258630D02*
X89963690Y-103258630D01*
X90058928Y-103401488D01*
X90154166Y-103496726D01*
X90249404Y-103544345D01*
X290583630Y-112490714D02*
X289583630Y-112490714D01*
X289583630Y-112728809D01*
X289631250Y-112871666D01*
X289726488Y-112966904D01*
X289821726Y-113014523D01*
X290012202Y-113062142D01*
X290155059Y-113062142D01*
X290345535Y-113014523D01*
X290440773Y-112966904D01*
X290536011Y-112871666D01*
X290583630Y-112728809D01*
X290583630Y-112490714D01*
X289678869Y-113443095D02*
X289631250Y-113490714D01*
X289583630Y-113585952D01*
X289583630Y-113824047D01*
X289631250Y-113919285D01*
X289678869Y-113966904D01*
X289774107Y-114014523D01*
X289869345Y-114014523D01*
X290012202Y-113966904D01*
X290583630Y-113395476D01*
X290583630Y-114014523D01*
X289916964Y-114871666D02*
X290583630Y-114871666D01*
X289536011Y-114633571D02*
X290250297Y-114395476D01*
X290250297Y-115014523D01*
X276296130Y-131540714D02*
X275296130Y-131540714D01*
X275296130Y-131778809D01*
X275343750Y-131921666D01*
X275438988Y-132016904D01*
X275534226Y-132064523D01*
X275724702Y-132112142D01*
X275867559Y-132112142D01*
X276058035Y-132064523D01*
X276153273Y-132016904D01*
X276248511Y-131921666D01*
X276296130Y-131778809D01*
X276296130Y-131540714D01*
X275296130Y-132445476D02*
X275296130Y-133064523D01*
X275677083Y-132731190D01*
X275677083Y-132874047D01*
X275724702Y-132969285D01*
X275772321Y-133016904D01*
X275867559Y-133064523D01*
X276105654Y-133064523D01*
X276200892Y-133016904D01*
X276248511Y-132969285D01*
X276296130Y-132874047D01*
X276296130Y-132588333D01*
X276248511Y-132493095D01*
X276200892Y-132445476D01*
X275296130Y-133397857D02*
X275296130Y-134064523D01*
X276296130Y-133635952D01*
X309633630Y-112490714D02*
X308633630Y-112490714D01*
X308633630Y-112728809D01*
X308681250Y-112871666D01*
X308776488Y-112966904D01*
X308871726Y-113014523D01*
X309062202Y-113062142D01*
X309205059Y-113062142D01*
X309395535Y-113014523D01*
X309490773Y-112966904D01*
X309586011Y-112871666D01*
X309633630Y-112728809D01*
X309633630Y-112490714D01*
X308728869Y-113443095D02*
X308681250Y-113490714D01*
X308633630Y-113585952D01*
X308633630Y-113824047D01*
X308681250Y-113919285D01*
X308728869Y-113966904D01*
X308824107Y-114014523D01*
X308919345Y-114014523D01*
X309062202Y-113966904D01*
X309633630Y-113395476D01*
X309633630Y-114014523D01*
X308633630Y-114919285D02*
X308633630Y-114443095D01*
X309109821Y-114395476D01*
X309062202Y-114443095D01*
X309014583Y-114538333D01*
X309014583Y-114776428D01*
X309062202Y-114871666D01*
X309109821Y-114919285D01*
X309205059Y-114966904D01*
X309443154Y-114966904D01*
X309538392Y-114919285D01*
X309586011Y-114871666D01*
X309633630Y-114776428D01*
X309633630Y-114538333D01*
X309586011Y-114443095D01*
X309538392Y-114395476D01*
X347733630Y-93440714D02*
X346733630Y-93440714D01*
X346733630Y-93678809D01*
X346781250Y-93821666D01*
X346876488Y-93916904D01*
X346971726Y-93964523D01*
X347162202Y-94012142D01*
X347305059Y-94012142D01*
X347495535Y-93964523D01*
X347590773Y-93916904D01*
X347686011Y-93821666D01*
X347733630Y-93678809D01*
X347733630Y-93440714D01*
X347733630Y-94964523D02*
X347733630Y-94393095D01*
X347733630Y-94678809D02*
X346733630Y-94678809D01*
X346876488Y-94583571D01*
X346971726Y-94488333D01*
X347019345Y-94393095D01*
X346733630Y-95297857D02*
X346733630Y-95916904D01*
X347114583Y-95583571D01*
X347114583Y-95726428D01*
X347162202Y-95821666D01*
X347209821Y-95869285D01*
X347305059Y-95916904D01*
X347543154Y-95916904D01*
X347638392Y-95869285D01*
X347686011Y-95821666D01*
X347733630Y-95726428D01*
X347733630Y-95440714D01*
X347686011Y-95345476D01*
X347638392Y-95297857D01*
X285821130Y-169640714D02*
X284821130Y-169640714D01*
X284821130Y-169878809D01*
X284868750Y-170021666D01*
X284963988Y-170116904D01*
X285059226Y-170164523D01*
X285249702Y-170212142D01*
X285392559Y-170212142D01*
X285583035Y-170164523D01*
X285678273Y-170116904D01*
X285773511Y-170021666D01*
X285821130Y-169878809D01*
X285821130Y-169640714D01*
X284821130Y-171069285D02*
X284821130Y-170878809D01*
X284868750Y-170783571D01*
X284916369Y-170735952D01*
X285059226Y-170640714D01*
X285249702Y-170593095D01*
X285630654Y-170593095D01*
X285725892Y-170640714D01*
X285773511Y-170688333D01*
X285821130Y-170783571D01*
X285821130Y-170974047D01*
X285773511Y-171069285D01*
X285725892Y-171116904D01*
X285630654Y-171164523D01*
X285392559Y-171164523D01*
X285297321Y-171116904D01*
X285249702Y-171069285D01*
X285202083Y-170974047D01*
X285202083Y-170783571D01*
X285249702Y-170688333D01*
X285297321Y-170640714D01*
X285392559Y-170593095D01*
X285821130Y-172116904D02*
X285821130Y-171545476D01*
X285821130Y-171831190D02*
X284821130Y-171831190D01*
X284963988Y-171735952D01*
X285059226Y-171640714D01*
X285106845Y-171545476D01*
X204858630Y-93916904D02*
X203858630Y-93916904D01*
X203858630Y-94155000D01*
X203906250Y-94297857D01*
X204001488Y-94393095D01*
X204096726Y-94440714D01*
X204287202Y-94488333D01*
X204430059Y-94488333D01*
X204620535Y-94440714D01*
X204715773Y-94393095D01*
X204811011Y-94297857D01*
X204858630Y-94155000D01*
X204858630Y-93916904D01*
X203858630Y-95345476D02*
X203858630Y-95155000D01*
X203906250Y-95059761D01*
X203953869Y-95012142D01*
X204096726Y-94916904D01*
X204287202Y-94869285D01*
X204668154Y-94869285D01*
X204763392Y-94916904D01*
X204811011Y-94964523D01*
X204858630Y-95059761D01*
X204858630Y-95250238D01*
X204811011Y-95345476D01*
X204763392Y-95393095D01*
X204668154Y-95440714D01*
X204430059Y-95440714D01*
X204334821Y-95393095D01*
X204287202Y-95345476D01*
X204239583Y-95250238D01*
X204239583Y-95059761D01*
X204287202Y-94964523D01*
X204334821Y-94916904D01*
X204430059Y-94869285D01*
X129008035Y-135802380D02*
X129008035Y-134802380D01*
X128769940Y-134802380D01*
X128627083Y-134850000D01*
X128531845Y-134945238D01*
X128484226Y-135040476D01*
X128436607Y-135230952D01*
X128436607Y-135373809D01*
X128484226Y-135564285D01*
X128531845Y-135659523D01*
X128627083Y-135754761D01*
X128769940Y-135802380D01*
X129008035Y-135802380D01*
X128055654Y-134897619D02*
X128008035Y-134850000D01*
X127912797Y-134802380D01*
X127674702Y-134802380D01*
X127579464Y-134850000D01*
X127531845Y-134897619D01*
X127484226Y-134992857D01*
X127484226Y-135088095D01*
X127531845Y-135230952D01*
X128103273Y-135802380D01*
X127484226Y-135802380D01*
X126912797Y-135230952D02*
X127008035Y-135183333D01*
X127055654Y-135135714D01*
X127103273Y-135040476D01*
X127103273Y-134992857D01*
X127055654Y-134897619D01*
X127008035Y-134850000D01*
X126912797Y-134802380D01*
X126722321Y-134802380D01*
X126627083Y-134850000D01*
X126579464Y-134897619D01*
X126531845Y-134992857D01*
X126531845Y-135040476D01*
X126579464Y-135135714D01*
X126627083Y-135183333D01*
X126722321Y-135230952D01*
X126912797Y-135230952D01*
X127008035Y-135278571D01*
X127055654Y-135326190D01*
X127103273Y-135421428D01*
X127103273Y-135611904D01*
X127055654Y-135707142D01*
X127008035Y-135754761D01*
X126912797Y-135802380D01*
X126722321Y-135802380D01*
X126627083Y-135754761D01*
X126579464Y-135707142D01*
X126531845Y-135611904D01*
X126531845Y-135421428D01*
X126579464Y-135326190D01*
X126627083Y-135278571D01*
X126722321Y-135230952D01*
X85132380Y-88733333D02*
X84656190Y-88400000D01*
X85132380Y-88161904D02*
X84132380Y-88161904D01*
X84132380Y-88542857D01*
X84180000Y-88638095D01*
X84227619Y-88685714D01*
X84322857Y-88733333D01*
X84465714Y-88733333D01*
X84560952Y-88685714D01*
X84608571Y-88638095D01*
X84656190Y-88542857D01*
X84656190Y-88161904D01*
X84227619Y-89114285D02*
X84180000Y-89161904D01*
X84132380Y-89257142D01*
X84132380Y-89495238D01*
X84180000Y-89590476D01*
X84227619Y-89638095D01*
X84322857Y-89685714D01*
X84418095Y-89685714D01*
X84560952Y-89638095D01*
X85132380Y-89066666D01*
X85132380Y-89685714D01*
X233433630Y-112490714D02*
X232433630Y-112490714D01*
X232433630Y-112728809D01*
X232481250Y-112871666D01*
X232576488Y-112966904D01*
X232671726Y-113014523D01*
X232862202Y-113062142D01*
X233005059Y-113062142D01*
X233195535Y-113014523D01*
X233290773Y-112966904D01*
X233386011Y-112871666D01*
X233433630Y-112728809D01*
X233433630Y-112490714D01*
X232528869Y-113443095D02*
X232481250Y-113490714D01*
X232433630Y-113585952D01*
X232433630Y-113824047D01*
X232481250Y-113919285D01*
X232528869Y-113966904D01*
X232624107Y-114014523D01*
X232719345Y-114014523D01*
X232862202Y-113966904D01*
X233433630Y-113395476D01*
X233433630Y-114014523D01*
X233433630Y-114966904D02*
X233433630Y-114395476D01*
X233433630Y-114681190D02*
X232433630Y-114681190D01*
X232576488Y-114585952D01*
X232671726Y-114490714D01*
X232719345Y-114395476D01*
X114244345Y-94752380D02*
X114244345Y-93752380D01*
X114006250Y-93752380D01*
X113863392Y-93800000D01*
X113768154Y-93895238D01*
X113720535Y-93990476D01*
X113672916Y-94180952D01*
X113672916Y-94323809D01*
X113720535Y-94514285D01*
X113768154Y-94609523D01*
X113863392Y-94704761D01*
X114006250Y-94752380D01*
X114244345Y-94752380D01*
X112720535Y-94752380D02*
X113291964Y-94752380D01*
X113006250Y-94752380D02*
X113006250Y-93752380D01*
X113101488Y-93895238D01*
X113196726Y-93990476D01*
X113291964Y-94038095D01*
X209621130Y-150590714D02*
X208621130Y-150590714D01*
X208621130Y-150828809D01*
X208668750Y-150971666D01*
X208763988Y-151066904D01*
X208859226Y-151114523D01*
X209049702Y-151162142D01*
X209192559Y-151162142D01*
X209383035Y-151114523D01*
X209478273Y-151066904D01*
X209573511Y-150971666D01*
X209621130Y-150828809D01*
X209621130Y-150590714D01*
X208954464Y-152019285D02*
X209621130Y-152019285D01*
X208573511Y-151781190D02*
X209287797Y-151543095D01*
X209287797Y-152162142D01*
X208621130Y-152971666D02*
X208621130Y-152781190D01*
X208668750Y-152685952D01*
X208716369Y-152638333D01*
X208859226Y-152543095D01*
X209049702Y-152495476D01*
X209430654Y-152495476D01*
X209525892Y-152543095D01*
X209573511Y-152590714D01*
X209621130Y-152685952D01*
X209621130Y-152876428D01*
X209573511Y-152971666D01*
X209525892Y-153019285D01*
X209430654Y-153066904D01*
X209192559Y-153066904D01*
X209097321Y-153019285D01*
X209049702Y-152971666D01*
X209002083Y-152876428D01*
X209002083Y-152685952D01*
X209049702Y-152590714D01*
X209097321Y-152543095D01*
X209192559Y-152495476D01*
X352496130Y-112490714D02*
X351496130Y-112490714D01*
X351496130Y-112728809D01*
X351543750Y-112871666D01*
X351638988Y-112966904D01*
X351734226Y-113014523D01*
X351924702Y-113062142D01*
X352067559Y-113062142D01*
X352258035Y-113014523D01*
X352353273Y-112966904D01*
X352448511Y-112871666D01*
X352496130Y-112728809D01*
X352496130Y-112490714D01*
X351591369Y-113443095D02*
X351543750Y-113490714D01*
X351496130Y-113585952D01*
X351496130Y-113824047D01*
X351543750Y-113919285D01*
X351591369Y-113966904D01*
X351686607Y-114014523D01*
X351781845Y-114014523D01*
X351924702Y-113966904D01*
X352496130Y-113395476D01*
X352496130Y-114014523D01*
X351496130Y-114347857D02*
X351496130Y-115014523D01*
X352496130Y-114585952D01*
X185808630Y-93916904D02*
X184808630Y-93916904D01*
X184808630Y-94155000D01*
X184856250Y-94297857D01*
X184951488Y-94393095D01*
X185046726Y-94440714D01*
X185237202Y-94488333D01*
X185380059Y-94488333D01*
X185570535Y-94440714D01*
X185665773Y-94393095D01*
X185761011Y-94297857D01*
X185808630Y-94155000D01*
X185808630Y-93916904D01*
X184808630Y-95393095D02*
X184808630Y-94916904D01*
X185284821Y-94869285D01*
X185237202Y-94916904D01*
X185189583Y-95012142D01*
X185189583Y-95250238D01*
X185237202Y-95345476D01*
X185284821Y-95393095D01*
X185380059Y-95440714D01*
X185618154Y-95440714D01*
X185713392Y-95393095D01*
X185761011Y-95345476D01*
X185808630Y-95250238D01*
X185808630Y-95012142D01*
X185761011Y-94916904D01*
X185713392Y-94869285D01*
X97798571Y-103647916D02*
X97798571Y-103314583D01*
X98322380Y-103314583D02*
X97322380Y-103314583D01*
X97322380Y-103790773D01*
X97322380Y-104362202D02*
X97322380Y-104457440D01*
X97370000Y-104552678D01*
X97417619Y-104600297D01*
X97512857Y-104647916D01*
X97703333Y-104695535D01*
X97941428Y-104695535D01*
X98131904Y-104647916D01*
X98227142Y-104600297D01*
X98274761Y-104552678D01*
X98322380Y-104457440D01*
X98322380Y-104362202D01*
X98274761Y-104266964D01*
X98227142Y-104219345D01*
X98131904Y-104171726D01*
X97941428Y-104124107D01*
X97703333Y-104124107D01*
X97512857Y-104171726D01*
X97417619Y-104219345D01*
X97370000Y-104266964D01*
X97322380Y-104362202D01*
X245339880Y-169640714D02*
X244339880Y-169640714D01*
X244339880Y-169878809D01*
X244387500Y-170021666D01*
X244482738Y-170116904D01*
X244577976Y-170164523D01*
X244768452Y-170212142D01*
X244911309Y-170212142D01*
X245101785Y-170164523D01*
X245197023Y-170116904D01*
X245292261Y-170021666D01*
X245339880Y-169878809D01*
X245339880Y-169640714D01*
X244339880Y-171116904D02*
X244339880Y-170640714D01*
X244816071Y-170593095D01*
X244768452Y-170640714D01*
X244720833Y-170735952D01*
X244720833Y-170974047D01*
X244768452Y-171069285D01*
X244816071Y-171116904D01*
X244911309Y-171164523D01*
X245149404Y-171164523D01*
X245244642Y-171116904D01*
X245292261Y-171069285D01*
X245339880Y-170974047D01*
X245339880Y-170735952D01*
X245292261Y-170640714D01*
X245244642Y-170593095D01*
X245339880Y-171640714D02*
X245339880Y-171831190D01*
X245292261Y-171926428D01*
X245244642Y-171974047D01*
X245101785Y-172069285D01*
X244911309Y-172116904D01*
X244530357Y-172116904D01*
X244435119Y-172069285D01*
X244387500Y-172021666D01*
X244339880Y-171926428D01*
X244339880Y-171735952D01*
X244387500Y-171640714D01*
X244435119Y-171593095D01*
X244530357Y-171545476D01*
X244768452Y-171545476D01*
X244863690Y-171593095D01*
X244911309Y-171640714D01*
X244958928Y-171735952D01*
X244958928Y-171926428D01*
X244911309Y-172021666D01*
X244863690Y-172069285D01*
X244768452Y-172116904D01*
X107227380Y-169640714D02*
X106227380Y-169640714D01*
X106227380Y-169878809D01*
X106275000Y-170021666D01*
X106370238Y-170116904D01*
X106465476Y-170164523D01*
X106655952Y-170212142D01*
X106798809Y-170212142D01*
X106989285Y-170164523D01*
X107084523Y-170116904D01*
X107179761Y-170021666D01*
X107227380Y-169878809D01*
X107227380Y-169640714D01*
X106227380Y-171116904D02*
X106227380Y-170640714D01*
X106703571Y-170593095D01*
X106655952Y-170640714D01*
X106608333Y-170735952D01*
X106608333Y-170974047D01*
X106655952Y-171069285D01*
X106703571Y-171116904D01*
X106798809Y-171164523D01*
X107036904Y-171164523D01*
X107132142Y-171116904D01*
X107179761Y-171069285D01*
X107227380Y-170974047D01*
X107227380Y-170735952D01*
X107179761Y-170640714D01*
X107132142Y-170593095D01*
X106560714Y-172021666D02*
X107227380Y-172021666D01*
X106179761Y-171783571D02*
X106894047Y-171545476D01*
X106894047Y-172164523D01*
X128658630Y-93916904D02*
X127658630Y-93916904D01*
X127658630Y-94155000D01*
X127706250Y-94297857D01*
X127801488Y-94393095D01*
X127896726Y-94440714D01*
X128087202Y-94488333D01*
X128230059Y-94488333D01*
X128420535Y-94440714D01*
X128515773Y-94393095D01*
X128611011Y-94297857D01*
X128658630Y-94155000D01*
X128658630Y-93916904D01*
X127753869Y-94869285D02*
X127706250Y-94916904D01*
X127658630Y-95012142D01*
X127658630Y-95250238D01*
X127706250Y-95345476D01*
X127753869Y-95393095D01*
X127849107Y-95440714D01*
X127944345Y-95440714D01*
X128087202Y-95393095D01*
X128658630Y-94821666D01*
X128658630Y-95440714D01*
X166102142Y-175252083D02*
X166149761Y-175204464D01*
X166197380Y-175061607D01*
X166197380Y-174966369D01*
X166149761Y-174823511D01*
X166054523Y-174728273D01*
X165959285Y-174680654D01*
X165768809Y-174633035D01*
X165625952Y-174633035D01*
X165435476Y-174680654D01*
X165340238Y-174728273D01*
X165245000Y-174823511D01*
X165197380Y-174966369D01*
X165197380Y-175061607D01*
X165245000Y-175204464D01*
X165292619Y-175252083D01*
X165292619Y-175633035D02*
X165245000Y-175680654D01*
X165197380Y-175775892D01*
X165197380Y-176013988D01*
X165245000Y-176109226D01*
X165292619Y-176156845D01*
X165387857Y-176204464D01*
X165483095Y-176204464D01*
X165625952Y-176156845D01*
X166197380Y-175585416D01*
X166197380Y-176204464D01*
X147708630Y-169640714D02*
X146708630Y-169640714D01*
X146708630Y-169878809D01*
X146756250Y-170021666D01*
X146851488Y-170116904D01*
X146946726Y-170164523D01*
X147137202Y-170212142D01*
X147280059Y-170212142D01*
X147470535Y-170164523D01*
X147565773Y-170116904D01*
X147661011Y-170021666D01*
X147708630Y-169878809D01*
X147708630Y-169640714D01*
X146708630Y-171116904D02*
X146708630Y-170640714D01*
X147184821Y-170593095D01*
X147137202Y-170640714D01*
X147089583Y-170735952D01*
X147089583Y-170974047D01*
X147137202Y-171069285D01*
X147184821Y-171116904D01*
X147280059Y-171164523D01*
X147518154Y-171164523D01*
X147613392Y-171116904D01*
X147661011Y-171069285D01*
X147708630Y-170974047D01*
X147708630Y-170735952D01*
X147661011Y-170640714D01*
X147613392Y-170593095D01*
X146708630Y-172021666D02*
X146708630Y-171831190D01*
X146756250Y-171735952D01*
X146803869Y-171688333D01*
X146946726Y-171593095D01*
X147137202Y-171545476D01*
X147518154Y-171545476D01*
X147613392Y-171593095D01*
X147661011Y-171640714D01*
X147708630Y-171735952D01*
X147708630Y-171926428D01*
X147661011Y-172021666D01*
X147613392Y-172069285D01*
X147518154Y-172116904D01*
X147280059Y-172116904D01*
X147184821Y-172069285D01*
X147137202Y-172021666D01*
X147089583Y-171926428D01*
X147089583Y-171735952D01*
X147137202Y-171640714D01*
X147184821Y-171593095D01*
X147280059Y-171545476D01*
X323921130Y-169640714D02*
X322921130Y-169640714D01*
X322921130Y-169878809D01*
X322968750Y-170021666D01*
X323063988Y-170116904D01*
X323159226Y-170164523D01*
X323349702Y-170212142D01*
X323492559Y-170212142D01*
X323683035Y-170164523D01*
X323778273Y-170116904D01*
X323873511Y-170021666D01*
X323921130Y-169878809D01*
X323921130Y-169640714D01*
X322921130Y-171069285D02*
X322921130Y-170878809D01*
X322968750Y-170783571D01*
X323016369Y-170735952D01*
X323159226Y-170640714D01*
X323349702Y-170593095D01*
X323730654Y-170593095D01*
X323825892Y-170640714D01*
X323873511Y-170688333D01*
X323921130Y-170783571D01*
X323921130Y-170974047D01*
X323873511Y-171069285D01*
X323825892Y-171116904D01*
X323730654Y-171164523D01*
X323492559Y-171164523D01*
X323397321Y-171116904D01*
X323349702Y-171069285D01*
X323302083Y-170974047D01*
X323302083Y-170783571D01*
X323349702Y-170688333D01*
X323397321Y-170640714D01*
X323492559Y-170593095D01*
X322921130Y-171497857D02*
X322921130Y-172116904D01*
X323302083Y-171783571D01*
X323302083Y-171926428D01*
X323349702Y-172021666D01*
X323397321Y-172069285D01*
X323492559Y-172116904D01*
X323730654Y-172116904D01*
X323825892Y-172069285D01*
X323873511Y-172021666D01*
X323921130Y-171926428D01*
X323921130Y-171640714D01*
X323873511Y-171545476D01*
X323825892Y-171497857D01*
X176974404Y-169014880D02*
X176974404Y-169824404D01*
X176926785Y-169919642D01*
X176879166Y-169967261D01*
X176783928Y-170014880D01*
X176593452Y-170014880D01*
X176498214Y-169967261D01*
X176450595Y-169919642D01*
X176402976Y-169824404D01*
X176402976Y-169014880D01*
X175736309Y-169014880D02*
X175641071Y-169014880D01*
X175545833Y-169062500D01*
X175498214Y-169110119D01*
X175450595Y-169205357D01*
X175402976Y-169395833D01*
X175402976Y-169633928D01*
X175450595Y-169824404D01*
X175498214Y-169919642D01*
X175545833Y-169967261D01*
X175641071Y-170014880D01*
X175736309Y-170014880D01*
X175831547Y-169967261D01*
X175879166Y-169919642D01*
X175926785Y-169824404D01*
X175974404Y-169633928D01*
X175974404Y-169395833D01*
X175926785Y-169205357D01*
X175879166Y-169110119D01*
X175831547Y-169062500D01*
X175736309Y-169014880D01*
X102464880Y-150590714D02*
X101464880Y-150590714D01*
X101464880Y-150828809D01*
X101512500Y-150971666D01*
X101607738Y-151066904D01*
X101702976Y-151114523D01*
X101893452Y-151162142D01*
X102036309Y-151162142D01*
X102226785Y-151114523D01*
X102322023Y-151066904D01*
X102417261Y-150971666D01*
X102464880Y-150828809D01*
X102464880Y-150590714D01*
X101798214Y-152019285D02*
X102464880Y-152019285D01*
X101417261Y-151781190D02*
X102131547Y-151543095D01*
X102131547Y-152162142D01*
X102464880Y-153066904D02*
X102464880Y-152495476D01*
X102464880Y-152781190D02*
X101464880Y-152781190D01*
X101607738Y-152685952D01*
X101702976Y-152590714D01*
X101750595Y-152495476D01*
X345352380Y-131540714D02*
X344352380Y-131540714D01*
X344352380Y-131778809D01*
X344400000Y-131921666D01*
X344495238Y-132016904D01*
X344590476Y-132064523D01*
X344780952Y-132112142D01*
X344923809Y-132112142D01*
X345114285Y-132064523D01*
X345209523Y-132016904D01*
X345304761Y-131921666D01*
X345352380Y-131778809D01*
X345352380Y-131540714D01*
X344685714Y-132969285D02*
X345352380Y-132969285D01*
X344304761Y-132731190D02*
X345019047Y-132493095D01*
X345019047Y-133112142D01*
X344352380Y-133683571D02*
X344352380Y-133778809D01*
X344400000Y-133874047D01*
X344447619Y-133921666D01*
X344542857Y-133969285D01*
X344733333Y-134016904D01*
X344971428Y-134016904D01*
X345161904Y-133969285D01*
X345257142Y-133921666D01*
X345304761Y-133874047D01*
X345352380Y-133778809D01*
X345352380Y-133683571D01*
X345304761Y-133588333D01*
X345257142Y-133540714D01*
X345161904Y-133493095D01*
X344971428Y-133445476D01*
X344733333Y-133445476D01*
X344542857Y-133493095D01*
X344447619Y-133540714D01*
X344400000Y-133588333D01*
X344352380Y-133683571D01*
X247721130Y-150590714D02*
X246721130Y-150590714D01*
X246721130Y-150828809D01*
X246768750Y-150971666D01*
X246863988Y-151066904D01*
X246959226Y-151114523D01*
X247149702Y-151162142D01*
X247292559Y-151162142D01*
X247483035Y-151114523D01*
X247578273Y-151066904D01*
X247673511Y-150971666D01*
X247721130Y-150828809D01*
X247721130Y-150590714D01*
X247054464Y-152019285D02*
X247721130Y-152019285D01*
X246673511Y-151781190D02*
X247387797Y-151543095D01*
X247387797Y-152162142D01*
X247149702Y-152685952D02*
X247102083Y-152590714D01*
X247054464Y-152543095D01*
X246959226Y-152495476D01*
X246911607Y-152495476D01*
X246816369Y-152543095D01*
X246768750Y-152590714D01*
X246721130Y-152685952D01*
X246721130Y-152876428D01*
X246768750Y-152971666D01*
X246816369Y-153019285D01*
X246911607Y-153066904D01*
X246959226Y-153066904D01*
X247054464Y-153019285D01*
X247102083Y-152971666D01*
X247149702Y-152876428D01*
X247149702Y-152685952D01*
X247197321Y-152590714D01*
X247244940Y-152543095D01*
X247340178Y-152495476D01*
X247530654Y-152495476D01*
X247625892Y-152543095D01*
X247673511Y-152590714D01*
X247721130Y-152685952D01*
X247721130Y-152876428D01*
X247673511Y-152971666D01*
X247625892Y-153019285D01*
X247530654Y-153066904D01*
X247340178Y-153066904D01*
X247244940Y-153019285D01*
X247197321Y-152971666D01*
X247149702Y-152876428D01*
X161996130Y-131540714D02*
X160996130Y-131540714D01*
X160996130Y-131778809D01*
X161043750Y-131921666D01*
X161138988Y-132016904D01*
X161234226Y-132064523D01*
X161424702Y-132112142D01*
X161567559Y-132112142D01*
X161758035Y-132064523D01*
X161853273Y-132016904D01*
X161948511Y-131921666D01*
X161996130Y-131778809D01*
X161996130Y-131540714D01*
X160996130Y-132445476D02*
X160996130Y-133064523D01*
X161377083Y-132731190D01*
X161377083Y-132874047D01*
X161424702Y-132969285D01*
X161472321Y-133016904D01*
X161567559Y-133064523D01*
X161805654Y-133064523D01*
X161900892Y-133016904D01*
X161948511Y-132969285D01*
X161996130Y-132874047D01*
X161996130Y-132588333D01*
X161948511Y-132493095D01*
X161900892Y-132445476D01*
X161996130Y-134016904D02*
X161996130Y-133445476D01*
X161996130Y-133731190D02*
X160996130Y-133731190D01*
X161138988Y-133635952D01*
X161234226Y-133540714D01*
X161281845Y-133445476D01*
X228671130Y-150590714D02*
X227671130Y-150590714D01*
X227671130Y-150828809D01*
X227718750Y-150971666D01*
X227813988Y-151066904D01*
X227909226Y-151114523D01*
X228099702Y-151162142D01*
X228242559Y-151162142D01*
X228433035Y-151114523D01*
X228528273Y-151066904D01*
X228623511Y-150971666D01*
X228671130Y-150828809D01*
X228671130Y-150590714D01*
X228004464Y-152019285D02*
X228671130Y-152019285D01*
X227623511Y-151781190D02*
X228337797Y-151543095D01*
X228337797Y-152162142D01*
X227671130Y-152447857D02*
X227671130Y-153114523D01*
X228671130Y-152685952D01*
X176283630Y-112490714D02*
X175283630Y-112490714D01*
X175283630Y-112728809D01*
X175331250Y-112871666D01*
X175426488Y-112966904D01*
X175521726Y-113014523D01*
X175712202Y-113062142D01*
X175855059Y-113062142D01*
X176045535Y-113014523D01*
X176140773Y-112966904D01*
X176236011Y-112871666D01*
X176283630Y-112728809D01*
X176283630Y-112490714D01*
X176283630Y-114014523D02*
X176283630Y-113443095D01*
X176283630Y-113728809D02*
X175283630Y-113728809D01*
X175426488Y-113633571D01*
X175521726Y-113538333D01*
X175569345Y-113443095D01*
X175712202Y-114585952D02*
X175664583Y-114490714D01*
X175616964Y-114443095D01*
X175521726Y-114395476D01*
X175474107Y-114395476D01*
X175378869Y-114443095D01*
X175331250Y-114490714D01*
X175283630Y-114585952D01*
X175283630Y-114776428D01*
X175331250Y-114871666D01*
X175378869Y-114919285D01*
X175474107Y-114966904D01*
X175521726Y-114966904D01*
X175616964Y-114919285D01*
X175664583Y-114871666D01*
X175712202Y-114776428D01*
X175712202Y-114585952D01*
X175759821Y-114490714D01*
X175807440Y-114443095D01*
X175902678Y-114395476D01*
X176093154Y-114395476D01*
X176188392Y-114443095D01*
X176236011Y-114490714D01*
X176283630Y-114585952D01*
X176283630Y-114776428D01*
X176236011Y-114871666D01*
X176188392Y-114919285D01*
X176093154Y-114966904D01*
X175902678Y-114966904D01*
X175807440Y-114919285D01*
X175759821Y-114871666D01*
X175712202Y-114776428D01*
X351019880Y-164809880D02*
X351019880Y-163809880D01*
X350591309Y-164762261D02*
X350448452Y-164809880D01*
X350210357Y-164809880D01*
X350115119Y-164762261D01*
X350067500Y-164714642D01*
X350019880Y-164619404D01*
X350019880Y-164524166D01*
X350067500Y-164428928D01*
X350115119Y-164381309D01*
X350210357Y-164333690D01*
X350400833Y-164286071D01*
X350496071Y-164238452D01*
X350543690Y-164190833D01*
X350591309Y-164095595D01*
X350591309Y-164000357D01*
X350543690Y-163905119D01*
X350496071Y-163857500D01*
X350400833Y-163809880D01*
X350162738Y-163809880D01*
X350019880Y-163857500D01*
X349591309Y-164809880D02*
X349591309Y-163809880D01*
X349210357Y-163809880D01*
X349115119Y-163857500D01*
X349067500Y-163905119D01*
X349019880Y-164000357D01*
X349019880Y-164143214D01*
X349067500Y-164238452D01*
X349115119Y-164286071D01*
X349210357Y-164333690D01*
X349591309Y-164333690D01*
X348400833Y-163809880D02*
X348305595Y-163809880D01*
X348210357Y-163857500D01*
X348162738Y-163905119D01*
X348115119Y-164000357D01*
X348067500Y-164190833D01*
X348067500Y-164428928D01*
X348115119Y-164619404D01*
X348162738Y-164714642D01*
X348210357Y-164762261D01*
X348305595Y-164809880D01*
X348400833Y-164809880D01*
X348496071Y-164762261D01*
X348543690Y-164714642D01*
X348591309Y-164619404D01*
X348638928Y-164428928D01*
X348638928Y-164190833D01*
X348591309Y-164000357D01*
X348543690Y-163905119D01*
X348496071Y-163857500D01*
X348400833Y-163809880D01*
X124245535Y-116752380D02*
X124245535Y-115752380D01*
X124007440Y-115752380D01*
X123864583Y-115800000D01*
X123769345Y-115895238D01*
X123721726Y-115990476D01*
X123674107Y-116180952D01*
X123674107Y-116323809D01*
X123721726Y-116514285D01*
X123769345Y-116609523D01*
X123864583Y-116704761D01*
X124007440Y-116752380D01*
X124245535Y-116752380D01*
X122721726Y-116752380D02*
X123293154Y-116752380D01*
X123007440Y-116752380D02*
X123007440Y-115752380D01*
X123102678Y-115895238D01*
X123197916Y-115990476D01*
X123293154Y-116038095D01*
X121864583Y-116085714D02*
X121864583Y-116752380D01*
X122102678Y-115704761D02*
X122340773Y-116419047D01*
X121721726Y-116419047D01*
X323921130Y-150590714D02*
X322921130Y-150590714D01*
X322921130Y-150828809D01*
X322968750Y-150971666D01*
X323063988Y-151066904D01*
X323159226Y-151114523D01*
X323349702Y-151162142D01*
X323492559Y-151162142D01*
X323683035Y-151114523D01*
X323778273Y-151066904D01*
X323873511Y-150971666D01*
X323921130Y-150828809D01*
X323921130Y-150590714D01*
X322921130Y-152066904D02*
X322921130Y-151590714D01*
X323397321Y-151543095D01*
X323349702Y-151590714D01*
X323302083Y-151685952D01*
X323302083Y-151924047D01*
X323349702Y-152019285D01*
X323397321Y-152066904D01*
X323492559Y-152114523D01*
X323730654Y-152114523D01*
X323825892Y-152066904D01*
X323873511Y-152019285D01*
X323921130Y-151924047D01*
X323921130Y-151685952D01*
X323873511Y-151590714D01*
X323825892Y-151543095D01*
X323016369Y-152495476D02*
X322968750Y-152543095D01*
X322921130Y-152638333D01*
X322921130Y-152876428D01*
X322968750Y-152971666D01*
X323016369Y-153019285D01*
X323111607Y-153066904D01*
X323206845Y-153066904D01*
X323349702Y-153019285D01*
X323921130Y-152447857D01*
X323921130Y-153066904D01*
X257246130Y-131540714D02*
X256246130Y-131540714D01*
X256246130Y-131778809D01*
X256293750Y-131921666D01*
X256388988Y-132016904D01*
X256484226Y-132064523D01*
X256674702Y-132112142D01*
X256817559Y-132112142D01*
X257008035Y-132064523D01*
X257103273Y-132016904D01*
X257198511Y-131921666D01*
X257246130Y-131778809D01*
X257246130Y-131540714D01*
X256246130Y-132445476D02*
X256246130Y-133064523D01*
X256627083Y-132731190D01*
X256627083Y-132874047D01*
X256674702Y-132969285D01*
X256722321Y-133016904D01*
X256817559Y-133064523D01*
X257055654Y-133064523D01*
X257150892Y-133016904D01*
X257198511Y-132969285D01*
X257246130Y-132874047D01*
X257246130Y-132588333D01*
X257198511Y-132493095D01*
X257150892Y-132445476D01*
X256246130Y-133921666D02*
X256246130Y-133731190D01*
X256293750Y-133635952D01*
X256341369Y-133588333D01*
X256484226Y-133493095D01*
X256674702Y-133445476D01*
X257055654Y-133445476D01*
X257150892Y-133493095D01*
X257198511Y-133540714D01*
X257246130Y-133635952D01*
X257246130Y-133826428D01*
X257198511Y-133921666D01*
X257150892Y-133969285D01*
X257055654Y-134016904D01*
X256817559Y-134016904D01*
X256722321Y-133969285D01*
X256674702Y-133921666D01*
X256627083Y-133826428D01*
X256627083Y-133635952D01*
X256674702Y-133540714D01*
X256722321Y-133493095D01*
X256817559Y-133445476D01*
X157233630Y-112490714D02*
X156233630Y-112490714D01*
X156233630Y-112728809D01*
X156281250Y-112871666D01*
X156376488Y-112966904D01*
X156471726Y-113014523D01*
X156662202Y-113062142D01*
X156805059Y-113062142D01*
X156995535Y-113014523D01*
X157090773Y-112966904D01*
X157186011Y-112871666D01*
X157233630Y-112728809D01*
X157233630Y-112490714D01*
X157233630Y-114014523D02*
X157233630Y-113443095D01*
X157233630Y-113728809D02*
X156233630Y-113728809D01*
X156376488Y-113633571D01*
X156471726Y-113538333D01*
X156519345Y-113443095D01*
X156233630Y-114347857D02*
X156233630Y-115014523D01*
X157233630Y-114585952D01*
X314396130Y-131540714D02*
X313396130Y-131540714D01*
X313396130Y-131778809D01*
X313443750Y-131921666D01*
X313538988Y-132016904D01*
X313634226Y-132064523D01*
X313824702Y-132112142D01*
X313967559Y-132112142D01*
X314158035Y-132064523D01*
X314253273Y-132016904D01*
X314348511Y-131921666D01*
X314396130Y-131778809D01*
X314396130Y-131540714D01*
X313396130Y-132445476D02*
X313396130Y-133064523D01*
X313777083Y-132731190D01*
X313777083Y-132874047D01*
X313824702Y-132969285D01*
X313872321Y-133016904D01*
X313967559Y-133064523D01*
X314205654Y-133064523D01*
X314300892Y-133016904D01*
X314348511Y-132969285D01*
X314396130Y-132874047D01*
X314396130Y-132588333D01*
X314348511Y-132493095D01*
X314300892Y-132445476D01*
X314396130Y-133540714D02*
X314396130Y-133731190D01*
X314348511Y-133826428D01*
X314300892Y-133874047D01*
X314158035Y-133969285D01*
X313967559Y-134016904D01*
X313586607Y-134016904D01*
X313491369Y-133969285D01*
X313443750Y-133921666D01*
X313396130Y-133826428D01*
X313396130Y-133635952D01*
X313443750Y-133540714D01*
X313491369Y-133493095D01*
X313586607Y-133445476D01*
X313824702Y-133445476D01*
X313919940Y-133493095D01*
X313967559Y-133540714D01*
X314015178Y-133635952D01*
X314015178Y-133826428D01*
X313967559Y-133921666D01*
X313919940Y-133969285D01*
X313824702Y-134016904D01*
X169583392Y-175252083D02*
X169631011Y-175204464D01*
X169678630Y-175061607D01*
X169678630Y-174966369D01*
X169631011Y-174823511D01*
X169535773Y-174728273D01*
X169440535Y-174680654D01*
X169250059Y-174633035D01*
X169107202Y-174633035D01*
X168916726Y-174680654D01*
X168821488Y-174728273D01*
X168726250Y-174823511D01*
X168678630Y-174966369D01*
X168678630Y-175061607D01*
X168726250Y-175204464D01*
X168773869Y-175252083D01*
X169678630Y-176204464D02*
X169678630Y-175633035D01*
X169678630Y-175918750D02*
X168678630Y-175918750D01*
X168821488Y-175823511D01*
X168916726Y-175728273D01*
X168964345Y-175633035D01*
X151677380Y-169640714D02*
X150677380Y-169640714D01*
X150677380Y-169878809D01*
X150725000Y-170021666D01*
X150820238Y-170116904D01*
X150915476Y-170164523D01*
X151105952Y-170212142D01*
X151248809Y-170212142D01*
X151439285Y-170164523D01*
X151534523Y-170116904D01*
X151629761Y-170021666D01*
X151677380Y-169878809D01*
X151677380Y-169640714D01*
X150677380Y-171116904D02*
X150677380Y-170640714D01*
X151153571Y-170593095D01*
X151105952Y-170640714D01*
X151058333Y-170735952D01*
X151058333Y-170974047D01*
X151105952Y-171069285D01*
X151153571Y-171116904D01*
X151248809Y-171164523D01*
X151486904Y-171164523D01*
X151582142Y-171116904D01*
X151629761Y-171069285D01*
X151677380Y-170974047D01*
X151677380Y-170735952D01*
X151629761Y-170640714D01*
X151582142Y-170593095D01*
X150677380Y-171497857D02*
X150677380Y-172164523D01*
X151677380Y-171735952D01*
X166758630Y-93916904D02*
X165758630Y-93916904D01*
X165758630Y-94155000D01*
X165806250Y-94297857D01*
X165901488Y-94393095D01*
X165996726Y-94440714D01*
X166187202Y-94488333D01*
X166330059Y-94488333D01*
X166520535Y-94440714D01*
X166615773Y-94393095D01*
X166711011Y-94297857D01*
X166758630Y-94155000D01*
X166758630Y-93916904D01*
X166091964Y-95345476D02*
X166758630Y-95345476D01*
X165711011Y-95107380D02*
X166425297Y-94869285D01*
X166425297Y-95488333D01*
X242958630Y-93916904D02*
X241958630Y-93916904D01*
X241958630Y-94155000D01*
X242006250Y-94297857D01*
X242101488Y-94393095D01*
X242196726Y-94440714D01*
X242387202Y-94488333D01*
X242530059Y-94488333D01*
X242720535Y-94440714D01*
X242815773Y-94393095D01*
X242911011Y-94297857D01*
X242958630Y-94155000D01*
X242958630Y-93916904D01*
X242387202Y-95059761D02*
X242339583Y-94964523D01*
X242291964Y-94916904D01*
X242196726Y-94869285D01*
X242149107Y-94869285D01*
X242053869Y-94916904D01*
X242006250Y-94964523D01*
X241958630Y-95059761D01*
X241958630Y-95250238D01*
X242006250Y-95345476D01*
X242053869Y-95393095D01*
X242149107Y-95440714D01*
X242196726Y-95440714D01*
X242291964Y-95393095D01*
X242339583Y-95345476D01*
X242387202Y-95250238D01*
X242387202Y-95059761D01*
X242434821Y-94964523D01*
X242482440Y-94916904D01*
X242577678Y-94869285D01*
X242768154Y-94869285D01*
X242863392Y-94916904D01*
X242911011Y-94964523D01*
X242958630Y-95059761D01*
X242958630Y-95250238D01*
X242911011Y-95345476D01*
X242863392Y-95393095D01*
X242768154Y-95440714D01*
X242577678Y-95440714D01*
X242482440Y-95393095D01*
X242434821Y-95345476D01*
X242387202Y-95250238D01*
X300108630Y-93440714D02*
X299108630Y-93440714D01*
X299108630Y-93678809D01*
X299156250Y-93821666D01*
X299251488Y-93916904D01*
X299346726Y-93964523D01*
X299537202Y-94012142D01*
X299680059Y-94012142D01*
X299870535Y-93964523D01*
X299965773Y-93916904D01*
X300061011Y-93821666D01*
X300108630Y-93678809D01*
X300108630Y-93440714D01*
X300108630Y-94964523D02*
X300108630Y-94393095D01*
X300108630Y-94678809D02*
X299108630Y-94678809D01*
X299251488Y-94583571D01*
X299346726Y-94488333D01*
X299394345Y-94393095D01*
X300108630Y-95916904D02*
X300108630Y-95345476D01*
X300108630Y-95631190D02*
X299108630Y-95631190D01*
X299251488Y-95535952D01*
X299346726Y-95440714D01*
X299394345Y-95345476D01*
X350114880Y-150590714D02*
X349114880Y-150590714D01*
X349114880Y-150828809D01*
X349162500Y-150971666D01*
X349257738Y-151066904D01*
X349352976Y-151114523D01*
X349543452Y-151162142D01*
X349686309Y-151162142D01*
X349876785Y-151114523D01*
X349972023Y-151066904D01*
X350067261Y-150971666D01*
X350114880Y-150828809D01*
X350114880Y-150590714D01*
X349114880Y-152066904D02*
X349114880Y-151590714D01*
X349591071Y-151543095D01*
X349543452Y-151590714D01*
X349495833Y-151685952D01*
X349495833Y-151924047D01*
X349543452Y-152019285D01*
X349591071Y-152066904D01*
X349686309Y-152114523D01*
X349924404Y-152114523D01*
X350019642Y-152066904D01*
X350067261Y-152019285D01*
X350114880Y-151924047D01*
X350114880Y-151685952D01*
X350067261Y-151590714D01*
X350019642Y-151543095D01*
X349114880Y-152447857D02*
X349114880Y-153066904D01*
X349495833Y-152733571D01*
X349495833Y-152876428D01*
X349543452Y-152971666D01*
X349591071Y-153019285D01*
X349686309Y-153066904D01*
X349924404Y-153066904D01*
X350019642Y-153019285D01*
X350067261Y-152971666D01*
X350114880Y-152876428D01*
X350114880Y-152590714D01*
X350067261Y-152495476D01*
X350019642Y-152447857D01*
X216086011Y-167529166D02*
X216133630Y-167672023D01*
X216133630Y-167910119D01*
X216086011Y-168005357D01*
X216038392Y-168052976D01*
X215943154Y-168100595D01*
X215847916Y-168100595D01*
X215752678Y-168052976D01*
X215705059Y-168005357D01*
X215657440Y-167910119D01*
X215609821Y-167719642D01*
X215562202Y-167624404D01*
X215514583Y-167576785D01*
X215419345Y-167529166D01*
X215324107Y-167529166D01*
X215228869Y-167576785D01*
X215181250Y-167624404D01*
X215133630Y-167719642D01*
X215133630Y-167957738D01*
X215181250Y-168100595D01*
X215133630Y-168433928D02*
X216133630Y-168672023D01*
X215419345Y-168862500D01*
X216133630Y-169052976D01*
X215133630Y-169291071D01*
X215133630Y-169862500D02*
X215133630Y-169957738D01*
X215181250Y-170052976D01*
X215228869Y-170100595D01*
X215324107Y-170148214D01*
X215514583Y-170195833D01*
X215752678Y-170195833D01*
X215943154Y-170148214D01*
X216038392Y-170100595D01*
X216086011Y-170052976D01*
X216133630Y-169957738D01*
X216133630Y-169862500D01*
X216086011Y-169767261D01*
X216038392Y-169719642D01*
X215943154Y-169672023D01*
X215752678Y-169624404D01*
X215514583Y-169624404D01*
X215324107Y-169672023D01*
X215228869Y-169719642D01*
X215181250Y-169767261D01*
X215133630Y-169862500D01*
X91718095Y-92006030D02*
X91718095Y-92815554D01*
X91670476Y-92910792D01*
X91622857Y-92958411D01*
X91527619Y-93006030D01*
X91337142Y-93006030D01*
X91241904Y-92958411D01*
X91194285Y-92910792D01*
X91146666Y-92815554D01*
X91146666Y-92006030D01*
X90718095Y-92958411D02*
X90575238Y-93006030D01*
X90337142Y-93006030D01*
X90241904Y-92958411D01*
X90194285Y-92910792D01*
X90146666Y-92815554D01*
X90146666Y-92720316D01*
X90194285Y-92625078D01*
X90241904Y-92577459D01*
X90337142Y-92529840D01*
X90527619Y-92482221D01*
X90622857Y-92434602D01*
X90670476Y-92386983D01*
X90718095Y-92291745D01*
X90718095Y-92196507D01*
X90670476Y-92101269D01*
X90622857Y-92053650D01*
X90527619Y-92006030D01*
X90289523Y-92006030D01*
X90146666Y-92053650D01*
X89384761Y-92482221D02*
X89241904Y-92529840D01*
X89194285Y-92577459D01*
X89146666Y-92672697D01*
X89146666Y-92815554D01*
X89194285Y-92910792D01*
X89241904Y-92958411D01*
X89337142Y-93006030D01*
X89718095Y-93006030D01*
X89718095Y-92006030D01*
X89384761Y-92006030D01*
X89289523Y-92053650D01*
X89241904Y-92101269D01*
X89194285Y-92196507D01*
X89194285Y-92291745D01*
X89241904Y-92386983D01*
X89289523Y-92434602D01*
X89384761Y-92482221D01*
X89718095Y-92482221D01*
X88527619Y-92006030D02*
X88432380Y-92006030D01*
X88337142Y-92053650D01*
X88289523Y-92101269D01*
X88241904Y-92196507D01*
X88194285Y-92386983D01*
X88194285Y-92625078D01*
X88241904Y-92815554D01*
X88289523Y-92910792D01*
X88337142Y-92958411D01*
X88432380Y-93006030D01*
X88527619Y-93006030D01*
X88622857Y-92958411D01*
X88670476Y-92910792D01*
X88718095Y-92815554D01*
X88765714Y-92625078D01*
X88765714Y-92386983D01*
X88718095Y-92196507D01*
X88670476Y-92101269D01*
X88622857Y-92053650D01*
X88527619Y-92006030D01*
X190571130Y-150590714D02*
X189571130Y-150590714D01*
X189571130Y-150828809D01*
X189618750Y-150971666D01*
X189713988Y-151066904D01*
X189809226Y-151114523D01*
X189999702Y-151162142D01*
X190142559Y-151162142D01*
X190333035Y-151114523D01*
X190428273Y-151066904D01*
X190523511Y-150971666D01*
X190571130Y-150828809D01*
X190571130Y-150590714D01*
X189904464Y-152019285D02*
X190571130Y-152019285D01*
X189523511Y-151781190D02*
X190237797Y-151543095D01*
X190237797Y-152162142D01*
X189571130Y-153019285D02*
X189571130Y-152543095D01*
X190047321Y-152495476D01*
X189999702Y-152543095D01*
X189952083Y-152638333D01*
X189952083Y-152876428D01*
X189999702Y-152971666D01*
X190047321Y-153019285D01*
X190142559Y-153066904D01*
X190380654Y-153066904D01*
X190475892Y-153019285D01*
X190523511Y-152971666D01*
X190571130Y-152876428D01*
X190571130Y-152638333D01*
X190523511Y-152543095D01*
X190475892Y-152495476D01*
X128658630Y-169640714D02*
X127658630Y-169640714D01*
X127658630Y-169878809D01*
X127706250Y-170021666D01*
X127801488Y-170116904D01*
X127896726Y-170164523D01*
X128087202Y-170212142D01*
X128230059Y-170212142D01*
X128420535Y-170164523D01*
X128515773Y-170116904D01*
X128611011Y-170021666D01*
X128658630Y-169878809D01*
X128658630Y-169640714D01*
X127658630Y-171116904D02*
X127658630Y-170640714D01*
X128134821Y-170593095D01*
X128087202Y-170640714D01*
X128039583Y-170735952D01*
X128039583Y-170974047D01*
X128087202Y-171069285D01*
X128134821Y-171116904D01*
X128230059Y-171164523D01*
X128468154Y-171164523D01*
X128563392Y-171116904D01*
X128611011Y-171069285D01*
X128658630Y-170974047D01*
X128658630Y-170735952D01*
X128611011Y-170640714D01*
X128563392Y-170593095D01*
X127658630Y-172069285D02*
X127658630Y-171593095D01*
X128134821Y-171545476D01*
X128087202Y-171593095D01*
X128039583Y-171688333D01*
X128039583Y-171926428D01*
X128087202Y-172021666D01*
X128134821Y-172069285D01*
X128230059Y-172116904D01*
X128468154Y-172116904D01*
X128563392Y-172069285D01*
X128611011Y-172021666D01*
X128658630Y-171926428D01*
X128658630Y-171688333D01*
X128611011Y-171593095D01*
X128563392Y-171545476D01*
X262008630Y-93916904D02*
X261008630Y-93916904D01*
X261008630Y-94155000D01*
X261056250Y-94297857D01*
X261151488Y-94393095D01*
X261246726Y-94440714D01*
X261437202Y-94488333D01*
X261580059Y-94488333D01*
X261770535Y-94440714D01*
X261865773Y-94393095D01*
X261961011Y-94297857D01*
X262008630Y-94155000D01*
X262008630Y-93916904D01*
X262008630Y-94964523D02*
X262008630Y-95155000D01*
X261961011Y-95250238D01*
X261913392Y-95297857D01*
X261770535Y-95393095D01*
X261580059Y-95440714D01*
X261199107Y-95440714D01*
X261103869Y-95393095D01*
X261056250Y-95345476D01*
X261008630Y-95250238D01*
X261008630Y-95059761D01*
X261056250Y-94964523D01*
X261103869Y-94916904D01*
X261199107Y-94869285D01*
X261437202Y-94869285D01*
X261532440Y-94916904D01*
X261580059Y-94964523D01*
X261627678Y-95059761D01*
X261627678Y-95250238D01*
X261580059Y-95345476D01*
X261532440Y-95393095D01*
X261437202Y-95440714D01*
X173647380Y-172870833D02*
X173171190Y-172537500D01*
X173647380Y-172299404D02*
X172647380Y-172299404D01*
X172647380Y-172680357D01*
X172695000Y-172775595D01*
X172742619Y-172823214D01*
X172837857Y-172870833D01*
X172980714Y-172870833D01*
X173075952Y-172823214D01*
X173123571Y-172775595D01*
X173171190Y-172680357D01*
X173171190Y-172299404D01*
X172980714Y-173727976D02*
X173647380Y-173727976D01*
X172599761Y-173489880D02*
X173314047Y-173251785D01*
X173314047Y-173870833D01*
X147708630Y-93916904D02*
X146708630Y-93916904D01*
X146708630Y-94155000D01*
X146756250Y-94297857D01*
X146851488Y-94393095D01*
X146946726Y-94440714D01*
X147137202Y-94488333D01*
X147280059Y-94488333D01*
X147470535Y-94440714D01*
X147565773Y-94393095D01*
X147661011Y-94297857D01*
X147708630Y-94155000D01*
X147708630Y-93916904D01*
X146708630Y-94821666D02*
X146708630Y-95440714D01*
X147089583Y-95107380D01*
X147089583Y-95250238D01*
X147137202Y-95345476D01*
X147184821Y-95393095D01*
X147280059Y-95440714D01*
X147518154Y-95440714D01*
X147613392Y-95393095D01*
X147661011Y-95345476D01*
X147708630Y-95250238D01*
X147708630Y-94964523D01*
X147661011Y-94869285D01*
X147613392Y-94821666D01*
X129008035Y-132852380D02*
X129008035Y-131852380D01*
X128769940Y-131852380D01*
X128627083Y-131900000D01*
X128531845Y-131995238D01*
X128484226Y-132090476D01*
X128436607Y-132280952D01*
X128436607Y-132423809D01*
X128484226Y-132614285D01*
X128531845Y-132709523D01*
X128627083Y-132804761D01*
X128769940Y-132852380D01*
X129008035Y-132852380D01*
X128055654Y-131947619D02*
X128008035Y-131900000D01*
X127912797Y-131852380D01*
X127674702Y-131852380D01*
X127579464Y-131900000D01*
X127531845Y-131947619D01*
X127484226Y-132042857D01*
X127484226Y-132138095D01*
X127531845Y-132280952D01*
X128103273Y-132852380D01*
X127484226Y-132852380D01*
X127008035Y-132852380D02*
X126817559Y-132852380D01*
X126722321Y-132804761D01*
X126674702Y-132757142D01*
X126579464Y-132614285D01*
X126531845Y-132423809D01*
X126531845Y-132042857D01*
X126579464Y-131947619D01*
X126627083Y-131900000D01*
X126722321Y-131852380D01*
X126912797Y-131852380D01*
X127008035Y-131900000D01*
X127055654Y-131947619D01*
X127103273Y-132042857D01*
X127103273Y-132280952D01*
X127055654Y-132376190D01*
X127008035Y-132423809D01*
X126912797Y-132471428D01*
X126722321Y-132471428D01*
X126627083Y-132423809D01*
X126579464Y-132376190D01*
X126531845Y-132280952D01*
X171521130Y-150590714D02*
X170521130Y-150590714D01*
X170521130Y-150828809D01*
X170568750Y-150971666D01*
X170663988Y-151066904D01*
X170759226Y-151114523D01*
X170949702Y-151162142D01*
X171092559Y-151162142D01*
X171283035Y-151114523D01*
X171378273Y-151066904D01*
X171473511Y-150971666D01*
X171521130Y-150828809D01*
X171521130Y-150590714D01*
X170854464Y-152019285D02*
X171521130Y-152019285D01*
X170473511Y-151781190D02*
X171187797Y-151543095D01*
X171187797Y-152162142D01*
X170854464Y-152971666D02*
X171521130Y-152971666D01*
X170473511Y-152733571D02*
X171187797Y-152495476D01*
X171187797Y-153114523D01*
X285821130Y-150590714D02*
X284821130Y-150590714D01*
X284821130Y-150828809D01*
X284868750Y-150971666D01*
X284963988Y-151066904D01*
X285059226Y-151114523D01*
X285249702Y-151162142D01*
X285392559Y-151162142D01*
X285583035Y-151114523D01*
X285678273Y-151066904D01*
X285773511Y-150971666D01*
X285821130Y-150828809D01*
X285821130Y-150590714D01*
X284821130Y-152066904D02*
X284821130Y-151590714D01*
X285297321Y-151543095D01*
X285249702Y-151590714D01*
X285202083Y-151685952D01*
X285202083Y-151924047D01*
X285249702Y-152019285D01*
X285297321Y-152066904D01*
X285392559Y-152114523D01*
X285630654Y-152114523D01*
X285725892Y-152066904D01*
X285773511Y-152019285D01*
X285821130Y-151924047D01*
X285821130Y-151685952D01*
X285773511Y-151590714D01*
X285725892Y-151543095D01*
X284821130Y-152733571D02*
X284821130Y-152828809D01*
X284868750Y-152924047D01*
X284916369Y-152971666D01*
X285011607Y-153019285D01*
X285202083Y-153066904D01*
X285440178Y-153066904D01*
X285630654Y-153019285D01*
X285725892Y-152971666D01*
X285773511Y-152924047D01*
X285821130Y-152828809D01*
X285821130Y-152733571D01*
X285773511Y-152638333D01*
X285725892Y-152590714D01*
X285630654Y-152543095D01*
X285440178Y-152495476D01*
X285202083Y-152495476D01*
X285011607Y-152543095D01*
X284916369Y-152590714D01*
X284868750Y-152638333D01*
X284821130Y-152733571D01*
X142946130Y-131540714D02*
X141946130Y-131540714D01*
X141946130Y-131778809D01*
X141993750Y-131921666D01*
X142088988Y-132016904D01*
X142184226Y-132064523D01*
X142374702Y-132112142D01*
X142517559Y-132112142D01*
X142708035Y-132064523D01*
X142803273Y-132016904D01*
X142898511Y-131921666D01*
X142946130Y-131778809D01*
X142946130Y-131540714D01*
X141946130Y-132445476D02*
X141946130Y-133064523D01*
X142327083Y-132731190D01*
X142327083Y-132874047D01*
X142374702Y-132969285D01*
X142422321Y-133016904D01*
X142517559Y-133064523D01*
X142755654Y-133064523D01*
X142850892Y-133016904D01*
X142898511Y-132969285D01*
X142946130Y-132874047D01*
X142946130Y-132588333D01*
X142898511Y-132493095D01*
X142850892Y-132445476D01*
X141946130Y-133683571D02*
X141946130Y-133778809D01*
X141993750Y-133874047D01*
X142041369Y-133921666D01*
X142136607Y-133969285D01*
X142327083Y-134016904D01*
X142565178Y-134016904D01*
X142755654Y-133969285D01*
X142850892Y-133921666D01*
X142898511Y-133874047D01*
X142946130Y-133778809D01*
X142946130Y-133683571D01*
X142898511Y-133588333D01*
X142850892Y-133540714D01*
X142755654Y-133493095D01*
X142565178Y-133445476D01*
X142327083Y-133445476D01*
X142136607Y-133493095D01*
X142041369Y-133540714D01*
X141993750Y-133588333D01*
X141946130Y-133683571D01*
X219146130Y-131540714D02*
X218146130Y-131540714D01*
X218146130Y-131778809D01*
X218193750Y-131921666D01*
X218288988Y-132016904D01*
X218384226Y-132064523D01*
X218574702Y-132112142D01*
X218717559Y-132112142D01*
X218908035Y-132064523D01*
X219003273Y-132016904D01*
X219098511Y-131921666D01*
X219146130Y-131778809D01*
X219146130Y-131540714D01*
X218146130Y-132445476D02*
X218146130Y-133064523D01*
X218527083Y-132731190D01*
X218527083Y-132874047D01*
X218574702Y-132969285D01*
X218622321Y-133016904D01*
X218717559Y-133064523D01*
X218955654Y-133064523D01*
X219050892Y-133016904D01*
X219098511Y-132969285D01*
X219146130Y-132874047D01*
X219146130Y-132588333D01*
X219098511Y-132493095D01*
X219050892Y-132445476D01*
X218479464Y-133921666D02*
X219146130Y-133921666D01*
X218098511Y-133683571D02*
X218812797Y-133445476D01*
X218812797Y-134064523D01*
X124245535Y-113802380D02*
X124245535Y-112802380D01*
X124007440Y-112802380D01*
X123864583Y-112850000D01*
X123769345Y-112945238D01*
X123721726Y-113040476D01*
X123674107Y-113230952D01*
X123674107Y-113373809D01*
X123721726Y-113564285D01*
X123769345Y-113659523D01*
X123864583Y-113754761D01*
X124007440Y-113802380D01*
X124245535Y-113802380D01*
X122721726Y-113802380D02*
X123293154Y-113802380D01*
X123007440Y-113802380D02*
X123007440Y-112802380D01*
X123102678Y-112945238D01*
X123197916Y-113040476D01*
X123293154Y-113088095D01*
X121816964Y-112802380D02*
X122293154Y-112802380D01*
X122340773Y-113278571D01*
X122293154Y-113230952D01*
X122197916Y-113183333D01*
X121959821Y-113183333D01*
X121864583Y-113230952D01*
X121816964Y-113278571D01*
X121769345Y-113373809D01*
X121769345Y-113611904D01*
X121816964Y-113707142D01*
X121864583Y-113754761D01*
X121959821Y-113802380D01*
X122197916Y-113802380D01*
X122293154Y-113754761D01*
X122340773Y-113707142D01*
X342971130Y-169640714D02*
X341971130Y-169640714D01*
X341971130Y-169878809D01*
X342018750Y-170021666D01*
X342113988Y-170116904D01*
X342209226Y-170164523D01*
X342399702Y-170212142D01*
X342542559Y-170212142D01*
X342733035Y-170164523D01*
X342828273Y-170116904D01*
X342923511Y-170021666D01*
X342971130Y-169878809D01*
X342971130Y-169640714D01*
X341971130Y-171069285D02*
X341971130Y-170878809D01*
X342018750Y-170783571D01*
X342066369Y-170735952D01*
X342209226Y-170640714D01*
X342399702Y-170593095D01*
X342780654Y-170593095D01*
X342875892Y-170640714D01*
X342923511Y-170688333D01*
X342971130Y-170783571D01*
X342971130Y-170974047D01*
X342923511Y-171069285D01*
X342875892Y-171116904D01*
X342780654Y-171164523D01*
X342542559Y-171164523D01*
X342447321Y-171116904D01*
X342399702Y-171069285D01*
X342352083Y-170974047D01*
X342352083Y-170783571D01*
X342399702Y-170688333D01*
X342447321Y-170640714D01*
X342542559Y-170593095D01*
X342304464Y-172021666D02*
X342971130Y-172021666D01*
X341923511Y-171783571D02*
X342637797Y-171545476D01*
X342637797Y-172164523D01*
X133421130Y-150590714D02*
X132421130Y-150590714D01*
X132421130Y-150828809D01*
X132468750Y-150971666D01*
X132563988Y-151066904D01*
X132659226Y-151114523D01*
X132849702Y-151162142D01*
X132992559Y-151162142D01*
X133183035Y-151114523D01*
X133278273Y-151066904D01*
X133373511Y-150971666D01*
X133421130Y-150828809D01*
X133421130Y-150590714D01*
X132754464Y-152019285D02*
X133421130Y-152019285D01*
X132373511Y-151781190D02*
X133087797Y-151543095D01*
X133087797Y-152162142D01*
X132516369Y-152495476D02*
X132468750Y-152543095D01*
X132421130Y-152638333D01*
X132421130Y-152876428D01*
X132468750Y-152971666D01*
X132516369Y-153019285D01*
X132611607Y-153066904D01*
X132706845Y-153066904D01*
X132849702Y-153019285D01*
X133421130Y-152447857D01*
X133421130Y-153066904D01*
X319158630Y-93440714D02*
X318158630Y-93440714D01*
X318158630Y-93678809D01*
X318206250Y-93821666D01*
X318301488Y-93916904D01*
X318396726Y-93964523D01*
X318587202Y-94012142D01*
X318730059Y-94012142D01*
X318920535Y-93964523D01*
X319015773Y-93916904D01*
X319111011Y-93821666D01*
X319158630Y-93678809D01*
X319158630Y-93440714D01*
X319158630Y-94964523D02*
X319158630Y-94393095D01*
X319158630Y-94678809D02*
X318158630Y-94678809D01*
X318301488Y-94583571D01*
X318396726Y-94488333D01*
X318444345Y-94393095D01*
X318253869Y-95345476D02*
X318206250Y-95393095D01*
X318158630Y-95488333D01*
X318158630Y-95726428D01*
X318206250Y-95821666D01*
X318253869Y-95869285D01*
X318349107Y-95916904D01*
X318444345Y-95916904D01*
X318587202Y-95869285D01*
X319158630Y-95297857D01*
X319158630Y-95916904D01*
X152471130Y-150590714D02*
X151471130Y-150590714D01*
X151471130Y-150828809D01*
X151518750Y-150971666D01*
X151613988Y-151066904D01*
X151709226Y-151114523D01*
X151899702Y-151162142D01*
X152042559Y-151162142D01*
X152233035Y-151114523D01*
X152328273Y-151066904D01*
X152423511Y-150971666D01*
X152471130Y-150828809D01*
X152471130Y-150590714D01*
X151804464Y-152019285D02*
X152471130Y-152019285D01*
X151423511Y-151781190D02*
X152137797Y-151543095D01*
X152137797Y-152162142D01*
X151471130Y-152447857D02*
X151471130Y-153066904D01*
X151852083Y-152733571D01*
X151852083Y-152876428D01*
X151899702Y-152971666D01*
X151947321Y-153019285D01*
X152042559Y-153066904D01*
X152280654Y-153066904D01*
X152375892Y-153019285D01*
X152423511Y-152971666D01*
X152471130Y-152876428D01*
X152471130Y-152590714D01*
X152423511Y-152495476D01*
X152375892Y-152447857D01*
X238196130Y-131540714D02*
X237196130Y-131540714D01*
X237196130Y-131778809D01*
X237243750Y-131921666D01*
X237338988Y-132016904D01*
X237434226Y-132064523D01*
X237624702Y-132112142D01*
X237767559Y-132112142D01*
X237958035Y-132064523D01*
X238053273Y-132016904D01*
X238148511Y-131921666D01*
X238196130Y-131778809D01*
X238196130Y-131540714D01*
X237196130Y-132445476D02*
X237196130Y-133064523D01*
X237577083Y-132731190D01*
X237577083Y-132874047D01*
X237624702Y-132969285D01*
X237672321Y-133016904D01*
X237767559Y-133064523D01*
X238005654Y-133064523D01*
X238100892Y-133016904D01*
X238148511Y-132969285D01*
X238196130Y-132874047D01*
X238196130Y-132588333D01*
X238148511Y-132493095D01*
X238100892Y-132445476D01*
X237196130Y-133969285D02*
X237196130Y-133493095D01*
X237672321Y-133445476D01*
X237624702Y-133493095D01*
X237577083Y-133588333D01*
X237577083Y-133826428D01*
X237624702Y-133921666D01*
X237672321Y-133969285D01*
X237767559Y-134016904D01*
X238005654Y-134016904D01*
X238100892Y-133969285D01*
X238148511Y-133921666D01*
X238196130Y-133826428D01*
X238196130Y-133588333D01*
X238148511Y-133493095D01*
X238100892Y-133445476D01*
X295346130Y-131540714D02*
X294346130Y-131540714D01*
X294346130Y-131778809D01*
X294393750Y-131921666D01*
X294488988Y-132016904D01*
X294584226Y-132064523D01*
X294774702Y-132112142D01*
X294917559Y-132112142D01*
X295108035Y-132064523D01*
X295203273Y-132016904D01*
X295298511Y-131921666D01*
X295346130Y-131778809D01*
X295346130Y-131540714D01*
X294346130Y-132445476D02*
X294346130Y-133064523D01*
X294727083Y-132731190D01*
X294727083Y-132874047D01*
X294774702Y-132969285D01*
X294822321Y-133016904D01*
X294917559Y-133064523D01*
X295155654Y-133064523D01*
X295250892Y-133016904D01*
X295298511Y-132969285D01*
X295346130Y-132874047D01*
X295346130Y-132588333D01*
X295298511Y-132493095D01*
X295250892Y-132445476D01*
X294774702Y-133635952D02*
X294727083Y-133540714D01*
X294679464Y-133493095D01*
X294584226Y-133445476D01*
X294536607Y-133445476D01*
X294441369Y-133493095D01*
X294393750Y-133540714D01*
X294346130Y-133635952D01*
X294346130Y-133826428D01*
X294393750Y-133921666D01*
X294441369Y-133969285D01*
X294536607Y-134016904D01*
X294584226Y-134016904D01*
X294679464Y-133969285D01*
X294727083Y-133921666D01*
X294774702Y-133826428D01*
X294774702Y-133635952D01*
X294822321Y-133540714D01*
X294869940Y-133493095D01*
X294965178Y-133445476D01*
X295155654Y-133445476D01*
X295250892Y-133493095D01*
X295298511Y-133540714D01*
X295346130Y-133635952D01*
X295346130Y-133826428D01*
X295298511Y-133921666D01*
X295250892Y-133969285D01*
X295155654Y-134016904D01*
X294965178Y-134016904D01*
X294869940Y-133969285D01*
X294822321Y-133921666D01*
X294774702Y-133826428D01*
X252483630Y-112490714D02*
X251483630Y-112490714D01*
X251483630Y-112728809D01*
X251531250Y-112871666D01*
X251626488Y-112966904D01*
X251721726Y-113014523D01*
X251912202Y-113062142D01*
X252055059Y-113062142D01*
X252245535Y-113014523D01*
X252340773Y-112966904D01*
X252436011Y-112871666D01*
X252483630Y-112728809D01*
X252483630Y-112490714D01*
X251578869Y-113443095D02*
X251531250Y-113490714D01*
X251483630Y-113585952D01*
X251483630Y-113824047D01*
X251531250Y-113919285D01*
X251578869Y-113966904D01*
X251674107Y-114014523D01*
X251769345Y-114014523D01*
X251912202Y-113966904D01*
X252483630Y-113395476D01*
X252483630Y-114014523D01*
X251578869Y-114395476D02*
X251531250Y-114443095D01*
X251483630Y-114538333D01*
X251483630Y-114776428D01*
X251531250Y-114871666D01*
X251578869Y-114919285D01*
X251674107Y-114966904D01*
X251769345Y-114966904D01*
X251912202Y-114919285D01*
X252483630Y-114347857D01*
X252483630Y-114966904D01*
X83162380Y-88733333D02*
X82686190Y-88400000D01*
X83162380Y-88161904D02*
X82162380Y-88161904D01*
X82162380Y-88542857D01*
X82210000Y-88638095D01*
X82257619Y-88685714D01*
X82352857Y-88733333D01*
X82495714Y-88733333D01*
X82590952Y-88685714D01*
X82638571Y-88638095D01*
X82686190Y-88542857D01*
X82686190Y-88161904D01*
X83162380Y-89685714D02*
X83162380Y-89114285D01*
X83162380Y-89400000D02*
X82162380Y-89400000D01*
X82305238Y-89304761D01*
X82400476Y-89209523D01*
X82448095Y-89114285D01*
X181046130Y-131540714D02*
X180046130Y-131540714D01*
X180046130Y-131778809D01*
X180093750Y-131921666D01*
X180188988Y-132016904D01*
X180284226Y-132064523D01*
X180474702Y-132112142D01*
X180617559Y-132112142D01*
X180808035Y-132064523D01*
X180903273Y-132016904D01*
X180998511Y-131921666D01*
X181046130Y-131778809D01*
X181046130Y-131540714D01*
X180046130Y-132445476D02*
X180046130Y-133064523D01*
X180427083Y-132731190D01*
X180427083Y-132874047D01*
X180474702Y-132969285D01*
X180522321Y-133016904D01*
X180617559Y-133064523D01*
X180855654Y-133064523D01*
X180950892Y-133016904D01*
X180998511Y-132969285D01*
X181046130Y-132874047D01*
X181046130Y-132588333D01*
X180998511Y-132493095D01*
X180950892Y-132445476D01*
X180141369Y-133445476D02*
X180093750Y-133493095D01*
X180046130Y-133588333D01*
X180046130Y-133826428D01*
X180093750Y-133921666D01*
X180141369Y-133969285D01*
X180236607Y-134016904D01*
X180331845Y-134016904D01*
X180474702Y-133969285D01*
X181046130Y-133397857D01*
X181046130Y-134016904D01*
X223908630Y-93916904D02*
X222908630Y-93916904D01*
X222908630Y-94155000D01*
X222956250Y-94297857D01*
X223051488Y-94393095D01*
X223146726Y-94440714D01*
X223337202Y-94488333D01*
X223480059Y-94488333D01*
X223670535Y-94440714D01*
X223765773Y-94393095D01*
X223861011Y-94297857D01*
X223908630Y-94155000D01*
X223908630Y-93916904D01*
X222908630Y-94821666D02*
X222908630Y-95488333D01*
X223908630Y-95059761D01*
X266771130Y-169640714D02*
X265771130Y-169640714D01*
X265771130Y-169878809D01*
X265818750Y-170021666D01*
X265913988Y-170116904D01*
X266009226Y-170164523D01*
X266199702Y-170212142D01*
X266342559Y-170212142D01*
X266533035Y-170164523D01*
X266628273Y-170116904D01*
X266723511Y-170021666D01*
X266771130Y-169878809D01*
X266771130Y-169640714D01*
X265771130Y-171069285D02*
X265771130Y-170878809D01*
X265818750Y-170783571D01*
X265866369Y-170735952D01*
X266009226Y-170640714D01*
X266199702Y-170593095D01*
X266580654Y-170593095D01*
X266675892Y-170640714D01*
X266723511Y-170688333D01*
X266771130Y-170783571D01*
X266771130Y-170974047D01*
X266723511Y-171069285D01*
X266675892Y-171116904D01*
X266580654Y-171164523D01*
X266342559Y-171164523D01*
X266247321Y-171116904D01*
X266199702Y-171069285D01*
X266152083Y-170974047D01*
X266152083Y-170783571D01*
X266199702Y-170688333D01*
X266247321Y-170640714D01*
X266342559Y-170593095D01*
X265771130Y-171783571D02*
X265771130Y-171878809D01*
X265818750Y-171974047D01*
X265866369Y-172021666D01*
X265961607Y-172069285D01*
X266152083Y-172116904D01*
X266390178Y-172116904D01*
X266580654Y-172069285D01*
X266675892Y-172021666D01*
X266723511Y-171974047D01*
X266771130Y-171878809D01*
X266771130Y-171783571D01*
X266723511Y-171688333D01*
X266675892Y-171640714D01*
X266580654Y-171593095D01*
X266390178Y-171545476D01*
X266152083Y-171545476D01*
X265961607Y-171593095D01*
X265866369Y-171640714D01*
X265818750Y-171688333D01*
X265771130Y-171783571D01*
X175234880Y-172870833D02*
X174758690Y-172537500D01*
X175234880Y-172299404D02*
X174234880Y-172299404D01*
X174234880Y-172680357D01*
X174282500Y-172775595D01*
X174330119Y-172823214D01*
X174425357Y-172870833D01*
X174568214Y-172870833D01*
X174663452Y-172823214D01*
X174711071Y-172775595D01*
X174758690Y-172680357D01*
X174758690Y-172299404D01*
X174234880Y-173204166D02*
X174234880Y-173823214D01*
X174615833Y-173489880D01*
X174615833Y-173632738D01*
X174663452Y-173727976D01*
X174711071Y-173775595D01*
X174806309Y-173823214D01*
X175044404Y-173823214D01*
X175139642Y-173775595D01*
X175187261Y-173727976D01*
X175234880Y-173632738D01*
X175234880Y-173347023D01*
X175187261Y-173251785D01*
X175139642Y-173204166D01*
X195333630Y-112490714D02*
X194333630Y-112490714D01*
X194333630Y-112728809D01*
X194381250Y-112871666D01*
X194476488Y-112966904D01*
X194571726Y-113014523D01*
X194762202Y-113062142D01*
X194905059Y-113062142D01*
X195095535Y-113014523D01*
X195190773Y-112966904D01*
X195286011Y-112871666D01*
X195333630Y-112728809D01*
X195333630Y-112490714D01*
X195333630Y-114014523D02*
X195333630Y-113443095D01*
X195333630Y-113728809D02*
X194333630Y-113728809D01*
X194476488Y-113633571D01*
X194571726Y-113538333D01*
X194619345Y-113443095D01*
X195333630Y-114490714D02*
X195333630Y-114681190D01*
X195286011Y-114776428D01*
X195238392Y-114824047D01*
X195095535Y-114919285D01*
X194905059Y-114966904D01*
X194524107Y-114966904D01*
X194428869Y-114919285D01*
X194381250Y-114871666D01*
X194333630Y-114776428D01*
X194333630Y-114585952D01*
X194381250Y-114490714D01*
X194428869Y-114443095D01*
X194524107Y-114395476D01*
X194762202Y-114395476D01*
X194857440Y-114443095D01*
X194905059Y-114490714D01*
X194952678Y-114585952D01*
X194952678Y-114776428D01*
X194905059Y-114871666D01*
X194857440Y-114919285D01*
X194762202Y-114966904D01*
X266771130Y-150590714D02*
X265771130Y-150590714D01*
X265771130Y-150828809D01*
X265818750Y-150971666D01*
X265913988Y-151066904D01*
X266009226Y-151114523D01*
X266199702Y-151162142D01*
X266342559Y-151162142D01*
X266533035Y-151114523D01*
X266628273Y-151066904D01*
X266723511Y-150971666D01*
X266771130Y-150828809D01*
X266771130Y-150590714D01*
X266104464Y-152019285D02*
X266771130Y-152019285D01*
X265723511Y-151781190D02*
X266437797Y-151543095D01*
X266437797Y-152162142D01*
X266771130Y-152590714D02*
X266771130Y-152781190D01*
X266723511Y-152876428D01*
X266675892Y-152924047D01*
X266533035Y-153019285D01*
X266342559Y-153066904D01*
X265961607Y-153066904D01*
X265866369Y-153019285D01*
X265818750Y-152971666D01*
X265771130Y-152876428D01*
X265771130Y-152685952D01*
X265818750Y-152590714D01*
X265866369Y-152543095D01*
X265961607Y-152495476D01*
X266199702Y-152495476D01*
X266294940Y-152543095D01*
X266342559Y-152590714D01*
X266390178Y-152685952D01*
X266390178Y-152876428D01*
X266342559Y-152971666D01*
X266294940Y-153019285D01*
X266199702Y-153066904D01*
X281058630Y-93440714D02*
X280058630Y-93440714D01*
X280058630Y-93678809D01*
X280106250Y-93821666D01*
X280201488Y-93916904D01*
X280296726Y-93964523D01*
X280487202Y-94012142D01*
X280630059Y-94012142D01*
X280820535Y-93964523D01*
X280915773Y-93916904D01*
X281011011Y-93821666D01*
X281058630Y-93678809D01*
X281058630Y-93440714D01*
X281058630Y-94964523D02*
X281058630Y-94393095D01*
X281058630Y-94678809D02*
X280058630Y-94678809D01*
X280201488Y-94583571D01*
X280296726Y-94488333D01*
X280344345Y-94393095D01*
X280058630Y-95583571D02*
X280058630Y-95678809D01*
X280106250Y-95774047D01*
X280153869Y-95821666D01*
X280249107Y-95869285D01*
X280439583Y-95916904D01*
X280677678Y-95916904D01*
X280868154Y-95869285D01*
X280963392Y-95821666D01*
X281011011Y-95774047D01*
X281058630Y-95678809D01*
X281058630Y-95583571D01*
X281011011Y-95488333D01*
X280963392Y-95440714D01*
X280868154Y-95393095D01*
X280677678Y-95345476D01*
X280439583Y-95345476D01*
X280249107Y-95393095D01*
X280153869Y-95440714D01*
X280106250Y-95488333D01*
X280058630Y-95583571D01*
X304871130Y-150590714D02*
X303871130Y-150590714D01*
X303871130Y-150828809D01*
X303918750Y-150971666D01*
X304013988Y-151066904D01*
X304109226Y-151114523D01*
X304299702Y-151162142D01*
X304442559Y-151162142D01*
X304633035Y-151114523D01*
X304728273Y-151066904D01*
X304823511Y-150971666D01*
X304871130Y-150828809D01*
X304871130Y-150590714D01*
X303871130Y-152066904D02*
X303871130Y-151590714D01*
X304347321Y-151543095D01*
X304299702Y-151590714D01*
X304252083Y-151685952D01*
X304252083Y-151924047D01*
X304299702Y-152019285D01*
X304347321Y-152066904D01*
X304442559Y-152114523D01*
X304680654Y-152114523D01*
X304775892Y-152066904D01*
X304823511Y-152019285D01*
X304871130Y-151924047D01*
X304871130Y-151685952D01*
X304823511Y-151590714D01*
X304775892Y-151543095D01*
X304871130Y-153066904D02*
X304871130Y-152495476D01*
X304871130Y-152781190D02*
X303871130Y-152781190D01*
X304013988Y-152685952D01*
X304109226Y-152590714D01*
X304156845Y-152495476D01*
X178760416Y-169583392D02*
X178808035Y-169631011D01*
X178950892Y-169678630D01*
X179046130Y-169678630D01*
X179188988Y-169631011D01*
X179284226Y-169535773D01*
X179331845Y-169440535D01*
X179379464Y-169250059D01*
X179379464Y-169107202D01*
X179331845Y-168916726D01*
X179284226Y-168821488D01*
X179188988Y-168726250D01*
X179046130Y-168678630D01*
X178950892Y-168678630D01*
X178808035Y-168726250D01*
X178760416Y-168773869D01*
X178141369Y-168678630D02*
X178046130Y-168678630D01*
X177950892Y-168726250D01*
X177903273Y-168773869D01*
X177855654Y-168869107D01*
X177808035Y-169059583D01*
X177808035Y-169297678D01*
X177855654Y-169488154D01*
X177903273Y-169583392D01*
X177950892Y-169631011D01*
X178046130Y-169678630D01*
X178141369Y-169678630D01*
X178236607Y-169631011D01*
X178284226Y-169583392D01*
X178331845Y-169488154D01*
X178379464Y-169297678D01*
X178379464Y-169059583D01*
X178331845Y-168869107D01*
X178284226Y-168773869D01*
X178236607Y-168726250D01*
X178141369Y-168678630D01*
X114244345Y-97702380D02*
X114244345Y-96702380D01*
X114006250Y-96702380D01*
X113863392Y-96750000D01*
X113768154Y-96845238D01*
X113720535Y-96940476D01*
X113672916Y-97130952D01*
X113672916Y-97273809D01*
X113720535Y-97464285D01*
X113768154Y-97559523D01*
X113863392Y-97654761D01*
X114006250Y-97702380D01*
X114244345Y-97702380D01*
X113053869Y-96702380D02*
X112958630Y-96702380D01*
X112863392Y-96750000D01*
X112815773Y-96797619D01*
X112768154Y-96892857D01*
X112720535Y-97083333D01*
X112720535Y-97321428D01*
X112768154Y-97511904D01*
X112815773Y-97607142D01*
X112863392Y-97654761D01*
X112958630Y-97702380D01*
X113053869Y-97702380D01*
X113149107Y-97654761D01*
X113196726Y-97607142D01*
X113244345Y-97511904D01*
X113291964Y-97321428D01*
X113291964Y-97083333D01*
X113244345Y-96892857D01*
X113196726Y-96797619D01*
X113149107Y-96750000D01*
X113053869Y-96702380D01*
X248289880Y-169640714D02*
X247289880Y-169640714D01*
X247289880Y-169878809D01*
X247337500Y-170021666D01*
X247432738Y-170116904D01*
X247527976Y-170164523D01*
X247718452Y-170212142D01*
X247861309Y-170212142D01*
X248051785Y-170164523D01*
X248147023Y-170116904D01*
X248242261Y-170021666D01*
X248289880Y-169878809D01*
X248289880Y-169640714D01*
X247289880Y-171116904D02*
X247289880Y-170640714D01*
X247766071Y-170593095D01*
X247718452Y-170640714D01*
X247670833Y-170735952D01*
X247670833Y-170974047D01*
X247718452Y-171069285D01*
X247766071Y-171116904D01*
X247861309Y-171164523D01*
X248099404Y-171164523D01*
X248194642Y-171116904D01*
X248242261Y-171069285D01*
X248289880Y-170974047D01*
X248289880Y-170735952D01*
X248242261Y-170640714D01*
X248194642Y-170593095D01*
X247718452Y-171735952D02*
X247670833Y-171640714D01*
X247623214Y-171593095D01*
X247527976Y-171545476D01*
X247480357Y-171545476D01*
X247385119Y-171593095D01*
X247337500Y-171640714D01*
X247289880Y-171735952D01*
X247289880Y-171926428D01*
X247337500Y-172021666D01*
X247385119Y-172069285D01*
X247480357Y-172116904D01*
X247527976Y-172116904D01*
X247623214Y-172069285D01*
X247670833Y-172021666D01*
X247718452Y-171926428D01*
X247718452Y-171735952D01*
X247766071Y-171640714D01*
X247813690Y-171593095D01*
X247908928Y-171545476D01*
X248099404Y-171545476D01*
X248194642Y-171593095D01*
X248242261Y-171640714D01*
X248289880Y-171735952D01*
X248289880Y-171926428D01*
X248242261Y-172021666D01*
X248194642Y-172069285D01*
X248099404Y-172116904D01*
X247908928Y-172116904D01*
X247813690Y-172069285D01*
X247766071Y-172021666D01*
X247718452Y-171926428D01*
X216066666Y-162534880D02*
X216400000Y-162058690D01*
X216638095Y-162534880D02*
X216638095Y-161534880D01*
X216257142Y-161534880D01*
X216161904Y-161582500D01*
X216114285Y-161630119D01*
X216066666Y-161725357D01*
X216066666Y-161868214D01*
X216114285Y-161963452D01*
X216161904Y-162011071D01*
X216257142Y-162058690D01*
X216638095Y-162058690D01*
X215447619Y-161534880D02*
X215352380Y-161534880D01*
X215257142Y-161582500D01*
X215209523Y-161630119D01*
X215161904Y-161725357D01*
X215114285Y-161915833D01*
X215114285Y-162153928D01*
X215161904Y-162344404D01*
X215209523Y-162439642D01*
X215257142Y-162487261D01*
X215352380Y-162534880D01*
X215447619Y-162534880D01*
X215542857Y-162487261D01*
X215590476Y-162439642D01*
X215638095Y-162344404D01*
X215685714Y-162153928D01*
X215685714Y-161915833D01*
X215638095Y-161725357D01*
X215590476Y-161630119D01*
X215542857Y-161582500D01*
X215447619Y-161534880D01*
X138183630Y-112490714D02*
X137183630Y-112490714D01*
X137183630Y-112728809D01*
X137231250Y-112871666D01*
X137326488Y-112966904D01*
X137421726Y-113014523D01*
X137612202Y-113062142D01*
X137755059Y-113062142D01*
X137945535Y-113014523D01*
X138040773Y-112966904D01*
X138136011Y-112871666D01*
X138183630Y-112728809D01*
X138183630Y-112490714D01*
X138183630Y-114014523D02*
X138183630Y-113443095D01*
X138183630Y-113728809D02*
X137183630Y-113728809D01*
X137326488Y-113633571D01*
X137421726Y-113538333D01*
X137469345Y-113443095D01*
X137183630Y-114871666D02*
X137183630Y-114681190D01*
X137231250Y-114585952D01*
X137278869Y-114538333D01*
X137421726Y-114443095D01*
X137612202Y-114395476D01*
X137993154Y-114395476D01*
X138088392Y-114443095D01*
X138136011Y-114490714D01*
X138183630Y-114585952D01*
X138183630Y-114776428D01*
X138136011Y-114871666D01*
X138088392Y-114919285D01*
X137993154Y-114966904D01*
X137755059Y-114966904D01*
X137659821Y-114919285D01*
X137612202Y-114871666D01*
X137564583Y-114776428D01*
X137564583Y-114585952D01*
X137612202Y-114490714D01*
X137659821Y-114443095D01*
X137755059Y-114395476D01*
X328683630Y-112490714D02*
X327683630Y-112490714D01*
X327683630Y-112728809D01*
X327731250Y-112871666D01*
X327826488Y-112966904D01*
X327921726Y-113014523D01*
X328112202Y-113062142D01*
X328255059Y-113062142D01*
X328445535Y-113014523D01*
X328540773Y-112966904D01*
X328636011Y-112871666D01*
X328683630Y-112728809D01*
X328683630Y-112490714D01*
X327778869Y-113443095D02*
X327731250Y-113490714D01*
X327683630Y-113585952D01*
X327683630Y-113824047D01*
X327731250Y-113919285D01*
X327778869Y-113966904D01*
X327874107Y-114014523D01*
X327969345Y-114014523D01*
X328112202Y-113966904D01*
X328683630Y-113395476D01*
X328683630Y-114014523D01*
X327683630Y-114871666D02*
X327683630Y-114681190D01*
X327731250Y-114585952D01*
X327778869Y-114538333D01*
X327921726Y-114443095D01*
X328112202Y-114395476D01*
X328493154Y-114395476D01*
X328588392Y-114443095D01*
X328636011Y-114490714D01*
X328683630Y-114585952D01*
X328683630Y-114776428D01*
X328636011Y-114871666D01*
X328588392Y-114919285D01*
X328493154Y-114966904D01*
X328255059Y-114966904D01*
X328159821Y-114919285D01*
X328112202Y-114871666D01*
X328064583Y-114776428D01*
X328064583Y-114585952D01*
X328112202Y-114490714D01*
X328159821Y-114443095D01*
X328255059Y-114395476D01*
D11*
X99631250Y-101831250D02*
X99631250Y-105731250D01*
X97631250Y-101831250D02*
X99631250Y-101831250D01*
X97631250Y-101831250D02*
X97631250Y-105731250D01*
X270081250Y-115955000D02*
X270081250Y-112055000D01*
X270081250Y-115955000D02*
X268081250Y-115955000D01*
X268081250Y-115955000D02*
X268081250Y-112055000D01*
X303418750Y-173105000D02*
X301418750Y-173105000D01*
X301418750Y-173105000D02*
X301418750Y-169205000D01*
X303418750Y-173105000D02*
X303418750Y-169205000D01*
X196643750Y-135005000D02*
X196643750Y-131105000D01*
X198643750Y-135005000D02*
X196643750Y-135005000D01*
X198643750Y-135005000D02*
X198643750Y-131105000D01*
X171768750Y-169200000D02*
X171768750Y-173700000D01*
X171768750Y-173700000D02*
X166368750Y-173700000D01*
X212931250Y-115955000D02*
X212931250Y-112055000D01*
X212931250Y-115955000D02*
X210931250Y-115955000D01*
X210931250Y-115955000D02*
X210931250Y-112055000D01*
D10*
X91137500Y-99906250D02*
X91137500Y-102806250D01*
X89837500Y-99906250D02*
X89837500Y-102806250D01*
X91137500Y-102806250D02*
X89837500Y-102806250D01*
X89837500Y-99906250D02*
X91137500Y-99906250D01*
D11*
X289131250Y-115955000D02*
X289131250Y-112055000D01*
X289131250Y-115955000D02*
X287131250Y-115955000D01*
X287131250Y-115955000D02*
X287131250Y-112055000D01*
X274843750Y-135005000D02*
X274843750Y-131105000D01*
X274843750Y-135005000D02*
X272843750Y-135005000D01*
X272843750Y-135005000D02*
X272843750Y-131105000D01*
X306181250Y-115955000D02*
X306181250Y-112055000D01*
X308181250Y-115955000D02*
X306181250Y-115955000D01*
X308181250Y-115955000D02*
X308181250Y-112055000D01*
X344281250Y-96905000D02*
X344281250Y-93005000D01*
X346281250Y-96905000D02*
X344281250Y-96905000D01*
X346281250Y-96905000D02*
X346281250Y-93005000D01*
X284368750Y-173105000D02*
X282368750Y-173105000D01*
X282368750Y-173105000D02*
X282368750Y-169205000D01*
X284368750Y-173105000D02*
X284368750Y-169205000D01*
X203406250Y-96905000D02*
X201406250Y-96905000D01*
X203406250Y-96905000D02*
X203406250Y-93005000D01*
X201406250Y-96905000D02*
X201406250Y-93005000D01*
X130043750Y-138350000D02*
X126143750Y-138350000D01*
X130043750Y-136350000D02*
X126143750Y-136350000D01*
X130043750Y-136350000D02*
X130043750Y-138350000D01*
X82727500Y-89137258D02*
X82727500Y-88662742D01*
X83772500Y-89137258D02*
X83772500Y-88662742D01*
X229981250Y-115955000D02*
X229981250Y-112055000D01*
X231981250Y-115955000D02*
X231981250Y-112055000D01*
X231981250Y-115955000D02*
X229981250Y-115955000D01*
X115756250Y-95300000D02*
X111856250Y-95300000D01*
X115756250Y-97300000D02*
X111856250Y-97300000D01*
X115756250Y-95300000D02*
X115756250Y-97300000D01*
X208168750Y-154055000D02*
X206168750Y-154055000D01*
X208168750Y-154055000D02*
X208168750Y-150155000D01*
X206168750Y-154055000D02*
X206168750Y-150155000D01*
X351043750Y-115955000D02*
X349043750Y-115955000D01*
X349043750Y-115955000D02*
X349043750Y-112055000D01*
X351043750Y-115955000D02*
X351043750Y-112055000D01*
X184356250Y-96905000D02*
X184356250Y-93005000D01*
X184356250Y-96905000D02*
X182356250Y-96905000D01*
X182356250Y-96905000D02*
X182356250Y-93005000D01*
X96960000Y-104583314D02*
X96960000Y-103379186D01*
X95140000Y-104583314D02*
X95140000Y-103379186D01*
X243887500Y-173105000D02*
X243887500Y-169205000D01*
X241887500Y-173105000D02*
X241887500Y-169205000D01*
X243887500Y-173105000D02*
X241887500Y-173105000D01*
X103775000Y-173105000D02*
X103775000Y-169205000D01*
X105775000Y-173105000D02*
X105775000Y-169205000D01*
X105775000Y-173105000D02*
X103775000Y-173105000D01*
X127206250Y-96905000D02*
X125206250Y-96905000D01*
X125206250Y-96905000D02*
X125206250Y-93005000D01*
X127206250Y-96905000D02*
X127206250Y-93005000D01*
X167685000Y-175278170D02*
X167685000Y-175559330D01*
X166665000Y-175278170D02*
X166665000Y-175559330D01*
X146256250Y-173105000D02*
X144256250Y-173105000D01*
X144256250Y-173105000D02*
X144256250Y-169205000D01*
X146256250Y-173105000D02*
X146256250Y-169205000D01*
X320468750Y-173105000D02*
X320468750Y-169205000D01*
X322468750Y-173105000D02*
X322468750Y-169205000D01*
X322468750Y-173105000D02*
X320468750Y-173105000D01*
D10*
X172587500Y-159887500D02*
X172912500Y-159887500D01*
X179837500Y-159887500D02*
X179837500Y-160212500D01*
X172587500Y-167137500D02*
X172587500Y-166912500D01*
X172587500Y-166912500D02*
X171162500Y-166912500D01*
X172587500Y-167137500D02*
X172912500Y-167137500D01*
X172587500Y-159887500D02*
X172587500Y-160212500D01*
X179837500Y-159887500D02*
X179512500Y-159887500D01*
X179837500Y-167137500D02*
X179837500Y-166812500D01*
X179837500Y-167137500D02*
X179512500Y-167137500D01*
D11*
X99012500Y-154055000D02*
X99012500Y-150155000D01*
X101012500Y-154055000D02*
X99012500Y-154055000D01*
X101012500Y-154055000D02*
X101012500Y-150155000D01*
X343900000Y-135005000D02*
X343900000Y-131105000D01*
X341900000Y-135005000D02*
X341900000Y-131105000D01*
X343900000Y-135005000D02*
X341900000Y-135005000D01*
X246268750Y-154055000D02*
X244268750Y-154055000D01*
X246268750Y-154055000D02*
X246268750Y-150155000D01*
X244268750Y-154055000D02*
X244268750Y-150155000D01*
X160543750Y-135005000D02*
X158543750Y-135005000D01*
X160543750Y-135005000D02*
X160543750Y-131105000D01*
X158543750Y-135005000D02*
X158543750Y-131105000D01*
X227218750Y-154055000D02*
X225218750Y-154055000D01*
X227218750Y-154055000D02*
X227218750Y-150155000D01*
X225218750Y-154055000D02*
X225218750Y-150155000D01*
X174831250Y-115955000D02*
X174831250Y-112055000D01*
X172831250Y-115955000D02*
X172831250Y-112055000D01*
X174831250Y-115955000D02*
X172831250Y-115955000D01*
X352167500Y-167957500D02*
X352167500Y-173097500D01*
X352167500Y-173097500D02*
X346967500Y-173097500D01*
X349567500Y-165357500D02*
X346967500Y-165357500D01*
X346967500Y-165357500D02*
X346967500Y-173097500D01*
X352167500Y-165357500D02*
X350837500Y-165357500D01*
X349567500Y-167957500D02*
X349567500Y-165357500D01*
X352167500Y-166687500D02*
X352167500Y-165357500D01*
X352167500Y-167957500D02*
X349567500Y-167957500D01*
X125281250Y-117300000D02*
X121381250Y-117300000D01*
X125281250Y-119300000D02*
X121381250Y-119300000D01*
X125281250Y-117300000D02*
X125281250Y-119300000D01*
X322468750Y-154055000D02*
X322468750Y-150155000D01*
X322468750Y-154055000D02*
X320468750Y-154055000D01*
X320468750Y-154055000D02*
X320468750Y-150155000D01*
X255793750Y-135005000D02*
X253793750Y-135005000D01*
X253793750Y-135005000D02*
X253793750Y-131105000D01*
X255793750Y-135005000D02*
X255793750Y-131105000D01*
X155781250Y-115955000D02*
X155781250Y-112055000D01*
X153781250Y-115955000D02*
X153781250Y-112055000D01*
X155781250Y-115955000D02*
X153781250Y-115955000D01*
X312943750Y-135005000D02*
X310943750Y-135005000D01*
X310943750Y-135005000D02*
X310943750Y-131105000D01*
X312943750Y-135005000D02*
X312943750Y-131105000D01*
X171166250Y-175278170D02*
X171166250Y-175559330D01*
X170146250Y-175278170D02*
X170146250Y-175559330D01*
X150225000Y-173105000D02*
X148225000Y-173105000D01*
X148225000Y-173105000D02*
X148225000Y-169205000D01*
X150225000Y-173105000D02*
X150225000Y-169205000D01*
X165306250Y-96905000D02*
X163306250Y-96905000D01*
X163306250Y-96905000D02*
X163306250Y-93005000D01*
X165306250Y-96905000D02*
X165306250Y-93005000D01*
X241506250Y-96905000D02*
X239506250Y-96905000D01*
X241506250Y-96905000D02*
X241506250Y-93005000D01*
X239506250Y-96905000D02*
X239506250Y-93005000D01*
X298656250Y-96905000D02*
X298656250Y-93005000D01*
X298656250Y-96905000D02*
X296656250Y-96905000D01*
X296656250Y-96905000D02*
X296656250Y-93005000D01*
X348662500Y-154055000D02*
X346662500Y-154055000D01*
X346662500Y-154055000D02*
X346662500Y-150155000D01*
X348662500Y-154055000D02*
X348662500Y-150155000D01*
X222001250Y-167412500D02*
X222001250Y-170312500D01*
X222001250Y-170312500D02*
X221511250Y-170802500D01*
X216561250Y-170312500D02*
X217051250Y-170802500D01*
X216561250Y-167412500D02*
X217051250Y-166922500D01*
X220321250Y-166142500D02*
X218241250Y-166142500D01*
X220321250Y-171582500D02*
X218241250Y-171582500D01*
X222001250Y-167412500D02*
X221511250Y-166922500D01*
X216561250Y-167412500D02*
X216561250Y-170312500D01*
X187118750Y-154055000D02*
X187118750Y-150155000D01*
X189118750Y-154055000D02*
X187118750Y-154055000D01*
X189118750Y-154055000D02*
X189118750Y-150155000D01*
X127206250Y-173105000D02*
X125206250Y-173105000D01*
X127206250Y-173105000D02*
X127206250Y-169205000D01*
X125206250Y-173105000D02*
X125206250Y-169205000D01*
X260556250Y-96905000D02*
X260556250Y-93005000D01*
X260556250Y-96905000D02*
X258556250Y-96905000D01*
X258556250Y-96905000D02*
X258556250Y-93005000D01*
X174102500Y-172800242D02*
X174102500Y-173274758D01*
X175147500Y-172800242D02*
X175147500Y-173274758D01*
X144256250Y-96905000D02*
X144256250Y-93005000D01*
X146256250Y-96905000D02*
X144256250Y-96905000D01*
X146256250Y-96905000D02*
X146256250Y-93005000D01*
X130043750Y-133400000D02*
X130043750Y-135400000D01*
X130043750Y-135400000D02*
X126143750Y-135400000D01*
X130043750Y-133400000D02*
X126143750Y-133400000D01*
X168068750Y-154055000D02*
X168068750Y-150155000D01*
X170068750Y-154055000D02*
X170068750Y-150155000D01*
X170068750Y-154055000D02*
X168068750Y-154055000D01*
X284368750Y-154055000D02*
X284368750Y-150155000D01*
X282368750Y-154055000D02*
X282368750Y-150155000D01*
X284368750Y-154055000D02*
X282368750Y-154055000D01*
X141493750Y-135005000D02*
X141493750Y-131105000D01*
X141493750Y-135005000D02*
X139493750Y-135005000D01*
X139493750Y-135005000D02*
X139493750Y-131105000D01*
X217693750Y-135005000D02*
X215693750Y-135005000D01*
X217693750Y-135005000D02*
X217693750Y-131105000D01*
X215693750Y-135005000D02*
X215693750Y-131105000D01*
X125281250Y-114350000D02*
X125281250Y-116350000D01*
X125281250Y-114350000D02*
X121381250Y-114350000D01*
X125281250Y-116350000D02*
X121381250Y-116350000D01*
X341518750Y-173105000D02*
X341518750Y-169205000D01*
X339518750Y-173105000D02*
X339518750Y-169205000D01*
X341518750Y-173105000D02*
X339518750Y-173105000D01*
X129968750Y-154055000D02*
X129968750Y-150155000D01*
X131968750Y-154055000D02*
X129968750Y-154055000D01*
X131968750Y-154055000D02*
X131968750Y-150155000D01*
X315706250Y-96905000D02*
X315706250Y-93005000D01*
X317706250Y-96905000D02*
X315706250Y-96905000D01*
X317706250Y-96905000D02*
X317706250Y-93005000D01*
X151018750Y-154055000D02*
X151018750Y-150155000D01*
X151018750Y-154055000D02*
X149018750Y-154055000D01*
X149018750Y-154055000D02*
X149018750Y-150155000D01*
X234743750Y-135005000D02*
X234743750Y-131105000D01*
X236743750Y-135005000D02*
X236743750Y-131105000D01*
X236743750Y-135005000D02*
X234743750Y-135005000D01*
X291893750Y-135005000D02*
X291893750Y-131105000D01*
X293893750Y-135005000D02*
X293893750Y-131105000D01*
X293893750Y-135005000D02*
X291893750Y-135005000D01*
X249031250Y-115955000D02*
X249031250Y-112055000D01*
X251031250Y-115955000D02*
X251031250Y-112055000D01*
X251031250Y-115955000D02*
X249031250Y-115955000D01*
X81802500Y-89137258D02*
X81802500Y-88662742D01*
X80757500Y-89137258D02*
X80757500Y-88662742D01*
X179593750Y-135005000D02*
X179593750Y-131105000D01*
X179593750Y-135005000D02*
X177593750Y-135005000D01*
X177593750Y-135005000D02*
X177593750Y-131105000D01*
X222456250Y-96905000D02*
X220456250Y-96905000D01*
X222456250Y-96905000D02*
X222456250Y-93005000D01*
X220456250Y-96905000D02*
X220456250Y-93005000D01*
X263318750Y-173105000D02*
X263318750Y-169205000D01*
X265318750Y-173105000D02*
X265318750Y-169205000D01*
X265318750Y-173105000D02*
X263318750Y-173105000D01*
X175690000Y-172800242D02*
X175690000Y-173274758D01*
X176735000Y-172800242D02*
X176735000Y-173274758D01*
X193881250Y-115955000D02*
X193881250Y-112055000D01*
X191881250Y-115955000D02*
X191881250Y-112055000D01*
X193881250Y-115955000D02*
X191881250Y-115955000D01*
X265318750Y-154055000D02*
X263318750Y-154055000D01*
X263318750Y-154055000D02*
X263318750Y-150155000D01*
X265318750Y-154055000D02*
X265318750Y-150155000D01*
X277606250Y-96905000D02*
X277606250Y-93005000D01*
X279606250Y-96905000D02*
X277606250Y-96905000D01*
X279606250Y-96905000D02*
X279606250Y-93005000D01*
X303418750Y-154055000D02*
X303418750Y-150155000D01*
X301418750Y-154055000D02*
X301418750Y-150155000D01*
X303418750Y-154055000D02*
X301418750Y-154055000D01*
X178734330Y-170146250D02*
X178453170Y-170146250D01*
X178734330Y-171166250D02*
X178453170Y-171166250D01*
X115756250Y-98250000D02*
X115756250Y-100250000D01*
X115756250Y-100250000D02*
X111856250Y-100250000D01*
X115756250Y-98250000D02*
X111856250Y-98250000D01*
X246837500Y-173105000D02*
X246837500Y-169205000D01*
X244837500Y-173105000D02*
X244837500Y-169205000D01*
X246837500Y-173105000D02*
X244837500Y-173105000D01*
X216137258Y-162990000D02*
X215662742Y-162990000D01*
X216137258Y-164035000D02*
X215662742Y-164035000D01*
X134731250Y-115955000D02*
X134731250Y-112055000D01*
X136731250Y-115955000D02*
X134731250Y-115955000D01*
X136731250Y-115955000D02*
X136731250Y-112055000D01*
X327231250Y-115955000D02*
X325231250Y-115955000D01*
X327231250Y-115955000D02*
X327231250Y-112055000D01*
X325231250Y-115955000D02*
X325231250Y-112055000D01*
M02*
