G04 #@! TF.GenerationSoftware,KiCad,Pcbnew,(6.0.10)*
G04 #@! TF.CreationDate,2023-01-06T17:15:24+11:00*
G04 #@! TF.ProjectId,exp60,65787036-302e-46b6-9963-61645f706362,rev?*
G04 #@! TF.SameCoordinates,Original*
G04 #@! TF.FileFunction,Copper,L2,Bot*
G04 #@! TF.FilePolarity,Positive*
%FSLAX46Y46*%
G04 Gerber Fmt 4.6, Leading zero omitted, Abs format (unit mm)*
G04 Created by KiCad (PCBNEW (6.0.10)) date 2023-01-06 17:15:24*
%MOMM*%
%LPD*%
G01*
G04 APERTURE LIST*
G04 Aperture macros list*
%AMRoundRect*
0 Rectangle with rounded corners*
0 $1 Rounding radius*
0 $2 $3 $4 $5 $6 $7 $8 $9 X,Y pos of 4 corners*
0 Add a 4 corners polygon primitive as box body*
4,1,4,$2,$3,$4,$5,$6,$7,$8,$9,$2,$3,0*
0 Add four circle primitives for the rounded corners*
1,1,$1+$1,$2,$3*
1,1,$1+$1,$4,$5*
1,1,$1+$1,$6,$7*
1,1,$1+$1,$8,$9*
0 Add four rect primitives between the rounded corners*
20,1,$1+$1,$2,$3,$4,$5,0*
20,1,$1+$1,$4,$5,$6,$7,0*
20,1,$1+$1,$6,$7,$8,$9,0*
20,1,$1+$1,$8,$9,$2,$3,0*%
G04 Aperture macros list end*
%ADD10C,0.300000*%
G04 #@! TA.AperFunction,NonConductor*
%ADD11C,0.300000*%
G04 #@! TD*
G04 #@! TA.AperFunction,SMDPad,CuDef*
%ADD12R,2.550000X2.500000*%
G04 #@! TD*
G04 #@! TA.AperFunction,SMDPad,CuDef*
%ADD13R,1.200000X0.900000*%
G04 #@! TD*
G04 #@! TA.AperFunction,SMDPad,CuDef*
%ADD14R,2.100000X1.800000*%
G04 #@! TD*
G04 #@! TA.AperFunction,SMDPad,CuDef*
%ADD15RoundRect,0.250000X-0.475000X0.250000X-0.475000X-0.250000X0.475000X-0.250000X0.475000X0.250000X0*%
G04 #@! TD*
G04 #@! TA.AperFunction,SMDPad,CuDef*
%ADD16RoundRect,0.250000X-0.262500X-0.450000X0.262500X-0.450000X0.262500X0.450000X-0.262500X0.450000X0*%
G04 #@! TD*
G04 #@! TA.AperFunction,SMDPad,CuDef*
%ADD17R,1.700000X1.000000*%
G04 #@! TD*
G04 #@! TA.AperFunction,SMDPad,CuDef*
%ADD18R,1.700000X0.600000*%
G04 #@! TD*
G04 #@! TA.AperFunction,SMDPad,CuDef*
%ADD19RoundRect,0.250000X0.450000X-0.262500X0.450000X0.262500X-0.450000X0.262500X-0.450000X-0.262500X0*%
G04 #@! TD*
G04 #@! TA.AperFunction,SMDPad,CuDef*
%ADD20R,0.900000X1.200000*%
G04 #@! TD*
G04 #@! TA.AperFunction,SMDPad,CuDef*
%ADD21R,1.600000X0.550000*%
G04 #@! TD*
G04 #@! TA.AperFunction,SMDPad,CuDef*
%ADD22R,0.550000X1.600000*%
G04 #@! TD*
G04 #@! TA.AperFunction,ConnectorPad*
%ADD23C,0.787400*%
G04 #@! TD*
G04 #@! TA.AperFunction,SMDPad,CuDef*
%ADD24R,0.600000X2.000000*%
G04 #@! TD*
G04 #@! TA.AperFunction,SMDPad,CuDef*
%ADD25R,0.300000X2.000000*%
G04 #@! TD*
G04 #@! TA.AperFunction,ComponentPad*
%ADD26O,1.050000X2.100000*%
G04 #@! TD*
G04 #@! TA.AperFunction,ComponentPad*
%ADD27O,1.000000X2.000000*%
G04 #@! TD*
G04 #@! TA.AperFunction,SMDPad,CuDef*
%ADD28RoundRect,0.250000X0.250000X0.475000X-0.250000X0.475000X-0.250000X-0.475000X0.250000X-0.475000X0*%
G04 #@! TD*
G04 #@! TA.AperFunction,SMDPad,CuDef*
%ADD29R,1.100000X1.800000*%
G04 #@! TD*
G04 #@! TA.AperFunction,SMDPad,CuDef*
%ADD30RoundRect,0.250000X-0.450000X0.262500X-0.450000X-0.262500X0.450000X-0.262500X0.450000X0.262500X0*%
G04 #@! TD*
G04 #@! TA.AperFunction,SMDPad,CuDef*
%ADD31RoundRect,0.250000X0.625000X-0.375000X0.625000X0.375000X-0.625000X0.375000X-0.625000X-0.375000X0*%
G04 #@! TD*
G04 #@! TA.AperFunction,SMDPad,CuDef*
%ADD32RoundRect,0.250000X-0.700000X0.275000X-0.700000X-0.275000X0.700000X-0.275000X0.700000X0.275000X0*%
G04 #@! TD*
G04 #@! TA.AperFunction,ViaPad*
%ADD33C,0.600000*%
G04 #@! TD*
G04 #@! TA.AperFunction,Conductor*
%ADD34C,0.250000*%
G04 #@! TD*
G04 #@! TA.AperFunction,Conductor*
%ADD35C,0.381000*%
G04 #@! TD*
G04 #@! TA.AperFunction,Conductor*
%ADD36C,0.200000*%
G04 #@! TD*
G04 #@! TA.AperFunction,Conductor*
%ADD37C,0.261112*%
G04 #@! TD*
G04 APERTURE END LIST*
D10*
D11*
X82828571Y-165934642D02*
X82971428Y-166006071D01*
X83257142Y-166006071D01*
X83400000Y-165934642D01*
X83471428Y-165791785D01*
X83471428Y-165220357D01*
X83400000Y-165077500D01*
X83257142Y-165006071D01*
X82971428Y-165006071D01*
X82828571Y-165077500D01*
X82757142Y-165220357D01*
X82757142Y-165363214D01*
X83471428Y-165506071D01*
X82257142Y-166006071D02*
X81471428Y-165006071D01*
X82257142Y-165006071D02*
X81471428Y-166006071D01*
X80900000Y-165006071D02*
X80900000Y-166506071D01*
X80900000Y-165077500D02*
X80757142Y-165006071D01*
X80471428Y-165006071D01*
X80328571Y-165077500D01*
X80257142Y-165148928D01*
X80185714Y-165291785D01*
X80185714Y-165720357D01*
X80257142Y-165863214D01*
X80328571Y-165934642D01*
X80471428Y-166006071D01*
X80757142Y-166006071D01*
X80900000Y-165934642D01*
X78900000Y-164506071D02*
X79185714Y-164506071D01*
X79328571Y-164577500D01*
X79400000Y-164648928D01*
X79542857Y-164863214D01*
X79614285Y-165148928D01*
X79614285Y-165720357D01*
X79542857Y-165863214D01*
X79471428Y-165934642D01*
X79328571Y-166006071D01*
X79042857Y-166006071D01*
X78900000Y-165934642D01*
X78828571Y-165863214D01*
X78757142Y-165720357D01*
X78757142Y-165363214D01*
X78828571Y-165220357D01*
X78900000Y-165148928D01*
X79042857Y-165077500D01*
X79328571Y-165077500D01*
X79471428Y-165148928D01*
X79542857Y-165220357D01*
X79614285Y-165363214D01*
X77828571Y-164506071D02*
X77685714Y-164506071D01*
X77542857Y-164577500D01*
X77471428Y-164648928D01*
X77400000Y-164791785D01*
X77328571Y-165077500D01*
X77328571Y-165434642D01*
X77400000Y-165720357D01*
X77471428Y-165863214D01*
X77542857Y-165934642D01*
X77685714Y-166006071D01*
X77828571Y-166006071D01*
X77971428Y-165934642D01*
X78042857Y-165863214D01*
X78114285Y-165720357D01*
X78185714Y-165434642D01*
X78185714Y-165077500D01*
X78114285Y-164791785D01*
X78042857Y-164648928D01*
X77971428Y-164577500D01*
X77828571Y-164506071D01*
X81292857Y-168421071D02*
X81292857Y-166921071D01*
X81292857Y-167492500D02*
X81150000Y-167421071D01*
X80864285Y-167421071D01*
X80721428Y-167492500D01*
X80650000Y-167563928D01*
X80578571Y-167706785D01*
X80578571Y-168135357D01*
X80650000Y-168278214D01*
X80721428Y-168349642D01*
X80864285Y-168421071D01*
X81150000Y-168421071D01*
X81292857Y-168349642D01*
X80078571Y-167421071D02*
X79721428Y-168421071D01*
X79364285Y-167421071D02*
X79721428Y-168421071D01*
X79864285Y-168778214D01*
X79935714Y-168849642D01*
X80078571Y-168921071D01*
X84185714Y-170693214D02*
X84257142Y-170764642D01*
X84471428Y-170836071D01*
X84614285Y-170836071D01*
X84828571Y-170764642D01*
X84971428Y-170621785D01*
X85042857Y-170478928D01*
X85114285Y-170193214D01*
X85114285Y-169978928D01*
X85042857Y-169693214D01*
X84971428Y-169550357D01*
X84828571Y-169407500D01*
X84614285Y-169336071D01*
X84471428Y-169336071D01*
X84257142Y-169407500D01*
X84185714Y-169478928D01*
X83542857Y-170836071D02*
X83542857Y-169336071D01*
X82900000Y-170836071D02*
X82900000Y-170050357D01*
X82971428Y-169907500D01*
X83114285Y-169836071D01*
X83328571Y-169836071D01*
X83471428Y-169907500D01*
X83542857Y-169978928D01*
X82185714Y-170836071D02*
X82185714Y-169836071D01*
X82185714Y-170121785D02*
X82114285Y-169978928D01*
X82042857Y-169907500D01*
X81900000Y-169836071D01*
X81757142Y-169836071D01*
X81257142Y-170836071D02*
X81257142Y-169836071D01*
X81257142Y-169336071D02*
X81328571Y-169407500D01*
X81257142Y-169478928D01*
X81185714Y-169407500D01*
X81257142Y-169336071D01*
X81257142Y-169478928D01*
X80614285Y-170764642D02*
X80471428Y-170836071D01*
X80185714Y-170836071D01*
X80042857Y-170764642D01*
X79971428Y-170621785D01*
X79971428Y-170550357D01*
X80042857Y-170407500D01*
X80185714Y-170336071D01*
X80400000Y-170336071D01*
X80542857Y-170264642D01*
X80614285Y-170121785D01*
X80614285Y-170050357D01*
X80542857Y-169907500D01*
X80400000Y-169836071D01*
X80185714Y-169836071D01*
X80042857Y-169907500D01*
X79542857Y-169836071D02*
X78971428Y-169836071D01*
X79328571Y-169336071D02*
X79328571Y-170621785D01*
X79257142Y-170764642D01*
X79114285Y-170836071D01*
X78971428Y-170836071D01*
X78471428Y-170836071D02*
X78471428Y-169836071D01*
X78471428Y-169336071D02*
X78542857Y-169407500D01*
X78471428Y-169478928D01*
X78400000Y-169407500D01*
X78471428Y-169336071D01*
X78471428Y-169478928D01*
X77114285Y-170836071D02*
X77114285Y-170050357D01*
X77185714Y-169907500D01*
X77328571Y-169836071D01*
X77614285Y-169836071D01*
X77757142Y-169907500D01*
X77114285Y-170764642D02*
X77257142Y-170836071D01*
X77614285Y-170836071D01*
X77757142Y-170764642D01*
X77828571Y-170621785D01*
X77828571Y-170478928D01*
X77757142Y-170336071D01*
X77614285Y-170264642D01*
X77257142Y-170264642D01*
X77114285Y-170193214D01*
X76400000Y-169836071D02*
X76400000Y-170836071D01*
X76400000Y-169978928D02*
X76328571Y-169907500D01*
X76185714Y-169836071D01*
X75971428Y-169836071D01*
X75828571Y-169907500D01*
X75757142Y-170050357D01*
X75757142Y-170836071D01*
X84471428Y-173179642D02*
X84257142Y-173251071D01*
X83900000Y-173251071D01*
X83757142Y-173179642D01*
X83685714Y-173108214D01*
X83614285Y-172965357D01*
X83614285Y-172822500D01*
X83685714Y-172679642D01*
X83757142Y-172608214D01*
X83900000Y-172536785D01*
X84185714Y-172465357D01*
X84328571Y-172393928D01*
X84400000Y-172322500D01*
X84471428Y-172179642D01*
X84471428Y-172036785D01*
X84400000Y-171893928D01*
X84328571Y-171822500D01*
X84185714Y-171751071D01*
X83828571Y-171751071D01*
X83614285Y-171822500D01*
X82328571Y-173179642D02*
X82471428Y-173251071D01*
X82757142Y-173251071D01*
X82900000Y-173179642D01*
X82971428Y-173108214D01*
X83042857Y-172965357D01*
X83042857Y-172536785D01*
X82971428Y-172393928D01*
X82900000Y-172322500D01*
X82757142Y-172251071D01*
X82471428Y-172251071D01*
X82328571Y-172322500D01*
X81685714Y-173251071D02*
X81685714Y-171751071D01*
X81042857Y-173251071D02*
X81042857Y-172465357D01*
X81114285Y-172322500D01*
X81257142Y-172251071D01*
X81471428Y-172251071D01*
X81614285Y-172322500D01*
X81685714Y-172393928D01*
X79685714Y-172251071D02*
X79685714Y-173251071D01*
X80328571Y-172251071D02*
X80328571Y-173036785D01*
X80257142Y-173179642D01*
X80114285Y-173251071D01*
X79900000Y-173251071D01*
X79757142Y-173179642D01*
X79685714Y-173108214D01*
X78757142Y-173251071D02*
X78900000Y-173179642D01*
X78971428Y-173036785D01*
X78971428Y-171751071D01*
X78328571Y-172251071D02*
X77542857Y-172251071D01*
X78328571Y-173251071D01*
X77542857Y-173251071D01*
X76400000Y-173179642D02*
X76542857Y-173251071D01*
X76828571Y-173251071D01*
X76971428Y-173179642D01*
X77042857Y-173036785D01*
X77042857Y-172465357D01*
X76971428Y-172322500D01*
X76828571Y-172251071D01*
X76542857Y-172251071D01*
X76400000Y-172322500D01*
X76328571Y-172465357D01*
X76328571Y-172608214D01*
X77042857Y-172751071D01*
D12*
X120995000Y-109665000D03*
X133922000Y-107125000D03*
X144807500Y-128715000D03*
X157734500Y-126175000D03*
X163857500Y-128715000D03*
X176784500Y-126175000D03*
X328163750Y-128715000D03*
X341090750Y-126175000D03*
X268632500Y-166815000D03*
X281559500Y-164275000D03*
X173382500Y-147765000D03*
X186309500Y-145225000D03*
X135282500Y-147765000D03*
X148209500Y-145225000D03*
X130520000Y-90615000D03*
X143447000Y-88075000D03*
X151951250Y-166815000D03*
X164878250Y-164275000D03*
X332926250Y-147765000D03*
X345853250Y-145225000D03*
X216245000Y-109665000D03*
X229172000Y-107125000D03*
X330545000Y-90615000D03*
X343472000Y-88075000D03*
X190051250Y-166815000D03*
X202978250Y-164275000D03*
X297207500Y-128715000D03*
X310134500Y-126175000D03*
X225770000Y-90615000D03*
X238697000Y-88075000D03*
X228151250Y-166815000D03*
X241078250Y-164275000D03*
X85276250Y-147765000D03*
X98203250Y-145225000D03*
X106590000Y-95695000D03*
X93663000Y-98235000D03*
X106707500Y-128715000D03*
X119634500Y-126175000D03*
X78132500Y-109665000D03*
X91059500Y-107125000D03*
X111470000Y-166815000D03*
X124397000Y-164275000D03*
X149570000Y-90615000D03*
X162497000Y-88075000D03*
X90038750Y-166815000D03*
X102965750Y-164275000D03*
X159095000Y-109665000D03*
X172022000Y-107125000D03*
X282920000Y-90615000D03*
X295847000Y-88075000D03*
X235295000Y-109665000D03*
X248222000Y-107125000D03*
X192432500Y-147765000D03*
X205359500Y-145225000D03*
X268632500Y-147765000D03*
X281559500Y-145225000D03*
X292445000Y-109665000D03*
X305372000Y-107125000D03*
X287682500Y-147765000D03*
X300609500Y-145225000D03*
X130520000Y-166815000D03*
X143447000Y-164275000D03*
X335307500Y-109665000D03*
X348234500Y-107125000D03*
X244820000Y-90615000D03*
X257747000Y-88075000D03*
X259107500Y-128715000D03*
X272034500Y-126175000D03*
X263870000Y-90615000D03*
X276797000Y-88075000D03*
X278157500Y-128715000D03*
X291084500Y-126175000D03*
X301970000Y-90615000D03*
X314897000Y-88075000D03*
X125757500Y-128715000D03*
X138684500Y-126175000D03*
X101945000Y-109665000D03*
X114872000Y-107125000D03*
X273395000Y-109665000D03*
X286322000Y-107125000D03*
X168620000Y-90615000D03*
X181547000Y-88075000D03*
X249582500Y-147765000D03*
X262509500Y-145225000D03*
X211482500Y-147765000D03*
X224409500Y-145225000D03*
X306732500Y-147765000D03*
X319659500Y-145225000D03*
X249582500Y-166815000D03*
X262509500Y-164275000D03*
X116232500Y-147765000D03*
X129159500Y-145225000D03*
X111470000Y-90615000D03*
X124397000Y-88075000D03*
X287682500Y-166815000D03*
X300609500Y-164275000D03*
X80513750Y-128715000D03*
X93440750Y-126175000D03*
X311495000Y-109665000D03*
X324422000Y-107125000D03*
X197195000Y-109665000D03*
X210122000Y-107125000D03*
X325782500Y-166815000D03*
X338709500Y-164275000D03*
X201957500Y-128715000D03*
X214884500Y-126175000D03*
X87540000Y-95695000D03*
X74613000Y-98235000D03*
X206720000Y-90615000D03*
X219647000Y-88075000D03*
X230532500Y-147765000D03*
X243459500Y-145225000D03*
X182907500Y-128715000D03*
X195834500Y-126175000D03*
X306732500Y-166815000D03*
X319659500Y-164275000D03*
X140045000Y-109665000D03*
X152972000Y-107125000D03*
X240057500Y-128715000D03*
X252984500Y-126175000D03*
X187670000Y-90615000D03*
X200597000Y-88075000D03*
X178145000Y-109665000D03*
X191072000Y-107125000D03*
X221007500Y-128715000D03*
X233934500Y-126175000D03*
X254345000Y-109665000D03*
X267272000Y-107125000D03*
X154332500Y-147765000D03*
X167259500Y-145225000D03*
D13*
X269081250Y-115355000D03*
X269081250Y-112055000D03*
X302418750Y-172505000D03*
X302418750Y-169205000D03*
X197643750Y-134405000D03*
X197643750Y-131105000D03*
D14*
X170518750Y-173393750D03*
X167618750Y-173393750D03*
X167618750Y-171093750D03*
X170518750Y-171093750D03*
D15*
X163512500Y-158593750D03*
X163512500Y-160493750D03*
D16*
X176093750Y-156305000D03*
X177918750Y-156305000D03*
D13*
X211931250Y-115355000D03*
X211931250Y-112055000D03*
D17*
X91987500Y-100606250D03*
D18*
X91987500Y-102306250D03*
X88987500Y-102306250D03*
X88987500Y-100406250D03*
D15*
X156368750Y-158593750D03*
X156368750Y-160493750D03*
D19*
X82550000Y-89812500D03*
X82550000Y-87987500D03*
D13*
X288131250Y-115355000D03*
X288131250Y-112055000D03*
X273843750Y-134405000D03*
X273843750Y-131105000D03*
X307181250Y-115355000D03*
X307181250Y-112055000D03*
X345281250Y-96305000D03*
X345281250Y-93005000D03*
X283368750Y-172505000D03*
X283368750Y-169205000D03*
X202406250Y-96305000D03*
X202406250Y-93005000D03*
D20*
X129443750Y-137350000D03*
X126143750Y-137350000D03*
D13*
X230981250Y-115355000D03*
X230981250Y-112055000D03*
D20*
X115156250Y-96300000D03*
X111856250Y-96300000D03*
D13*
X207168750Y-153455000D03*
X207168750Y-150155000D03*
X96837500Y-102331250D03*
X96837500Y-105631250D03*
X350043750Y-115355000D03*
X350043750Y-112055000D03*
X183356250Y-96305000D03*
X183356250Y-93005000D03*
X242887500Y-172505000D03*
X242887500Y-169205000D03*
X104775000Y-172505000D03*
X104775000Y-169205000D03*
X126206250Y-96305000D03*
X126206250Y-93005000D03*
D15*
X165100000Y-171837500D03*
X165100000Y-173737500D03*
D13*
X145256250Y-172505000D03*
X145256250Y-169205000D03*
X321468750Y-172505000D03*
X321468750Y-169205000D03*
D21*
X171962500Y-166312500D03*
X171962500Y-165512500D03*
X171962500Y-164712500D03*
X171962500Y-163912500D03*
X171962500Y-163112500D03*
X171962500Y-162312500D03*
X171962500Y-161512500D03*
X171962500Y-160712500D03*
D22*
X173412500Y-159262500D03*
X174212500Y-159262500D03*
X175012500Y-159262500D03*
X175812500Y-159262500D03*
X176612500Y-159262500D03*
X177412500Y-159262500D03*
X178212500Y-159262500D03*
X179012500Y-159262500D03*
D21*
X180462500Y-160712500D03*
X180462500Y-161512500D03*
X180462500Y-162312500D03*
X180462500Y-163112500D03*
X180462500Y-163912500D03*
X180462500Y-164712500D03*
X180462500Y-165512500D03*
X180462500Y-166312500D03*
D22*
X179012500Y-167762500D03*
X178212500Y-167762500D03*
X177412500Y-167762500D03*
X176612500Y-167762500D03*
X175812500Y-167762500D03*
X175012500Y-167762500D03*
X174212500Y-167762500D03*
X173412500Y-167762500D03*
D20*
X138937500Y-156400000D03*
X135637500Y-156400000D03*
D13*
X342900000Y-134405000D03*
X342900000Y-131105000D03*
X245268750Y-153455000D03*
X245268750Y-150155000D03*
X159543750Y-134405000D03*
X159543750Y-131105000D03*
X226218750Y-153455000D03*
X226218750Y-150155000D03*
X173831250Y-115355000D03*
X173831250Y-112055000D03*
D23*
X215741250Y-167005000D03*
X214471250Y-167005000D03*
X215741250Y-168275000D03*
X214471250Y-168275000D03*
X215741250Y-169545000D03*
X214471250Y-169545000D03*
D20*
X124681250Y-118300000D03*
X121381250Y-118300000D03*
D24*
X86780000Y-90611250D03*
X87580000Y-90611250D03*
D25*
X88730000Y-90611250D03*
X89730000Y-90611250D03*
X90230000Y-90611250D03*
X91230000Y-90611250D03*
D24*
X93180000Y-90611250D03*
X92380000Y-90611250D03*
D25*
X91730000Y-90611250D03*
X90730000Y-90611250D03*
X89230000Y-90611250D03*
X88230000Y-90611250D03*
D26*
X85660000Y-89611250D03*
D27*
X85660000Y-85431250D03*
X94300000Y-85431250D03*
D26*
X94300000Y-89611250D03*
D13*
X321468750Y-153455000D03*
X321468750Y-150155000D03*
X254793750Y-134405000D03*
X254793750Y-131105000D03*
X154781250Y-115355000D03*
X154781250Y-112055000D03*
X311943750Y-134405000D03*
X311943750Y-131105000D03*
D28*
X169225000Y-175768750D03*
X167325000Y-175768750D03*
D13*
X149225000Y-172505000D03*
X149225000Y-169205000D03*
X164306250Y-96305000D03*
X164306250Y-93005000D03*
X240506250Y-96305000D03*
X240506250Y-93005000D03*
X297656250Y-96305000D03*
X297656250Y-93005000D03*
X347662500Y-153455000D03*
X347662500Y-150155000D03*
D29*
X220400000Y-170581250D03*
X220400000Y-164381250D03*
X224100000Y-164381250D03*
X224100000Y-170581250D03*
D13*
X188118750Y-153455000D03*
X188118750Y-150155000D03*
X126206250Y-172505000D03*
X126206250Y-169205000D03*
X259556250Y-96305000D03*
X259556250Y-93005000D03*
D30*
X174262500Y-172918750D03*
X174262500Y-174743750D03*
D13*
X145256250Y-96305000D03*
X145256250Y-93005000D03*
D20*
X129443750Y-134400000D03*
X126143750Y-134400000D03*
D13*
X169068750Y-153455000D03*
X169068750Y-150155000D03*
X283368750Y-153455000D03*
X283368750Y-150155000D03*
X140493750Y-134405000D03*
X140493750Y-131105000D03*
X216693750Y-134405000D03*
X216693750Y-131105000D03*
D20*
X124681250Y-115350000D03*
X121381250Y-115350000D03*
D13*
X340518750Y-172505000D03*
X340518750Y-169205000D03*
D15*
X158750000Y-158593750D03*
X158750000Y-160493750D03*
D20*
X138937500Y-153450000D03*
X135637500Y-153450000D03*
D31*
X100012500Y-105381250D03*
X100012500Y-102581250D03*
D13*
X316706250Y-96305000D03*
X316706250Y-93005000D03*
X150018750Y-153455000D03*
X150018750Y-150155000D03*
D32*
X96837500Y-86531250D03*
X96837500Y-89681250D03*
D13*
X235743750Y-134405000D03*
X235743750Y-131105000D03*
X292893750Y-134405000D03*
X292893750Y-131105000D03*
X250031250Y-115355000D03*
X250031250Y-112055000D03*
D19*
X80168750Y-89812500D03*
X80168750Y-87987500D03*
D13*
X178593750Y-134405000D03*
X178593750Y-131105000D03*
X221456250Y-96305000D03*
X221456250Y-93005000D03*
X264318750Y-172505000D03*
X264318750Y-169205000D03*
D30*
X176562500Y-172918750D03*
X176562500Y-174743750D03*
D13*
X192881250Y-115355000D03*
X192881250Y-112055000D03*
X264318750Y-153455000D03*
X264318750Y-150155000D03*
X278606250Y-96305000D03*
X278606250Y-93005000D03*
X302418750Y-153455000D03*
X302418750Y-150155000D03*
D28*
X179543750Y-170656250D03*
X177643750Y-170656250D03*
D20*
X115156250Y-99250000D03*
X111856250Y-99250000D03*
D13*
X245837500Y-172505000D03*
X245837500Y-169205000D03*
D30*
X211931250Y-164981250D03*
X211931250Y-166806250D03*
D13*
X135731250Y-115355000D03*
X135731250Y-112055000D03*
D15*
X161131250Y-158593750D03*
X161131250Y-160493750D03*
D13*
X326231250Y-115355000D03*
X326231250Y-112055000D03*
D33*
X205581250Y-173037500D03*
X92868750Y-94456250D03*
X176437000Y-170656250D03*
X169007205Y-163568292D03*
X87906471Y-93862279D03*
X174625000Y-156368750D03*
X169007205Y-168213455D03*
X170262500Y-163912500D03*
X205000250Y-172347500D03*
X174388000Y-169862500D03*
X88797500Y-98425000D03*
X92868750Y-96043750D03*
X93662500Y-118268750D03*
X105568750Y-118268750D03*
X111125000Y-137318750D03*
X101600000Y-137318750D03*
X115093750Y-156368750D03*
X106362500Y-156368750D03*
X204787500Y-164306250D03*
X213518750Y-162718750D03*
X95250000Y-100806250D03*
X91360056Y-94552279D03*
X89487500Y-97043750D03*
X87312500Y-100806250D03*
X292100000Y-111918750D03*
X217487500Y-166687500D03*
X301625000Y-92868750D03*
X306387500Y-164306250D03*
X306387500Y-150018750D03*
X296862500Y-130968750D03*
X306387500Y-154079500D03*
X217487500Y-157956250D03*
X263525000Y-92868750D03*
X217487500Y-168275000D03*
X268287500Y-150018750D03*
X268287500Y-154079500D03*
X254000000Y-111918750D03*
X268287500Y-164306250D03*
X258762500Y-130968750D03*
X218455750Y-155855750D03*
X287337500Y-150018750D03*
X277812500Y-130968750D03*
X287337500Y-164306250D03*
X287337500Y-154079500D03*
X214312500Y-156368750D03*
X273050000Y-111918750D03*
X212725000Y-168275000D03*
X282575000Y-92868750D03*
X187881250Y-173419250D03*
X187325000Y-172243750D03*
X115049036Y-159499036D03*
X77787500Y-111918750D03*
X108743750Y-161925000D03*
X74612500Y-100806250D03*
X80168750Y-130968750D03*
X84931250Y-150018750D03*
X108699036Y-161086536D03*
X115138546Y-158704560D03*
X94456250Y-101600000D03*
X89693750Y-164306250D03*
X79375000Y-123031250D03*
X96043750Y-161131250D03*
X80962500Y-121443750D03*
X101600000Y-111918750D03*
X115887500Y-157956250D03*
X111125000Y-164306250D03*
X106362500Y-130968750D03*
X115887500Y-150018750D03*
X111125000Y-92868750D03*
X125412500Y-130968750D03*
X130175000Y-164306250D03*
X120650000Y-111918750D03*
X130175000Y-92868750D03*
X134937500Y-158297500D03*
X134937500Y-150018750D03*
X149225000Y-92868750D03*
X144462500Y-130968750D03*
X153987500Y-154079500D03*
X139700000Y-111918750D03*
X151606250Y-164306250D03*
X153987500Y-150018750D03*
X173037500Y-154079500D03*
X168275000Y-92868750D03*
X158750000Y-111918750D03*
X163512500Y-130968750D03*
X173037500Y-150018750D03*
X182562500Y-130968750D03*
X189706250Y-164306250D03*
X177800000Y-111918750D03*
X187325000Y-92868750D03*
X192087500Y-150018750D03*
X192087500Y-154079500D03*
X196850000Y-111918750D03*
X201612500Y-130968750D03*
X211137500Y-150018750D03*
X211137500Y-154079500D03*
X206375000Y-92868750D03*
X230187500Y-150018750D03*
X225425000Y-92868750D03*
X230187500Y-154079500D03*
X220662500Y-130968750D03*
X215900000Y-111918750D03*
X227806250Y-164306250D03*
X239712500Y-130968750D03*
X249237500Y-154079500D03*
X249237500Y-164306250D03*
X249237500Y-150018750D03*
X234950000Y-111918750D03*
X244475000Y-92868750D03*
X311150000Y-111918750D03*
X330993750Y-154079500D03*
X325437500Y-164306250D03*
X327818750Y-130968750D03*
X334962500Y-111918750D03*
X330200000Y-92868750D03*
X332581250Y-154079500D03*
X332581250Y-150018750D03*
X177800000Y-153455000D03*
X182150000Y-161512500D03*
X203993750Y-134405000D03*
X210343750Y-157162500D03*
X229393750Y-156755750D03*
X218281250Y-115355000D03*
X240506250Y-97631250D03*
X248443750Y-156368750D03*
X91281250Y-104775000D03*
X176212500Y-176212500D03*
X146843750Y-167481250D03*
X91281250Y-103351194D03*
X147643253Y-167481250D03*
X174625000Y-176212500D03*
X91360056Y-92868750D03*
X80168750Y-86518750D03*
X84137500Y-87500000D03*
X88540052Y-92544244D03*
D34*
X177412500Y-168525000D02*
X179543750Y-170656250D01*
X177412500Y-167762500D02*
X177412500Y-168525000D01*
D35*
X205581250Y-173037500D02*
X222263158Y-173037500D01*
X91281250Y-99900000D02*
X91987500Y-100606250D01*
X95250000Y-91268750D02*
X95250000Y-91281250D01*
X96043750Y-94323325D02*
X95117075Y-95250000D01*
X95250000Y-91281250D02*
X93850000Y-91281250D01*
X93559250Y-104671750D02*
X93559250Y-103381250D01*
X161131250Y-160493750D02*
X163512500Y-160493750D01*
X155919668Y-160942832D02*
X113317832Y-160942832D01*
X163668750Y-160337500D02*
X163512500Y-160493750D01*
X91281250Y-96043750D02*
X91281250Y-99900000D01*
X96043750Y-119856250D02*
X96043750Y-107156250D01*
X92337500Y-100606250D02*
X93559250Y-101828000D01*
X170085985Y-164712500D02*
X171962500Y-164712500D01*
X95250000Y-91281250D02*
X96043750Y-92075000D01*
X170218750Y-171093750D02*
X170518750Y-171093750D01*
X176612500Y-170480750D02*
X176437000Y-170656250D01*
X169007205Y-168213455D02*
X170518750Y-169725000D01*
X176437000Y-170656250D02*
X177643750Y-170656250D01*
X169007205Y-163568292D02*
X165776413Y-160337500D01*
X165776413Y-160337500D02*
X163668750Y-160337500D01*
X95117075Y-95250000D02*
X93662500Y-95250000D01*
X176030000Y-156368750D02*
X176093750Y-156305000D01*
X222263158Y-173037500D02*
X224100000Y-171200658D01*
X92868750Y-94456250D02*
X91281250Y-96043750D01*
X86780000Y-92581658D02*
X87906471Y-93708129D01*
X170518750Y-169725000D02*
X170518750Y-171093750D01*
X167131250Y-175768750D02*
X165100000Y-173737500D01*
X86091250Y-91300000D02*
X86780000Y-90611250D01*
X209073750Y-169545000D02*
X214471250Y-169545000D01*
X109537500Y-157162500D02*
X109537500Y-141287500D01*
X224100000Y-164381250D02*
X224100000Y-170581250D01*
X156368750Y-160493750D02*
X158750000Y-160493750D01*
X93559250Y-103381250D02*
X95787500Y-103381250D01*
X176612500Y-167762500D02*
X176612500Y-170480750D01*
X96043750Y-92075000D02*
X96043750Y-94323325D01*
X169007205Y-163568292D02*
X169007205Y-163633720D01*
X205581250Y-173037500D02*
X209073750Y-169545000D01*
X167275000Y-173737500D02*
X167618750Y-173393750D01*
X174625000Y-156368750D02*
X176030000Y-156368750D01*
X96837500Y-89681250D02*
X95250000Y-91268750D01*
X93850000Y-91281250D02*
X93180000Y-90611250D01*
X96043750Y-107156250D02*
X93559250Y-104671750D01*
X167618750Y-173393750D02*
X167918750Y-173393750D01*
X113317832Y-160942832D02*
X109537500Y-157162500D01*
X224100000Y-171200658D02*
X224100000Y-170581250D01*
X93662500Y-95250000D02*
X92868750Y-94456250D01*
X165100000Y-173737500D02*
X167275000Y-173737500D01*
X167325000Y-175768750D02*
X167131250Y-175768750D01*
X87906471Y-93708129D02*
X87906471Y-93862279D01*
X82550000Y-89812500D02*
X84037500Y-91300000D01*
X86780000Y-90611250D02*
X86780000Y-92581658D01*
X100012500Y-123825000D02*
X96043750Y-119856250D01*
X100012500Y-131762500D02*
X100012500Y-123825000D01*
X156368750Y-160493750D02*
X155919668Y-160942832D01*
X169007205Y-163633720D02*
X170085985Y-164712500D01*
X95787500Y-103381250D02*
X96837500Y-102331250D01*
X109537500Y-141287500D02*
X100012500Y-131762500D01*
X93559250Y-101828000D02*
X93559250Y-103381250D01*
X80168750Y-89812500D02*
X82550000Y-89812500D01*
X167918750Y-173393750D02*
X170218750Y-171093750D01*
X91987500Y-100606250D02*
X92337500Y-100606250D01*
X158750000Y-160493750D02*
X161131250Y-160493750D01*
X84037500Y-91300000D02*
X86091250Y-91300000D01*
D34*
X171962500Y-166312500D02*
X171962500Y-169581250D01*
X170818750Y-173393750D02*
X170518750Y-173393750D01*
X169225000Y-174687500D02*
X170518750Y-173393750D01*
X172243750Y-171968750D02*
X170818750Y-173393750D01*
X171962500Y-169581250D02*
X172243750Y-169862500D01*
X172243750Y-169862500D02*
X172243750Y-171968750D01*
X169225000Y-175768750D02*
X169225000Y-174687500D01*
X171962500Y-165512500D02*
X170243750Y-165512500D01*
X165843750Y-171093750D02*
X167618750Y-171093750D01*
X167618750Y-168137500D02*
X167618750Y-171093750D01*
X170243750Y-165512500D02*
X167618750Y-168137500D01*
X165100000Y-171837500D02*
X165843750Y-171093750D01*
D35*
X212217500Y-167005000D02*
X211931250Y-166718750D01*
X161131250Y-158593750D02*
X163512500Y-158593750D01*
X99825000Y-105568750D02*
X100012500Y-105381250D01*
X174212500Y-169687000D02*
X174212500Y-167762500D01*
X205295441Y-172347500D02*
X210924191Y-166718750D01*
X205000250Y-172347500D02*
X205295441Y-172347500D01*
X110118500Y-141046842D02*
X100593500Y-131521842D01*
X100593500Y-131521842D02*
X100593500Y-123584342D01*
X96900000Y-105568750D02*
X99825000Y-105568750D01*
X110118500Y-156921842D02*
X110118500Y-141046842D01*
X170262500Y-163912500D02*
X171962500Y-163912500D01*
X100012500Y-105568750D02*
X100012500Y-105381250D01*
X156368750Y-158593750D02*
X154625000Y-160337500D01*
X170262500Y-163912500D02*
X170262500Y-163847778D01*
X170262500Y-163847778D02*
X165958472Y-159543750D01*
X156368750Y-158593750D02*
X158750000Y-158593750D01*
X113534158Y-160337500D02*
X110118500Y-156921842D01*
X96837500Y-105631250D02*
X96900000Y-105568750D01*
X96624750Y-108162750D02*
X98425000Y-106362500D01*
X173412500Y-167762500D02*
X174212500Y-167762500D01*
X214471250Y-167005000D02*
X212217500Y-167005000D01*
X98425000Y-106362500D02*
X98425000Y-105568750D01*
X174388000Y-169862500D02*
X174212500Y-169687000D01*
X164306250Y-159543750D02*
X163512500Y-158750000D01*
X163512500Y-158750000D02*
X163512500Y-158593750D01*
X165958472Y-159543750D02*
X164306250Y-159543750D01*
X96624750Y-119615592D02*
X96624750Y-108162750D01*
X154625000Y-160337500D02*
X113534158Y-160337500D01*
X210924191Y-166718750D02*
X211931250Y-166718750D01*
X100593500Y-123584342D02*
X96624750Y-119615592D01*
X158750000Y-158593750D02*
X161131250Y-158593750D01*
D34*
X101631250Y-99250000D02*
X111856250Y-99250000D01*
X98425000Y-96043750D02*
X101631250Y-99250000D01*
X92868750Y-96043750D02*
X98425000Y-96043750D01*
X87540000Y-97167500D02*
X87540000Y-95695000D01*
X88797500Y-98425000D02*
X87540000Y-97167500D01*
X111856250Y-96300000D02*
X107195000Y-96300000D01*
X107195000Y-96300000D02*
X106590000Y-95695000D01*
X126206250Y-93005000D02*
X126206250Y-89884250D01*
X126206250Y-89884250D02*
X124397000Y-88075000D01*
X145256250Y-89884250D02*
X143447000Y-88075000D01*
X145256250Y-93005000D02*
X145256250Y-89884250D01*
X164306250Y-89884250D02*
X162497000Y-88075000D01*
X164306250Y-93005000D02*
X164306250Y-89884250D01*
X183356250Y-93005000D02*
X183356250Y-89884250D01*
X183356250Y-89884250D02*
X181547000Y-88075000D01*
X202406250Y-93005000D02*
X202406250Y-89884250D01*
X202406250Y-89884250D02*
X200597000Y-88075000D01*
X221456250Y-93005000D02*
X221456250Y-89884250D01*
X221456250Y-89884250D02*
X219647000Y-88075000D01*
X240506250Y-93005000D02*
X240506250Y-89884250D01*
X240506250Y-89884250D02*
X238697000Y-88075000D01*
X259556250Y-93005000D02*
X259556250Y-89884250D01*
X259556250Y-89884250D02*
X257747000Y-88075000D01*
X278606250Y-93005000D02*
X278606250Y-89884250D01*
X278606250Y-89884250D02*
X276797000Y-88075000D01*
X297656250Y-93005000D02*
X297656250Y-89884250D01*
X297656250Y-89884250D02*
X295847000Y-88075000D01*
X316706250Y-93005000D02*
X316706250Y-89884250D01*
X316706250Y-89884250D02*
X314897000Y-88075000D01*
X345281250Y-89884250D02*
X343472000Y-88075000D01*
X345281250Y-93005000D02*
X345281250Y-89884250D01*
X105568750Y-118268750D02*
X105600000Y-118300000D01*
X91059500Y-110903250D02*
X92868750Y-112712500D01*
X91059500Y-107125000D02*
X91059500Y-110903250D01*
X92868750Y-112712500D02*
X92868750Y-117475000D01*
X92868750Y-117475000D02*
X93662500Y-118268750D01*
X105600000Y-118300000D02*
X121381250Y-118300000D01*
X121381250Y-115350000D02*
X119318750Y-115350000D01*
X119318750Y-115350000D02*
X114872000Y-110903250D01*
X114872000Y-110903250D02*
X114872000Y-107125000D01*
X135731250Y-112055000D02*
X135731250Y-108934250D01*
X135731250Y-108934250D02*
X133922000Y-107125000D01*
X154781250Y-112055000D02*
X154781250Y-108934250D01*
X154781250Y-108934250D02*
X152972000Y-107125000D01*
X173831250Y-112055000D02*
X173831250Y-108934250D01*
X173831250Y-108934250D02*
X172022000Y-107125000D01*
X192881250Y-112055000D02*
X192881250Y-108934250D01*
X192881250Y-108934250D02*
X191072000Y-107125000D01*
X211931250Y-112055000D02*
X211931250Y-108934250D01*
X211931250Y-108934250D02*
X210122000Y-107125000D01*
X230981250Y-108934250D02*
X229172000Y-107125000D01*
X230981250Y-112055000D02*
X230981250Y-108934250D01*
X250031250Y-112055000D02*
X250031250Y-108934250D01*
X250031250Y-108934250D02*
X248222000Y-107125000D01*
X269081250Y-108934250D02*
X267272000Y-107125000D01*
X269081250Y-112055000D02*
X269081250Y-108934250D01*
X288131250Y-112055000D02*
X288131250Y-108934250D01*
X288131250Y-108934250D02*
X286322000Y-107125000D01*
X307181250Y-108934250D02*
X305372000Y-107125000D01*
X307181250Y-112055000D02*
X307181250Y-108934250D01*
X326231250Y-112055000D02*
X326231250Y-108934250D01*
X326231250Y-108934250D02*
X324422000Y-107125000D01*
X350043750Y-112055000D02*
X350043750Y-108934250D01*
X350043750Y-108934250D02*
X348234500Y-107125000D01*
X93440750Y-129159500D02*
X93440750Y-126175000D01*
X101600000Y-137318750D02*
X93440750Y-129159500D01*
X111156250Y-137350000D02*
X126143750Y-137350000D01*
X111125000Y-137318750D02*
X111156250Y-137350000D01*
X119634500Y-126175000D02*
X119634500Y-129159500D01*
X119634500Y-129159500D02*
X124875000Y-134400000D01*
X124875000Y-134400000D02*
X126143750Y-134400000D01*
X140493750Y-131105000D02*
X140493750Y-127984250D01*
X140493750Y-127984250D02*
X138684500Y-126175000D01*
X159543750Y-127984250D02*
X157734500Y-126175000D01*
X159543750Y-131105000D02*
X159543750Y-127984250D01*
X178593750Y-131105000D02*
X178593750Y-127984250D01*
X178593750Y-127984250D02*
X176784500Y-126175000D01*
X197643750Y-127984250D02*
X195834500Y-126175000D01*
X197643750Y-131105000D02*
X197643750Y-127984250D01*
X216693750Y-127984250D02*
X214884500Y-126175000D01*
X216693750Y-131105000D02*
X216693750Y-127984250D01*
X235743750Y-127984250D02*
X233934500Y-126175000D01*
X235743750Y-131105000D02*
X235743750Y-127984250D01*
X254793750Y-131105000D02*
X254793750Y-127984250D01*
X254793750Y-127984250D02*
X252984500Y-126175000D01*
X273843750Y-131105000D02*
X273843750Y-127984250D01*
X273843750Y-127984250D02*
X272034500Y-126175000D01*
X292893750Y-127984250D02*
X291084500Y-126175000D01*
X292893750Y-131105000D02*
X292893750Y-127984250D01*
X311943750Y-131105000D02*
X311943750Y-127984250D01*
X311943750Y-127984250D02*
X310134500Y-126175000D01*
X342900000Y-131105000D02*
X342900000Y-127984250D01*
X342900000Y-127984250D02*
X341090750Y-126175000D01*
X98203250Y-148209500D02*
X98203250Y-145225000D01*
X115125000Y-156400000D02*
X115093750Y-156368750D01*
X135637500Y-156400000D02*
X115125000Y-156400000D01*
X106362500Y-156368750D02*
X98203250Y-148209500D01*
X135637500Y-153450000D02*
X134400000Y-153450000D01*
X129159500Y-148209500D02*
X129159500Y-145225000D01*
X134400000Y-153450000D02*
X129159500Y-148209500D01*
X150018750Y-147034250D02*
X148209500Y-145225000D01*
X150018750Y-150155000D02*
X150018750Y-147034250D01*
X169068750Y-147034250D02*
X167259500Y-145225000D01*
X169068750Y-150155000D02*
X169068750Y-147034250D01*
X188118750Y-147034250D02*
X186309500Y-145225000D01*
X188118750Y-150155000D02*
X188118750Y-147034250D01*
X207168750Y-147034250D02*
X205359500Y-145225000D01*
X207168750Y-150155000D02*
X207168750Y-147034250D01*
X226218750Y-147034250D02*
X224409500Y-145225000D01*
X226218750Y-150155000D02*
X226218750Y-147034250D01*
X245268750Y-150155000D02*
X245268750Y-147034250D01*
X245268750Y-147034250D02*
X243459500Y-145225000D01*
X264318750Y-150155000D02*
X264318750Y-147034250D01*
X264318750Y-147034250D02*
X262509500Y-145225000D01*
X283368750Y-147034250D02*
X281559500Y-145225000D01*
X283368750Y-150155000D02*
X283368750Y-147034250D01*
X302418750Y-147034250D02*
X300609500Y-145225000D01*
X302418750Y-150155000D02*
X302418750Y-147034250D01*
X321468750Y-150155000D02*
X321468750Y-147034250D01*
X321468750Y-147034250D02*
X319659500Y-145225000D01*
X347662500Y-150155000D02*
X347662500Y-147034250D01*
X347662500Y-147034250D02*
X345853250Y-145225000D01*
X104775000Y-166084250D02*
X102965750Y-164275000D01*
X104775000Y-169205000D02*
X104775000Y-166084250D01*
X126206250Y-169205000D02*
X126206250Y-166084250D01*
X126206250Y-166084250D02*
X124397000Y-164275000D01*
X145256250Y-166084250D02*
X143447000Y-164275000D01*
X145256250Y-169205000D02*
X145256250Y-166084250D01*
X161925000Y-171450000D02*
X161925000Y-169068750D01*
X152607500Y-172587500D02*
X160787500Y-172587500D01*
X161925000Y-169068750D02*
X164878250Y-166115500D01*
X160787500Y-172587500D02*
X161925000Y-171450000D01*
X149225000Y-169205000D02*
X152607500Y-172587500D01*
X164878250Y-166115500D02*
X164878250Y-164275000D01*
X204787500Y-164306250D02*
X204756250Y-164275000D01*
X242887500Y-161925000D02*
X245837500Y-164875000D01*
X214312500Y-161925000D02*
X242887500Y-161925000D01*
X204756250Y-164275000D02*
X202978250Y-164275000D01*
X245837500Y-164875000D02*
X245837500Y-169205000D01*
X213518750Y-162718750D02*
X214312500Y-161925000D01*
X242887500Y-169205000D02*
X242887500Y-166084250D01*
X242887500Y-166084250D02*
X241078250Y-164275000D01*
X264318750Y-169205000D02*
X264318750Y-166084250D01*
X264318750Y-166084250D02*
X262509500Y-164275000D01*
X283368750Y-169205000D02*
X283368750Y-166084250D01*
X283368750Y-166084250D02*
X281559500Y-164275000D01*
X302418750Y-169205000D02*
X302418750Y-166084250D01*
X302418750Y-166084250D02*
X300609500Y-164275000D01*
X321468750Y-169205000D02*
X321468750Y-166084250D01*
X321468750Y-166084250D02*
X319659500Y-164275000D01*
X340518750Y-169205000D02*
X340518750Y-166084250D01*
X340518750Y-166084250D02*
X338709500Y-164275000D01*
D35*
X88987500Y-100406250D02*
X87712500Y-100406250D01*
X95250000Y-100806250D02*
X98237500Y-100806250D01*
X87712500Y-100406250D02*
X87312500Y-100806250D01*
X92380000Y-90611250D02*
X92380000Y-93532335D01*
X87580000Y-90611250D02*
X87580000Y-92560000D01*
X92380000Y-93532335D02*
X91360056Y-94552279D01*
X89487500Y-94467500D02*
X89487500Y-99906250D01*
X89487500Y-99906250D02*
X88987500Y-100406250D01*
X98237500Y-100806250D02*
X100012500Y-102581250D01*
X87580000Y-92560000D02*
X89487500Y-94467500D01*
D34*
X217487500Y-157956250D02*
X219148322Y-157956250D01*
X292100000Y-111918750D02*
X292100000Y-110010000D01*
X267958542Y-155681250D02*
X268408542Y-155231250D01*
X296862500Y-130968750D02*
X296862500Y-129060000D01*
X217012500Y-157481250D02*
X215356676Y-157481250D01*
X188918750Y-172243750D02*
X181387500Y-164712500D01*
X217487500Y-157956250D02*
X217012500Y-157481250D01*
X219623322Y-157481250D02*
X228598970Y-157481250D01*
X181387500Y-164712500D02*
X180462500Y-164712500D01*
X305685750Y-154781250D02*
X306387500Y-154079500D01*
X217170000Y-167005000D02*
X217487500Y-166687500D01*
X292100000Y-110010000D02*
X292445000Y-109665000D01*
X301625000Y-92868750D02*
X301625000Y-90960000D01*
X229926446Y-157830750D02*
X231175946Y-156581250D01*
X306387500Y-150018750D02*
X306387500Y-148110000D01*
X301625000Y-90960000D02*
X301970000Y-90615000D01*
X306387500Y-148110000D02*
X306732500Y-147765000D01*
X228948470Y-157830750D02*
X229926446Y-157830750D01*
X228598970Y-157481250D02*
X228948470Y-157830750D01*
X268408542Y-155231250D02*
X286822146Y-155231250D01*
X231175946Y-156581250D02*
X247772366Y-156581250D01*
X248184866Y-156993750D02*
X248702634Y-156993750D01*
X219148322Y-157956250D02*
X219623322Y-157481250D01*
X250015134Y-155681250D02*
X267958542Y-155681250D01*
X215741250Y-167005000D02*
X217170000Y-167005000D01*
X306387500Y-164306250D02*
X306387500Y-166470000D01*
X212725000Y-160112926D02*
X212725000Y-161355824D01*
X286822146Y-155231250D02*
X287272146Y-154781250D01*
X215356676Y-157481250D02*
X212725000Y-160112926D01*
X201843442Y-172243750D02*
X188918750Y-172243750D01*
X211993750Y-162087074D02*
X211993750Y-162093442D01*
X211993750Y-162093442D02*
X201843442Y-172243750D01*
X296862500Y-129060000D02*
X297207500Y-128715000D01*
X306387500Y-166470000D02*
X306732500Y-166815000D01*
X287272146Y-154781250D02*
X305685750Y-154781250D01*
X212725000Y-161355824D02*
X211993750Y-162087074D01*
X247772366Y-156581250D02*
X248184866Y-156993750D01*
X248702634Y-156993750D02*
X250015134Y-155681250D01*
X263525000Y-92868750D02*
X263525000Y-90960000D01*
X258762500Y-130968750D02*
X258762500Y-129060000D01*
X268287500Y-166470000D02*
X268632500Y-166815000D01*
X218455750Y-155855750D02*
X218630250Y-155681250D01*
X230308542Y-155231250D02*
X248630146Y-155231250D01*
X211071688Y-156054500D02*
X181131896Y-156054500D01*
X254000000Y-110010000D02*
X254345000Y-109665000D01*
X179012500Y-158173896D02*
X179012500Y-159262500D01*
X268287500Y-164306250D02*
X268287500Y-166470000D01*
X268287500Y-150018750D02*
X268287500Y-148110000D01*
X218455750Y-155855750D02*
X218281250Y-155681250D01*
X267585750Y-154781250D02*
X268287500Y-154079500D01*
X215741250Y-168275000D02*
X217487500Y-168275000D01*
X181131896Y-156054500D02*
X179012500Y-158173896D01*
X249080146Y-154781250D02*
X267585750Y-154781250D01*
X248630146Y-155231250D02*
X249080146Y-154781250D01*
X254000000Y-111918750D02*
X254000000Y-110010000D01*
X229858542Y-155681250D02*
X230308542Y-155231250D01*
X218630250Y-155681250D02*
X229858542Y-155681250D01*
X211444938Y-155681250D02*
X211071688Y-156054500D01*
X218281250Y-155681250D02*
X211444938Y-155681250D01*
X263525000Y-90960000D02*
X263870000Y-90615000D01*
X268287500Y-148110000D02*
X268632500Y-147765000D01*
X258762500Y-129060000D02*
X259107500Y-128715000D01*
X214550000Y-156131250D02*
X217847366Y-156131250D01*
X248816542Y-155681250D02*
X249266542Y-155231250D01*
X181318292Y-156504500D02*
X180462500Y-157360292D01*
X287337500Y-148110000D02*
X287682500Y-147765000D01*
X273050000Y-110010000D02*
X273395000Y-109665000D01*
X214312500Y-156368750D02*
X214550000Y-156131250D01*
X211258084Y-156504500D02*
X181318292Y-156504500D01*
X214471250Y-168275000D02*
X212725000Y-168275000D01*
X286635750Y-154781250D02*
X287337500Y-154079500D01*
X219064134Y-156131250D02*
X230044938Y-156131250D01*
X218714634Y-156480750D02*
X219064134Y-156131250D01*
X230044938Y-156131250D02*
X230494938Y-155681250D01*
X282575000Y-90960000D02*
X282920000Y-90615000D01*
X230494938Y-155681250D02*
X248816542Y-155681250D01*
X282575000Y-92868750D02*
X282575000Y-90960000D01*
X214312500Y-156368750D02*
X214075000Y-156131250D01*
X268222146Y-154781250D02*
X286635750Y-154781250D01*
X214075000Y-156131250D02*
X211631334Y-156131250D01*
X287337500Y-164306250D02*
X287337500Y-166470000D01*
X287337500Y-166470000D02*
X287682500Y-166815000D01*
X180462500Y-157360292D02*
X180462500Y-160712500D01*
X277812500Y-129060000D02*
X278157500Y-128715000D01*
X249266542Y-155231250D02*
X267772146Y-155231250D01*
X218196866Y-156480750D02*
X218714634Y-156480750D01*
X217847366Y-156131250D02*
X218196866Y-156480750D01*
X287337500Y-150018750D02*
X287337500Y-148110000D01*
X211631334Y-156131250D02*
X211258084Y-156504500D01*
X267772146Y-155231250D02*
X268222146Y-154781250D01*
X273050000Y-111918750D02*
X273050000Y-110010000D01*
X277812500Y-130968750D02*
X277812500Y-129060000D01*
X220400000Y-164381250D02*
X220400000Y-170581250D01*
X187881250Y-173419250D02*
X188055750Y-173593750D01*
X187325000Y-172243750D02*
X187325000Y-171922792D01*
X211931250Y-165068750D02*
X212618750Y-164381250D01*
X212618750Y-164381250D02*
X220400000Y-164381250D01*
X202402630Y-173593750D02*
X210927630Y-165068750D01*
X210927630Y-165068750D02*
X211931250Y-165068750D01*
X215741250Y-169545000D02*
X219363750Y-169545000D01*
X181714708Y-166312500D02*
X180462500Y-166312500D01*
X219363750Y-169545000D02*
X220400000Y-170581250D01*
X187325000Y-171922792D02*
X181714708Y-166312500D01*
X188055750Y-173593750D02*
X202402630Y-173593750D01*
X80168750Y-129060000D02*
X80513750Y-128715000D01*
X152121750Y-159822000D02*
X155362500Y-156581250D01*
X155362500Y-156581250D02*
X163725000Y-156581250D01*
X80168750Y-130968750D02*
X80168750Y-129060000D01*
X84931250Y-150018750D02*
X84931250Y-148110000D01*
X84931250Y-151606250D02*
X84931250Y-150018750D01*
X163725000Y-156581250D02*
X170256250Y-163112500D01*
X74612500Y-98235500D02*
X74613000Y-98235000D01*
X115372000Y-159822000D02*
X152121750Y-159822000D01*
X77787500Y-110010000D02*
X78132500Y-109665000D01*
X170256250Y-163112500D02*
X171962500Y-163112500D01*
X108743750Y-161925000D02*
X95250000Y-161925000D01*
X95250000Y-161925000D02*
X84931250Y-151606250D01*
X84931250Y-148110000D02*
X85276250Y-147765000D01*
X77787500Y-111918750D02*
X77787500Y-110010000D01*
X74612500Y-100806250D02*
X74612500Y-98235500D01*
X115049036Y-159499036D02*
X115372000Y-159822000D01*
X115932194Y-158704560D02*
X116599634Y-159372000D01*
X116599634Y-159372000D02*
X151935354Y-159372000D01*
X80962500Y-121443750D02*
X79375000Y-123031250D01*
X89693750Y-166470000D02*
X90038750Y-166815000D01*
X94456250Y-99028250D02*
X93663000Y-98235000D01*
X115138546Y-158704560D02*
X115932194Y-158704560D01*
X164068750Y-156131250D02*
X170250000Y-162312500D01*
X151935354Y-159372000D02*
X155176104Y-156131250D01*
X155176104Y-156131250D02*
X164068750Y-156131250D01*
X108699036Y-161086536D02*
X96088464Y-161086536D01*
X94456250Y-101600000D02*
X94456250Y-99028250D01*
X89693750Y-164306250D02*
X89693750Y-166470000D01*
X96088464Y-161086536D02*
X96043750Y-161131250D01*
X170250000Y-162312500D02*
X171962500Y-162312500D01*
X151748958Y-158922000D02*
X154989708Y-155681250D01*
X101600000Y-111918750D02*
X101600000Y-110010000D01*
X111125000Y-166470000D02*
X111470000Y-166815000D01*
X116853250Y-158922000D02*
X151748958Y-158922000D01*
X164412500Y-155681250D02*
X170243750Y-161512500D01*
X170243750Y-161512500D02*
X171962500Y-161512500D01*
X101600000Y-110010000D02*
X101945000Y-109665000D01*
X115887500Y-150018750D02*
X115887500Y-148110000D01*
X106362500Y-129060000D02*
X106707500Y-128715000D01*
X154989708Y-155681250D02*
X164412500Y-155681250D01*
X115887500Y-148110000D02*
X116232500Y-147765000D01*
X111125000Y-90960000D02*
X111470000Y-90615000D01*
X111125000Y-92868750D02*
X111125000Y-90960000D01*
X115887500Y-157956250D02*
X116853250Y-158922000D01*
X106362500Y-130968750D02*
X106362500Y-129060000D01*
X111125000Y-164306250D02*
X111125000Y-166470000D01*
X134937500Y-148110000D02*
X135282500Y-147765000D01*
X164756250Y-155231250D02*
X170237500Y-160712500D01*
X170237500Y-160712500D02*
X171962500Y-160712500D01*
X125412500Y-130968750D02*
X125412500Y-129060000D01*
X135112000Y-158472000D02*
X151562562Y-158472000D01*
X151562562Y-158472000D02*
X154803312Y-155231250D01*
X130175000Y-166470000D02*
X130520000Y-166815000D01*
X130175000Y-164306250D02*
X130175000Y-166470000D01*
X130175000Y-90960000D02*
X130520000Y-90615000D01*
X125412500Y-129060000D02*
X125757500Y-128715000D01*
X134937500Y-150018750D02*
X134937500Y-148110000D01*
X120650000Y-110010000D02*
X120995000Y-109665000D01*
X154803312Y-155231250D02*
X164756250Y-155231250D01*
X120650000Y-111918750D02*
X120650000Y-110010000D01*
X130175000Y-92868750D02*
X130175000Y-90960000D01*
X134937500Y-158297500D02*
X135112000Y-158472000D01*
X153987500Y-154079500D02*
X154689250Y-154781250D01*
X151606250Y-166470000D02*
X151951250Y-166815000D01*
X139700000Y-110010000D02*
X140045000Y-109665000D01*
X154689250Y-154781250D02*
X165100000Y-154781250D01*
X151606250Y-164306250D02*
X151606250Y-166470000D01*
X139700000Y-111918750D02*
X139700000Y-110010000D01*
X144462500Y-130968750D02*
X144462500Y-129060000D01*
X153987500Y-148110000D02*
X154332500Y-147765000D01*
X149225000Y-90960000D02*
X149570000Y-90615000D01*
X153987500Y-150018750D02*
X153987500Y-148110000D01*
X144462500Y-129060000D02*
X144807500Y-128715000D01*
X169581250Y-159262500D02*
X173412500Y-159262500D01*
X149225000Y-92868750D02*
X149225000Y-90960000D01*
X165100000Y-154781250D02*
X169581250Y-159262500D01*
X174212500Y-158337500D02*
X173037500Y-157162500D01*
X168275000Y-90960000D02*
X168620000Y-90615000D01*
X173037500Y-157162500D02*
X173037500Y-154079500D01*
X168275000Y-92868750D02*
X168275000Y-90960000D01*
X174212500Y-159262500D02*
X174212500Y-158337500D01*
X158750000Y-111918750D02*
X158750000Y-110010000D01*
X163512500Y-130968750D02*
X163512500Y-129060000D01*
X173037500Y-148110000D02*
X173382500Y-147765000D01*
X158750000Y-110010000D02*
X159095000Y-109665000D01*
X173037500Y-150018750D02*
X173037500Y-148110000D01*
X163512500Y-129060000D02*
X163857500Y-128715000D01*
X173487500Y-156976104D02*
X175012500Y-158501104D01*
X191912500Y-154254500D02*
X174349645Y-154254500D01*
X187325000Y-92868750D02*
X187325000Y-90960000D01*
X182562500Y-130968750D02*
X182562500Y-129060000D01*
X189706250Y-164306250D02*
X189706250Y-166470000D01*
X177800000Y-111918750D02*
X177800000Y-110010000D01*
X175012500Y-158501104D02*
X175012500Y-159262500D01*
X189706250Y-166470000D02*
X190051250Y-166815000D01*
X192087500Y-148110000D02*
X192432500Y-147765000D01*
X174349645Y-154254500D02*
X173487500Y-155116645D01*
X173487500Y-155116645D02*
X173487500Y-156976104D01*
X192087500Y-154079500D02*
X191912500Y-154254500D01*
X182562500Y-129060000D02*
X182907500Y-128715000D01*
X177800000Y-110010000D02*
X178145000Y-109665000D01*
X187325000Y-90960000D02*
X187670000Y-90615000D01*
X192087500Y-150018750D02*
X192087500Y-148110000D01*
X201612500Y-129060000D02*
X201957500Y-128715000D01*
X211137500Y-150018750D02*
X211137500Y-148110000D01*
X196850000Y-111918750D02*
X196850000Y-110010000D01*
X196850000Y-110010000D02*
X197195000Y-109665000D01*
X206375000Y-90960000D02*
X206720000Y-90615000D01*
X210512500Y-154704500D02*
X174544396Y-154704500D01*
X175812500Y-158337500D02*
X175812500Y-159262500D01*
X173937500Y-155311396D02*
X173937500Y-156789708D01*
X201612500Y-130968750D02*
X201612500Y-129060000D01*
X175285292Y-158137500D02*
X175612500Y-158137500D01*
X174544396Y-154704500D02*
X173937500Y-155311396D01*
X206375000Y-92868750D02*
X206375000Y-90960000D01*
X173937500Y-156789708D02*
X175285292Y-158137500D01*
X211137500Y-148110000D02*
X211482500Y-147765000D01*
X211137500Y-154079500D02*
X210512500Y-154704500D01*
X175612500Y-158137500D02*
X175812500Y-158337500D01*
X220662500Y-129060000D02*
X221007500Y-128715000D01*
X211072146Y-154781250D02*
X210698896Y-155154500D01*
X230187500Y-150018750D02*
X230187500Y-148110000D01*
X225425000Y-90960000D02*
X225770000Y-90615000D01*
X177412500Y-158501104D02*
X177412500Y-159262500D01*
X215900000Y-111918750D02*
X215900000Y-110010000D01*
X220662500Y-130968750D02*
X220662500Y-129060000D01*
X227806250Y-166470000D02*
X228151250Y-166815000D01*
X210698896Y-155154500D02*
X180759104Y-155154500D01*
X230187500Y-154079500D02*
X229485750Y-154781250D01*
X215900000Y-110010000D02*
X216245000Y-109665000D01*
X225425000Y-92868750D02*
X225425000Y-90960000D01*
X227806250Y-164306250D02*
X227806250Y-166470000D01*
X180759104Y-155154500D02*
X177412500Y-158501104D01*
X230187500Y-148110000D02*
X230532500Y-147765000D01*
X229485750Y-154781250D02*
X211072146Y-154781250D01*
X244475000Y-92868750D02*
X244475000Y-90960000D01*
X239712500Y-129060000D02*
X240057500Y-128715000D01*
X239712500Y-130968750D02*
X239712500Y-129060000D01*
X248443750Y-154781250D02*
X230122146Y-154781250D01*
X249237500Y-154079500D02*
X249145500Y-154079500D01*
X249237500Y-148110000D02*
X249582500Y-147765000D01*
X180945500Y-155604500D02*
X178212500Y-158337500D01*
X210885292Y-155604500D02*
X180945500Y-155604500D01*
X249237500Y-166470000D02*
X249582500Y-166815000D01*
X211258542Y-155231250D02*
X210885292Y-155604500D01*
X249237500Y-164306250D02*
X249237500Y-166470000D01*
X234950000Y-110010000D02*
X235295000Y-109665000D01*
X230122146Y-154781250D02*
X229672146Y-155231250D01*
X249145500Y-154079500D02*
X248443750Y-154781250D01*
X229672146Y-155231250D02*
X211258542Y-155231250D01*
X234950000Y-111918750D02*
X234950000Y-110010000D01*
X178212500Y-158337500D02*
X178212500Y-159262500D01*
X249237500Y-150018750D02*
X249237500Y-148110000D01*
X244475000Y-90960000D02*
X244820000Y-90615000D01*
X216578616Y-157931250D02*
X215543072Y-157931250D01*
X327818750Y-154079500D02*
X327193750Y-154704500D01*
X305937500Y-155231250D02*
X287458542Y-155231250D01*
X311150000Y-111918750D02*
X311150000Y-110010000D01*
X330993750Y-154079500D02*
X327818750Y-154079500D01*
X188732354Y-172693750D02*
X181551104Y-165512500D01*
X311150000Y-110010000D02*
X311495000Y-109665000D01*
X247585970Y-157031250D02*
X231362342Y-157031250D01*
X248889030Y-157443750D02*
X247998470Y-157443750D01*
X228762074Y-158280750D02*
X228412574Y-157931250D01*
X268144938Y-156131250D02*
X250201530Y-156131250D01*
X231362342Y-157031250D02*
X230112842Y-158280750D01*
X212443750Y-162273470D02*
X212443750Y-162279838D01*
X327193750Y-154704500D02*
X306464250Y-154704500D01*
X247998470Y-157443750D02*
X247585970Y-157031250D01*
X228412574Y-157931250D02*
X219809718Y-157931250D01*
X213175000Y-160299322D02*
X213175000Y-161542220D01*
X287008542Y-155681250D02*
X268594938Y-155681250D01*
X230112842Y-158280750D02*
X228762074Y-158280750D01*
X213175000Y-161542220D02*
X212443750Y-162273470D01*
X202029838Y-172693750D02*
X188732354Y-172693750D01*
X181551104Y-165512500D02*
X180462500Y-165512500D01*
X325437500Y-164306250D02*
X325437500Y-166470000D01*
X215543072Y-157931250D02*
X213175000Y-160299322D01*
X219809718Y-157931250D02*
X219334718Y-158406250D01*
X327818750Y-129060000D02*
X328163750Y-128715000D01*
X325437500Y-166470000D02*
X325782500Y-166815000D01*
X306464250Y-154704500D02*
X305937500Y-155231250D01*
X212443750Y-162279838D02*
X202029838Y-172693750D01*
X217921384Y-158406250D02*
X217746384Y-158581250D01*
X268594938Y-155681250D02*
X268144938Y-156131250D01*
X327818750Y-130968750D02*
X327818750Y-129060000D01*
X250201530Y-156131250D02*
X248889030Y-157443750D01*
X287458542Y-155231250D02*
X287008542Y-155681250D01*
X219334718Y-158406250D02*
X217921384Y-158406250D01*
X217228616Y-158581250D02*
X216578616Y-157931250D01*
X217746384Y-158581250D02*
X217228616Y-158581250D01*
X217042220Y-159031250D02*
X216392220Y-158381250D01*
X187583884Y-172868750D02*
X187066116Y-172868750D01*
X249075426Y-157893750D02*
X247812074Y-157893750D01*
X215729468Y-158381250D02*
X213625000Y-160485718D01*
X247812074Y-157893750D02*
X247399574Y-157481250D01*
X327380146Y-155154500D02*
X306650646Y-155154500D01*
X334962500Y-110010000D02*
X335307500Y-109665000D01*
X188196458Y-172794250D02*
X187658384Y-172794250D01*
X186700000Y-171934188D02*
X182528312Y-167762500D01*
X182528312Y-167762500D02*
X179012500Y-167762500D01*
X287194938Y-156131250D02*
X268781334Y-156131250D01*
X327753396Y-154781250D02*
X327380146Y-155154500D01*
X330200000Y-92868750D02*
X330200000Y-90960000D01*
X212893750Y-162466234D02*
X202216234Y-173143750D01*
X332581250Y-148110000D02*
X332926250Y-147765000D01*
X228575678Y-158730750D02*
X228226178Y-158381250D01*
X268781334Y-156131250D02*
X268331334Y-156581250D01*
X287644938Y-155681250D02*
X287194938Y-156131250D01*
X212893750Y-162459866D02*
X212893750Y-162466234D01*
X332581250Y-150018750D02*
X332581250Y-148110000D01*
X217932780Y-159031250D02*
X217042220Y-159031250D01*
X330200000Y-90960000D02*
X330545000Y-90615000D01*
X231548738Y-157481250D02*
X230299238Y-158730750D01*
X250387926Y-156581250D02*
X249075426Y-157893750D01*
X213625000Y-161728616D02*
X212893750Y-162459866D01*
X187066116Y-172868750D02*
X186700000Y-172502634D01*
X334962500Y-111918750D02*
X334962500Y-110010000D01*
X332581250Y-154079500D02*
X331879500Y-154781250D01*
X219521114Y-158856250D02*
X218107780Y-158856250D01*
X218107780Y-158856250D02*
X217932780Y-159031250D01*
X306650646Y-155154500D02*
X306123896Y-155681250D01*
X230299238Y-158730750D02*
X228575678Y-158730750D01*
X186700000Y-172502634D02*
X186700000Y-171934188D01*
X268331334Y-156581250D02*
X250387926Y-156581250D01*
X187658384Y-172794250D02*
X187583884Y-172868750D01*
X213625000Y-160485718D02*
X213625000Y-161728616D01*
X219996114Y-158381250D02*
X219521114Y-158856250D01*
X247399574Y-157481250D02*
X231548738Y-157481250D01*
X331879500Y-154781250D02*
X327753396Y-154781250D01*
X216392220Y-158381250D02*
X215729468Y-158381250D01*
X228226178Y-158381250D02*
X219996114Y-158381250D01*
X202216234Y-173143750D02*
X188545958Y-173143750D01*
X306123896Y-155681250D02*
X287644938Y-155681250D01*
X188545958Y-173143750D02*
X188196458Y-172794250D01*
X181981750Y-174044250D02*
X180975000Y-173037500D01*
X222476685Y-173553000D02*
X205949634Y-173553000D01*
X283368750Y-172505000D02*
X302418750Y-172505000D01*
X180975000Y-173037500D02*
X180975000Y-169796875D01*
X165100000Y-177006250D02*
X177006250Y-177006250D01*
X126206250Y-172505000D02*
X145256250Y-172505000D01*
X161131250Y-173037500D02*
X165100000Y-177006250D01*
X104775000Y-172505000D02*
X126206250Y-172505000D01*
X149225000Y-172505000D02*
X151888604Y-172505000D01*
X180246875Y-169068750D02*
X178593750Y-169068750D01*
X178212500Y-168687500D02*
X178212500Y-167762500D01*
X302418750Y-172505000D02*
X321468750Y-172505000D01*
X180975000Y-169796875D02*
X180246875Y-169068750D01*
X178593750Y-169068750D02*
X178212500Y-168687500D01*
X321468750Y-172505000D02*
X340518750Y-172505000D01*
X242887500Y-172505000D02*
X245837500Y-172505000D01*
X245837500Y-172505000D02*
X264318750Y-172505000D01*
X205949634Y-173553000D02*
X205458384Y-174044250D01*
X151888604Y-172505000D02*
X152421104Y-173037500D01*
X152421104Y-173037500D02*
X161131250Y-173037500D01*
X205458384Y-174044250D02*
X181981750Y-174044250D01*
X283368750Y-172505000D02*
X264318750Y-172505000D01*
X223524686Y-172505000D02*
X222476685Y-173553000D01*
X145256250Y-172505000D02*
X149225000Y-172505000D01*
X177006250Y-177006250D02*
X180975000Y-173037500D01*
X242887500Y-172505000D02*
X223524686Y-172505000D01*
X138937500Y-156400000D02*
X138937500Y-153450000D01*
X188118750Y-153455000D02*
X169068750Y-153455000D01*
X302418750Y-153455000D02*
X321468750Y-153455000D01*
X150018750Y-153455000D02*
X138942500Y-153455000D01*
X264318750Y-153455000D02*
X283368750Y-153455000D01*
X169068750Y-153455000D02*
X150018750Y-153455000D01*
X245268750Y-153455000D02*
X264318750Y-153455000D01*
X188118750Y-153455000D02*
X207168750Y-153455000D01*
X207168750Y-153455000D02*
X226218750Y-153455000D01*
X283368750Y-153455000D02*
X302418750Y-153455000D01*
X321468750Y-153455000D02*
X347662500Y-153455000D01*
X138942500Y-153455000D02*
X138937500Y-153450000D01*
X226218750Y-153455000D02*
X245268750Y-153455000D01*
X182150000Y-161512500D02*
X180462500Y-161512500D01*
X186952208Y-164200000D02*
X183111396Y-164200000D01*
X210135750Y-156954500D02*
X190786726Y-156954500D01*
X140488750Y-134400000D02*
X140493750Y-134405000D01*
X292893750Y-134405000D02*
X311943750Y-134405000D01*
X178593750Y-134405000D02*
X197643750Y-134405000D01*
X273843750Y-134405000D02*
X292893750Y-134405000D01*
X140493750Y-134405000D02*
X159543750Y-134405000D01*
X210343750Y-157162500D02*
X210135750Y-156954500D01*
X254793750Y-134405000D02*
X273843750Y-134405000D01*
X183111396Y-164200000D02*
X181223896Y-162312500D01*
X190786726Y-156954500D02*
X189256250Y-158484976D01*
X189256250Y-158484976D02*
X189256250Y-161895958D01*
X216693750Y-134405000D02*
X235743750Y-134405000D01*
X235743750Y-134405000D02*
X254793750Y-134405000D01*
X129443750Y-134400000D02*
X140488750Y-134400000D01*
X311943750Y-134405000D02*
X342900000Y-134405000D01*
X181223896Y-162312500D02*
X180462500Y-162312500D01*
X159543750Y-134405000D02*
X178593750Y-134405000D01*
X189256250Y-161895958D02*
X186952208Y-164200000D01*
X129443750Y-134400000D02*
X129443750Y-137350000D01*
X197643750Y-134405000D02*
X216693750Y-134405000D01*
X214053616Y-156993750D02*
X213641116Y-156581250D01*
X250031250Y-115355000D02*
X269081250Y-115355000D01*
X135731250Y-115355000D02*
X154781250Y-115355000D01*
X154781250Y-115355000D02*
X173831250Y-115355000D01*
X189706250Y-158671372D02*
X189706250Y-162082354D01*
X218010470Y-156930750D02*
X217660970Y-156581250D01*
X214571384Y-156993750D02*
X214053616Y-156993750D01*
X187138604Y-164650000D02*
X182925000Y-164650000D01*
X192881250Y-115355000D02*
X211931250Y-115355000D01*
X214937500Y-156627634D02*
X214571384Y-156993750D01*
X218901030Y-156930750D02*
X218010470Y-156930750D01*
X210611480Y-157787500D02*
X210084866Y-157787500D01*
X209701866Y-157404500D02*
X190973122Y-157404500D01*
X135726250Y-115350000D02*
X135731250Y-115355000D01*
X173831250Y-115355000D02*
X192881250Y-115355000D01*
X124681250Y-115350000D02*
X135726250Y-115350000D01*
X288131250Y-115355000D02*
X307181250Y-115355000D01*
X189706250Y-162082354D02*
X187138604Y-164650000D01*
X229219250Y-156581250D02*
X219250530Y-156581250D01*
X181387500Y-163112500D02*
X180462500Y-163112500D01*
X307181250Y-115355000D02*
X326231250Y-115355000D01*
X211817730Y-156581250D02*
X210611480Y-157787500D01*
X269081250Y-115355000D02*
X288131250Y-115355000D01*
X213641116Y-156581250D02*
X211817730Y-156581250D01*
X326231250Y-115355000D02*
X350043750Y-115355000D01*
X190973122Y-157404500D02*
X189706250Y-158671372D01*
X211931250Y-115355000D02*
X230981250Y-115355000D01*
X210084866Y-157787500D02*
X209701866Y-157404500D01*
X214937500Y-156581250D02*
X214937500Y-156627634D01*
X217660970Y-156581250D02*
X214937500Y-156581250D01*
X219250530Y-156581250D02*
X218901030Y-156930750D01*
X229393750Y-156755750D02*
X229219250Y-156581250D01*
X230981250Y-115355000D02*
X250031250Y-115355000D01*
X124681250Y-118300000D02*
X124681250Y-115350000D01*
X182925000Y-164650000D02*
X181387500Y-163112500D01*
X202406250Y-96305000D02*
X221456250Y-96305000D01*
X228785366Y-157031250D02*
X219436926Y-157031250D01*
X209898470Y-158237500D02*
X209515470Y-157854500D01*
X182738604Y-165100000D02*
X181551104Y-163912500D01*
X210797876Y-158237500D02*
X209898470Y-158237500D01*
X259556250Y-96305000D02*
X278606250Y-96305000D01*
X248206250Y-156131250D02*
X230902134Y-156131250D01*
X190156250Y-158857768D02*
X190156250Y-162268750D01*
X187325000Y-165100000D02*
X182738604Y-165100000D01*
X221456250Y-96305000D02*
X240506250Y-96305000D01*
X126206250Y-96305000D02*
X145256250Y-96305000D01*
X217824074Y-157380750D02*
X217474574Y-157031250D01*
X219087426Y-157380750D02*
X217824074Y-157380750D01*
X240506250Y-96305000D02*
X240506250Y-97631250D01*
X297656250Y-96305000D02*
X316706250Y-96305000D01*
X213454720Y-157031250D02*
X212004126Y-157031250D01*
X126201250Y-96300000D02*
X126206250Y-96305000D01*
X164306250Y-96305000D02*
X183356250Y-96305000D01*
X190156250Y-162268750D02*
X187325000Y-165100000D01*
X240506250Y-96305000D02*
X259556250Y-96305000D01*
X248443750Y-156368750D02*
X248206250Y-156131250D01*
X191159518Y-157854500D02*
X190156250Y-158857768D01*
X278606250Y-96305000D02*
X297656250Y-96305000D01*
X212004126Y-157031250D02*
X210797876Y-158237500D01*
X115156250Y-99250000D02*
X115156250Y-96300000D01*
X115156250Y-96300000D02*
X126201250Y-96300000D01*
X229134866Y-157380750D02*
X228785366Y-157031250D01*
X183356250Y-96305000D02*
X202406250Y-96305000D01*
X316706250Y-96305000D02*
X345281250Y-96305000D01*
X209515470Y-157854500D02*
X191159518Y-157854500D01*
X213867220Y-157443750D02*
X213454720Y-157031250D01*
X229652634Y-157380750D02*
X229134866Y-157380750D01*
X217474574Y-157031250D02*
X215170280Y-157031250D01*
X215170280Y-157031250D02*
X214757780Y-157443750D01*
X181551104Y-163912500D02*
X180462500Y-163912500D01*
X230902134Y-156131250D02*
X229652634Y-157380750D01*
X219436926Y-157031250D02*
X219087426Y-157380750D01*
X214757780Y-157443750D02*
X213867220Y-157443750D01*
X145256250Y-96305000D02*
X164306250Y-96305000D01*
D36*
X91281250Y-103012500D02*
X91987500Y-102306250D01*
D37*
X176212500Y-175093750D02*
X176562500Y-174743750D01*
X111918750Y-161925000D02*
X107950000Y-157956250D01*
X176212500Y-176212500D02*
X176212500Y-175093750D01*
X90730000Y-90548650D02*
X90730000Y-101359862D01*
X94456250Y-120650000D02*
X94456250Y-107335638D01*
X90487500Y-88900000D02*
X90730000Y-89142500D01*
X90730000Y-89142500D02*
X90730000Y-90548650D01*
X107950000Y-157956250D02*
X107950000Y-142081250D01*
X98425000Y-132556250D02*
X98425000Y-124618750D01*
X98425000Y-124618750D02*
X94456250Y-120650000D01*
X89730000Y-90548650D02*
X89730000Y-89073650D01*
X94456250Y-107335638D02*
X91895612Y-104775000D01*
D36*
X91281250Y-103351194D02*
X91281250Y-103012500D01*
D37*
X146843750Y-164485638D02*
X144283112Y-161925000D01*
X89730000Y-89073650D02*
X89903650Y-88900000D01*
X146843750Y-167481250D02*
X146843750Y-164485638D01*
X107950000Y-142081250D02*
X98425000Y-132556250D01*
X91676388Y-102306250D02*
X91987500Y-102306250D01*
X144283112Y-161925000D02*
X111918750Y-161925000D01*
X90730000Y-101359862D02*
X91676388Y-102306250D01*
X89903650Y-88900000D02*
X90487500Y-88900000D01*
X91895612Y-104775000D02*
X91281250Y-104775000D01*
X174625000Y-175106250D02*
X174262500Y-174743750D01*
X89230000Y-92405000D02*
X89230000Y-90611250D01*
X98886112Y-124427752D02*
X94917362Y-120459002D01*
X90230000Y-92332500D02*
X89693750Y-92868750D01*
X89693750Y-93443888D02*
X90268888Y-94019026D01*
X91753973Y-103981250D02*
X90662500Y-103981250D01*
X108411112Y-157765252D02*
X108411112Y-141890252D01*
X90230000Y-90611250D02*
X90230000Y-92332500D01*
X108411112Y-141890252D02*
X98886112Y-132365252D01*
X90268888Y-101421737D02*
X89384375Y-102306250D01*
X147637500Y-164627278D02*
X144474110Y-161463888D01*
X94917362Y-120459002D02*
X94917362Y-107144639D01*
X147643253Y-167481250D02*
X147637500Y-167475497D01*
X89384375Y-102306250D02*
X88987500Y-102306250D01*
X98886112Y-132365252D02*
X98886112Y-124427752D01*
X89693750Y-92868750D02*
X89230000Y-92405000D01*
X90662500Y-103981250D02*
X88987500Y-102306250D01*
X144474110Y-161463888D02*
X112109748Y-161463888D01*
X90268888Y-94019026D02*
X90268888Y-101421737D01*
X89693750Y-92868750D02*
X89693750Y-93443888D01*
X94917362Y-107144639D02*
X91753973Y-103981250D01*
X112109748Y-161463888D02*
X108411112Y-157765252D01*
X174625000Y-176212500D02*
X174625000Y-175106250D01*
X147637500Y-167475497D02*
X147637500Y-164627278D01*
D34*
X91730000Y-92498806D02*
X91730000Y-90611250D01*
X80168750Y-86518750D02*
X80168750Y-87987500D01*
X91360056Y-92868750D02*
X91730000Y-92498806D01*
D35*
X96837500Y-86531250D02*
X95868750Y-87500000D01*
X94300000Y-86850000D02*
X94300000Y-85431250D01*
X94300000Y-85431250D02*
X85660000Y-85431250D01*
X94300000Y-89611250D02*
X94300000Y-88150000D01*
X95868750Y-87500000D02*
X94950000Y-87500000D01*
X94300000Y-88150000D02*
X94950000Y-87500000D01*
X85660000Y-85431250D02*
X85660000Y-89611250D01*
X94950000Y-87500000D02*
X94300000Y-86850000D01*
D34*
X84137500Y-87500000D02*
X83037500Y-87500000D01*
X88730000Y-92354296D02*
X88730000Y-90548650D01*
X83037500Y-87500000D02*
X82550000Y-87987500D01*
X88540052Y-92544244D02*
X88730000Y-92354296D01*
X175812500Y-172168750D02*
X176562500Y-172918750D01*
X175812500Y-167762500D02*
X175812500Y-172168750D01*
X175012500Y-167762500D02*
X175012500Y-172168750D01*
X175012500Y-172168750D02*
X174262500Y-172918750D01*
X176612500Y-159262500D02*
X176612500Y-157611250D01*
X176612500Y-157611250D02*
X177918750Y-156305000D01*
M02*
