M48
; DRILL file {KiCad (6.0.10)} date Thu Jan 19 13:29:46 2023
; FORMAT={-:-/ absolute / inch / decimal}
; #@! TF.CreationDate,2023-01-19T13:29:46+11:00
; #@! TF.GenerationSoftware,Kicad,Pcbnew,(6.0.10)
; #@! TF.FileFunction,NonPlated,1,2,NPTH
FMAT,2
INCH
; #@! TA.AperFunction,NonPlated,NPTH,ComponentDrill
T1C0.0256
; #@! TA.AperFunction,NonPlated,NPTH,ComponentDrill
T2C0.0390
; #@! TA.AperFunction,NonPlated,NPTH,ComponentDrill
T3C0.0689
; #@! TA.AperFunction,NonPlated,NPTH,ComponentDrill
T4C0.1181
; #@! TA.AperFunction,NonPlated,NPTH,ComponentDrill
T5C0.1200
; #@! TA.AperFunction,NonPlated,NPTH,ComponentDrill
T6C0.1570
%
G90
G05
T1
X3.4287Y-3.5083
X3.6563Y-3.5083
T2
X8.4287Y-6.725
X8.4688Y-6.525
X8.5087Y-6.725
T3
X2.9675Y-3.6675
X3.155Y-4.4175
X3.2488Y-5.1675
X3.3675Y-3.6675
X3.4363Y-5.9175
X3.555Y-4.4175
X3.6238Y-6.6675
X3.6488Y-5.1675
X3.7175Y-3.6675
X3.8363Y-5.9175
X4.0238Y-6.6675
X4.0925Y-4.4175
X4.1175Y-3.6675
X4.28Y-5.1675
X4.4675Y-3.6675
X4.4675Y-6.6675
X4.4925Y-4.4175
X4.655Y-5.9175
X4.68Y-5.1675
X4.8425Y-4.4175
X4.8675Y-3.6675
X4.8675Y-6.6675
X5.03Y-5.1675
X5.055Y-5.9175
X5.2175Y-3.6675
X5.2175Y-6.6675
X5.2425Y-4.4175
X5.405Y-5.9175
X5.43Y-5.1675
X5.5925Y-4.4175
X5.6175Y-3.6675
X5.6175Y-6.6675
X5.78Y-5.1675
X5.805Y-5.9175
X5.9675Y-3.6675
X5.9925Y-4.4175
X6.0613Y-6.6675
X6.155Y-5.9175
X6.18Y-5.1675
X6.3425Y-4.4175
X6.3675Y-3.6675
X6.4613Y-6.6675
X6.53Y-5.1675
X6.555Y-5.9175
X6.7175Y-3.6675
X6.7425Y-4.4175
X6.905Y-5.9175
X6.93Y-5.1675
X7.0925Y-4.4175
X7.1175Y-3.6675
X7.28Y-5.1675
X7.305Y-5.9175
X7.4675Y-3.6675
X7.4925Y-4.4175
X7.5613Y-6.6675
X7.655Y-5.9175
X7.68Y-5.1675
X7.8425Y-4.4175
X7.8675Y-3.6675
X7.9613Y-6.6675
X8.03Y-5.1675
X8.055Y-5.9175
X8.2175Y-3.6675
X8.2425Y-4.4175
X8.405Y-5.9175
X8.43Y-5.1675
X8.5925Y-4.4175
X8.6175Y-3.6675
X8.78Y-5.1675
X8.805Y-5.9175
X8.9675Y-3.6675
X8.9925Y-4.4175
X9.0613Y-6.6675
X9.155Y-5.9175
X9.18Y-5.1675
X9.3425Y-4.4175
X9.3675Y-3.6675
X9.4613Y-6.6675
X9.53Y-5.1675
X9.555Y-5.9175
X9.7175Y-3.6675
X9.7425Y-4.4175
X9.905Y-5.9175
X9.905Y-6.6675
X9.93Y-5.1675
X10.0925Y-4.4175
X10.1175Y-3.6675
X10.28Y-5.1675
X10.305Y-5.9175
X10.305Y-6.6675
X10.4675Y-3.6675
X10.4925Y-4.4175
X10.655Y-5.9175
X10.655Y-6.6675
X10.68Y-5.1675
X10.8425Y-4.4175
X10.8675Y-3.6675
X11.03Y-5.1675
X11.055Y-5.9175
X11.055Y-6.6675
X11.2175Y-3.6675
X11.2425Y-4.4175
X11.405Y-5.9175
X11.405Y-6.6675
X11.43Y-5.1675
X11.5925Y-4.4175
X11.6175Y-3.6675
X11.78Y-5.1675
X11.805Y-5.9175
X11.805Y-6.6675
X11.9675Y-3.6675
X11.9925Y-4.4175
X12.155Y-5.9175
X12.155Y-6.6675
X12.18Y-5.1675
X12.3425Y-4.4175
X12.3675Y-3.6675
X12.555Y-5.9175
X12.555Y-6.6675
X12.7425Y-4.4175
X12.905Y-6.6675
X12.9988Y-5.1675
X13.0925Y-3.6675
X13.1863Y-5.9175
X13.28Y-4.4175
X13.305Y-6.6675
X13.3988Y-5.1675
X13.4925Y-3.6675
X13.5863Y-5.9175
X13.68Y-4.4175
T4
X3.0675Y-3.8675
X3.205Y-4.3175
X3.2988Y-5.0675
X3.3175Y-3.7675
X3.455Y-4.2175
X3.4863Y-5.8175
X3.5488Y-4.9675
X3.6738Y-6.5675
X3.7363Y-5.7175
X3.8175Y-3.8675
X3.9238Y-6.4675
X4.0675Y-3.7675
X4.1425Y-4.3175
X4.33Y-5.0675
X4.3925Y-4.2175
X4.5175Y-3.5675
X4.5175Y-6.5675
X4.58Y-4.9675
X4.705Y-5.8175
X4.7675Y-3.4675
X4.7675Y-6.4675
X4.8925Y-4.3175
X4.955Y-5.7175
X5.08Y-5.0675
X5.1425Y-4.2175
X5.2675Y-3.5675
X5.2675Y-6.5675
X5.33Y-4.9675
X5.455Y-5.8175
X5.5175Y-3.4675
X5.5175Y-6.4675
X5.6425Y-4.3175
X5.705Y-5.7175
X5.83Y-5.0675
X5.8925Y-4.2175
X6.0175Y-3.5675
X6.08Y-4.9675
X6.1113Y-6.5675
X6.205Y-5.8175
X6.2675Y-3.4675
X6.3613Y-6.4675
X6.3925Y-4.3175
X6.455Y-5.7175
X6.58Y-5.0675
X6.6425Y-4.2175
X6.7675Y-3.5675
X6.83Y-4.9675
X6.955Y-5.8175
X7.0175Y-3.4675
X7.1425Y-4.3175
X7.205Y-5.7175
X7.33Y-5.0675
X7.3925Y-4.2175
X7.5175Y-3.5675
X7.58Y-4.9675
X7.6113Y-6.5675
X7.705Y-5.8175
X7.7675Y-3.4675
X7.8613Y-6.4675
X7.8925Y-4.3175
X7.955Y-5.7175
X8.08Y-5.0675
X8.1425Y-4.2175
X8.2675Y-3.5675
X8.33Y-4.9675
X8.455Y-5.8175
X8.5175Y-3.4675
X8.6425Y-4.3175
X8.705Y-5.7175
X8.83Y-5.0675
X8.8925Y-4.2175
X9.0175Y-3.5675
X9.08Y-4.9675
X9.1113Y-6.5675
X9.205Y-5.8175
X9.2675Y-3.4675
X9.3613Y-6.4675
X9.3925Y-4.3175
X9.455Y-5.7175
X9.58Y-5.0675
X9.6425Y-4.2175
X9.7675Y-3.5675
X9.83Y-4.9675
X9.955Y-5.8175
X9.955Y-6.5675
X10.0175Y-3.4675
X10.1425Y-4.3175
X10.205Y-5.7175
X10.205Y-6.4675
X10.33Y-5.0675
X10.3925Y-4.2175
X10.5175Y-3.5675
X10.58Y-4.9675
X10.705Y-5.8175
X10.705Y-6.5675
X10.7675Y-3.4675
X10.8925Y-4.3175
X10.955Y-5.7175
X10.955Y-6.4675
X11.08Y-5.0675
X11.1425Y-4.2175
X11.2675Y-3.5675
X11.33Y-4.9675
X11.455Y-5.8175
X11.455Y-6.5675
X11.5175Y-3.4675
X11.6425Y-4.3175
X11.705Y-5.7175
X11.705Y-6.4675
X11.83Y-5.0675
X11.8925Y-4.2175
X12.0175Y-3.5675
X12.08Y-4.9675
X12.205Y-5.8175
X12.205Y-6.5675
X12.2675Y-3.4675
X12.3925Y-4.3175
X12.455Y-5.7175
X12.455Y-6.4675
X12.6425Y-4.2175
X12.955Y-6.5675
X13.0488Y-5.0675
X13.1425Y-3.5675
X13.205Y-6.4675
X13.2363Y-5.8175
X13.2988Y-4.9675
X13.33Y-4.3175
X13.3925Y-3.4675
X13.4863Y-5.7175
X13.58Y-4.2175
T5
X3.1663Y-5.6425
X4.1063Y-5.6425
X7.2913Y-6.9425
X8.2313Y-6.9425
X12.7288Y-4.8925
X12.8225Y-3.3925
X13.6688Y-4.8925
X13.7625Y-3.3925
T6
X3.1663Y-6.2425
X3.1675Y-3.6675
X3.355Y-4.4175
X3.4488Y-5.1675
X3.6363Y-5.9175
X3.8238Y-6.6675
X3.9175Y-3.6675
X4.1063Y-6.2425
X4.2925Y-4.4175
X4.48Y-5.1675
X4.6675Y-3.6675
X4.6675Y-6.6675
X4.855Y-5.9175
X5.0425Y-4.4175
X5.23Y-5.1675
X5.4175Y-3.6675
X5.4175Y-6.6675
X5.605Y-5.9175
X5.7925Y-4.4175
X5.98Y-5.1675
X6.1675Y-3.6675
X6.2613Y-6.6675
X6.355Y-5.9175
X6.5425Y-4.4175
X6.73Y-5.1675
X6.9175Y-3.6675
X7.105Y-5.9175
X7.2913Y-6.3425
X7.2925Y-4.4175
X7.48Y-5.1675
X7.6675Y-3.6675
X7.7613Y-6.6675
X7.855Y-5.9175
X8.0425Y-4.4175
X8.23Y-5.1675
X8.2313Y-6.3425
X8.4175Y-3.6675
X8.605Y-5.9175
X8.7925Y-4.4175
X8.98Y-5.1675
X9.1675Y-3.6675
X9.2613Y-6.6675
X9.355Y-5.9175
X9.5425Y-4.4175
X9.73Y-5.1675
X9.9175Y-3.6675
X10.105Y-5.9175
X10.105Y-6.6675
X10.2925Y-4.4175
X10.48Y-5.1675
X10.6675Y-3.6675
X10.855Y-5.9175
X10.855Y-6.6675
X11.0425Y-4.4175
X11.23Y-5.1675
X11.4175Y-3.6675
X11.605Y-5.9175
X11.605Y-6.6675
X11.7925Y-4.4175
X11.98Y-5.1675
X12.1675Y-3.6675
X12.355Y-5.9175
X12.355Y-6.6675
X12.5425Y-4.4175
X12.7288Y-5.4925
X12.8225Y-3.9925
X13.105Y-6.6675
X13.1988Y-5.1675
X13.2925Y-3.6675
X13.3863Y-5.9175
X13.48Y-4.4175
X13.6688Y-5.4925
X13.7625Y-3.9925
T0
M30
