G04 #@! TF.GenerationSoftware,KiCad,Pcbnew,(6.0.10)*
G04 #@! TF.CreationDate,2023-01-06T17:15:24+11:00*
G04 #@! TF.ProjectId,exp60,65787036-302e-46b6-9963-61645f706362,rev?*
G04 #@! TF.SameCoordinates,Original*
G04 #@! TF.FileFunction,Soldermask,Top*
G04 #@! TF.FilePolarity,Negative*
%FSLAX46Y46*%
G04 Gerber Fmt 4.6, Leading zero omitted, Abs format (unit mm)*
G04 Created by KiCad (PCBNEW (6.0.10)) date 2023-01-06 17:15:24*
%MOMM*%
%LPD*%
G01*
G04 APERTURE LIST*
%ADD10C,1.750000*%
%ADD11C,3.000000*%
%ADD12C,3.987800*%
%ADD13C,3.048000*%
%ADD14C,0.990600*%
%ADD15C,0.650000*%
%ADD16O,1.050000X2.100000*%
%ADD17O,1.000000X2.000000*%
G04 APERTURE END LIST*
D10*
X133160000Y-112205000D03*
D11*
X130620000Y-107125000D03*
D12*
X128080000Y-112205000D03*
D11*
X124270000Y-109665000D03*
D10*
X123000000Y-112205000D03*
D12*
X151892500Y-131255000D03*
D11*
X154432500Y-126175000D03*
D10*
X156972500Y-131255000D03*
X146812500Y-131255000D03*
D11*
X148082500Y-128715000D03*
D10*
X176022500Y-131255000D03*
D12*
X170942500Y-131255000D03*
D11*
X167132500Y-128715000D03*
D10*
X165862500Y-131255000D03*
D11*
X173482500Y-126175000D03*
D10*
X340328750Y-131255000D03*
D11*
X331438750Y-128715000D03*
D13*
X347186750Y-124270000D03*
D12*
X323310750Y-139510000D03*
D10*
X330168750Y-131255000D03*
D13*
X323310750Y-124270000D03*
D12*
X347186750Y-139510000D03*
X335248750Y-131255000D03*
D11*
X337788750Y-126175000D03*
D12*
X275717500Y-169355000D03*
D11*
X271907500Y-166815000D03*
D10*
X270637500Y-169355000D03*
D11*
X278257500Y-164275000D03*
D10*
X280797500Y-169355000D03*
D11*
X183007500Y-145225000D03*
D10*
X185547500Y-150305000D03*
X175387500Y-150305000D03*
D12*
X180467500Y-150305000D03*
D11*
X176657500Y-147765000D03*
D10*
X147447500Y-150305000D03*
D11*
X144907500Y-145225000D03*
D10*
X137287500Y-150305000D03*
D11*
X138557500Y-147765000D03*
D12*
X142367500Y-150305000D03*
D10*
X132525000Y-93155000D03*
X142685000Y-93155000D03*
D11*
X140145000Y-88075000D03*
X133795000Y-90615000D03*
D12*
X137605000Y-93155000D03*
D11*
X155226250Y-166815000D03*
D12*
X159036250Y-169355000D03*
D10*
X164116250Y-169355000D03*
D11*
X161576250Y-164275000D03*
D10*
X153956250Y-169355000D03*
D11*
X342551250Y-145225000D03*
D12*
X340011250Y-150305000D03*
D11*
X336201250Y-147765000D03*
D10*
X345091250Y-150305000D03*
X334931250Y-150305000D03*
X218250000Y-112205000D03*
D11*
X219520000Y-109665000D03*
D12*
X223330000Y-112205000D03*
D10*
X228410000Y-112205000D03*
D11*
X225870000Y-107125000D03*
D12*
X337630000Y-93155000D03*
D10*
X342710000Y-93155000D03*
D13*
X349568000Y-86170000D03*
X325692000Y-86170000D03*
D12*
X325692000Y-101410000D03*
D11*
X333820000Y-90615000D03*
D10*
X332550000Y-93155000D03*
D12*
X349568000Y-101410000D03*
D11*
X340170000Y-88075000D03*
D10*
X202216250Y-169355000D03*
D11*
X199676250Y-164275000D03*
D12*
X197136250Y-169355000D03*
D11*
X193326250Y-166815000D03*
D13*
X185198250Y-176340000D03*
D10*
X192056250Y-169355000D03*
D13*
X209074250Y-176340000D03*
D12*
X185198250Y-161100000D03*
X209074250Y-161100000D03*
D11*
X306832500Y-126175000D03*
D10*
X299212500Y-131255000D03*
D12*
X304292500Y-131255000D03*
D11*
X300482500Y-128715000D03*
D10*
X309372500Y-131255000D03*
D11*
X235395000Y-88075000D03*
D10*
X227775000Y-93155000D03*
X237935000Y-93155000D03*
D11*
X229045000Y-90615000D03*
D12*
X232855000Y-93155000D03*
X235236250Y-169355000D03*
D10*
X230156250Y-169355000D03*
X240316250Y-169355000D03*
D11*
X237776250Y-164275000D03*
X231426250Y-166815000D03*
X88551250Y-147765000D03*
D13*
X80423250Y-143320000D03*
D10*
X87281250Y-150305000D03*
D12*
X104299250Y-158560000D03*
X92361250Y-150305000D03*
D10*
X97441250Y-150305000D03*
D11*
X94901250Y-145225000D03*
D12*
X80423250Y-158560000D03*
D13*
X104299250Y-143320000D03*
D12*
X99505000Y-93155000D03*
D10*
X104585000Y-93155000D03*
D11*
X96965000Y-98235000D03*
X103315000Y-95695000D03*
D10*
X94425000Y-93155000D03*
D11*
X109982500Y-128715000D03*
D10*
X108712500Y-131255000D03*
D11*
X116332500Y-126175000D03*
D12*
X113792500Y-131255000D03*
D10*
X118872500Y-131255000D03*
D11*
X81407500Y-109665000D03*
D10*
X80137500Y-112205000D03*
X90297500Y-112205000D03*
D12*
X85217500Y-112205000D03*
D11*
X87757500Y-107125000D03*
D12*
X118555000Y-169355000D03*
D10*
X123635000Y-169355000D03*
X113475000Y-169355000D03*
D11*
X121095000Y-164275000D03*
X114745000Y-166815000D03*
X159195000Y-88075000D03*
X152845000Y-90615000D03*
D12*
X156655000Y-93155000D03*
D10*
X161735000Y-93155000D03*
X151575000Y-93155000D03*
D11*
X99663750Y-164275000D03*
D10*
X92043750Y-169355000D03*
D12*
X97123750Y-169355000D03*
D11*
X93313750Y-166815000D03*
D10*
X102203750Y-169355000D03*
X171260000Y-112205000D03*
D11*
X168720000Y-107125000D03*
D12*
X166180000Y-112205000D03*
D11*
X162370000Y-109665000D03*
D10*
X161100000Y-112205000D03*
D11*
X286195000Y-90615000D03*
D10*
X295085000Y-93155000D03*
X284925000Y-93155000D03*
D11*
X292545000Y-88075000D03*
D12*
X290005000Y-93155000D03*
D11*
X244920000Y-107125000D03*
D12*
X242380000Y-112205000D03*
D10*
X247460000Y-112205000D03*
D11*
X238570000Y-109665000D03*
D10*
X237300000Y-112205000D03*
X204597500Y-150305000D03*
D11*
X195707500Y-147765000D03*
D10*
X194437500Y-150305000D03*
D12*
X199517500Y-150305000D03*
D11*
X202057500Y-145225000D03*
X271907500Y-147765000D03*
X278257500Y-145225000D03*
D10*
X270637500Y-150305000D03*
X280797500Y-150305000D03*
D12*
X275717500Y-150305000D03*
D10*
X304610000Y-112205000D03*
D11*
X295720000Y-109665000D03*
D10*
X294450000Y-112205000D03*
D12*
X299530000Y-112205000D03*
D11*
X302070000Y-107125000D03*
D10*
X289687500Y-150305000D03*
D12*
X294767500Y-150305000D03*
D10*
X299847500Y-150305000D03*
D11*
X290957500Y-147765000D03*
X297307500Y-145225000D03*
X140145000Y-164275000D03*
D10*
X142685000Y-169355000D03*
X132525000Y-169355000D03*
D12*
X137605000Y-169355000D03*
D11*
X133795000Y-166815000D03*
X338582500Y-109665000D03*
D10*
X337312500Y-112205000D03*
D11*
X344932500Y-107125000D03*
D10*
X347472500Y-112205000D03*
D12*
X342392500Y-112205000D03*
D11*
X254445000Y-88075000D03*
D12*
X251905000Y-93155000D03*
D11*
X248095000Y-90615000D03*
D10*
X256985000Y-93155000D03*
X246825000Y-93155000D03*
D11*
X268732500Y-126175000D03*
X262382500Y-128715000D03*
D10*
X261112500Y-131255000D03*
X271272500Y-131255000D03*
D12*
X266192500Y-131255000D03*
D11*
X267145000Y-90615000D03*
D10*
X265875000Y-93155000D03*
D12*
X270955000Y-93155000D03*
D11*
X273495000Y-88075000D03*
D10*
X276035000Y-93155000D03*
D11*
X287782500Y-126175000D03*
D10*
X280162500Y-131255000D03*
D12*
X285242500Y-131255000D03*
D11*
X281432500Y-128715000D03*
D10*
X290322500Y-131255000D03*
D11*
X305245000Y-90615000D03*
D12*
X309055000Y-93155000D03*
D10*
X314135000Y-93155000D03*
D11*
X311595000Y-88075000D03*
D10*
X303975000Y-93155000D03*
D12*
X132842500Y-131255000D03*
D11*
X129032500Y-128715000D03*
D10*
X137922500Y-131255000D03*
D11*
X135382500Y-126175000D03*
D10*
X127762500Y-131255000D03*
X114110000Y-112205000D03*
D11*
X111570000Y-107125000D03*
X105220000Y-109665000D03*
D12*
X109030000Y-112205000D03*
D10*
X103950000Y-112205000D03*
D11*
X276670000Y-109665000D03*
D12*
X280480000Y-112205000D03*
D11*
X283020000Y-107125000D03*
D10*
X275400000Y-112205000D03*
X285560000Y-112205000D03*
D11*
X178245000Y-88075000D03*
D12*
X175705000Y-93155000D03*
D10*
X180785000Y-93155000D03*
D11*
X171895000Y-90615000D03*
D10*
X170625000Y-93155000D03*
D11*
X252857500Y-147765000D03*
X259207500Y-145225000D03*
D12*
X256667500Y-150305000D03*
D10*
X251587500Y-150305000D03*
X261747500Y-150305000D03*
D11*
X214757500Y-147765000D03*
D12*
X218567500Y-150305000D03*
D11*
X221107500Y-145225000D03*
D10*
X213487500Y-150305000D03*
X223647500Y-150305000D03*
X318897500Y-150305000D03*
D11*
X316357500Y-145225000D03*
D10*
X308737500Y-150305000D03*
D12*
X313817500Y-150305000D03*
D11*
X310007500Y-147765000D03*
D10*
X261747500Y-169355000D03*
D11*
X252857500Y-166815000D03*
D12*
X256667500Y-169355000D03*
D10*
X251587500Y-169355000D03*
D11*
X259207500Y-164275000D03*
D10*
X118237500Y-150305000D03*
X128397500Y-150305000D03*
D11*
X119507500Y-147765000D03*
X125857500Y-145225000D03*
D12*
X123317500Y-150305000D03*
D11*
X121095000Y-88075000D03*
D10*
X113475000Y-93155000D03*
D11*
X114745000Y-90615000D03*
D10*
X123635000Y-93155000D03*
D12*
X118555000Y-93155000D03*
D11*
X290957500Y-166815000D03*
D10*
X299847500Y-169355000D03*
D11*
X297307500Y-164275000D03*
D10*
X289687500Y-169355000D03*
D12*
X294767500Y-169355000D03*
D10*
X82518750Y-131255000D03*
D11*
X90138750Y-126175000D03*
X83788750Y-128715000D03*
D12*
X87598750Y-131255000D03*
D10*
X92678750Y-131255000D03*
X323660000Y-112205000D03*
D12*
X318580000Y-112205000D03*
D11*
X314770000Y-109665000D03*
D10*
X313500000Y-112205000D03*
D11*
X321120000Y-107125000D03*
D12*
X204280000Y-112205000D03*
D11*
X206820000Y-107125000D03*
D10*
X209360000Y-112205000D03*
X199200000Y-112205000D03*
D11*
X200470000Y-109665000D03*
D10*
X337947500Y-169355000D03*
X327787500Y-169355000D03*
D12*
X332867500Y-169355000D03*
D11*
X335407500Y-164275000D03*
X329057500Y-166815000D03*
D10*
X203962500Y-131255000D03*
D11*
X205232500Y-128715000D03*
D10*
X214122500Y-131255000D03*
D11*
X211582500Y-126175000D03*
D12*
X209042500Y-131255000D03*
D10*
X85535000Y-93155000D03*
D11*
X77915000Y-98235000D03*
X84265000Y-95695000D03*
D10*
X75375000Y-93155000D03*
D12*
X80455000Y-93155000D03*
D11*
X216345000Y-88075000D03*
D12*
X213805000Y-93155000D03*
D10*
X208725000Y-93155000D03*
X218885000Y-93155000D03*
D11*
X209995000Y-90615000D03*
D10*
X232537500Y-150305000D03*
D12*
X237617500Y-150305000D03*
D11*
X233807500Y-147765000D03*
X240157500Y-145225000D03*
D10*
X242697500Y-150305000D03*
X195072500Y-131255000D03*
D12*
X189992500Y-131255000D03*
D11*
X192532500Y-126175000D03*
D10*
X184912500Y-131255000D03*
D11*
X186182500Y-128715000D03*
X316357500Y-164275000D03*
D10*
X308737500Y-169355000D03*
D11*
X310007500Y-166815000D03*
D10*
X318897500Y-169355000D03*
D12*
X313817500Y-169355000D03*
D10*
X142050000Y-112205000D03*
D11*
X143320000Y-109665000D03*
D10*
X152210000Y-112205000D03*
D12*
X147130000Y-112205000D03*
D11*
X149670000Y-107125000D03*
X243332500Y-128715000D03*
D10*
X242062500Y-131255000D03*
D11*
X249682500Y-126175000D03*
D12*
X247142500Y-131255000D03*
D10*
X252222500Y-131255000D03*
X199835000Y-93155000D03*
D12*
X194755000Y-93155000D03*
D11*
X190945000Y-90615000D03*
X197295000Y-88075000D03*
D10*
X189675000Y-93155000D03*
X190310000Y-112205000D03*
D11*
X187770000Y-107125000D03*
D12*
X185230000Y-112205000D03*
D11*
X181420000Y-109665000D03*
D10*
X180150000Y-112205000D03*
D12*
X228092500Y-131255000D03*
D11*
X230632500Y-126175000D03*
D10*
X233172500Y-131255000D03*
D11*
X224282500Y-128715000D03*
D10*
X223012500Y-131255000D03*
X256350000Y-112205000D03*
X266510000Y-112205000D03*
D12*
X261430000Y-112205000D03*
D11*
X257620000Y-109665000D03*
X263970000Y-107125000D03*
X163957500Y-145225000D03*
D12*
X161417500Y-150305000D03*
D10*
X156337500Y-150305000D03*
X166497500Y-150305000D03*
D11*
X157607500Y-147765000D03*
D14*
X215106250Y-165735000D03*
X216122250Y-170815000D03*
X214090250Y-170815000D03*
D15*
X87090000Y-89111250D03*
X92870000Y-89111250D03*
D16*
X85660000Y-89611250D03*
D17*
X85660000Y-85431250D03*
X94300000Y-85431250D03*
D16*
X94300000Y-89611250D03*
M02*
