G04 #@! TF.GenerationSoftware,KiCad,Pcbnew,(6.0.10)*
G04 #@! TF.CreationDate,2023-01-06T17:15:24+11:00*
G04 #@! TF.ProjectId,exp60,65787036-302e-46b6-9963-61645f706362,rev?*
G04 #@! TF.SameCoordinates,Original*
G04 #@! TF.FileFunction,Legend,Bot*
G04 #@! TF.FilePolarity,Positive*
%FSLAX46Y46*%
G04 Gerber Fmt 4.6, Leading zero omitted, Abs format (unit mm)*
G04 Created by KiCad (PCBNEW (6.0.10)) date 2023-01-06 17:15:24*
%MOMM*%
%LPD*%
G01*
G04 APERTURE LIST*
%ADD10C,0.300000*%
%ADD11C,0.150000*%
%ADD12C,0.120000*%
%ADD13C,0.200000*%
G04 APERTURE END LIST*
D10*
X82828571Y-165934642D02*
X82971428Y-166006071D01*
X83257142Y-166006071D01*
X83400000Y-165934642D01*
X83471428Y-165791785D01*
X83471428Y-165220357D01*
X83400000Y-165077500D01*
X83257142Y-165006071D01*
X82971428Y-165006071D01*
X82828571Y-165077500D01*
X82757142Y-165220357D01*
X82757142Y-165363214D01*
X83471428Y-165506071D01*
X82257142Y-166006071D02*
X81471428Y-165006071D01*
X82257142Y-165006071D02*
X81471428Y-166006071D01*
X80900000Y-165006071D02*
X80900000Y-166506071D01*
X80900000Y-165077500D02*
X80757142Y-165006071D01*
X80471428Y-165006071D01*
X80328571Y-165077500D01*
X80257142Y-165148928D01*
X80185714Y-165291785D01*
X80185714Y-165720357D01*
X80257142Y-165863214D01*
X80328571Y-165934642D01*
X80471428Y-166006071D01*
X80757142Y-166006071D01*
X80900000Y-165934642D01*
X78900000Y-164506071D02*
X79185714Y-164506071D01*
X79328571Y-164577500D01*
X79400000Y-164648928D01*
X79542857Y-164863214D01*
X79614285Y-165148928D01*
X79614285Y-165720357D01*
X79542857Y-165863214D01*
X79471428Y-165934642D01*
X79328571Y-166006071D01*
X79042857Y-166006071D01*
X78900000Y-165934642D01*
X78828571Y-165863214D01*
X78757142Y-165720357D01*
X78757142Y-165363214D01*
X78828571Y-165220357D01*
X78900000Y-165148928D01*
X79042857Y-165077500D01*
X79328571Y-165077500D01*
X79471428Y-165148928D01*
X79542857Y-165220357D01*
X79614285Y-165363214D01*
X77828571Y-164506071D02*
X77685714Y-164506071D01*
X77542857Y-164577500D01*
X77471428Y-164648928D01*
X77400000Y-164791785D01*
X77328571Y-165077500D01*
X77328571Y-165434642D01*
X77400000Y-165720357D01*
X77471428Y-165863214D01*
X77542857Y-165934642D01*
X77685714Y-166006071D01*
X77828571Y-166006071D01*
X77971428Y-165934642D01*
X78042857Y-165863214D01*
X78114285Y-165720357D01*
X78185714Y-165434642D01*
X78185714Y-165077500D01*
X78114285Y-164791785D01*
X78042857Y-164648928D01*
X77971428Y-164577500D01*
X77828571Y-164506071D01*
X81292857Y-168421071D02*
X81292857Y-166921071D01*
X81292857Y-167492500D02*
X81150000Y-167421071D01*
X80864285Y-167421071D01*
X80721428Y-167492500D01*
X80650000Y-167563928D01*
X80578571Y-167706785D01*
X80578571Y-168135357D01*
X80650000Y-168278214D01*
X80721428Y-168349642D01*
X80864285Y-168421071D01*
X81150000Y-168421071D01*
X81292857Y-168349642D01*
X80078571Y-167421071D02*
X79721428Y-168421071D01*
X79364285Y-167421071D02*
X79721428Y-168421071D01*
X79864285Y-168778214D01*
X79935714Y-168849642D01*
X80078571Y-168921071D01*
X84185714Y-170693214D02*
X84257142Y-170764642D01*
X84471428Y-170836071D01*
X84614285Y-170836071D01*
X84828571Y-170764642D01*
X84971428Y-170621785D01*
X85042857Y-170478928D01*
X85114285Y-170193214D01*
X85114285Y-169978928D01*
X85042857Y-169693214D01*
X84971428Y-169550357D01*
X84828571Y-169407500D01*
X84614285Y-169336071D01*
X84471428Y-169336071D01*
X84257142Y-169407500D01*
X84185714Y-169478928D01*
X83542857Y-170836071D02*
X83542857Y-169336071D01*
X82900000Y-170836071D02*
X82900000Y-170050357D01*
X82971428Y-169907500D01*
X83114285Y-169836071D01*
X83328571Y-169836071D01*
X83471428Y-169907500D01*
X83542857Y-169978928D01*
X82185714Y-170836071D02*
X82185714Y-169836071D01*
X82185714Y-170121785D02*
X82114285Y-169978928D01*
X82042857Y-169907500D01*
X81900000Y-169836071D01*
X81757142Y-169836071D01*
X81257142Y-170836071D02*
X81257142Y-169836071D01*
X81257142Y-169336071D02*
X81328571Y-169407500D01*
X81257142Y-169478928D01*
X81185714Y-169407500D01*
X81257142Y-169336071D01*
X81257142Y-169478928D01*
X80614285Y-170764642D02*
X80471428Y-170836071D01*
X80185714Y-170836071D01*
X80042857Y-170764642D01*
X79971428Y-170621785D01*
X79971428Y-170550357D01*
X80042857Y-170407500D01*
X80185714Y-170336071D01*
X80400000Y-170336071D01*
X80542857Y-170264642D01*
X80614285Y-170121785D01*
X80614285Y-170050357D01*
X80542857Y-169907500D01*
X80400000Y-169836071D01*
X80185714Y-169836071D01*
X80042857Y-169907500D01*
X79542857Y-169836071D02*
X78971428Y-169836071D01*
X79328571Y-169336071D02*
X79328571Y-170621785D01*
X79257142Y-170764642D01*
X79114285Y-170836071D01*
X78971428Y-170836071D01*
X78471428Y-170836071D02*
X78471428Y-169836071D01*
X78471428Y-169336071D02*
X78542857Y-169407500D01*
X78471428Y-169478928D01*
X78400000Y-169407500D01*
X78471428Y-169336071D01*
X78471428Y-169478928D01*
X77114285Y-170836071D02*
X77114285Y-170050357D01*
X77185714Y-169907500D01*
X77328571Y-169836071D01*
X77614285Y-169836071D01*
X77757142Y-169907500D01*
X77114285Y-170764642D02*
X77257142Y-170836071D01*
X77614285Y-170836071D01*
X77757142Y-170764642D01*
X77828571Y-170621785D01*
X77828571Y-170478928D01*
X77757142Y-170336071D01*
X77614285Y-170264642D01*
X77257142Y-170264642D01*
X77114285Y-170193214D01*
X76400000Y-169836071D02*
X76400000Y-170836071D01*
X76400000Y-169978928D02*
X76328571Y-169907500D01*
X76185714Y-169836071D01*
X75971428Y-169836071D01*
X75828571Y-169907500D01*
X75757142Y-170050357D01*
X75757142Y-170836071D01*
X84471428Y-173179642D02*
X84257142Y-173251071D01*
X83900000Y-173251071D01*
X83757142Y-173179642D01*
X83685714Y-173108214D01*
X83614285Y-172965357D01*
X83614285Y-172822500D01*
X83685714Y-172679642D01*
X83757142Y-172608214D01*
X83900000Y-172536785D01*
X84185714Y-172465357D01*
X84328571Y-172393928D01*
X84400000Y-172322500D01*
X84471428Y-172179642D01*
X84471428Y-172036785D01*
X84400000Y-171893928D01*
X84328571Y-171822500D01*
X84185714Y-171751071D01*
X83828571Y-171751071D01*
X83614285Y-171822500D01*
X82328571Y-173179642D02*
X82471428Y-173251071D01*
X82757142Y-173251071D01*
X82900000Y-173179642D01*
X82971428Y-173108214D01*
X83042857Y-172965357D01*
X83042857Y-172536785D01*
X82971428Y-172393928D01*
X82900000Y-172322500D01*
X82757142Y-172251071D01*
X82471428Y-172251071D01*
X82328571Y-172322500D01*
X81685714Y-173251071D02*
X81685714Y-171751071D01*
X81042857Y-173251071D02*
X81042857Y-172465357D01*
X81114285Y-172322500D01*
X81257142Y-172251071D01*
X81471428Y-172251071D01*
X81614285Y-172322500D01*
X81685714Y-172393928D01*
X79685714Y-172251071D02*
X79685714Y-173251071D01*
X80328571Y-172251071D02*
X80328571Y-173036785D01*
X80257142Y-173179642D01*
X80114285Y-173251071D01*
X79900000Y-173251071D01*
X79757142Y-173179642D01*
X79685714Y-173108214D01*
X78757142Y-173251071D02*
X78900000Y-173179642D01*
X78971428Y-173036785D01*
X78971428Y-171751071D01*
X78328571Y-172251071D02*
X77542857Y-172251071D01*
X78328571Y-173251071D01*
X77542857Y-173251071D01*
X76400000Y-173179642D02*
X76542857Y-173251071D01*
X76828571Y-173251071D01*
X76971428Y-173179642D01*
X77042857Y-173036785D01*
X77042857Y-172465357D01*
X76971428Y-172322500D01*
X76828571Y-172251071D01*
X76542857Y-172251071D01*
X76400000Y-172322500D01*
X76328571Y-172465357D01*
X76328571Y-172608214D01*
X77042857Y-172751071D01*
D11*
X129294285Y-115705380D02*
X129294285Y-114705380D01*
X128722857Y-115705380D02*
X129151428Y-115133952D01*
X128722857Y-114705380D02*
X129294285Y-115276809D01*
X127770476Y-115705380D02*
X128341904Y-115705380D01*
X128056190Y-115705380D02*
X128056190Y-114705380D01*
X128151428Y-114848238D01*
X128246666Y-114943476D01*
X128341904Y-114991095D01*
X126913333Y-114705380D02*
X127103809Y-114705380D01*
X127199047Y-114753000D01*
X127246666Y-114800619D01*
X127341904Y-114943476D01*
X127389523Y-115133952D01*
X127389523Y-115514904D01*
X127341904Y-115610142D01*
X127294285Y-115657761D01*
X127199047Y-115705380D01*
X127008571Y-115705380D01*
X126913333Y-115657761D01*
X126865714Y-115610142D01*
X126818095Y-115514904D01*
X126818095Y-115276809D01*
X126865714Y-115181571D01*
X126913333Y-115133952D01*
X127008571Y-115086333D01*
X127199047Y-115086333D01*
X127294285Y-115133952D01*
X127341904Y-115181571D01*
X127389523Y-115276809D01*
X153106785Y-134755380D02*
X153106785Y-133755380D01*
X152535357Y-134755380D02*
X152963928Y-134183952D01*
X152535357Y-133755380D02*
X153106785Y-134326809D01*
X152202023Y-133755380D02*
X151582976Y-133755380D01*
X151916309Y-134136333D01*
X151773452Y-134136333D01*
X151678214Y-134183952D01*
X151630595Y-134231571D01*
X151582976Y-134326809D01*
X151582976Y-134564904D01*
X151630595Y-134660142D01*
X151678214Y-134707761D01*
X151773452Y-134755380D01*
X152059166Y-134755380D01*
X152154404Y-134707761D01*
X152202023Y-134660142D01*
X150630595Y-134755380D02*
X151202023Y-134755380D01*
X150916309Y-134755380D02*
X150916309Y-133755380D01*
X151011547Y-133898238D01*
X151106785Y-133993476D01*
X151202023Y-134041095D01*
X172156785Y-134755380D02*
X172156785Y-133755380D01*
X171585357Y-134755380D02*
X172013928Y-134183952D01*
X171585357Y-133755380D02*
X172156785Y-134326809D01*
X171252023Y-133755380D02*
X170632976Y-133755380D01*
X170966309Y-134136333D01*
X170823452Y-134136333D01*
X170728214Y-134183952D01*
X170680595Y-134231571D01*
X170632976Y-134326809D01*
X170632976Y-134564904D01*
X170680595Y-134660142D01*
X170728214Y-134707761D01*
X170823452Y-134755380D01*
X171109166Y-134755380D01*
X171204404Y-134707761D01*
X171252023Y-134660142D01*
X170252023Y-133850619D02*
X170204404Y-133803000D01*
X170109166Y-133755380D01*
X169871071Y-133755380D01*
X169775833Y-133803000D01*
X169728214Y-133850619D01*
X169680595Y-133945857D01*
X169680595Y-134041095D01*
X169728214Y-134183952D01*
X170299642Y-134755380D01*
X169680595Y-134755380D01*
X336463035Y-134755380D02*
X336463035Y-133755380D01*
X335891607Y-134755380D02*
X336320178Y-134183952D01*
X335891607Y-133755380D02*
X336463035Y-134326809D01*
X335034464Y-134088714D02*
X335034464Y-134755380D01*
X335272559Y-133707761D02*
X335510654Y-134422047D01*
X334891607Y-134422047D01*
X334320178Y-133755380D02*
X334224940Y-133755380D01*
X334129702Y-133803000D01*
X334082083Y-133850619D01*
X334034464Y-133945857D01*
X333986845Y-134136333D01*
X333986845Y-134374428D01*
X334034464Y-134564904D01*
X334082083Y-134660142D01*
X334129702Y-134707761D01*
X334224940Y-134755380D01*
X334320178Y-134755380D01*
X334415416Y-134707761D01*
X334463035Y-134660142D01*
X334510654Y-134564904D01*
X334558273Y-134374428D01*
X334558273Y-134136333D01*
X334510654Y-133945857D01*
X334463035Y-133850619D01*
X334415416Y-133803000D01*
X334320178Y-133755380D01*
X276931785Y-172855380D02*
X276931785Y-171855380D01*
X276360357Y-172855380D02*
X276788928Y-172283952D01*
X276360357Y-171855380D02*
X276931785Y-172426809D01*
X275503214Y-171855380D02*
X275693690Y-171855380D01*
X275788928Y-171903000D01*
X275836547Y-171950619D01*
X275931785Y-172093476D01*
X275979404Y-172283952D01*
X275979404Y-172664904D01*
X275931785Y-172760142D01*
X275884166Y-172807761D01*
X275788928Y-172855380D01*
X275598452Y-172855380D01*
X275503214Y-172807761D01*
X275455595Y-172760142D01*
X275407976Y-172664904D01*
X275407976Y-172426809D01*
X275455595Y-172331571D01*
X275503214Y-172283952D01*
X275598452Y-172236333D01*
X275788928Y-172236333D01*
X275884166Y-172283952D01*
X275931785Y-172331571D01*
X275979404Y-172426809D01*
X274455595Y-172855380D02*
X275027023Y-172855380D01*
X274741309Y-172855380D02*
X274741309Y-171855380D01*
X274836547Y-171998238D01*
X274931785Y-172093476D01*
X275027023Y-172141095D01*
X181681785Y-153805380D02*
X181681785Y-152805380D01*
X181110357Y-153805380D02*
X181538928Y-153233952D01*
X181110357Y-152805380D02*
X181681785Y-153376809D01*
X180253214Y-153138714D02*
X180253214Y-153805380D01*
X180491309Y-152757761D02*
X180729404Y-153472047D01*
X180110357Y-153472047D01*
X179253214Y-152805380D02*
X179729404Y-152805380D01*
X179777023Y-153281571D01*
X179729404Y-153233952D01*
X179634166Y-153186333D01*
X179396071Y-153186333D01*
X179300833Y-153233952D01*
X179253214Y-153281571D01*
X179205595Y-153376809D01*
X179205595Y-153614904D01*
X179253214Y-153710142D01*
X179300833Y-153757761D01*
X179396071Y-153805380D01*
X179634166Y-153805380D01*
X179729404Y-153757761D01*
X179777023Y-153710142D01*
X143581785Y-153805380D02*
X143581785Y-152805380D01*
X143010357Y-153805380D02*
X143438928Y-153233952D01*
X143010357Y-152805380D02*
X143581785Y-153376809D01*
X142153214Y-153138714D02*
X142153214Y-153805380D01*
X142391309Y-152757761D02*
X142629404Y-153472047D01*
X142010357Y-153472047D01*
X141724642Y-152805380D02*
X141105595Y-152805380D01*
X141438928Y-153186333D01*
X141296071Y-153186333D01*
X141200833Y-153233952D01*
X141153214Y-153281571D01*
X141105595Y-153376809D01*
X141105595Y-153614904D01*
X141153214Y-153710142D01*
X141200833Y-153757761D01*
X141296071Y-153805380D01*
X141581785Y-153805380D01*
X141677023Y-153757761D01*
X141724642Y-153710142D01*
X138343095Y-96655380D02*
X138343095Y-95655380D01*
X137771666Y-96655380D02*
X138200238Y-96083952D01*
X137771666Y-95655380D02*
X138343095Y-96226809D01*
X137438333Y-95655380D02*
X136819285Y-95655380D01*
X137152619Y-96036333D01*
X137009761Y-96036333D01*
X136914523Y-96083952D01*
X136866904Y-96131571D01*
X136819285Y-96226809D01*
X136819285Y-96464904D01*
X136866904Y-96560142D01*
X136914523Y-96607761D01*
X137009761Y-96655380D01*
X137295476Y-96655380D01*
X137390714Y-96607761D01*
X137438333Y-96560142D01*
X160250535Y-172855380D02*
X160250535Y-171855380D01*
X159679107Y-172855380D02*
X160107678Y-172283952D01*
X159679107Y-171855380D02*
X160250535Y-172426809D01*
X158774345Y-171855380D02*
X159250535Y-171855380D01*
X159298154Y-172331571D01*
X159250535Y-172283952D01*
X159155297Y-172236333D01*
X158917202Y-172236333D01*
X158821964Y-172283952D01*
X158774345Y-172331571D01*
X158726726Y-172426809D01*
X158726726Y-172664904D01*
X158774345Y-172760142D01*
X158821964Y-172807761D01*
X158917202Y-172855380D01*
X159155297Y-172855380D01*
X159250535Y-172807761D01*
X159298154Y-172760142D01*
X158393392Y-171855380D02*
X157726726Y-171855380D01*
X158155297Y-172855380D01*
X341225535Y-153805380D02*
X341225535Y-152805380D01*
X340654107Y-153805380D02*
X341082678Y-153233952D01*
X340654107Y-152805380D02*
X341225535Y-153376809D01*
X339749345Y-152805380D02*
X340225535Y-152805380D01*
X340273154Y-153281571D01*
X340225535Y-153233952D01*
X340130297Y-153186333D01*
X339892202Y-153186333D01*
X339796964Y-153233952D01*
X339749345Y-153281571D01*
X339701726Y-153376809D01*
X339701726Y-153614904D01*
X339749345Y-153710142D01*
X339796964Y-153757761D01*
X339892202Y-153805380D01*
X340130297Y-153805380D01*
X340225535Y-153757761D01*
X340273154Y-153710142D01*
X339368392Y-152805380D02*
X338749345Y-152805380D01*
X339082678Y-153186333D01*
X338939821Y-153186333D01*
X338844583Y-153233952D01*
X338796964Y-153281571D01*
X338749345Y-153376809D01*
X338749345Y-153614904D01*
X338796964Y-153710142D01*
X338844583Y-153757761D01*
X338939821Y-153805380D01*
X339225535Y-153805380D01*
X339320773Y-153757761D01*
X339368392Y-153710142D01*
X224544285Y-115705380D02*
X224544285Y-114705380D01*
X223972857Y-115705380D02*
X224401428Y-115133952D01*
X223972857Y-114705380D02*
X224544285Y-115276809D01*
X223591904Y-114800619D02*
X223544285Y-114753000D01*
X223449047Y-114705380D01*
X223210952Y-114705380D01*
X223115714Y-114753000D01*
X223068095Y-114800619D01*
X223020476Y-114895857D01*
X223020476Y-114991095D01*
X223068095Y-115133952D01*
X223639523Y-115705380D01*
X223020476Y-115705380D01*
X222068095Y-115705380D02*
X222639523Y-115705380D01*
X222353809Y-115705380D02*
X222353809Y-114705380D01*
X222449047Y-114848238D01*
X222544285Y-114943476D01*
X222639523Y-114991095D01*
X198350535Y-172855380D02*
X198350535Y-171855380D01*
X197779107Y-172855380D02*
X198207678Y-172283952D01*
X197779107Y-171855380D02*
X198350535Y-172426809D01*
X196874345Y-171855380D02*
X197350535Y-171855380D01*
X197398154Y-172331571D01*
X197350535Y-172283952D01*
X197255297Y-172236333D01*
X197017202Y-172236333D01*
X196921964Y-172283952D01*
X196874345Y-172331571D01*
X196826726Y-172426809D01*
X196826726Y-172664904D01*
X196874345Y-172760142D01*
X196921964Y-172807761D01*
X197017202Y-172855380D01*
X197255297Y-172855380D01*
X197350535Y-172807761D01*
X197398154Y-172760142D01*
X196255297Y-172283952D02*
X196350535Y-172236333D01*
X196398154Y-172188714D01*
X196445773Y-172093476D01*
X196445773Y-172045857D01*
X196398154Y-171950619D01*
X196350535Y-171903000D01*
X196255297Y-171855380D01*
X196064821Y-171855380D01*
X195969583Y-171903000D01*
X195921964Y-171950619D01*
X195874345Y-172045857D01*
X195874345Y-172093476D01*
X195921964Y-172188714D01*
X195969583Y-172236333D01*
X196064821Y-172283952D01*
X196255297Y-172283952D01*
X196350535Y-172331571D01*
X196398154Y-172379190D01*
X196445773Y-172474428D01*
X196445773Y-172664904D01*
X196398154Y-172760142D01*
X196350535Y-172807761D01*
X196255297Y-172855380D01*
X196064821Y-172855380D01*
X195969583Y-172807761D01*
X195921964Y-172760142D01*
X195874345Y-172664904D01*
X195874345Y-172474428D01*
X195921964Y-172379190D01*
X195969583Y-172331571D01*
X196064821Y-172283952D01*
X305506785Y-134755380D02*
X305506785Y-133755380D01*
X304935357Y-134755380D02*
X305363928Y-134183952D01*
X304935357Y-133755380D02*
X305506785Y-134326809D01*
X304602023Y-133755380D02*
X303982976Y-133755380D01*
X304316309Y-134136333D01*
X304173452Y-134136333D01*
X304078214Y-134183952D01*
X304030595Y-134231571D01*
X303982976Y-134326809D01*
X303982976Y-134564904D01*
X304030595Y-134660142D01*
X304078214Y-134707761D01*
X304173452Y-134755380D01*
X304459166Y-134755380D01*
X304554404Y-134707761D01*
X304602023Y-134660142D01*
X303506785Y-134755380D02*
X303316309Y-134755380D01*
X303221071Y-134707761D01*
X303173452Y-134660142D01*
X303078214Y-134517285D01*
X303030595Y-134326809D01*
X303030595Y-133945857D01*
X303078214Y-133850619D01*
X303125833Y-133803000D01*
X303221071Y-133755380D01*
X303411547Y-133755380D01*
X303506785Y-133803000D01*
X303554404Y-133850619D01*
X303602023Y-133945857D01*
X303602023Y-134183952D01*
X303554404Y-134279190D01*
X303506785Y-134326809D01*
X303411547Y-134374428D01*
X303221071Y-134374428D01*
X303125833Y-134326809D01*
X303078214Y-134279190D01*
X303030595Y-134183952D01*
X233593095Y-96655380D02*
X233593095Y-95655380D01*
X233021666Y-96655380D02*
X233450238Y-96083952D01*
X233021666Y-95655380D02*
X233593095Y-96226809D01*
X232450238Y-96083952D02*
X232545476Y-96036333D01*
X232593095Y-95988714D01*
X232640714Y-95893476D01*
X232640714Y-95845857D01*
X232593095Y-95750619D01*
X232545476Y-95703000D01*
X232450238Y-95655380D01*
X232259761Y-95655380D01*
X232164523Y-95703000D01*
X232116904Y-95750619D01*
X232069285Y-95845857D01*
X232069285Y-95893476D01*
X232116904Y-95988714D01*
X232164523Y-96036333D01*
X232259761Y-96083952D01*
X232450238Y-96083952D01*
X232545476Y-96131571D01*
X232593095Y-96179190D01*
X232640714Y-96274428D01*
X232640714Y-96464904D01*
X232593095Y-96560142D01*
X232545476Y-96607761D01*
X232450238Y-96655380D01*
X232259761Y-96655380D01*
X232164523Y-96607761D01*
X232116904Y-96560142D01*
X232069285Y-96464904D01*
X232069285Y-96274428D01*
X232116904Y-96179190D01*
X232164523Y-96131571D01*
X232259761Y-96083952D01*
X236450535Y-172855380D02*
X236450535Y-171855380D01*
X235879107Y-172855380D02*
X236307678Y-172283952D01*
X235879107Y-171855380D02*
X236450535Y-172426809D01*
X234974345Y-171855380D02*
X235450535Y-171855380D01*
X235498154Y-172331571D01*
X235450535Y-172283952D01*
X235355297Y-172236333D01*
X235117202Y-172236333D01*
X235021964Y-172283952D01*
X234974345Y-172331571D01*
X234926726Y-172426809D01*
X234926726Y-172664904D01*
X234974345Y-172760142D01*
X235021964Y-172807761D01*
X235117202Y-172855380D01*
X235355297Y-172855380D01*
X235450535Y-172807761D01*
X235498154Y-172760142D01*
X234450535Y-172855380D02*
X234260059Y-172855380D01*
X234164821Y-172807761D01*
X234117202Y-172760142D01*
X234021964Y-172617285D01*
X233974345Y-172426809D01*
X233974345Y-172045857D01*
X234021964Y-171950619D01*
X234069583Y-171903000D01*
X234164821Y-171855380D01*
X234355297Y-171855380D01*
X234450535Y-171903000D01*
X234498154Y-171950619D01*
X234545773Y-172045857D01*
X234545773Y-172283952D01*
X234498154Y-172379190D01*
X234450535Y-172426809D01*
X234355297Y-172474428D01*
X234164821Y-172474428D01*
X234069583Y-172426809D01*
X234021964Y-172379190D01*
X233974345Y-172283952D01*
X93575535Y-153805380D02*
X93575535Y-152805380D01*
X93004107Y-153805380D02*
X93432678Y-153233952D01*
X93004107Y-152805380D02*
X93575535Y-153376809D01*
X92146964Y-153138714D02*
X92146964Y-153805380D01*
X92385059Y-152757761D02*
X92623154Y-153472047D01*
X92004107Y-153472047D01*
X91099345Y-153805380D02*
X91670773Y-153805380D01*
X91385059Y-153805380D02*
X91385059Y-152805380D01*
X91480297Y-152948238D01*
X91575535Y-153043476D01*
X91670773Y-153091095D01*
X100243095Y-90559380D02*
X100243095Y-89559380D01*
X99671666Y-90559380D02*
X100100238Y-89987952D01*
X99671666Y-89559380D02*
X100243095Y-90130809D01*
X98719285Y-90559380D02*
X99290714Y-90559380D01*
X99005000Y-90559380D02*
X99005000Y-89559380D01*
X99100238Y-89702238D01*
X99195476Y-89797476D01*
X99290714Y-89845095D01*
X115006785Y-134755380D02*
X115006785Y-133755380D01*
X114435357Y-134755380D02*
X114863928Y-134183952D01*
X114435357Y-133755380D02*
X115006785Y-134326809D01*
X114054404Y-133850619D02*
X114006785Y-133803000D01*
X113911547Y-133755380D01*
X113673452Y-133755380D01*
X113578214Y-133803000D01*
X113530595Y-133850619D01*
X113482976Y-133945857D01*
X113482976Y-134041095D01*
X113530595Y-134183952D01*
X114102023Y-134755380D01*
X113482976Y-134755380D01*
X113006785Y-134755380D02*
X112816309Y-134755380D01*
X112721071Y-134707761D01*
X112673452Y-134660142D01*
X112578214Y-134517285D01*
X112530595Y-134326809D01*
X112530595Y-133945857D01*
X112578214Y-133850619D01*
X112625833Y-133803000D01*
X112721071Y-133755380D01*
X112911547Y-133755380D01*
X113006785Y-133803000D01*
X113054404Y-133850619D01*
X113102023Y-133945857D01*
X113102023Y-134183952D01*
X113054404Y-134279190D01*
X113006785Y-134326809D01*
X112911547Y-134374428D01*
X112721071Y-134374428D01*
X112625833Y-134326809D01*
X112578214Y-134279190D01*
X112530595Y-134183952D01*
X86431785Y-115705380D02*
X86431785Y-114705380D01*
X85860357Y-115705380D02*
X86288928Y-115133952D01*
X85860357Y-114705380D02*
X86431785Y-115276809D01*
X84907976Y-115705380D02*
X85479404Y-115705380D01*
X85193690Y-115705380D02*
X85193690Y-114705380D01*
X85288928Y-114848238D01*
X85384166Y-114943476D01*
X85479404Y-114991095D01*
X84050833Y-115038714D02*
X84050833Y-115705380D01*
X84288928Y-114657761D02*
X84527023Y-115372047D01*
X83907976Y-115372047D01*
X119769285Y-172855380D02*
X119769285Y-171855380D01*
X119197857Y-172855380D02*
X119626428Y-172283952D01*
X119197857Y-171855380D02*
X119769285Y-172426809D01*
X118293095Y-171855380D02*
X118769285Y-171855380D01*
X118816904Y-172331571D01*
X118769285Y-172283952D01*
X118674047Y-172236333D01*
X118435952Y-172236333D01*
X118340714Y-172283952D01*
X118293095Y-172331571D01*
X118245476Y-172426809D01*
X118245476Y-172664904D01*
X118293095Y-172760142D01*
X118340714Y-172807761D01*
X118435952Y-172855380D01*
X118674047Y-172855380D01*
X118769285Y-172807761D01*
X118816904Y-172760142D01*
X117340714Y-171855380D02*
X117816904Y-171855380D01*
X117864523Y-172331571D01*
X117816904Y-172283952D01*
X117721666Y-172236333D01*
X117483571Y-172236333D01*
X117388333Y-172283952D01*
X117340714Y-172331571D01*
X117293095Y-172426809D01*
X117293095Y-172664904D01*
X117340714Y-172760142D01*
X117388333Y-172807761D01*
X117483571Y-172855380D01*
X117721666Y-172855380D01*
X117816904Y-172807761D01*
X117864523Y-172760142D01*
X157393095Y-96655380D02*
X157393095Y-95655380D01*
X156821666Y-96655380D02*
X157250238Y-96083952D01*
X156821666Y-95655380D02*
X157393095Y-96226809D01*
X155964523Y-95988714D02*
X155964523Y-96655380D01*
X156202619Y-95607761D02*
X156440714Y-96322047D01*
X155821666Y-96322047D01*
X98338035Y-172855380D02*
X98338035Y-171855380D01*
X97766607Y-172855380D02*
X98195178Y-172283952D01*
X97766607Y-171855380D02*
X98338035Y-172426809D01*
X96861845Y-171855380D02*
X97338035Y-171855380D01*
X97385654Y-172331571D01*
X97338035Y-172283952D01*
X97242797Y-172236333D01*
X97004702Y-172236333D01*
X96909464Y-172283952D01*
X96861845Y-172331571D01*
X96814226Y-172426809D01*
X96814226Y-172664904D01*
X96861845Y-172760142D01*
X96909464Y-172807761D01*
X97004702Y-172855380D01*
X97242797Y-172855380D01*
X97338035Y-172807761D01*
X97385654Y-172760142D01*
X95957083Y-172188714D02*
X95957083Y-172855380D01*
X96195178Y-171807761D02*
X96433273Y-172522047D01*
X95814226Y-172522047D01*
X167394285Y-115705380D02*
X167394285Y-114705380D01*
X166822857Y-115705380D02*
X167251428Y-115133952D01*
X166822857Y-114705380D02*
X167394285Y-115276809D01*
X165870476Y-115705380D02*
X166441904Y-115705380D01*
X166156190Y-115705380D02*
X166156190Y-114705380D01*
X166251428Y-114848238D01*
X166346666Y-114943476D01*
X166441904Y-114991095D01*
X165299047Y-115133952D02*
X165394285Y-115086333D01*
X165441904Y-115038714D01*
X165489523Y-114943476D01*
X165489523Y-114895857D01*
X165441904Y-114800619D01*
X165394285Y-114753000D01*
X165299047Y-114705380D01*
X165108571Y-114705380D01*
X165013333Y-114753000D01*
X164965714Y-114800619D01*
X164918095Y-114895857D01*
X164918095Y-114943476D01*
X164965714Y-115038714D01*
X165013333Y-115086333D01*
X165108571Y-115133952D01*
X165299047Y-115133952D01*
X165394285Y-115181571D01*
X165441904Y-115229190D01*
X165489523Y-115324428D01*
X165489523Y-115514904D01*
X165441904Y-115610142D01*
X165394285Y-115657761D01*
X165299047Y-115705380D01*
X165108571Y-115705380D01*
X165013333Y-115657761D01*
X164965714Y-115610142D01*
X164918095Y-115514904D01*
X164918095Y-115324428D01*
X164965714Y-115229190D01*
X165013333Y-115181571D01*
X165108571Y-115133952D01*
X291219285Y-96655380D02*
X291219285Y-95655380D01*
X290647857Y-96655380D02*
X291076428Y-96083952D01*
X290647857Y-95655380D02*
X291219285Y-96226809D01*
X289695476Y-96655380D02*
X290266904Y-96655380D01*
X289981190Y-96655380D02*
X289981190Y-95655380D01*
X290076428Y-95798238D01*
X290171666Y-95893476D01*
X290266904Y-95941095D01*
X288743095Y-96655380D02*
X289314523Y-96655380D01*
X289028809Y-96655380D02*
X289028809Y-95655380D01*
X289124047Y-95798238D01*
X289219285Y-95893476D01*
X289314523Y-95941095D01*
X243594285Y-115705380D02*
X243594285Y-114705380D01*
X243022857Y-115705380D02*
X243451428Y-115133952D01*
X243022857Y-114705380D02*
X243594285Y-115276809D01*
X242641904Y-114800619D02*
X242594285Y-114753000D01*
X242499047Y-114705380D01*
X242260952Y-114705380D01*
X242165714Y-114753000D01*
X242118095Y-114800619D01*
X242070476Y-114895857D01*
X242070476Y-114991095D01*
X242118095Y-115133952D01*
X242689523Y-115705380D01*
X242070476Y-115705380D01*
X241689523Y-114800619D02*
X241641904Y-114753000D01*
X241546666Y-114705380D01*
X241308571Y-114705380D01*
X241213333Y-114753000D01*
X241165714Y-114800619D01*
X241118095Y-114895857D01*
X241118095Y-114991095D01*
X241165714Y-115133952D01*
X241737142Y-115705380D01*
X241118095Y-115705380D01*
X200731785Y-153805380D02*
X200731785Y-152805380D01*
X200160357Y-153805380D02*
X200588928Y-153233952D01*
X200160357Y-152805380D02*
X200731785Y-153376809D01*
X199303214Y-153138714D02*
X199303214Y-153805380D01*
X199541309Y-152757761D02*
X199779404Y-153472047D01*
X199160357Y-153472047D01*
X198350833Y-152805380D02*
X198541309Y-152805380D01*
X198636547Y-152853000D01*
X198684166Y-152900619D01*
X198779404Y-153043476D01*
X198827023Y-153233952D01*
X198827023Y-153614904D01*
X198779404Y-153710142D01*
X198731785Y-153757761D01*
X198636547Y-153805380D01*
X198446071Y-153805380D01*
X198350833Y-153757761D01*
X198303214Y-153710142D01*
X198255595Y-153614904D01*
X198255595Y-153376809D01*
X198303214Y-153281571D01*
X198350833Y-153233952D01*
X198446071Y-153186333D01*
X198636547Y-153186333D01*
X198731785Y-153233952D01*
X198779404Y-153281571D01*
X198827023Y-153376809D01*
X276931785Y-153805380D02*
X276931785Y-152805380D01*
X276360357Y-153805380D02*
X276788928Y-153233952D01*
X276360357Y-152805380D02*
X276931785Y-153376809D01*
X275455595Y-152805380D02*
X275931785Y-152805380D01*
X275979404Y-153281571D01*
X275931785Y-153233952D01*
X275836547Y-153186333D01*
X275598452Y-153186333D01*
X275503214Y-153233952D01*
X275455595Y-153281571D01*
X275407976Y-153376809D01*
X275407976Y-153614904D01*
X275455595Y-153710142D01*
X275503214Y-153757761D01*
X275598452Y-153805380D01*
X275836547Y-153805380D01*
X275931785Y-153757761D01*
X275979404Y-153710142D01*
X274788928Y-152805380D02*
X274693690Y-152805380D01*
X274598452Y-152853000D01*
X274550833Y-152900619D01*
X274503214Y-152995857D01*
X274455595Y-153186333D01*
X274455595Y-153424428D01*
X274503214Y-153614904D01*
X274550833Y-153710142D01*
X274598452Y-153757761D01*
X274693690Y-153805380D01*
X274788928Y-153805380D01*
X274884166Y-153757761D01*
X274931785Y-153710142D01*
X274979404Y-153614904D01*
X275027023Y-153424428D01*
X275027023Y-153186333D01*
X274979404Y-152995857D01*
X274931785Y-152900619D01*
X274884166Y-152853000D01*
X274788928Y-152805380D01*
X300744285Y-115705380D02*
X300744285Y-114705380D01*
X300172857Y-115705380D02*
X300601428Y-115133952D01*
X300172857Y-114705380D02*
X300744285Y-115276809D01*
X299791904Y-114800619D02*
X299744285Y-114753000D01*
X299649047Y-114705380D01*
X299410952Y-114705380D01*
X299315714Y-114753000D01*
X299268095Y-114800619D01*
X299220476Y-114895857D01*
X299220476Y-114991095D01*
X299268095Y-115133952D01*
X299839523Y-115705380D01*
X299220476Y-115705380D01*
X298315714Y-114705380D02*
X298791904Y-114705380D01*
X298839523Y-115181571D01*
X298791904Y-115133952D01*
X298696666Y-115086333D01*
X298458571Y-115086333D01*
X298363333Y-115133952D01*
X298315714Y-115181571D01*
X298268095Y-115276809D01*
X298268095Y-115514904D01*
X298315714Y-115610142D01*
X298363333Y-115657761D01*
X298458571Y-115705380D01*
X298696666Y-115705380D01*
X298791904Y-115657761D01*
X298839523Y-115610142D01*
X295981785Y-153805380D02*
X295981785Y-152805380D01*
X295410357Y-153805380D02*
X295838928Y-153233952D01*
X295410357Y-152805380D02*
X295981785Y-153376809D01*
X294505595Y-152805380D02*
X294981785Y-152805380D01*
X295029404Y-153281571D01*
X294981785Y-153233952D01*
X294886547Y-153186333D01*
X294648452Y-153186333D01*
X294553214Y-153233952D01*
X294505595Y-153281571D01*
X294457976Y-153376809D01*
X294457976Y-153614904D01*
X294505595Y-153710142D01*
X294553214Y-153757761D01*
X294648452Y-153805380D01*
X294886547Y-153805380D01*
X294981785Y-153757761D01*
X295029404Y-153710142D01*
X293505595Y-153805380D02*
X294077023Y-153805380D01*
X293791309Y-153805380D02*
X293791309Y-152805380D01*
X293886547Y-152948238D01*
X293981785Y-153043476D01*
X294077023Y-153091095D01*
X138819285Y-172855380D02*
X138819285Y-171855380D01*
X138247857Y-172855380D02*
X138676428Y-172283952D01*
X138247857Y-171855380D02*
X138819285Y-172426809D01*
X137343095Y-171855380D02*
X137819285Y-171855380D01*
X137866904Y-172331571D01*
X137819285Y-172283952D01*
X137724047Y-172236333D01*
X137485952Y-172236333D01*
X137390714Y-172283952D01*
X137343095Y-172331571D01*
X137295476Y-172426809D01*
X137295476Y-172664904D01*
X137343095Y-172760142D01*
X137390714Y-172807761D01*
X137485952Y-172855380D01*
X137724047Y-172855380D01*
X137819285Y-172807761D01*
X137866904Y-172760142D01*
X136438333Y-171855380D02*
X136628809Y-171855380D01*
X136724047Y-171903000D01*
X136771666Y-171950619D01*
X136866904Y-172093476D01*
X136914523Y-172283952D01*
X136914523Y-172664904D01*
X136866904Y-172760142D01*
X136819285Y-172807761D01*
X136724047Y-172855380D01*
X136533571Y-172855380D01*
X136438333Y-172807761D01*
X136390714Y-172760142D01*
X136343095Y-172664904D01*
X136343095Y-172426809D01*
X136390714Y-172331571D01*
X136438333Y-172283952D01*
X136533571Y-172236333D01*
X136724047Y-172236333D01*
X136819285Y-172283952D01*
X136866904Y-172331571D01*
X136914523Y-172426809D01*
X343606785Y-115705380D02*
X343606785Y-114705380D01*
X343035357Y-115705380D02*
X343463928Y-115133952D01*
X343035357Y-114705380D02*
X343606785Y-115276809D01*
X342654404Y-114800619D02*
X342606785Y-114753000D01*
X342511547Y-114705380D01*
X342273452Y-114705380D01*
X342178214Y-114753000D01*
X342130595Y-114800619D01*
X342082976Y-114895857D01*
X342082976Y-114991095D01*
X342130595Y-115133952D01*
X342702023Y-115705380D01*
X342082976Y-115705380D01*
X341749642Y-114705380D02*
X341082976Y-114705380D01*
X341511547Y-115705380D01*
X252643095Y-96655380D02*
X252643095Y-95655380D01*
X252071666Y-96655380D02*
X252500238Y-96083952D01*
X252071666Y-95655380D02*
X252643095Y-96226809D01*
X251595476Y-96655380D02*
X251405000Y-96655380D01*
X251309761Y-96607761D01*
X251262142Y-96560142D01*
X251166904Y-96417285D01*
X251119285Y-96226809D01*
X251119285Y-95845857D01*
X251166904Y-95750619D01*
X251214523Y-95703000D01*
X251309761Y-95655380D01*
X251500238Y-95655380D01*
X251595476Y-95703000D01*
X251643095Y-95750619D01*
X251690714Y-95845857D01*
X251690714Y-96083952D01*
X251643095Y-96179190D01*
X251595476Y-96226809D01*
X251500238Y-96274428D01*
X251309761Y-96274428D01*
X251214523Y-96226809D01*
X251166904Y-96179190D01*
X251119285Y-96083952D01*
X267406785Y-134755380D02*
X267406785Y-133755380D01*
X266835357Y-134755380D02*
X267263928Y-134183952D01*
X266835357Y-133755380D02*
X267406785Y-134326809D01*
X266502023Y-133755380D02*
X265882976Y-133755380D01*
X266216309Y-134136333D01*
X266073452Y-134136333D01*
X265978214Y-134183952D01*
X265930595Y-134231571D01*
X265882976Y-134326809D01*
X265882976Y-134564904D01*
X265930595Y-134660142D01*
X265978214Y-134707761D01*
X266073452Y-134755380D01*
X266359166Y-134755380D01*
X266454404Y-134707761D01*
X266502023Y-134660142D01*
X265549642Y-133755380D02*
X264882976Y-133755380D01*
X265311547Y-134755380D01*
X272169285Y-96655380D02*
X272169285Y-95655380D01*
X271597857Y-96655380D02*
X272026428Y-96083952D01*
X271597857Y-95655380D02*
X272169285Y-96226809D01*
X270645476Y-96655380D02*
X271216904Y-96655380D01*
X270931190Y-96655380D02*
X270931190Y-95655380D01*
X271026428Y-95798238D01*
X271121666Y-95893476D01*
X271216904Y-95941095D01*
X270026428Y-95655380D02*
X269931190Y-95655380D01*
X269835952Y-95703000D01*
X269788333Y-95750619D01*
X269740714Y-95845857D01*
X269693095Y-96036333D01*
X269693095Y-96274428D01*
X269740714Y-96464904D01*
X269788333Y-96560142D01*
X269835952Y-96607761D01*
X269931190Y-96655380D01*
X270026428Y-96655380D01*
X270121666Y-96607761D01*
X270169285Y-96560142D01*
X270216904Y-96464904D01*
X270264523Y-96274428D01*
X270264523Y-96036333D01*
X270216904Y-95845857D01*
X270169285Y-95750619D01*
X270121666Y-95703000D01*
X270026428Y-95655380D01*
X286456785Y-134755380D02*
X286456785Y-133755380D01*
X285885357Y-134755380D02*
X286313928Y-134183952D01*
X285885357Y-133755380D02*
X286456785Y-134326809D01*
X285552023Y-133755380D02*
X284932976Y-133755380D01*
X285266309Y-134136333D01*
X285123452Y-134136333D01*
X285028214Y-134183952D01*
X284980595Y-134231571D01*
X284932976Y-134326809D01*
X284932976Y-134564904D01*
X284980595Y-134660142D01*
X285028214Y-134707761D01*
X285123452Y-134755380D01*
X285409166Y-134755380D01*
X285504404Y-134707761D01*
X285552023Y-134660142D01*
X284361547Y-134183952D02*
X284456785Y-134136333D01*
X284504404Y-134088714D01*
X284552023Y-133993476D01*
X284552023Y-133945857D01*
X284504404Y-133850619D01*
X284456785Y-133803000D01*
X284361547Y-133755380D01*
X284171071Y-133755380D01*
X284075833Y-133803000D01*
X284028214Y-133850619D01*
X283980595Y-133945857D01*
X283980595Y-133993476D01*
X284028214Y-134088714D01*
X284075833Y-134136333D01*
X284171071Y-134183952D01*
X284361547Y-134183952D01*
X284456785Y-134231571D01*
X284504404Y-134279190D01*
X284552023Y-134374428D01*
X284552023Y-134564904D01*
X284504404Y-134660142D01*
X284456785Y-134707761D01*
X284361547Y-134755380D01*
X284171071Y-134755380D01*
X284075833Y-134707761D01*
X284028214Y-134660142D01*
X283980595Y-134564904D01*
X283980595Y-134374428D01*
X284028214Y-134279190D01*
X284075833Y-134231571D01*
X284171071Y-134183952D01*
X310269285Y-96655380D02*
X310269285Y-95655380D01*
X309697857Y-96655380D02*
X310126428Y-96083952D01*
X309697857Y-95655380D02*
X310269285Y-96226809D01*
X308745476Y-96655380D02*
X309316904Y-96655380D01*
X309031190Y-96655380D02*
X309031190Y-95655380D01*
X309126428Y-95798238D01*
X309221666Y-95893476D01*
X309316904Y-95941095D01*
X308364523Y-95750619D02*
X308316904Y-95703000D01*
X308221666Y-95655380D01*
X307983571Y-95655380D01*
X307888333Y-95703000D01*
X307840714Y-95750619D01*
X307793095Y-95845857D01*
X307793095Y-95941095D01*
X307840714Y-96083952D01*
X308412142Y-96655380D01*
X307793095Y-96655380D01*
X134056785Y-134755380D02*
X134056785Y-133755380D01*
X133485357Y-134755380D02*
X133913928Y-134183952D01*
X133485357Y-133755380D02*
X134056785Y-134326809D01*
X133152023Y-133755380D02*
X132532976Y-133755380D01*
X132866309Y-134136333D01*
X132723452Y-134136333D01*
X132628214Y-134183952D01*
X132580595Y-134231571D01*
X132532976Y-134326809D01*
X132532976Y-134564904D01*
X132580595Y-134660142D01*
X132628214Y-134707761D01*
X132723452Y-134755380D01*
X133009166Y-134755380D01*
X133104404Y-134707761D01*
X133152023Y-134660142D01*
X131913928Y-133755380D02*
X131818690Y-133755380D01*
X131723452Y-133803000D01*
X131675833Y-133850619D01*
X131628214Y-133945857D01*
X131580595Y-134136333D01*
X131580595Y-134374428D01*
X131628214Y-134564904D01*
X131675833Y-134660142D01*
X131723452Y-134707761D01*
X131818690Y-134755380D01*
X131913928Y-134755380D01*
X132009166Y-134707761D01*
X132056785Y-134660142D01*
X132104404Y-134564904D01*
X132152023Y-134374428D01*
X132152023Y-134136333D01*
X132104404Y-133945857D01*
X132056785Y-133850619D01*
X132009166Y-133803000D01*
X131913928Y-133755380D01*
X110244285Y-115705380D02*
X110244285Y-114705380D01*
X109672857Y-115705380D02*
X110101428Y-115133952D01*
X109672857Y-114705380D02*
X110244285Y-115276809D01*
X108720476Y-115705380D02*
X109291904Y-115705380D01*
X109006190Y-115705380D02*
X109006190Y-114705380D01*
X109101428Y-114848238D01*
X109196666Y-114943476D01*
X109291904Y-114991095D01*
X107815714Y-114705380D02*
X108291904Y-114705380D01*
X108339523Y-115181571D01*
X108291904Y-115133952D01*
X108196666Y-115086333D01*
X107958571Y-115086333D01*
X107863333Y-115133952D01*
X107815714Y-115181571D01*
X107768095Y-115276809D01*
X107768095Y-115514904D01*
X107815714Y-115610142D01*
X107863333Y-115657761D01*
X107958571Y-115705380D01*
X108196666Y-115705380D01*
X108291904Y-115657761D01*
X108339523Y-115610142D01*
X281694285Y-115705380D02*
X281694285Y-114705380D01*
X281122857Y-115705380D02*
X281551428Y-115133952D01*
X281122857Y-114705380D02*
X281694285Y-115276809D01*
X280741904Y-114800619D02*
X280694285Y-114753000D01*
X280599047Y-114705380D01*
X280360952Y-114705380D01*
X280265714Y-114753000D01*
X280218095Y-114800619D01*
X280170476Y-114895857D01*
X280170476Y-114991095D01*
X280218095Y-115133952D01*
X280789523Y-115705380D01*
X280170476Y-115705380D01*
X279313333Y-115038714D02*
X279313333Y-115705380D01*
X279551428Y-114657761D02*
X279789523Y-115372047D01*
X279170476Y-115372047D01*
X176443095Y-96655380D02*
X176443095Y-95655380D01*
X175871666Y-96655380D02*
X176300238Y-96083952D01*
X175871666Y-95655380D02*
X176443095Y-96226809D01*
X174966904Y-95655380D02*
X175443095Y-95655380D01*
X175490714Y-96131571D01*
X175443095Y-96083952D01*
X175347857Y-96036333D01*
X175109761Y-96036333D01*
X175014523Y-96083952D01*
X174966904Y-96131571D01*
X174919285Y-96226809D01*
X174919285Y-96464904D01*
X174966904Y-96560142D01*
X175014523Y-96607761D01*
X175109761Y-96655380D01*
X175347857Y-96655380D01*
X175443095Y-96607761D01*
X175490714Y-96560142D01*
X257881785Y-153805380D02*
X257881785Y-152805380D01*
X257310357Y-153805380D02*
X257738928Y-153233952D01*
X257310357Y-152805380D02*
X257881785Y-153376809D01*
X256453214Y-153138714D02*
X256453214Y-153805380D01*
X256691309Y-152757761D02*
X256929404Y-153472047D01*
X256310357Y-153472047D01*
X255881785Y-153805380D02*
X255691309Y-153805380D01*
X255596071Y-153757761D01*
X255548452Y-153710142D01*
X255453214Y-153567285D01*
X255405595Y-153376809D01*
X255405595Y-152995857D01*
X255453214Y-152900619D01*
X255500833Y-152853000D01*
X255596071Y-152805380D01*
X255786547Y-152805380D01*
X255881785Y-152853000D01*
X255929404Y-152900619D01*
X255977023Y-152995857D01*
X255977023Y-153233952D01*
X255929404Y-153329190D01*
X255881785Y-153376809D01*
X255786547Y-153424428D01*
X255596071Y-153424428D01*
X255500833Y-153376809D01*
X255453214Y-153329190D01*
X255405595Y-153233952D01*
X219781785Y-153805380D02*
X219781785Y-152805380D01*
X219210357Y-153805380D02*
X219638928Y-153233952D01*
X219210357Y-152805380D02*
X219781785Y-153376809D01*
X218353214Y-153138714D02*
X218353214Y-153805380D01*
X218591309Y-152757761D02*
X218829404Y-153472047D01*
X218210357Y-153472047D01*
X217924642Y-152805380D02*
X217257976Y-152805380D01*
X217686547Y-153805380D01*
X315031785Y-153805380D02*
X315031785Y-152805380D01*
X314460357Y-153805380D02*
X314888928Y-153233952D01*
X314460357Y-152805380D02*
X315031785Y-153376809D01*
X313555595Y-152805380D02*
X314031785Y-152805380D01*
X314079404Y-153281571D01*
X314031785Y-153233952D01*
X313936547Y-153186333D01*
X313698452Y-153186333D01*
X313603214Y-153233952D01*
X313555595Y-153281571D01*
X313507976Y-153376809D01*
X313507976Y-153614904D01*
X313555595Y-153710142D01*
X313603214Y-153757761D01*
X313698452Y-153805380D01*
X313936547Y-153805380D01*
X314031785Y-153757761D01*
X314079404Y-153710142D01*
X313127023Y-152900619D02*
X313079404Y-152853000D01*
X312984166Y-152805380D01*
X312746071Y-152805380D01*
X312650833Y-152853000D01*
X312603214Y-152900619D01*
X312555595Y-152995857D01*
X312555595Y-153091095D01*
X312603214Y-153233952D01*
X313174642Y-153805380D01*
X312555595Y-153805380D01*
X257881785Y-172855380D02*
X257881785Y-171855380D01*
X257310357Y-172855380D02*
X257738928Y-172283952D01*
X257310357Y-171855380D02*
X257881785Y-172426809D01*
X256453214Y-171855380D02*
X256643690Y-171855380D01*
X256738928Y-171903000D01*
X256786547Y-171950619D01*
X256881785Y-172093476D01*
X256929404Y-172283952D01*
X256929404Y-172664904D01*
X256881785Y-172760142D01*
X256834166Y-172807761D01*
X256738928Y-172855380D01*
X256548452Y-172855380D01*
X256453214Y-172807761D01*
X256405595Y-172760142D01*
X256357976Y-172664904D01*
X256357976Y-172426809D01*
X256405595Y-172331571D01*
X256453214Y-172283952D01*
X256548452Y-172236333D01*
X256738928Y-172236333D01*
X256834166Y-172283952D01*
X256881785Y-172331571D01*
X256929404Y-172426809D01*
X255738928Y-171855380D02*
X255643690Y-171855380D01*
X255548452Y-171903000D01*
X255500833Y-171950619D01*
X255453214Y-172045857D01*
X255405595Y-172236333D01*
X255405595Y-172474428D01*
X255453214Y-172664904D01*
X255500833Y-172760142D01*
X255548452Y-172807761D01*
X255643690Y-172855380D01*
X255738928Y-172855380D01*
X255834166Y-172807761D01*
X255881785Y-172760142D01*
X255929404Y-172664904D01*
X255977023Y-172474428D01*
X255977023Y-172236333D01*
X255929404Y-172045857D01*
X255881785Y-171950619D01*
X255834166Y-171903000D01*
X255738928Y-171855380D01*
X124531785Y-153805380D02*
X124531785Y-152805380D01*
X123960357Y-153805380D02*
X124388928Y-153233952D01*
X123960357Y-152805380D02*
X124531785Y-153376809D01*
X123103214Y-153138714D02*
X123103214Y-153805380D01*
X123341309Y-152757761D02*
X123579404Y-153472047D01*
X122960357Y-153472047D01*
X122627023Y-152900619D02*
X122579404Y-152853000D01*
X122484166Y-152805380D01*
X122246071Y-152805380D01*
X122150833Y-152853000D01*
X122103214Y-152900619D01*
X122055595Y-152995857D01*
X122055595Y-153091095D01*
X122103214Y-153233952D01*
X122674642Y-153805380D01*
X122055595Y-153805380D01*
X119293095Y-96655380D02*
X119293095Y-95655380D01*
X118721666Y-96655380D02*
X119150238Y-96083952D01*
X118721666Y-95655380D02*
X119293095Y-96226809D01*
X118340714Y-95750619D02*
X118293095Y-95703000D01*
X118197857Y-95655380D01*
X117959761Y-95655380D01*
X117864523Y-95703000D01*
X117816904Y-95750619D01*
X117769285Y-95845857D01*
X117769285Y-95941095D01*
X117816904Y-96083952D01*
X118388333Y-96655380D01*
X117769285Y-96655380D01*
X295981785Y-172855380D02*
X295981785Y-171855380D01*
X295410357Y-172855380D02*
X295838928Y-172283952D01*
X295410357Y-171855380D02*
X295981785Y-172426809D01*
X294553214Y-171855380D02*
X294743690Y-171855380D01*
X294838928Y-171903000D01*
X294886547Y-171950619D01*
X294981785Y-172093476D01*
X295029404Y-172283952D01*
X295029404Y-172664904D01*
X294981785Y-172760142D01*
X294934166Y-172807761D01*
X294838928Y-172855380D01*
X294648452Y-172855380D01*
X294553214Y-172807761D01*
X294505595Y-172760142D01*
X294457976Y-172664904D01*
X294457976Y-172426809D01*
X294505595Y-172331571D01*
X294553214Y-172283952D01*
X294648452Y-172236333D01*
X294838928Y-172236333D01*
X294934166Y-172283952D01*
X294981785Y-172331571D01*
X295029404Y-172426809D01*
X294077023Y-171950619D02*
X294029404Y-171903000D01*
X293934166Y-171855380D01*
X293696071Y-171855380D01*
X293600833Y-171903000D01*
X293553214Y-171950619D01*
X293505595Y-172045857D01*
X293505595Y-172141095D01*
X293553214Y-172283952D01*
X294124642Y-172855380D01*
X293505595Y-172855380D01*
X88813035Y-134755380D02*
X88813035Y-133755380D01*
X88241607Y-134755380D02*
X88670178Y-134183952D01*
X88241607Y-133755380D02*
X88813035Y-134326809D01*
X87860654Y-133850619D02*
X87813035Y-133803000D01*
X87717797Y-133755380D01*
X87479702Y-133755380D01*
X87384464Y-133803000D01*
X87336845Y-133850619D01*
X87289226Y-133945857D01*
X87289226Y-134041095D01*
X87336845Y-134183952D01*
X87908273Y-134755380D01*
X87289226Y-134755380D01*
X86717797Y-134183952D02*
X86813035Y-134136333D01*
X86860654Y-134088714D01*
X86908273Y-133993476D01*
X86908273Y-133945857D01*
X86860654Y-133850619D01*
X86813035Y-133803000D01*
X86717797Y-133755380D01*
X86527321Y-133755380D01*
X86432083Y-133803000D01*
X86384464Y-133850619D01*
X86336845Y-133945857D01*
X86336845Y-133993476D01*
X86384464Y-134088714D01*
X86432083Y-134136333D01*
X86527321Y-134183952D01*
X86717797Y-134183952D01*
X86813035Y-134231571D01*
X86860654Y-134279190D01*
X86908273Y-134374428D01*
X86908273Y-134564904D01*
X86860654Y-134660142D01*
X86813035Y-134707761D01*
X86717797Y-134755380D01*
X86527321Y-134755380D01*
X86432083Y-134707761D01*
X86384464Y-134660142D01*
X86336845Y-134564904D01*
X86336845Y-134374428D01*
X86384464Y-134279190D01*
X86432083Y-134231571D01*
X86527321Y-134183952D01*
X319794285Y-115705380D02*
X319794285Y-114705380D01*
X319222857Y-115705380D02*
X319651428Y-115133952D01*
X319222857Y-114705380D02*
X319794285Y-115276809D01*
X318841904Y-114800619D02*
X318794285Y-114753000D01*
X318699047Y-114705380D01*
X318460952Y-114705380D01*
X318365714Y-114753000D01*
X318318095Y-114800619D01*
X318270476Y-114895857D01*
X318270476Y-114991095D01*
X318318095Y-115133952D01*
X318889523Y-115705380D01*
X318270476Y-115705380D01*
X317413333Y-114705380D02*
X317603809Y-114705380D01*
X317699047Y-114753000D01*
X317746666Y-114800619D01*
X317841904Y-114943476D01*
X317889523Y-115133952D01*
X317889523Y-115514904D01*
X317841904Y-115610142D01*
X317794285Y-115657761D01*
X317699047Y-115705380D01*
X317508571Y-115705380D01*
X317413333Y-115657761D01*
X317365714Y-115610142D01*
X317318095Y-115514904D01*
X317318095Y-115276809D01*
X317365714Y-115181571D01*
X317413333Y-115133952D01*
X317508571Y-115086333D01*
X317699047Y-115086333D01*
X317794285Y-115133952D01*
X317841904Y-115181571D01*
X317889523Y-115276809D01*
X205494285Y-115705380D02*
X205494285Y-114705380D01*
X204922857Y-115705380D02*
X205351428Y-115133952D01*
X204922857Y-114705380D02*
X205494285Y-115276809D01*
X204541904Y-114800619D02*
X204494285Y-114753000D01*
X204399047Y-114705380D01*
X204160952Y-114705380D01*
X204065714Y-114753000D01*
X204018095Y-114800619D01*
X203970476Y-114895857D01*
X203970476Y-114991095D01*
X204018095Y-115133952D01*
X204589523Y-115705380D01*
X203970476Y-115705380D01*
X203351428Y-114705380D02*
X203256190Y-114705380D01*
X203160952Y-114753000D01*
X203113333Y-114800619D01*
X203065714Y-114895857D01*
X203018095Y-115086333D01*
X203018095Y-115324428D01*
X203065714Y-115514904D01*
X203113333Y-115610142D01*
X203160952Y-115657761D01*
X203256190Y-115705380D01*
X203351428Y-115705380D01*
X203446666Y-115657761D01*
X203494285Y-115610142D01*
X203541904Y-115514904D01*
X203589523Y-115324428D01*
X203589523Y-115086333D01*
X203541904Y-114895857D01*
X203494285Y-114800619D01*
X203446666Y-114753000D01*
X203351428Y-114705380D01*
X334081785Y-172855380D02*
X334081785Y-171855380D01*
X333510357Y-172855380D02*
X333938928Y-172283952D01*
X333510357Y-171855380D02*
X334081785Y-172426809D01*
X332653214Y-171855380D02*
X332843690Y-171855380D01*
X332938928Y-171903000D01*
X332986547Y-171950619D01*
X333081785Y-172093476D01*
X333129404Y-172283952D01*
X333129404Y-172664904D01*
X333081785Y-172760142D01*
X333034166Y-172807761D01*
X332938928Y-172855380D01*
X332748452Y-172855380D01*
X332653214Y-172807761D01*
X332605595Y-172760142D01*
X332557976Y-172664904D01*
X332557976Y-172426809D01*
X332605595Y-172331571D01*
X332653214Y-172283952D01*
X332748452Y-172236333D01*
X332938928Y-172236333D01*
X333034166Y-172283952D01*
X333081785Y-172331571D01*
X333129404Y-172426809D01*
X331700833Y-172188714D02*
X331700833Y-172855380D01*
X331938928Y-171807761D02*
X332177023Y-172522047D01*
X331557976Y-172522047D01*
X210256785Y-134755380D02*
X210256785Y-133755380D01*
X209685357Y-134755380D02*
X210113928Y-134183952D01*
X209685357Y-133755380D02*
X210256785Y-134326809D01*
X209352023Y-133755380D02*
X208732976Y-133755380D01*
X209066309Y-134136333D01*
X208923452Y-134136333D01*
X208828214Y-134183952D01*
X208780595Y-134231571D01*
X208732976Y-134326809D01*
X208732976Y-134564904D01*
X208780595Y-134660142D01*
X208828214Y-134707761D01*
X208923452Y-134755380D01*
X209209166Y-134755380D01*
X209304404Y-134707761D01*
X209352023Y-134660142D01*
X207875833Y-134088714D02*
X207875833Y-134755380D01*
X208113928Y-133707761D02*
X208352023Y-134422047D01*
X207732976Y-134422047D01*
X78488095Y-91302380D02*
X78488095Y-90302380D01*
X77916666Y-91302380D02*
X78345238Y-90730952D01*
X77916666Y-90302380D02*
X78488095Y-90873809D01*
X77297619Y-90302380D02*
X77202380Y-90302380D01*
X77107142Y-90350000D01*
X77059523Y-90397619D01*
X77011904Y-90492857D01*
X76964285Y-90683333D01*
X76964285Y-90921428D01*
X77011904Y-91111904D01*
X77059523Y-91207142D01*
X77107142Y-91254761D01*
X77202380Y-91302380D01*
X77297619Y-91302380D01*
X77392857Y-91254761D01*
X77440476Y-91207142D01*
X77488095Y-91111904D01*
X77535714Y-90921428D01*
X77535714Y-90683333D01*
X77488095Y-90492857D01*
X77440476Y-90397619D01*
X77392857Y-90350000D01*
X77297619Y-90302380D01*
X214543095Y-96655380D02*
X214543095Y-95655380D01*
X213971666Y-96655380D02*
X214400238Y-96083952D01*
X213971666Y-95655380D02*
X214543095Y-96226809D01*
X213638333Y-95655380D02*
X212971666Y-95655380D01*
X213400238Y-96655380D01*
X238831785Y-153805380D02*
X238831785Y-152805380D01*
X238260357Y-153805380D02*
X238688928Y-153233952D01*
X238260357Y-152805380D02*
X238831785Y-153376809D01*
X237403214Y-153138714D02*
X237403214Y-153805380D01*
X237641309Y-152757761D02*
X237879404Y-153472047D01*
X237260357Y-153472047D01*
X236736547Y-153233952D02*
X236831785Y-153186333D01*
X236879404Y-153138714D01*
X236927023Y-153043476D01*
X236927023Y-152995857D01*
X236879404Y-152900619D01*
X236831785Y-152853000D01*
X236736547Y-152805380D01*
X236546071Y-152805380D01*
X236450833Y-152853000D01*
X236403214Y-152900619D01*
X236355595Y-152995857D01*
X236355595Y-153043476D01*
X236403214Y-153138714D01*
X236450833Y-153186333D01*
X236546071Y-153233952D01*
X236736547Y-153233952D01*
X236831785Y-153281571D01*
X236879404Y-153329190D01*
X236927023Y-153424428D01*
X236927023Y-153614904D01*
X236879404Y-153710142D01*
X236831785Y-153757761D01*
X236736547Y-153805380D01*
X236546071Y-153805380D01*
X236450833Y-153757761D01*
X236403214Y-153710142D01*
X236355595Y-153614904D01*
X236355595Y-153424428D01*
X236403214Y-153329190D01*
X236450833Y-153281571D01*
X236546071Y-153233952D01*
X191206785Y-134755380D02*
X191206785Y-133755380D01*
X190635357Y-134755380D02*
X191063928Y-134183952D01*
X190635357Y-133755380D02*
X191206785Y-134326809D01*
X190302023Y-133755380D02*
X189682976Y-133755380D01*
X190016309Y-134136333D01*
X189873452Y-134136333D01*
X189778214Y-134183952D01*
X189730595Y-134231571D01*
X189682976Y-134326809D01*
X189682976Y-134564904D01*
X189730595Y-134660142D01*
X189778214Y-134707761D01*
X189873452Y-134755380D01*
X190159166Y-134755380D01*
X190254404Y-134707761D01*
X190302023Y-134660142D01*
X189349642Y-133755380D02*
X188730595Y-133755380D01*
X189063928Y-134136333D01*
X188921071Y-134136333D01*
X188825833Y-134183952D01*
X188778214Y-134231571D01*
X188730595Y-134326809D01*
X188730595Y-134564904D01*
X188778214Y-134660142D01*
X188825833Y-134707761D01*
X188921071Y-134755380D01*
X189206785Y-134755380D01*
X189302023Y-134707761D01*
X189349642Y-134660142D01*
X315031785Y-172855380D02*
X315031785Y-171855380D01*
X314460357Y-172855380D02*
X314888928Y-172283952D01*
X314460357Y-171855380D02*
X315031785Y-172426809D01*
X313603214Y-171855380D02*
X313793690Y-171855380D01*
X313888928Y-171903000D01*
X313936547Y-171950619D01*
X314031785Y-172093476D01*
X314079404Y-172283952D01*
X314079404Y-172664904D01*
X314031785Y-172760142D01*
X313984166Y-172807761D01*
X313888928Y-172855380D01*
X313698452Y-172855380D01*
X313603214Y-172807761D01*
X313555595Y-172760142D01*
X313507976Y-172664904D01*
X313507976Y-172426809D01*
X313555595Y-172331571D01*
X313603214Y-172283952D01*
X313698452Y-172236333D01*
X313888928Y-172236333D01*
X313984166Y-172283952D01*
X314031785Y-172331571D01*
X314079404Y-172426809D01*
X313174642Y-171855380D02*
X312555595Y-171855380D01*
X312888928Y-172236333D01*
X312746071Y-172236333D01*
X312650833Y-172283952D01*
X312603214Y-172331571D01*
X312555595Y-172426809D01*
X312555595Y-172664904D01*
X312603214Y-172760142D01*
X312650833Y-172807761D01*
X312746071Y-172855380D01*
X313031785Y-172855380D01*
X313127023Y-172807761D01*
X313174642Y-172760142D01*
X148344285Y-115705380D02*
X148344285Y-114705380D01*
X147772857Y-115705380D02*
X148201428Y-115133952D01*
X147772857Y-114705380D02*
X148344285Y-115276809D01*
X146820476Y-115705380D02*
X147391904Y-115705380D01*
X147106190Y-115705380D02*
X147106190Y-114705380D01*
X147201428Y-114848238D01*
X147296666Y-114943476D01*
X147391904Y-114991095D01*
X146487142Y-114705380D02*
X145820476Y-114705380D01*
X146249047Y-115705380D01*
X248356785Y-134755380D02*
X248356785Y-133755380D01*
X247785357Y-134755380D02*
X248213928Y-134183952D01*
X247785357Y-133755380D02*
X248356785Y-134326809D01*
X247452023Y-133755380D02*
X246832976Y-133755380D01*
X247166309Y-134136333D01*
X247023452Y-134136333D01*
X246928214Y-134183952D01*
X246880595Y-134231571D01*
X246832976Y-134326809D01*
X246832976Y-134564904D01*
X246880595Y-134660142D01*
X246928214Y-134707761D01*
X247023452Y-134755380D01*
X247309166Y-134755380D01*
X247404404Y-134707761D01*
X247452023Y-134660142D01*
X245975833Y-133755380D02*
X246166309Y-133755380D01*
X246261547Y-133803000D01*
X246309166Y-133850619D01*
X246404404Y-133993476D01*
X246452023Y-134183952D01*
X246452023Y-134564904D01*
X246404404Y-134660142D01*
X246356785Y-134707761D01*
X246261547Y-134755380D01*
X246071071Y-134755380D01*
X245975833Y-134707761D01*
X245928214Y-134660142D01*
X245880595Y-134564904D01*
X245880595Y-134326809D01*
X245928214Y-134231571D01*
X245975833Y-134183952D01*
X246071071Y-134136333D01*
X246261547Y-134136333D01*
X246356785Y-134183952D01*
X246404404Y-134231571D01*
X246452023Y-134326809D01*
X195493095Y-96655380D02*
X195493095Y-95655380D01*
X194921666Y-96655380D02*
X195350238Y-96083952D01*
X194921666Y-95655380D02*
X195493095Y-96226809D01*
X194064523Y-95655380D02*
X194255000Y-95655380D01*
X194350238Y-95703000D01*
X194397857Y-95750619D01*
X194493095Y-95893476D01*
X194540714Y-96083952D01*
X194540714Y-96464904D01*
X194493095Y-96560142D01*
X194445476Y-96607761D01*
X194350238Y-96655380D01*
X194159761Y-96655380D01*
X194064523Y-96607761D01*
X194016904Y-96560142D01*
X193969285Y-96464904D01*
X193969285Y-96226809D01*
X194016904Y-96131571D01*
X194064523Y-96083952D01*
X194159761Y-96036333D01*
X194350238Y-96036333D01*
X194445476Y-96083952D01*
X194493095Y-96131571D01*
X194540714Y-96226809D01*
X186444285Y-115705380D02*
X186444285Y-114705380D01*
X185872857Y-115705380D02*
X186301428Y-115133952D01*
X185872857Y-114705380D02*
X186444285Y-115276809D01*
X184920476Y-115705380D02*
X185491904Y-115705380D01*
X185206190Y-115705380D02*
X185206190Y-114705380D01*
X185301428Y-114848238D01*
X185396666Y-114943476D01*
X185491904Y-114991095D01*
X184444285Y-115705380D02*
X184253809Y-115705380D01*
X184158571Y-115657761D01*
X184110952Y-115610142D01*
X184015714Y-115467285D01*
X183968095Y-115276809D01*
X183968095Y-114895857D01*
X184015714Y-114800619D01*
X184063333Y-114753000D01*
X184158571Y-114705380D01*
X184349047Y-114705380D01*
X184444285Y-114753000D01*
X184491904Y-114800619D01*
X184539523Y-114895857D01*
X184539523Y-115133952D01*
X184491904Y-115229190D01*
X184444285Y-115276809D01*
X184349047Y-115324428D01*
X184158571Y-115324428D01*
X184063333Y-115276809D01*
X184015714Y-115229190D01*
X183968095Y-115133952D01*
X229306785Y-134755380D02*
X229306785Y-133755380D01*
X228735357Y-134755380D02*
X229163928Y-134183952D01*
X228735357Y-133755380D02*
X229306785Y-134326809D01*
X228402023Y-133755380D02*
X227782976Y-133755380D01*
X228116309Y-134136333D01*
X227973452Y-134136333D01*
X227878214Y-134183952D01*
X227830595Y-134231571D01*
X227782976Y-134326809D01*
X227782976Y-134564904D01*
X227830595Y-134660142D01*
X227878214Y-134707761D01*
X227973452Y-134755380D01*
X228259166Y-134755380D01*
X228354404Y-134707761D01*
X228402023Y-134660142D01*
X226878214Y-133755380D02*
X227354404Y-133755380D01*
X227402023Y-134231571D01*
X227354404Y-134183952D01*
X227259166Y-134136333D01*
X227021071Y-134136333D01*
X226925833Y-134183952D01*
X226878214Y-134231571D01*
X226830595Y-134326809D01*
X226830595Y-134564904D01*
X226878214Y-134660142D01*
X226925833Y-134707761D01*
X227021071Y-134755380D01*
X227259166Y-134755380D01*
X227354404Y-134707761D01*
X227402023Y-134660142D01*
X262644285Y-115705380D02*
X262644285Y-114705380D01*
X262072857Y-115705380D02*
X262501428Y-115133952D01*
X262072857Y-114705380D02*
X262644285Y-115276809D01*
X261691904Y-114800619D02*
X261644285Y-114753000D01*
X261549047Y-114705380D01*
X261310952Y-114705380D01*
X261215714Y-114753000D01*
X261168095Y-114800619D01*
X261120476Y-114895857D01*
X261120476Y-114991095D01*
X261168095Y-115133952D01*
X261739523Y-115705380D01*
X261120476Y-115705380D01*
X260787142Y-114705380D02*
X260168095Y-114705380D01*
X260501428Y-115086333D01*
X260358571Y-115086333D01*
X260263333Y-115133952D01*
X260215714Y-115181571D01*
X260168095Y-115276809D01*
X260168095Y-115514904D01*
X260215714Y-115610142D01*
X260263333Y-115657761D01*
X260358571Y-115705380D01*
X260644285Y-115705380D01*
X260739523Y-115657761D01*
X260787142Y-115610142D01*
X162631785Y-153805380D02*
X162631785Y-152805380D01*
X162060357Y-153805380D02*
X162488928Y-153233952D01*
X162060357Y-152805380D02*
X162631785Y-153376809D01*
X161203214Y-153138714D02*
X161203214Y-153805380D01*
X161441309Y-152757761D02*
X161679404Y-153472047D01*
X161060357Y-153472047D01*
X160250833Y-153138714D02*
X160250833Y-153805380D01*
X160488928Y-152757761D02*
X160727023Y-153472047D01*
X160107976Y-153472047D01*
X271533630Y-112490714D02*
X270533630Y-112490714D01*
X270533630Y-112728809D01*
X270581250Y-112871666D01*
X270676488Y-112966904D01*
X270771726Y-113014523D01*
X270962202Y-113062142D01*
X271105059Y-113062142D01*
X271295535Y-113014523D01*
X271390773Y-112966904D01*
X271486011Y-112871666D01*
X271533630Y-112728809D01*
X271533630Y-112490714D01*
X270628869Y-113443095D02*
X270581250Y-113490714D01*
X270533630Y-113585952D01*
X270533630Y-113824047D01*
X270581250Y-113919285D01*
X270628869Y-113966904D01*
X270724107Y-114014523D01*
X270819345Y-114014523D01*
X270962202Y-113966904D01*
X271533630Y-113395476D01*
X271533630Y-114014523D01*
X270533630Y-114347857D02*
X270533630Y-114966904D01*
X270914583Y-114633571D01*
X270914583Y-114776428D01*
X270962202Y-114871666D01*
X271009821Y-114919285D01*
X271105059Y-114966904D01*
X271343154Y-114966904D01*
X271438392Y-114919285D01*
X271486011Y-114871666D01*
X271533630Y-114776428D01*
X271533630Y-114490714D01*
X271486011Y-114395476D01*
X271438392Y-114347857D01*
X304871130Y-169640714D02*
X303871130Y-169640714D01*
X303871130Y-169878809D01*
X303918750Y-170021666D01*
X304013988Y-170116904D01*
X304109226Y-170164523D01*
X304299702Y-170212142D01*
X304442559Y-170212142D01*
X304633035Y-170164523D01*
X304728273Y-170116904D01*
X304823511Y-170021666D01*
X304871130Y-169878809D01*
X304871130Y-169640714D01*
X303871130Y-171069285D02*
X303871130Y-170878809D01*
X303918750Y-170783571D01*
X303966369Y-170735952D01*
X304109226Y-170640714D01*
X304299702Y-170593095D01*
X304680654Y-170593095D01*
X304775892Y-170640714D01*
X304823511Y-170688333D01*
X304871130Y-170783571D01*
X304871130Y-170974047D01*
X304823511Y-171069285D01*
X304775892Y-171116904D01*
X304680654Y-171164523D01*
X304442559Y-171164523D01*
X304347321Y-171116904D01*
X304299702Y-171069285D01*
X304252083Y-170974047D01*
X304252083Y-170783571D01*
X304299702Y-170688333D01*
X304347321Y-170640714D01*
X304442559Y-170593095D01*
X303966369Y-171545476D02*
X303918750Y-171593095D01*
X303871130Y-171688333D01*
X303871130Y-171926428D01*
X303918750Y-172021666D01*
X303966369Y-172069285D01*
X304061607Y-172116904D01*
X304156845Y-172116904D01*
X304299702Y-172069285D01*
X304871130Y-171497857D01*
X304871130Y-172116904D01*
X200096130Y-131540714D02*
X199096130Y-131540714D01*
X199096130Y-131778809D01*
X199143750Y-131921666D01*
X199238988Y-132016904D01*
X199334226Y-132064523D01*
X199524702Y-132112142D01*
X199667559Y-132112142D01*
X199858035Y-132064523D01*
X199953273Y-132016904D01*
X200048511Y-131921666D01*
X200096130Y-131778809D01*
X200096130Y-131540714D01*
X199096130Y-132445476D02*
X199096130Y-133064523D01*
X199477083Y-132731190D01*
X199477083Y-132874047D01*
X199524702Y-132969285D01*
X199572321Y-133016904D01*
X199667559Y-133064523D01*
X199905654Y-133064523D01*
X200000892Y-133016904D01*
X200048511Y-132969285D01*
X200096130Y-132874047D01*
X200096130Y-132588333D01*
X200048511Y-132493095D01*
X200000892Y-132445476D01*
X199096130Y-133397857D02*
X199096130Y-134016904D01*
X199477083Y-133683571D01*
X199477083Y-133826428D01*
X199524702Y-133921666D01*
X199572321Y-133969285D01*
X199667559Y-134016904D01*
X199905654Y-134016904D01*
X200000892Y-133969285D01*
X200048511Y-133921666D01*
X200096130Y-133826428D01*
X200096130Y-133540714D01*
X200048511Y-133445476D01*
X200000892Y-133397857D01*
X169544940Y-169169940D02*
X169544940Y-169646130D01*
X169878273Y-168646130D02*
X169544940Y-169169940D01*
X169211607Y-168646130D01*
X168687797Y-168646130D02*
X168592559Y-168646130D01*
X168497321Y-168693750D01*
X168449702Y-168741369D01*
X168402083Y-168836607D01*
X168354464Y-169027083D01*
X168354464Y-169265178D01*
X168402083Y-169455654D01*
X168449702Y-169550892D01*
X168497321Y-169598511D01*
X168592559Y-169646130D01*
X168687797Y-169646130D01*
X168783035Y-169598511D01*
X168830654Y-169550892D01*
X168878273Y-169455654D01*
X168925892Y-169265178D01*
X168925892Y-169027083D01*
X168878273Y-168836607D01*
X168830654Y-168741369D01*
X168783035Y-168693750D01*
X168687797Y-168646130D01*
X163907142Y-156683333D02*
X163954761Y-156635714D01*
X164002380Y-156492857D01*
X164002380Y-156397619D01*
X163954761Y-156254761D01*
X163859523Y-156159523D01*
X163764285Y-156111904D01*
X163573809Y-156064285D01*
X163430952Y-156064285D01*
X163240476Y-156111904D01*
X163145238Y-156159523D01*
X163050000Y-156254761D01*
X163002380Y-156397619D01*
X163002380Y-156492857D01*
X163050000Y-156635714D01*
X163097619Y-156683333D01*
X163002380Y-157540476D02*
X163002380Y-157350000D01*
X163050000Y-157254761D01*
X163097619Y-157207142D01*
X163240476Y-157111904D01*
X163430952Y-157064285D01*
X163811904Y-157064285D01*
X163907142Y-157111904D01*
X163954761Y-157159523D01*
X164002380Y-157254761D01*
X164002380Y-157445238D01*
X163954761Y-157540476D01*
X163907142Y-157588095D01*
X163811904Y-157635714D01*
X163573809Y-157635714D01*
X163478571Y-157588095D01*
X163430952Y-157540476D01*
X163383333Y-157445238D01*
X163383333Y-157254761D01*
X163430952Y-157159523D01*
X163478571Y-157111904D01*
X163573809Y-157064285D01*
X179816666Y-156802380D02*
X180150000Y-156326190D01*
X180388095Y-156802380D02*
X180388095Y-155802380D01*
X180007142Y-155802380D01*
X179911904Y-155850000D01*
X179864285Y-155897619D01*
X179816666Y-155992857D01*
X179816666Y-156135714D01*
X179864285Y-156230952D01*
X179911904Y-156278571D01*
X180007142Y-156326190D01*
X180388095Y-156326190D01*
X178911904Y-155802380D02*
X179388095Y-155802380D01*
X179435714Y-156278571D01*
X179388095Y-156230952D01*
X179292857Y-156183333D01*
X179054761Y-156183333D01*
X178959523Y-156230952D01*
X178911904Y-156278571D01*
X178864285Y-156373809D01*
X178864285Y-156611904D01*
X178911904Y-156707142D01*
X178959523Y-156754761D01*
X179054761Y-156802380D01*
X179292857Y-156802380D01*
X179388095Y-156754761D01*
X179435714Y-156707142D01*
X214383630Y-112490714D02*
X213383630Y-112490714D01*
X213383630Y-112728809D01*
X213431250Y-112871666D01*
X213526488Y-112966904D01*
X213621726Y-113014523D01*
X213812202Y-113062142D01*
X213955059Y-113062142D01*
X214145535Y-113014523D01*
X214240773Y-112966904D01*
X214336011Y-112871666D01*
X214383630Y-112728809D01*
X214383630Y-112490714D01*
X213478869Y-113443095D02*
X213431250Y-113490714D01*
X213383630Y-113585952D01*
X213383630Y-113824047D01*
X213431250Y-113919285D01*
X213478869Y-113966904D01*
X213574107Y-114014523D01*
X213669345Y-114014523D01*
X213812202Y-113966904D01*
X214383630Y-113395476D01*
X214383630Y-114014523D01*
X213383630Y-114633571D02*
X213383630Y-114728809D01*
X213431250Y-114824047D01*
X213478869Y-114871666D01*
X213574107Y-114919285D01*
X213764583Y-114966904D01*
X214002678Y-114966904D01*
X214193154Y-114919285D01*
X214288392Y-114871666D01*
X214336011Y-114824047D01*
X214383630Y-114728809D01*
X214383630Y-114633571D01*
X214336011Y-114538333D01*
X214288392Y-114490714D01*
X214193154Y-114443095D01*
X214002678Y-114395476D01*
X213764583Y-114395476D01*
X213574107Y-114443095D01*
X213478869Y-114490714D01*
X213431250Y-114538333D01*
X213383630Y-114633571D01*
X91269404Y-98428630D02*
X91269404Y-99238154D01*
X91221785Y-99333392D01*
X91174166Y-99381011D01*
X91078928Y-99428630D01*
X90888452Y-99428630D01*
X90793214Y-99381011D01*
X90745595Y-99333392D01*
X90697976Y-99238154D01*
X90697976Y-98428630D01*
X89697976Y-99428630D02*
X90269404Y-99428630D01*
X89983690Y-99428630D02*
X89983690Y-98428630D01*
X90078928Y-98571488D01*
X90174166Y-98666726D01*
X90269404Y-98714345D01*
X156807142Y-156683333D02*
X156854761Y-156635714D01*
X156902380Y-156492857D01*
X156902380Y-156397619D01*
X156854761Y-156254761D01*
X156759523Y-156159523D01*
X156664285Y-156111904D01*
X156473809Y-156064285D01*
X156330952Y-156064285D01*
X156140476Y-156111904D01*
X156045238Y-156159523D01*
X155950000Y-156254761D01*
X155902380Y-156397619D01*
X155902380Y-156492857D01*
X155950000Y-156635714D01*
X155997619Y-156683333D01*
X155902380Y-157016666D02*
X155902380Y-157635714D01*
X156283333Y-157302380D01*
X156283333Y-157445238D01*
X156330952Y-157540476D01*
X156378571Y-157588095D01*
X156473809Y-157635714D01*
X156711904Y-157635714D01*
X156807142Y-157588095D01*
X156854761Y-157540476D01*
X156902380Y-157445238D01*
X156902380Y-157159523D01*
X156854761Y-157064285D01*
X156807142Y-157016666D01*
X83102380Y-85983333D02*
X82626190Y-85650000D01*
X83102380Y-85411904D02*
X82102380Y-85411904D01*
X82102380Y-85792857D01*
X82150000Y-85888095D01*
X82197619Y-85935714D01*
X82292857Y-85983333D01*
X82435714Y-85983333D01*
X82530952Y-85935714D01*
X82578571Y-85888095D01*
X82626190Y-85792857D01*
X82626190Y-85411904D01*
X82102380Y-86840476D02*
X82102380Y-86650000D01*
X82150000Y-86554761D01*
X82197619Y-86507142D01*
X82340476Y-86411904D01*
X82530952Y-86364285D01*
X82911904Y-86364285D01*
X83007142Y-86411904D01*
X83054761Y-86459523D01*
X83102380Y-86554761D01*
X83102380Y-86745238D01*
X83054761Y-86840476D01*
X83007142Y-86888095D01*
X82911904Y-86935714D01*
X82673809Y-86935714D01*
X82578571Y-86888095D01*
X82530952Y-86840476D01*
X82483333Y-86745238D01*
X82483333Y-86554761D01*
X82530952Y-86459523D01*
X82578571Y-86411904D01*
X82673809Y-86364285D01*
X290583630Y-112490714D02*
X289583630Y-112490714D01*
X289583630Y-112728809D01*
X289631250Y-112871666D01*
X289726488Y-112966904D01*
X289821726Y-113014523D01*
X290012202Y-113062142D01*
X290155059Y-113062142D01*
X290345535Y-113014523D01*
X290440773Y-112966904D01*
X290536011Y-112871666D01*
X290583630Y-112728809D01*
X290583630Y-112490714D01*
X289678869Y-113443095D02*
X289631250Y-113490714D01*
X289583630Y-113585952D01*
X289583630Y-113824047D01*
X289631250Y-113919285D01*
X289678869Y-113966904D01*
X289774107Y-114014523D01*
X289869345Y-114014523D01*
X290012202Y-113966904D01*
X290583630Y-113395476D01*
X290583630Y-114014523D01*
X289916964Y-114871666D02*
X290583630Y-114871666D01*
X289536011Y-114633571D02*
X290250297Y-114395476D01*
X290250297Y-115014523D01*
X276296130Y-131540714D02*
X275296130Y-131540714D01*
X275296130Y-131778809D01*
X275343750Y-131921666D01*
X275438988Y-132016904D01*
X275534226Y-132064523D01*
X275724702Y-132112142D01*
X275867559Y-132112142D01*
X276058035Y-132064523D01*
X276153273Y-132016904D01*
X276248511Y-131921666D01*
X276296130Y-131778809D01*
X276296130Y-131540714D01*
X275296130Y-132445476D02*
X275296130Y-133064523D01*
X275677083Y-132731190D01*
X275677083Y-132874047D01*
X275724702Y-132969285D01*
X275772321Y-133016904D01*
X275867559Y-133064523D01*
X276105654Y-133064523D01*
X276200892Y-133016904D01*
X276248511Y-132969285D01*
X276296130Y-132874047D01*
X276296130Y-132588333D01*
X276248511Y-132493095D01*
X276200892Y-132445476D01*
X275296130Y-133397857D02*
X275296130Y-134064523D01*
X276296130Y-133635952D01*
X309633630Y-112490714D02*
X308633630Y-112490714D01*
X308633630Y-112728809D01*
X308681250Y-112871666D01*
X308776488Y-112966904D01*
X308871726Y-113014523D01*
X309062202Y-113062142D01*
X309205059Y-113062142D01*
X309395535Y-113014523D01*
X309490773Y-112966904D01*
X309586011Y-112871666D01*
X309633630Y-112728809D01*
X309633630Y-112490714D01*
X308728869Y-113443095D02*
X308681250Y-113490714D01*
X308633630Y-113585952D01*
X308633630Y-113824047D01*
X308681250Y-113919285D01*
X308728869Y-113966904D01*
X308824107Y-114014523D01*
X308919345Y-114014523D01*
X309062202Y-113966904D01*
X309633630Y-113395476D01*
X309633630Y-114014523D01*
X308633630Y-114919285D02*
X308633630Y-114443095D01*
X309109821Y-114395476D01*
X309062202Y-114443095D01*
X309014583Y-114538333D01*
X309014583Y-114776428D01*
X309062202Y-114871666D01*
X309109821Y-114919285D01*
X309205059Y-114966904D01*
X309443154Y-114966904D01*
X309538392Y-114919285D01*
X309586011Y-114871666D01*
X309633630Y-114776428D01*
X309633630Y-114538333D01*
X309586011Y-114443095D01*
X309538392Y-114395476D01*
X347733630Y-93440714D02*
X346733630Y-93440714D01*
X346733630Y-93678809D01*
X346781250Y-93821666D01*
X346876488Y-93916904D01*
X346971726Y-93964523D01*
X347162202Y-94012142D01*
X347305059Y-94012142D01*
X347495535Y-93964523D01*
X347590773Y-93916904D01*
X347686011Y-93821666D01*
X347733630Y-93678809D01*
X347733630Y-93440714D01*
X347733630Y-94964523D02*
X347733630Y-94393095D01*
X347733630Y-94678809D02*
X346733630Y-94678809D01*
X346876488Y-94583571D01*
X346971726Y-94488333D01*
X347019345Y-94393095D01*
X346733630Y-95297857D02*
X346733630Y-95916904D01*
X347114583Y-95583571D01*
X347114583Y-95726428D01*
X347162202Y-95821666D01*
X347209821Y-95869285D01*
X347305059Y-95916904D01*
X347543154Y-95916904D01*
X347638392Y-95869285D01*
X347686011Y-95821666D01*
X347733630Y-95726428D01*
X347733630Y-95440714D01*
X347686011Y-95345476D01*
X347638392Y-95297857D01*
X285821130Y-169640714D02*
X284821130Y-169640714D01*
X284821130Y-169878809D01*
X284868750Y-170021666D01*
X284963988Y-170116904D01*
X285059226Y-170164523D01*
X285249702Y-170212142D01*
X285392559Y-170212142D01*
X285583035Y-170164523D01*
X285678273Y-170116904D01*
X285773511Y-170021666D01*
X285821130Y-169878809D01*
X285821130Y-169640714D01*
X284821130Y-171069285D02*
X284821130Y-170878809D01*
X284868750Y-170783571D01*
X284916369Y-170735952D01*
X285059226Y-170640714D01*
X285249702Y-170593095D01*
X285630654Y-170593095D01*
X285725892Y-170640714D01*
X285773511Y-170688333D01*
X285821130Y-170783571D01*
X285821130Y-170974047D01*
X285773511Y-171069285D01*
X285725892Y-171116904D01*
X285630654Y-171164523D01*
X285392559Y-171164523D01*
X285297321Y-171116904D01*
X285249702Y-171069285D01*
X285202083Y-170974047D01*
X285202083Y-170783571D01*
X285249702Y-170688333D01*
X285297321Y-170640714D01*
X285392559Y-170593095D01*
X285821130Y-172116904D02*
X285821130Y-171545476D01*
X285821130Y-171831190D02*
X284821130Y-171831190D01*
X284963988Y-171735952D01*
X285059226Y-171640714D01*
X285106845Y-171545476D01*
X204858630Y-93916904D02*
X203858630Y-93916904D01*
X203858630Y-94155000D01*
X203906250Y-94297857D01*
X204001488Y-94393095D01*
X204096726Y-94440714D01*
X204287202Y-94488333D01*
X204430059Y-94488333D01*
X204620535Y-94440714D01*
X204715773Y-94393095D01*
X204811011Y-94297857D01*
X204858630Y-94155000D01*
X204858630Y-93916904D01*
X203858630Y-95345476D02*
X203858630Y-95155000D01*
X203906250Y-95059761D01*
X203953869Y-95012142D01*
X204096726Y-94916904D01*
X204287202Y-94869285D01*
X204668154Y-94869285D01*
X204763392Y-94916904D01*
X204811011Y-94964523D01*
X204858630Y-95059761D01*
X204858630Y-95250238D01*
X204811011Y-95345476D01*
X204763392Y-95393095D01*
X204668154Y-95440714D01*
X204430059Y-95440714D01*
X204334821Y-95393095D01*
X204287202Y-95345476D01*
X204239583Y-95250238D01*
X204239583Y-95059761D01*
X204287202Y-94964523D01*
X204334821Y-94916904D01*
X204430059Y-94869285D01*
X125064285Y-137802380D02*
X125064285Y-136802380D01*
X124826190Y-136802380D01*
X124683333Y-136850000D01*
X124588095Y-136945238D01*
X124540476Y-137040476D01*
X124492857Y-137230952D01*
X124492857Y-137373809D01*
X124540476Y-137564285D01*
X124588095Y-137659523D01*
X124683333Y-137754761D01*
X124826190Y-137802380D01*
X125064285Y-137802380D01*
X124111904Y-136897619D02*
X124064285Y-136850000D01*
X123969047Y-136802380D01*
X123730952Y-136802380D01*
X123635714Y-136850000D01*
X123588095Y-136897619D01*
X123540476Y-136992857D01*
X123540476Y-137088095D01*
X123588095Y-137230952D01*
X124159523Y-137802380D01*
X123540476Y-137802380D01*
X122969047Y-137230952D02*
X123064285Y-137183333D01*
X123111904Y-137135714D01*
X123159523Y-137040476D01*
X123159523Y-136992857D01*
X123111904Y-136897619D01*
X123064285Y-136850000D01*
X122969047Y-136802380D01*
X122778571Y-136802380D01*
X122683333Y-136850000D01*
X122635714Y-136897619D01*
X122588095Y-136992857D01*
X122588095Y-137040476D01*
X122635714Y-137135714D01*
X122683333Y-137183333D01*
X122778571Y-137230952D01*
X122969047Y-137230952D01*
X123064285Y-137278571D01*
X123111904Y-137326190D01*
X123159523Y-137421428D01*
X123159523Y-137611904D01*
X123111904Y-137707142D01*
X123064285Y-137754761D01*
X122969047Y-137802380D01*
X122778571Y-137802380D01*
X122683333Y-137754761D01*
X122635714Y-137707142D01*
X122588095Y-137611904D01*
X122588095Y-137421428D01*
X122635714Y-137326190D01*
X122683333Y-137278571D01*
X122778571Y-137230952D01*
X233433630Y-112490714D02*
X232433630Y-112490714D01*
X232433630Y-112728809D01*
X232481250Y-112871666D01*
X232576488Y-112966904D01*
X232671726Y-113014523D01*
X232862202Y-113062142D01*
X233005059Y-113062142D01*
X233195535Y-113014523D01*
X233290773Y-112966904D01*
X233386011Y-112871666D01*
X233433630Y-112728809D01*
X233433630Y-112490714D01*
X232528869Y-113443095D02*
X232481250Y-113490714D01*
X232433630Y-113585952D01*
X232433630Y-113824047D01*
X232481250Y-113919285D01*
X232528869Y-113966904D01*
X232624107Y-114014523D01*
X232719345Y-114014523D01*
X232862202Y-113966904D01*
X233433630Y-113395476D01*
X233433630Y-114014523D01*
X233433630Y-114966904D02*
X233433630Y-114395476D01*
X233433630Y-114681190D02*
X232433630Y-114681190D01*
X232576488Y-114585952D01*
X232671726Y-114490714D01*
X232719345Y-114395476D01*
X110838095Y-96802380D02*
X110838095Y-95802380D01*
X110600000Y-95802380D01*
X110457142Y-95850000D01*
X110361904Y-95945238D01*
X110314285Y-96040476D01*
X110266666Y-96230952D01*
X110266666Y-96373809D01*
X110314285Y-96564285D01*
X110361904Y-96659523D01*
X110457142Y-96754761D01*
X110600000Y-96802380D01*
X110838095Y-96802380D01*
X109314285Y-96802380D02*
X109885714Y-96802380D01*
X109600000Y-96802380D02*
X109600000Y-95802380D01*
X109695238Y-95945238D01*
X109790476Y-96040476D01*
X109885714Y-96088095D01*
X209621130Y-150590714D02*
X208621130Y-150590714D01*
X208621130Y-150828809D01*
X208668750Y-150971666D01*
X208763988Y-151066904D01*
X208859226Y-151114523D01*
X209049702Y-151162142D01*
X209192559Y-151162142D01*
X209383035Y-151114523D01*
X209478273Y-151066904D01*
X209573511Y-150971666D01*
X209621130Y-150828809D01*
X209621130Y-150590714D01*
X208954464Y-152019285D02*
X209621130Y-152019285D01*
X208573511Y-151781190D02*
X209287797Y-151543095D01*
X209287797Y-152162142D01*
X208621130Y-152971666D02*
X208621130Y-152781190D01*
X208668750Y-152685952D01*
X208716369Y-152638333D01*
X208859226Y-152543095D01*
X209049702Y-152495476D01*
X209430654Y-152495476D01*
X209525892Y-152543095D01*
X209573511Y-152590714D01*
X209621130Y-152685952D01*
X209621130Y-152876428D01*
X209573511Y-152971666D01*
X209525892Y-153019285D01*
X209430654Y-153066904D01*
X209192559Y-153066904D01*
X209097321Y-153019285D01*
X209049702Y-152971666D01*
X209002083Y-152876428D01*
X209002083Y-152685952D01*
X209049702Y-152590714D01*
X209097321Y-152543095D01*
X209192559Y-152495476D01*
X95289880Y-102766964D02*
X94289880Y-102766964D01*
X94289880Y-103005059D01*
X94337500Y-103147916D01*
X94432738Y-103243154D01*
X94527976Y-103290773D01*
X94718452Y-103338392D01*
X94861309Y-103338392D01*
X95051785Y-103290773D01*
X95147023Y-103243154D01*
X95242261Y-103147916D01*
X95289880Y-103005059D01*
X95289880Y-102766964D01*
X94289880Y-104195535D02*
X94289880Y-104005059D01*
X94337500Y-103909821D01*
X94385119Y-103862202D01*
X94527976Y-103766964D01*
X94718452Y-103719345D01*
X95099404Y-103719345D01*
X95194642Y-103766964D01*
X95242261Y-103814583D01*
X95289880Y-103909821D01*
X95289880Y-104100297D01*
X95242261Y-104195535D01*
X95194642Y-104243154D01*
X95099404Y-104290773D01*
X94861309Y-104290773D01*
X94766071Y-104243154D01*
X94718452Y-104195535D01*
X94670833Y-104100297D01*
X94670833Y-103909821D01*
X94718452Y-103814583D01*
X94766071Y-103766964D01*
X94861309Y-103719345D01*
X94289880Y-105147916D02*
X94289880Y-104957440D01*
X94337500Y-104862202D01*
X94385119Y-104814583D01*
X94527976Y-104719345D01*
X94718452Y-104671726D01*
X95099404Y-104671726D01*
X95194642Y-104719345D01*
X95242261Y-104766964D01*
X95289880Y-104862202D01*
X95289880Y-105052678D01*
X95242261Y-105147916D01*
X95194642Y-105195535D01*
X95099404Y-105243154D01*
X94861309Y-105243154D01*
X94766071Y-105195535D01*
X94718452Y-105147916D01*
X94670833Y-105052678D01*
X94670833Y-104862202D01*
X94718452Y-104766964D01*
X94766071Y-104719345D01*
X94861309Y-104671726D01*
X352496130Y-112490714D02*
X351496130Y-112490714D01*
X351496130Y-112728809D01*
X351543750Y-112871666D01*
X351638988Y-112966904D01*
X351734226Y-113014523D01*
X351924702Y-113062142D01*
X352067559Y-113062142D01*
X352258035Y-113014523D01*
X352353273Y-112966904D01*
X352448511Y-112871666D01*
X352496130Y-112728809D01*
X352496130Y-112490714D01*
X351591369Y-113443095D02*
X351543750Y-113490714D01*
X351496130Y-113585952D01*
X351496130Y-113824047D01*
X351543750Y-113919285D01*
X351591369Y-113966904D01*
X351686607Y-114014523D01*
X351781845Y-114014523D01*
X351924702Y-113966904D01*
X352496130Y-113395476D01*
X352496130Y-114014523D01*
X351496130Y-114347857D02*
X351496130Y-115014523D01*
X352496130Y-114585952D01*
X185808630Y-93916904D02*
X184808630Y-93916904D01*
X184808630Y-94155000D01*
X184856250Y-94297857D01*
X184951488Y-94393095D01*
X185046726Y-94440714D01*
X185237202Y-94488333D01*
X185380059Y-94488333D01*
X185570535Y-94440714D01*
X185665773Y-94393095D01*
X185761011Y-94297857D01*
X185808630Y-94155000D01*
X185808630Y-93916904D01*
X184808630Y-95393095D02*
X184808630Y-94916904D01*
X185284821Y-94869285D01*
X185237202Y-94916904D01*
X185189583Y-95012142D01*
X185189583Y-95250238D01*
X185237202Y-95345476D01*
X185284821Y-95393095D01*
X185380059Y-95440714D01*
X185618154Y-95440714D01*
X185713392Y-95393095D01*
X185761011Y-95345476D01*
X185808630Y-95250238D01*
X185808630Y-95012142D01*
X185761011Y-94916904D01*
X185713392Y-94869285D01*
X243302380Y-173585714D02*
X242302380Y-173585714D01*
X242302380Y-173823809D01*
X242350000Y-173966666D01*
X242445238Y-174061904D01*
X242540476Y-174109523D01*
X242730952Y-174157142D01*
X242873809Y-174157142D01*
X243064285Y-174109523D01*
X243159523Y-174061904D01*
X243254761Y-173966666D01*
X243302380Y-173823809D01*
X243302380Y-173585714D01*
X242302380Y-175061904D02*
X242302380Y-174585714D01*
X242778571Y-174538095D01*
X242730952Y-174585714D01*
X242683333Y-174680952D01*
X242683333Y-174919047D01*
X242730952Y-175014285D01*
X242778571Y-175061904D01*
X242873809Y-175109523D01*
X243111904Y-175109523D01*
X243207142Y-175061904D01*
X243254761Y-175014285D01*
X243302380Y-174919047D01*
X243302380Y-174680952D01*
X243254761Y-174585714D01*
X243207142Y-174538095D01*
X243302380Y-175585714D02*
X243302380Y-175776190D01*
X243254761Y-175871428D01*
X243207142Y-175919047D01*
X243064285Y-176014285D01*
X242873809Y-176061904D01*
X242492857Y-176061904D01*
X242397619Y-176014285D01*
X242350000Y-175966666D01*
X242302380Y-175871428D01*
X242302380Y-175680952D01*
X242350000Y-175585714D01*
X242397619Y-175538095D01*
X242492857Y-175490476D01*
X242730952Y-175490476D01*
X242826190Y-175538095D01*
X242873809Y-175585714D01*
X242921428Y-175680952D01*
X242921428Y-175871428D01*
X242873809Y-175966666D01*
X242826190Y-176014285D01*
X242730952Y-176061904D01*
X107227380Y-169640714D02*
X106227380Y-169640714D01*
X106227380Y-169878809D01*
X106275000Y-170021666D01*
X106370238Y-170116904D01*
X106465476Y-170164523D01*
X106655952Y-170212142D01*
X106798809Y-170212142D01*
X106989285Y-170164523D01*
X107084523Y-170116904D01*
X107179761Y-170021666D01*
X107227380Y-169878809D01*
X107227380Y-169640714D01*
X106227380Y-171116904D02*
X106227380Y-170640714D01*
X106703571Y-170593095D01*
X106655952Y-170640714D01*
X106608333Y-170735952D01*
X106608333Y-170974047D01*
X106655952Y-171069285D01*
X106703571Y-171116904D01*
X106798809Y-171164523D01*
X107036904Y-171164523D01*
X107132142Y-171116904D01*
X107179761Y-171069285D01*
X107227380Y-170974047D01*
X107227380Y-170735952D01*
X107179761Y-170640714D01*
X107132142Y-170593095D01*
X106560714Y-172021666D02*
X107227380Y-172021666D01*
X106179761Y-171783571D02*
X106894047Y-171545476D01*
X106894047Y-172164523D01*
X128658630Y-93916904D02*
X127658630Y-93916904D01*
X127658630Y-94155000D01*
X127706250Y-94297857D01*
X127801488Y-94393095D01*
X127896726Y-94440714D01*
X128087202Y-94488333D01*
X128230059Y-94488333D01*
X128420535Y-94440714D01*
X128515773Y-94393095D01*
X128611011Y-94297857D01*
X128658630Y-94155000D01*
X128658630Y-93916904D01*
X127753869Y-94869285D02*
X127706250Y-94916904D01*
X127658630Y-95012142D01*
X127658630Y-95250238D01*
X127706250Y-95345476D01*
X127753869Y-95393095D01*
X127849107Y-95440714D01*
X127944345Y-95440714D01*
X128087202Y-95393095D01*
X128658630Y-94821666D01*
X128658630Y-95440714D01*
X163777142Y-172620833D02*
X163824761Y-172573214D01*
X163872380Y-172430357D01*
X163872380Y-172335119D01*
X163824761Y-172192261D01*
X163729523Y-172097023D01*
X163634285Y-172049404D01*
X163443809Y-172001785D01*
X163300952Y-172001785D01*
X163110476Y-172049404D01*
X163015238Y-172097023D01*
X162920000Y-172192261D01*
X162872380Y-172335119D01*
X162872380Y-172430357D01*
X162920000Y-172573214D01*
X162967619Y-172620833D01*
X162967619Y-173001785D02*
X162920000Y-173049404D01*
X162872380Y-173144642D01*
X162872380Y-173382738D01*
X162920000Y-173477976D01*
X162967619Y-173525595D01*
X163062857Y-173573214D01*
X163158095Y-173573214D01*
X163300952Y-173525595D01*
X163872380Y-172954166D01*
X163872380Y-173573214D01*
X147708630Y-169640714D02*
X146708630Y-169640714D01*
X146708630Y-169878809D01*
X146756250Y-170021666D01*
X146851488Y-170116904D01*
X146946726Y-170164523D01*
X147137202Y-170212142D01*
X147280059Y-170212142D01*
X147470535Y-170164523D01*
X147565773Y-170116904D01*
X147661011Y-170021666D01*
X147708630Y-169878809D01*
X147708630Y-169640714D01*
X146708630Y-171116904D02*
X146708630Y-170640714D01*
X147184821Y-170593095D01*
X147137202Y-170640714D01*
X147089583Y-170735952D01*
X147089583Y-170974047D01*
X147137202Y-171069285D01*
X147184821Y-171116904D01*
X147280059Y-171164523D01*
X147518154Y-171164523D01*
X147613392Y-171116904D01*
X147661011Y-171069285D01*
X147708630Y-170974047D01*
X147708630Y-170735952D01*
X147661011Y-170640714D01*
X147613392Y-170593095D01*
X146708630Y-172021666D02*
X146708630Y-171831190D01*
X146756250Y-171735952D01*
X146803869Y-171688333D01*
X146946726Y-171593095D01*
X147137202Y-171545476D01*
X147518154Y-171545476D01*
X147613392Y-171593095D01*
X147661011Y-171640714D01*
X147708630Y-171735952D01*
X147708630Y-171926428D01*
X147661011Y-172021666D01*
X147613392Y-172069285D01*
X147518154Y-172116904D01*
X147280059Y-172116904D01*
X147184821Y-172069285D01*
X147137202Y-172021666D01*
X147089583Y-171926428D01*
X147089583Y-171735952D01*
X147137202Y-171640714D01*
X147184821Y-171593095D01*
X147280059Y-171545476D01*
X323921130Y-169640714D02*
X322921130Y-169640714D01*
X322921130Y-169878809D01*
X322968750Y-170021666D01*
X323063988Y-170116904D01*
X323159226Y-170164523D01*
X323349702Y-170212142D01*
X323492559Y-170212142D01*
X323683035Y-170164523D01*
X323778273Y-170116904D01*
X323873511Y-170021666D01*
X323921130Y-169878809D01*
X323921130Y-169640714D01*
X322921130Y-171069285D02*
X322921130Y-170878809D01*
X322968750Y-170783571D01*
X323016369Y-170735952D01*
X323159226Y-170640714D01*
X323349702Y-170593095D01*
X323730654Y-170593095D01*
X323825892Y-170640714D01*
X323873511Y-170688333D01*
X323921130Y-170783571D01*
X323921130Y-170974047D01*
X323873511Y-171069285D01*
X323825892Y-171116904D01*
X323730654Y-171164523D01*
X323492559Y-171164523D01*
X323397321Y-171116904D01*
X323349702Y-171069285D01*
X323302083Y-170974047D01*
X323302083Y-170783571D01*
X323349702Y-170688333D01*
X323397321Y-170640714D01*
X323492559Y-170593095D01*
X322921130Y-171497857D02*
X322921130Y-172116904D01*
X323302083Y-171783571D01*
X323302083Y-171926428D01*
X323349702Y-172021666D01*
X323397321Y-172069285D01*
X323492559Y-172116904D01*
X323730654Y-172116904D01*
X323825892Y-172069285D01*
X323873511Y-172021666D01*
X323921130Y-171926428D01*
X323921130Y-171640714D01*
X323873511Y-171545476D01*
X323825892Y-171497857D01*
X176974404Y-169014880D02*
X176974404Y-169824404D01*
X176926785Y-169919642D01*
X176879166Y-169967261D01*
X176783928Y-170014880D01*
X176593452Y-170014880D01*
X176498214Y-169967261D01*
X176450595Y-169919642D01*
X176402976Y-169824404D01*
X176402976Y-169014880D01*
X175736309Y-169014880D02*
X175641071Y-169014880D01*
X175545833Y-169062500D01*
X175498214Y-169110119D01*
X175450595Y-169205357D01*
X175402976Y-169395833D01*
X175402976Y-169633928D01*
X175450595Y-169824404D01*
X175498214Y-169919642D01*
X175545833Y-169967261D01*
X175641071Y-170014880D01*
X175736309Y-170014880D01*
X175831547Y-169967261D01*
X175879166Y-169919642D01*
X175926785Y-169824404D01*
X175974404Y-169633928D01*
X175974404Y-169395833D01*
X175926785Y-169205357D01*
X175879166Y-169110119D01*
X175831547Y-169062500D01*
X175736309Y-169014880D01*
X134464285Y-156802380D02*
X134464285Y-155802380D01*
X134226190Y-155802380D01*
X134083333Y-155850000D01*
X133988095Y-155945238D01*
X133940476Y-156040476D01*
X133892857Y-156230952D01*
X133892857Y-156373809D01*
X133940476Y-156564285D01*
X133988095Y-156659523D01*
X134083333Y-156754761D01*
X134226190Y-156802380D01*
X134464285Y-156802380D01*
X133035714Y-156135714D02*
X133035714Y-156802380D01*
X133273809Y-155754761D02*
X133511904Y-156469047D01*
X132892857Y-156469047D01*
X131988095Y-156802380D02*
X132559523Y-156802380D01*
X132273809Y-156802380D02*
X132273809Y-155802380D01*
X132369047Y-155945238D01*
X132464285Y-156040476D01*
X132559523Y-156088095D01*
X345352380Y-131540714D02*
X344352380Y-131540714D01*
X344352380Y-131778809D01*
X344400000Y-131921666D01*
X344495238Y-132016904D01*
X344590476Y-132064523D01*
X344780952Y-132112142D01*
X344923809Y-132112142D01*
X345114285Y-132064523D01*
X345209523Y-132016904D01*
X345304761Y-131921666D01*
X345352380Y-131778809D01*
X345352380Y-131540714D01*
X344685714Y-132969285D02*
X345352380Y-132969285D01*
X344304761Y-132731190D02*
X345019047Y-132493095D01*
X345019047Y-133112142D01*
X344352380Y-133683571D02*
X344352380Y-133778809D01*
X344400000Y-133874047D01*
X344447619Y-133921666D01*
X344542857Y-133969285D01*
X344733333Y-134016904D01*
X344971428Y-134016904D01*
X345161904Y-133969285D01*
X345257142Y-133921666D01*
X345304761Y-133874047D01*
X345352380Y-133778809D01*
X345352380Y-133683571D01*
X345304761Y-133588333D01*
X345257142Y-133540714D01*
X345161904Y-133493095D01*
X344971428Y-133445476D01*
X344733333Y-133445476D01*
X344542857Y-133493095D01*
X344447619Y-133540714D01*
X344400000Y-133588333D01*
X344352380Y-133683571D01*
X247721130Y-150590714D02*
X246721130Y-150590714D01*
X246721130Y-150828809D01*
X246768750Y-150971666D01*
X246863988Y-151066904D01*
X246959226Y-151114523D01*
X247149702Y-151162142D01*
X247292559Y-151162142D01*
X247483035Y-151114523D01*
X247578273Y-151066904D01*
X247673511Y-150971666D01*
X247721130Y-150828809D01*
X247721130Y-150590714D01*
X247054464Y-152019285D02*
X247721130Y-152019285D01*
X246673511Y-151781190D02*
X247387797Y-151543095D01*
X247387797Y-152162142D01*
X247149702Y-152685952D02*
X247102083Y-152590714D01*
X247054464Y-152543095D01*
X246959226Y-152495476D01*
X246911607Y-152495476D01*
X246816369Y-152543095D01*
X246768750Y-152590714D01*
X246721130Y-152685952D01*
X246721130Y-152876428D01*
X246768750Y-152971666D01*
X246816369Y-153019285D01*
X246911607Y-153066904D01*
X246959226Y-153066904D01*
X247054464Y-153019285D01*
X247102083Y-152971666D01*
X247149702Y-152876428D01*
X247149702Y-152685952D01*
X247197321Y-152590714D01*
X247244940Y-152543095D01*
X247340178Y-152495476D01*
X247530654Y-152495476D01*
X247625892Y-152543095D01*
X247673511Y-152590714D01*
X247721130Y-152685952D01*
X247721130Y-152876428D01*
X247673511Y-152971666D01*
X247625892Y-153019285D01*
X247530654Y-153066904D01*
X247340178Y-153066904D01*
X247244940Y-153019285D01*
X247197321Y-152971666D01*
X247149702Y-152876428D01*
X161996130Y-131540714D02*
X160996130Y-131540714D01*
X160996130Y-131778809D01*
X161043750Y-131921666D01*
X161138988Y-132016904D01*
X161234226Y-132064523D01*
X161424702Y-132112142D01*
X161567559Y-132112142D01*
X161758035Y-132064523D01*
X161853273Y-132016904D01*
X161948511Y-131921666D01*
X161996130Y-131778809D01*
X161996130Y-131540714D01*
X160996130Y-132445476D02*
X160996130Y-133064523D01*
X161377083Y-132731190D01*
X161377083Y-132874047D01*
X161424702Y-132969285D01*
X161472321Y-133016904D01*
X161567559Y-133064523D01*
X161805654Y-133064523D01*
X161900892Y-133016904D01*
X161948511Y-132969285D01*
X161996130Y-132874047D01*
X161996130Y-132588333D01*
X161948511Y-132493095D01*
X161900892Y-132445476D01*
X161996130Y-134016904D02*
X161996130Y-133445476D01*
X161996130Y-133731190D02*
X160996130Y-133731190D01*
X161138988Y-133635952D01*
X161234226Y-133540714D01*
X161281845Y-133445476D01*
X228671130Y-150590714D02*
X227671130Y-150590714D01*
X227671130Y-150828809D01*
X227718750Y-150971666D01*
X227813988Y-151066904D01*
X227909226Y-151114523D01*
X228099702Y-151162142D01*
X228242559Y-151162142D01*
X228433035Y-151114523D01*
X228528273Y-151066904D01*
X228623511Y-150971666D01*
X228671130Y-150828809D01*
X228671130Y-150590714D01*
X228004464Y-152019285D02*
X228671130Y-152019285D01*
X227623511Y-151781190D02*
X228337797Y-151543095D01*
X228337797Y-152162142D01*
X227671130Y-152447857D02*
X227671130Y-153114523D01*
X228671130Y-152685952D01*
X176283630Y-112490714D02*
X175283630Y-112490714D01*
X175283630Y-112728809D01*
X175331250Y-112871666D01*
X175426488Y-112966904D01*
X175521726Y-113014523D01*
X175712202Y-113062142D01*
X175855059Y-113062142D01*
X176045535Y-113014523D01*
X176140773Y-112966904D01*
X176236011Y-112871666D01*
X176283630Y-112728809D01*
X176283630Y-112490714D01*
X176283630Y-114014523D02*
X176283630Y-113443095D01*
X176283630Y-113728809D02*
X175283630Y-113728809D01*
X175426488Y-113633571D01*
X175521726Y-113538333D01*
X175569345Y-113443095D01*
X175712202Y-114585952D02*
X175664583Y-114490714D01*
X175616964Y-114443095D01*
X175521726Y-114395476D01*
X175474107Y-114395476D01*
X175378869Y-114443095D01*
X175331250Y-114490714D01*
X175283630Y-114585952D01*
X175283630Y-114776428D01*
X175331250Y-114871666D01*
X175378869Y-114919285D01*
X175474107Y-114966904D01*
X175521726Y-114966904D01*
X175616964Y-114919285D01*
X175664583Y-114871666D01*
X175712202Y-114776428D01*
X175712202Y-114585952D01*
X175759821Y-114490714D01*
X175807440Y-114443095D01*
X175902678Y-114395476D01*
X176093154Y-114395476D01*
X176188392Y-114443095D01*
X176236011Y-114490714D01*
X176283630Y-114585952D01*
X176283630Y-114776428D01*
X176236011Y-114871666D01*
X176188392Y-114919285D01*
X176093154Y-114966904D01*
X175902678Y-114966904D01*
X175807440Y-114919285D01*
X175759821Y-114871666D01*
X175712202Y-114776428D01*
X216550581Y-163964880D02*
X216550581Y-162964880D01*
X216122010Y-163917261D02*
X215979153Y-163964880D01*
X215741058Y-163964880D01*
X215645820Y-163917261D01*
X215598201Y-163869642D01*
X215550581Y-163774404D01*
X215550581Y-163679166D01*
X215598201Y-163583928D01*
X215645820Y-163536309D01*
X215741058Y-163488690D01*
X215931534Y-163441071D01*
X216026772Y-163393452D01*
X216074391Y-163345833D01*
X216122010Y-163250595D01*
X216122010Y-163155357D01*
X216074391Y-163060119D01*
X216026772Y-163012500D01*
X215931534Y-162964880D01*
X215693439Y-162964880D01*
X215550581Y-163012500D01*
X215122010Y-163964880D02*
X215122010Y-162964880D01*
X214741058Y-162964880D01*
X214645820Y-163012500D01*
X214598201Y-163060119D01*
X214550581Y-163155357D01*
X214550581Y-163298214D01*
X214598201Y-163393452D01*
X214645820Y-163441071D01*
X214741058Y-163488690D01*
X215122010Y-163488690D01*
X213931534Y-162964880D02*
X213836296Y-162964880D01*
X213741058Y-163012500D01*
X213693439Y-163060119D01*
X213645820Y-163155357D01*
X213598201Y-163345833D01*
X213598201Y-163583928D01*
X213645820Y-163774404D01*
X213693439Y-163869642D01*
X213741058Y-163917261D01*
X213836296Y-163964880D01*
X213931534Y-163964880D01*
X214026772Y-163917261D01*
X214074391Y-163869642D01*
X214122010Y-163774404D01*
X214169629Y-163583928D01*
X214169629Y-163345833D01*
X214122010Y-163155357D01*
X214074391Y-163060119D01*
X214026772Y-163012500D01*
X213931534Y-162964880D01*
X120364285Y-118802380D02*
X120364285Y-117802380D01*
X120126190Y-117802380D01*
X119983333Y-117850000D01*
X119888095Y-117945238D01*
X119840476Y-118040476D01*
X119792857Y-118230952D01*
X119792857Y-118373809D01*
X119840476Y-118564285D01*
X119888095Y-118659523D01*
X119983333Y-118754761D01*
X120126190Y-118802380D01*
X120364285Y-118802380D01*
X118840476Y-118802380D02*
X119411904Y-118802380D01*
X119126190Y-118802380D02*
X119126190Y-117802380D01*
X119221428Y-117945238D01*
X119316666Y-118040476D01*
X119411904Y-118088095D01*
X117983333Y-118135714D02*
X117983333Y-118802380D01*
X118221428Y-117754761D02*
X118459523Y-118469047D01*
X117840476Y-118469047D01*
X90283333Y-92152380D02*
X90283333Y-92866666D01*
X90330952Y-93009523D01*
X90426190Y-93104761D01*
X90569047Y-93152380D01*
X90664285Y-93152380D01*
X89616666Y-92152380D02*
X89521428Y-92152380D01*
X89426190Y-92200000D01*
X89378571Y-92247619D01*
X89330952Y-92342857D01*
X89283333Y-92533333D01*
X89283333Y-92771428D01*
X89330952Y-92961904D01*
X89378571Y-93057142D01*
X89426190Y-93104761D01*
X89521428Y-93152380D01*
X89616666Y-93152380D01*
X89711904Y-93104761D01*
X89759523Y-93057142D01*
X89807142Y-92961904D01*
X89854761Y-92771428D01*
X89854761Y-92533333D01*
X89807142Y-92342857D01*
X89759523Y-92247619D01*
X89711904Y-92200000D01*
X89616666Y-92152380D01*
X323921130Y-150590714D02*
X322921130Y-150590714D01*
X322921130Y-150828809D01*
X322968750Y-150971666D01*
X323063988Y-151066904D01*
X323159226Y-151114523D01*
X323349702Y-151162142D01*
X323492559Y-151162142D01*
X323683035Y-151114523D01*
X323778273Y-151066904D01*
X323873511Y-150971666D01*
X323921130Y-150828809D01*
X323921130Y-150590714D01*
X322921130Y-152066904D02*
X322921130Y-151590714D01*
X323397321Y-151543095D01*
X323349702Y-151590714D01*
X323302083Y-151685952D01*
X323302083Y-151924047D01*
X323349702Y-152019285D01*
X323397321Y-152066904D01*
X323492559Y-152114523D01*
X323730654Y-152114523D01*
X323825892Y-152066904D01*
X323873511Y-152019285D01*
X323921130Y-151924047D01*
X323921130Y-151685952D01*
X323873511Y-151590714D01*
X323825892Y-151543095D01*
X323016369Y-152495476D02*
X322968750Y-152543095D01*
X322921130Y-152638333D01*
X322921130Y-152876428D01*
X322968750Y-152971666D01*
X323016369Y-153019285D01*
X323111607Y-153066904D01*
X323206845Y-153066904D01*
X323349702Y-153019285D01*
X323921130Y-152447857D01*
X323921130Y-153066904D01*
X257246130Y-131540714D02*
X256246130Y-131540714D01*
X256246130Y-131778809D01*
X256293750Y-131921666D01*
X256388988Y-132016904D01*
X256484226Y-132064523D01*
X256674702Y-132112142D01*
X256817559Y-132112142D01*
X257008035Y-132064523D01*
X257103273Y-132016904D01*
X257198511Y-131921666D01*
X257246130Y-131778809D01*
X257246130Y-131540714D01*
X256246130Y-132445476D02*
X256246130Y-133064523D01*
X256627083Y-132731190D01*
X256627083Y-132874047D01*
X256674702Y-132969285D01*
X256722321Y-133016904D01*
X256817559Y-133064523D01*
X257055654Y-133064523D01*
X257150892Y-133016904D01*
X257198511Y-132969285D01*
X257246130Y-132874047D01*
X257246130Y-132588333D01*
X257198511Y-132493095D01*
X257150892Y-132445476D01*
X256246130Y-133921666D02*
X256246130Y-133731190D01*
X256293750Y-133635952D01*
X256341369Y-133588333D01*
X256484226Y-133493095D01*
X256674702Y-133445476D01*
X257055654Y-133445476D01*
X257150892Y-133493095D01*
X257198511Y-133540714D01*
X257246130Y-133635952D01*
X257246130Y-133826428D01*
X257198511Y-133921666D01*
X257150892Y-133969285D01*
X257055654Y-134016904D01*
X256817559Y-134016904D01*
X256722321Y-133969285D01*
X256674702Y-133921666D01*
X256627083Y-133826428D01*
X256627083Y-133635952D01*
X256674702Y-133540714D01*
X256722321Y-133493095D01*
X256817559Y-133445476D01*
X157233630Y-112490714D02*
X156233630Y-112490714D01*
X156233630Y-112728809D01*
X156281250Y-112871666D01*
X156376488Y-112966904D01*
X156471726Y-113014523D01*
X156662202Y-113062142D01*
X156805059Y-113062142D01*
X156995535Y-113014523D01*
X157090773Y-112966904D01*
X157186011Y-112871666D01*
X157233630Y-112728809D01*
X157233630Y-112490714D01*
X157233630Y-114014523D02*
X157233630Y-113443095D01*
X157233630Y-113728809D02*
X156233630Y-113728809D01*
X156376488Y-113633571D01*
X156471726Y-113538333D01*
X156519345Y-113443095D01*
X156233630Y-114347857D02*
X156233630Y-115014523D01*
X157233630Y-114585952D01*
X314396130Y-131540714D02*
X313396130Y-131540714D01*
X313396130Y-131778809D01*
X313443750Y-131921666D01*
X313538988Y-132016904D01*
X313634226Y-132064523D01*
X313824702Y-132112142D01*
X313967559Y-132112142D01*
X314158035Y-132064523D01*
X314253273Y-132016904D01*
X314348511Y-131921666D01*
X314396130Y-131778809D01*
X314396130Y-131540714D01*
X313396130Y-132445476D02*
X313396130Y-133064523D01*
X313777083Y-132731190D01*
X313777083Y-132874047D01*
X313824702Y-132969285D01*
X313872321Y-133016904D01*
X313967559Y-133064523D01*
X314205654Y-133064523D01*
X314300892Y-133016904D01*
X314348511Y-132969285D01*
X314396130Y-132874047D01*
X314396130Y-132588333D01*
X314348511Y-132493095D01*
X314300892Y-132445476D01*
X314396130Y-133540714D02*
X314396130Y-133731190D01*
X314348511Y-133826428D01*
X314300892Y-133874047D01*
X314158035Y-133969285D01*
X313967559Y-134016904D01*
X313586607Y-134016904D01*
X313491369Y-133969285D01*
X313443750Y-133921666D01*
X313396130Y-133826428D01*
X313396130Y-133635952D01*
X313443750Y-133540714D01*
X313491369Y-133493095D01*
X313586607Y-133445476D01*
X313824702Y-133445476D01*
X313919940Y-133493095D01*
X313967559Y-133540714D01*
X314015178Y-133635952D01*
X314015178Y-133826428D01*
X313967559Y-133921666D01*
X313919940Y-133969285D01*
X313824702Y-134016904D01*
X168416666Y-177907142D02*
X168464285Y-177954761D01*
X168607142Y-178002380D01*
X168702380Y-178002380D01*
X168845238Y-177954761D01*
X168940476Y-177859523D01*
X168988095Y-177764285D01*
X169035714Y-177573809D01*
X169035714Y-177430952D01*
X168988095Y-177240476D01*
X168940476Y-177145238D01*
X168845238Y-177050000D01*
X168702380Y-177002380D01*
X168607142Y-177002380D01*
X168464285Y-177050000D01*
X168416666Y-177097619D01*
X167464285Y-178002380D02*
X168035714Y-178002380D01*
X167750000Y-178002380D02*
X167750000Y-177002380D01*
X167845238Y-177145238D01*
X167940476Y-177240476D01*
X168035714Y-177288095D01*
X151677380Y-169640714D02*
X150677380Y-169640714D01*
X150677380Y-169878809D01*
X150725000Y-170021666D01*
X150820238Y-170116904D01*
X150915476Y-170164523D01*
X151105952Y-170212142D01*
X151248809Y-170212142D01*
X151439285Y-170164523D01*
X151534523Y-170116904D01*
X151629761Y-170021666D01*
X151677380Y-169878809D01*
X151677380Y-169640714D01*
X150677380Y-171116904D02*
X150677380Y-170640714D01*
X151153571Y-170593095D01*
X151105952Y-170640714D01*
X151058333Y-170735952D01*
X151058333Y-170974047D01*
X151105952Y-171069285D01*
X151153571Y-171116904D01*
X151248809Y-171164523D01*
X151486904Y-171164523D01*
X151582142Y-171116904D01*
X151629761Y-171069285D01*
X151677380Y-170974047D01*
X151677380Y-170735952D01*
X151629761Y-170640714D01*
X151582142Y-170593095D01*
X150677380Y-171497857D02*
X150677380Y-172164523D01*
X151677380Y-171735952D01*
X166758630Y-93916904D02*
X165758630Y-93916904D01*
X165758630Y-94155000D01*
X165806250Y-94297857D01*
X165901488Y-94393095D01*
X165996726Y-94440714D01*
X166187202Y-94488333D01*
X166330059Y-94488333D01*
X166520535Y-94440714D01*
X166615773Y-94393095D01*
X166711011Y-94297857D01*
X166758630Y-94155000D01*
X166758630Y-93916904D01*
X166091964Y-95345476D02*
X166758630Y-95345476D01*
X165711011Y-95107380D02*
X166425297Y-94869285D01*
X166425297Y-95488333D01*
X242958630Y-93916904D02*
X241958630Y-93916904D01*
X241958630Y-94155000D01*
X242006250Y-94297857D01*
X242101488Y-94393095D01*
X242196726Y-94440714D01*
X242387202Y-94488333D01*
X242530059Y-94488333D01*
X242720535Y-94440714D01*
X242815773Y-94393095D01*
X242911011Y-94297857D01*
X242958630Y-94155000D01*
X242958630Y-93916904D01*
X242387202Y-95059761D02*
X242339583Y-94964523D01*
X242291964Y-94916904D01*
X242196726Y-94869285D01*
X242149107Y-94869285D01*
X242053869Y-94916904D01*
X242006250Y-94964523D01*
X241958630Y-95059761D01*
X241958630Y-95250238D01*
X242006250Y-95345476D01*
X242053869Y-95393095D01*
X242149107Y-95440714D01*
X242196726Y-95440714D01*
X242291964Y-95393095D01*
X242339583Y-95345476D01*
X242387202Y-95250238D01*
X242387202Y-95059761D01*
X242434821Y-94964523D01*
X242482440Y-94916904D01*
X242577678Y-94869285D01*
X242768154Y-94869285D01*
X242863392Y-94916904D01*
X242911011Y-94964523D01*
X242958630Y-95059761D01*
X242958630Y-95250238D01*
X242911011Y-95345476D01*
X242863392Y-95393095D01*
X242768154Y-95440714D01*
X242577678Y-95440714D01*
X242482440Y-95393095D01*
X242434821Y-95345476D01*
X242387202Y-95250238D01*
X300108630Y-93440714D02*
X299108630Y-93440714D01*
X299108630Y-93678809D01*
X299156250Y-93821666D01*
X299251488Y-93916904D01*
X299346726Y-93964523D01*
X299537202Y-94012142D01*
X299680059Y-94012142D01*
X299870535Y-93964523D01*
X299965773Y-93916904D01*
X300061011Y-93821666D01*
X300108630Y-93678809D01*
X300108630Y-93440714D01*
X300108630Y-94964523D02*
X300108630Y-94393095D01*
X300108630Y-94678809D02*
X299108630Y-94678809D01*
X299251488Y-94583571D01*
X299346726Y-94488333D01*
X299394345Y-94393095D01*
X300108630Y-95916904D02*
X300108630Y-95345476D01*
X300108630Y-95631190D02*
X299108630Y-95631190D01*
X299251488Y-95535952D01*
X299346726Y-95440714D01*
X299394345Y-95345476D01*
X350114880Y-150590714D02*
X349114880Y-150590714D01*
X349114880Y-150828809D01*
X349162500Y-150971666D01*
X349257738Y-151066904D01*
X349352976Y-151114523D01*
X349543452Y-151162142D01*
X349686309Y-151162142D01*
X349876785Y-151114523D01*
X349972023Y-151066904D01*
X350067261Y-150971666D01*
X350114880Y-150828809D01*
X350114880Y-150590714D01*
X349114880Y-152066904D02*
X349114880Y-151590714D01*
X349591071Y-151543095D01*
X349543452Y-151590714D01*
X349495833Y-151685952D01*
X349495833Y-151924047D01*
X349543452Y-152019285D01*
X349591071Y-152066904D01*
X349686309Y-152114523D01*
X349924404Y-152114523D01*
X350019642Y-152066904D01*
X350067261Y-152019285D01*
X350114880Y-151924047D01*
X350114880Y-151685952D01*
X350067261Y-151590714D01*
X350019642Y-151543095D01*
X349114880Y-152447857D02*
X349114880Y-153066904D01*
X349495833Y-152733571D01*
X349495833Y-152876428D01*
X349543452Y-152971666D01*
X349591071Y-153019285D01*
X349686309Y-153066904D01*
X349924404Y-153066904D01*
X350019642Y-153019285D01*
X350067261Y-152971666D01*
X350114880Y-152876428D01*
X350114880Y-152590714D01*
X350067261Y-152495476D01*
X350019642Y-152447857D01*
X223583333Y-163123511D02*
X223440476Y-163171130D01*
X223202380Y-163171130D01*
X223107142Y-163123511D01*
X223059523Y-163075892D01*
X223011904Y-162980654D01*
X223011904Y-162885416D01*
X223059523Y-162790178D01*
X223107142Y-162742559D01*
X223202380Y-162694940D01*
X223392857Y-162647321D01*
X223488095Y-162599702D01*
X223535714Y-162552083D01*
X223583333Y-162456845D01*
X223583333Y-162361607D01*
X223535714Y-162266369D01*
X223488095Y-162218750D01*
X223392857Y-162171130D01*
X223154761Y-162171130D01*
X223011904Y-162218750D01*
X222678571Y-162171130D02*
X222440476Y-163171130D01*
X222250000Y-162456845D01*
X222059523Y-163171130D01*
X221821428Y-162171130D01*
X221250000Y-162171130D02*
X221154761Y-162171130D01*
X221059523Y-162218750D01*
X221011904Y-162266369D01*
X220964285Y-162361607D01*
X220916666Y-162552083D01*
X220916666Y-162790178D01*
X220964285Y-162980654D01*
X221011904Y-163075892D01*
X221059523Y-163123511D01*
X221154761Y-163171130D01*
X221250000Y-163171130D01*
X221345238Y-163123511D01*
X221392857Y-163075892D01*
X221440476Y-162980654D01*
X221488095Y-162790178D01*
X221488095Y-162552083D01*
X221440476Y-162361607D01*
X221392857Y-162266369D01*
X221345238Y-162218750D01*
X221250000Y-162171130D01*
X190571130Y-150590714D02*
X189571130Y-150590714D01*
X189571130Y-150828809D01*
X189618750Y-150971666D01*
X189713988Y-151066904D01*
X189809226Y-151114523D01*
X189999702Y-151162142D01*
X190142559Y-151162142D01*
X190333035Y-151114523D01*
X190428273Y-151066904D01*
X190523511Y-150971666D01*
X190571130Y-150828809D01*
X190571130Y-150590714D01*
X189904464Y-152019285D02*
X190571130Y-152019285D01*
X189523511Y-151781190D02*
X190237797Y-151543095D01*
X190237797Y-152162142D01*
X189571130Y-153019285D02*
X189571130Y-152543095D01*
X190047321Y-152495476D01*
X189999702Y-152543095D01*
X189952083Y-152638333D01*
X189952083Y-152876428D01*
X189999702Y-152971666D01*
X190047321Y-153019285D01*
X190142559Y-153066904D01*
X190380654Y-153066904D01*
X190475892Y-153019285D01*
X190523511Y-152971666D01*
X190571130Y-152876428D01*
X190571130Y-152638333D01*
X190523511Y-152543095D01*
X190475892Y-152495476D01*
X128658630Y-169640714D02*
X127658630Y-169640714D01*
X127658630Y-169878809D01*
X127706250Y-170021666D01*
X127801488Y-170116904D01*
X127896726Y-170164523D01*
X128087202Y-170212142D01*
X128230059Y-170212142D01*
X128420535Y-170164523D01*
X128515773Y-170116904D01*
X128611011Y-170021666D01*
X128658630Y-169878809D01*
X128658630Y-169640714D01*
X127658630Y-171116904D02*
X127658630Y-170640714D01*
X128134821Y-170593095D01*
X128087202Y-170640714D01*
X128039583Y-170735952D01*
X128039583Y-170974047D01*
X128087202Y-171069285D01*
X128134821Y-171116904D01*
X128230059Y-171164523D01*
X128468154Y-171164523D01*
X128563392Y-171116904D01*
X128611011Y-171069285D01*
X128658630Y-170974047D01*
X128658630Y-170735952D01*
X128611011Y-170640714D01*
X128563392Y-170593095D01*
X127658630Y-172069285D02*
X127658630Y-171593095D01*
X128134821Y-171545476D01*
X128087202Y-171593095D01*
X128039583Y-171688333D01*
X128039583Y-171926428D01*
X128087202Y-172021666D01*
X128134821Y-172069285D01*
X128230059Y-172116904D01*
X128468154Y-172116904D01*
X128563392Y-172069285D01*
X128611011Y-172021666D01*
X128658630Y-171926428D01*
X128658630Y-171688333D01*
X128611011Y-171593095D01*
X128563392Y-171545476D01*
X262008630Y-93916904D02*
X261008630Y-93916904D01*
X261008630Y-94155000D01*
X261056250Y-94297857D01*
X261151488Y-94393095D01*
X261246726Y-94440714D01*
X261437202Y-94488333D01*
X261580059Y-94488333D01*
X261770535Y-94440714D01*
X261865773Y-94393095D01*
X261961011Y-94297857D01*
X262008630Y-94155000D01*
X262008630Y-93916904D01*
X262008630Y-94964523D02*
X262008630Y-95155000D01*
X261961011Y-95250238D01*
X261913392Y-95297857D01*
X261770535Y-95393095D01*
X261580059Y-95440714D01*
X261199107Y-95440714D01*
X261103869Y-95393095D01*
X261056250Y-95345476D01*
X261008630Y-95250238D01*
X261008630Y-95059761D01*
X261056250Y-94964523D01*
X261103869Y-94916904D01*
X261199107Y-94869285D01*
X261437202Y-94869285D01*
X261532440Y-94916904D01*
X261580059Y-94964523D01*
X261627678Y-95059761D01*
X261627678Y-95250238D01*
X261580059Y-95345476D01*
X261532440Y-95393095D01*
X261437202Y-95440714D01*
X174752380Y-176283333D02*
X174276190Y-175950000D01*
X174752380Y-175711904D02*
X173752380Y-175711904D01*
X173752380Y-176092857D01*
X173800000Y-176188095D01*
X173847619Y-176235714D01*
X173942857Y-176283333D01*
X174085714Y-176283333D01*
X174180952Y-176235714D01*
X174228571Y-176188095D01*
X174276190Y-176092857D01*
X174276190Y-175711904D01*
X174085714Y-177140476D02*
X174752380Y-177140476D01*
X173704761Y-176902380D02*
X174419047Y-176664285D01*
X174419047Y-177283333D01*
X147708630Y-93916904D02*
X146708630Y-93916904D01*
X146708630Y-94155000D01*
X146756250Y-94297857D01*
X146851488Y-94393095D01*
X146946726Y-94440714D01*
X147137202Y-94488333D01*
X147280059Y-94488333D01*
X147470535Y-94440714D01*
X147565773Y-94393095D01*
X147661011Y-94297857D01*
X147708630Y-94155000D01*
X147708630Y-93916904D01*
X146708630Y-94821666D02*
X146708630Y-95440714D01*
X147089583Y-95107380D01*
X147089583Y-95250238D01*
X147137202Y-95345476D01*
X147184821Y-95393095D01*
X147280059Y-95440714D01*
X147518154Y-95440714D01*
X147613392Y-95393095D01*
X147661011Y-95345476D01*
X147708630Y-95250238D01*
X147708630Y-94964523D01*
X147661011Y-94869285D01*
X147613392Y-94821666D01*
X125064285Y-135002380D02*
X125064285Y-134002380D01*
X124826190Y-134002380D01*
X124683333Y-134050000D01*
X124588095Y-134145238D01*
X124540476Y-134240476D01*
X124492857Y-134430952D01*
X124492857Y-134573809D01*
X124540476Y-134764285D01*
X124588095Y-134859523D01*
X124683333Y-134954761D01*
X124826190Y-135002380D01*
X125064285Y-135002380D01*
X124111904Y-134097619D02*
X124064285Y-134050000D01*
X123969047Y-134002380D01*
X123730952Y-134002380D01*
X123635714Y-134050000D01*
X123588095Y-134097619D01*
X123540476Y-134192857D01*
X123540476Y-134288095D01*
X123588095Y-134430952D01*
X124159523Y-135002380D01*
X123540476Y-135002380D01*
X123064285Y-135002380D02*
X122873809Y-135002380D01*
X122778571Y-134954761D01*
X122730952Y-134907142D01*
X122635714Y-134764285D01*
X122588095Y-134573809D01*
X122588095Y-134192857D01*
X122635714Y-134097619D01*
X122683333Y-134050000D01*
X122778571Y-134002380D01*
X122969047Y-134002380D01*
X123064285Y-134050000D01*
X123111904Y-134097619D01*
X123159523Y-134192857D01*
X123159523Y-134430952D01*
X123111904Y-134526190D01*
X123064285Y-134573809D01*
X122969047Y-134621428D01*
X122778571Y-134621428D01*
X122683333Y-134573809D01*
X122635714Y-134526190D01*
X122588095Y-134430952D01*
X171521130Y-150590714D02*
X170521130Y-150590714D01*
X170521130Y-150828809D01*
X170568750Y-150971666D01*
X170663988Y-151066904D01*
X170759226Y-151114523D01*
X170949702Y-151162142D01*
X171092559Y-151162142D01*
X171283035Y-151114523D01*
X171378273Y-151066904D01*
X171473511Y-150971666D01*
X171521130Y-150828809D01*
X171521130Y-150590714D01*
X170854464Y-152019285D02*
X171521130Y-152019285D01*
X170473511Y-151781190D02*
X171187797Y-151543095D01*
X171187797Y-152162142D01*
X170854464Y-152971666D02*
X171521130Y-152971666D01*
X170473511Y-152733571D02*
X171187797Y-152495476D01*
X171187797Y-153114523D01*
X285821130Y-150590714D02*
X284821130Y-150590714D01*
X284821130Y-150828809D01*
X284868750Y-150971666D01*
X284963988Y-151066904D01*
X285059226Y-151114523D01*
X285249702Y-151162142D01*
X285392559Y-151162142D01*
X285583035Y-151114523D01*
X285678273Y-151066904D01*
X285773511Y-150971666D01*
X285821130Y-150828809D01*
X285821130Y-150590714D01*
X284821130Y-152066904D02*
X284821130Y-151590714D01*
X285297321Y-151543095D01*
X285249702Y-151590714D01*
X285202083Y-151685952D01*
X285202083Y-151924047D01*
X285249702Y-152019285D01*
X285297321Y-152066904D01*
X285392559Y-152114523D01*
X285630654Y-152114523D01*
X285725892Y-152066904D01*
X285773511Y-152019285D01*
X285821130Y-151924047D01*
X285821130Y-151685952D01*
X285773511Y-151590714D01*
X285725892Y-151543095D01*
X284821130Y-152733571D02*
X284821130Y-152828809D01*
X284868750Y-152924047D01*
X284916369Y-152971666D01*
X285011607Y-153019285D01*
X285202083Y-153066904D01*
X285440178Y-153066904D01*
X285630654Y-153019285D01*
X285725892Y-152971666D01*
X285773511Y-152924047D01*
X285821130Y-152828809D01*
X285821130Y-152733571D01*
X285773511Y-152638333D01*
X285725892Y-152590714D01*
X285630654Y-152543095D01*
X285440178Y-152495476D01*
X285202083Y-152495476D01*
X285011607Y-152543095D01*
X284916369Y-152590714D01*
X284868750Y-152638333D01*
X284821130Y-152733571D01*
X142946130Y-131540714D02*
X141946130Y-131540714D01*
X141946130Y-131778809D01*
X141993750Y-131921666D01*
X142088988Y-132016904D01*
X142184226Y-132064523D01*
X142374702Y-132112142D01*
X142517559Y-132112142D01*
X142708035Y-132064523D01*
X142803273Y-132016904D01*
X142898511Y-131921666D01*
X142946130Y-131778809D01*
X142946130Y-131540714D01*
X141946130Y-132445476D02*
X141946130Y-133064523D01*
X142327083Y-132731190D01*
X142327083Y-132874047D01*
X142374702Y-132969285D01*
X142422321Y-133016904D01*
X142517559Y-133064523D01*
X142755654Y-133064523D01*
X142850892Y-133016904D01*
X142898511Y-132969285D01*
X142946130Y-132874047D01*
X142946130Y-132588333D01*
X142898511Y-132493095D01*
X142850892Y-132445476D01*
X141946130Y-133683571D02*
X141946130Y-133778809D01*
X141993750Y-133874047D01*
X142041369Y-133921666D01*
X142136607Y-133969285D01*
X142327083Y-134016904D01*
X142565178Y-134016904D01*
X142755654Y-133969285D01*
X142850892Y-133921666D01*
X142898511Y-133874047D01*
X142946130Y-133778809D01*
X142946130Y-133683571D01*
X142898511Y-133588333D01*
X142850892Y-133540714D01*
X142755654Y-133493095D01*
X142565178Y-133445476D01*
X142327083Y-133445476D01*
X142136607Y-133493095D01*
X142041369Y-133540714D01*
X141993750Y-133588333D01*
X141946130Y-133683571D01*
X219146130Y-131540714D02*
X218146130Y-131540714D01*
X218146130Y-131778809D01*
X218193750Y-131921666D01*
X218288988Y-132016904D01*
X218384226Y-132064523D01*
X218574702Y-132112142D01*
X218717559Y-132112142D01*
X218908035Y-132064523D01*
X219003273Y-132016904D01*
X219098511Y-131921666D01*
X219146130Y-131778809D01*
X219146130Y-131540714D01*
X218146130Y-132445476D02*
X218146130Y-133064523D01*
X218527083Y-132731190D01*
X218527083Y-132874047D01*
X218574702Y-132969285D01*
X218622321Y-133016904D01*
X218717559Y-133064523D01*
X218955654Y-133064523D01*
X219050892Y-133016904D01*
X219098511Y-132969285D01*
X219146130Y-132874047D01*
X219146130Y-132588333D01*
X219098511Y-132493095D01*
X219050892Y-132445476D01*
X218479464Y-133921666D02*
X219146130Y-133921666D01*
X218098511Y-133683571D02*
X218812797Y-133445476D01*
X218812797Y-134064523D01*
X120314285Y-115952380D02*
X120314285Y-114952380D01*
X120076190Y-114952380D01*
X119933333Y-115000000D01*
X119838095Y-115095238D01*
X119790476Y-115190476D01*
X119742857Y-115380952D01*
X119742857Y-115523809D01*
X119790476Y-115714285D01*
X119838095Y-115809523D01*
X119933333Y-115904761D01*
X120076190Y-115952380D01*
X120314285Y-115952380D01*
X118790476Y-115952380D02*
X119361904Y-115952380D01*
X119076190Y-115952380D02*
X119076190Y-114952380D01*
X119171428Y-115095238D01*
X119266666Y-115190476D01*
X119361904Y-115238095D01*
X117885714Y-114952380D02*
X118361904Y-114952380D01*
X118409523Y-115428571D01*
X118361904Y-115380952D01*
X118266666Y-115333333D01*
X118028571Y-115333333D01*
X117933333Y-115380952D01*
X117885714Y-115428571D01*
X117838095Y-115523809D01*
X117838095Y-115761904D01*
X117885714Y-115857142D01*
X117933333Y-115904761D01*
X118028571Y-115952380D01*
X118266666Y-115952380D01*
X118361904Y-115904761D01*
X118409523Y-115857142D01*
X342971130Y-169640714D02*
X341971130Y-169640714D01*
X341971130Y-169878809D01*
X342018750Y-170021666D01*
X342113988Y-170116904D01*
X342209226Y-170164523D01*
X342399702Y-170212142D01*
X342542559Y-170212142D01*
X342733035Y-170164523D01*
X342828273Y-170116904D01*
X342923511Y-170021666D01*
X342971130Y-169878809D01*
X342971130Y-169640714D01*
X341971130Y-171069285D02*
X341971130Y-170878809D01*
X342018750Y-170783571D01*
X342066369Y-170735952D01*
X342209226Y-170640714D01*
X342399702Y-170593095D01*
X342780654Y-170593095D01*
X342875892Y-170640714D01*
X342923511Y-170688333D01*
X342971130Y-170783571D01*
X342971130Y-170974047D01*
X342923511Y-171069285D01*
X342875892Y-171116904D01*
X342780654Y-171164523D01*
X342542559Y-171164523D01*
X342447321Y-171116904D01*
X342399702Y-171069285D01*
X342352083Y-170974047D01*
X342352083Y-170783571D01*
X342399702Y-170688333D01*
X342447321Y-170640714D01*
X342542559Y-170593095D01*
X342304464Y-172021666D02*
X342971130Y-172021666D01*
X341923511Y-171783571D02*
X342637797Y-171545476D01*
X342637797Y-172164523D01*
X159157142Y-156633333D02*
X159204761Y-156585714D01*
X159252380Y-156442857D01*
X159252380Y-156347619D01*
X159204761Y-156204761D01*
X159109523Y-156109523D01*
X159014285Y-156061904D01*
X158823809Y-156014285D01*
X158680952Y-156014285D01*
X158490476Y-156061904D01*
X158395238Y-156109523D01*
X158300000Y-156204761D01*
X158252380Y-156347619D01*
X158252380Y-156442857D01*
X158300000Y-156585714D01*
X158347619Y-156633333D01*
X158585714Y-157490476D02*
X159252380Y-157490476D01*
X158204761Y-157252380D02*
X158919047Y-157014285D01*
X158919047Y-157633333D01*
X134564285Y-154002380D02*
X134564285Y-153002380D01*
X134326190Y-153002380D01*
X134183333Y-153050000D01*
X134088095Y-153145238D01*
X134040476Y-153240476D01*
X133992857Y-153430952D01*
X133992857Y-153573809D01*
X134040476Y-153764285D01*
X134088095Y-153859523D01*
X134183333Y-153954761D01*
X134326190Y-154002380D01*
X134564285Y-154002380D01*
X133135714Y-153335714D02*
X133135714Y-154002380D01*
X133373809Y-152954761D02*
X133611904Y-153669047D01*
X132992857Y-153669047D01*
X132659523Y-153097619D02*
X132611904Y-153050000D01*
X132516666Y-153002380D01*
X132278571Y-153002380D01*
X132183333Y-153050000D01*
X132135714Y-153097619D01*
X132088095Y-153192857D01*
X132088095Y-153288095D01*
X132135714Y-153430952D01*
X132707142Y-154002380D01*
X132088095Y-154002380D01*
X101761071Y-103647916D02*
X101761071Y-103314583D01*
X102284880Y-103314583D02*
X101284880Y-103314583D01*
X101284880Y-103790773D01*
X102284880Y-104695535D02*
X102284880Y-104124107D01*
X102284880Y-104409821D02*
X101284880Y-104409821D01*
X101427738Y-104314583D01*
X101522976Y-104219345D01*
X101570595Y-104124107D01*
X319158630Y-93440714D02*
X318158630Y-93440714D01*
X318158630Y-93678809D01*
X318206250Y-93821666D01*
X318301488Y-93916904D01*
X318396726Y-93964523D01*
X318587202Y-94012142D01*
X318730059Y-94012142D01*
X318920535Y-93964523D01*
X319015773Y-93916904D01*
X319111011Y-93821666D01*
X319158630Y-93678809D01*
X319158630Y-93440714D01*
X319158630Y-94964523D02*
X319158630Y-94393095D01*
X319158630Y-94678809D02*
X318158630Y-94678809D01*
X318301488Y-94583571D01*
X318396726Y-94488333D01*
X318444345Y-94393095D01*
X318253869Y-95345476D02*
X318206250Y-95393095D01*
X318158630Y-95488333D01*
X318158630Y-95726428D01*
X318206250Y-95821666D01*
X318253869Y-95869285D01*
X318349107Y-95916904D01*
X318444345Y-95916904D01*
X318587202Y-95869285D01*
X319158630Y-95297857D01*
X319158630Y-95916904D01*
X152471130Y-150590714D02*
X151471130Y-150590714D01*
X151471130Y-150828809D01*
X151518750Y-150971666D01*
X151613988Y-151066904D01*
X151709226Y-151114523D01*
X151899702Y-151162142D01*
X152042559Y-151162142D01*
X152233035Y-151114523D01*
X152328273Y-151066904D01*
X152423511Y-150971666D01*
X152471130Y-150828809D01*
X152471130Y-150590714D01*
X151804464Y-152019285D02*
X152471130Y-152019285D01*
X151423511Y-151781190D02*
X152137797Y-151543095D01*
X152137797Y-152162142D01*
X151471130Y-152447857D02*
X151471130Y-153066904D01*
X151852083Y-152733571D01*
X151852083Y-152876428D01*
X151899702Y-152971666D01*
X151947321Y-153019285D01*
X152042559Y-153066904D01*
X152280654Y-153066904D01*
X152375892Y-153019285D01*
X152423511Y-152971666D01*
X152471130Y-152876428D01*
X152471130Y-152590714D01*
X152423511Y-152495476D01*
X152375892Y-152447857D01*
X97402380Y-84683333D02*
X97402380Y-84207142D01*
X96402380Y-84207142D01*
X96402380Y-85207142D02*
X96402380Y-85302380D01*
X96450000Y-85397619D01*
X96497619Y-85445238D01*
X96592857Y-85492857D01*
X96783333Y-85540476D01*
X97021428Y-85540476D01*
X97211904Y-85492857D01*
X97307142Y-85445238D01*
X97354761Y-85397619D01*
X97402380Y-85302380D01*
X97402380Y-85207142D01*
X97354761Y-85111904D01*
X97307142Y-85064285D01*
X97211904Y-85016666D01*
X97021428Y-84969047D01*
X96783333Y-84969047D01*
X96592857Y-85016666D01*
X96497619Y-85064285D01*
X96450000Y-85111904D01*
X96402380Y-85207142D01*
X238196130Y-131540714D02*
X237196130Y-131540714D01*
X237196130Y-131778809D01*
X237243750Y-131921666D01*
X237338988Y-132016904D01*
X237434226Y-132064523D01*
X237624702Y-132112142D01*
X237767559Y-132112142D01*
X237958035Y-132064523D01*
X238053273Y-132016904D01*
X238148511Y-131921666D01*
X238196130Y-131778809D01*
X238196130Y-131540714D01*
X237196130Y-132445476D02*
X237196130Y-133064523D01*
X237577083Y-132731190D01*
X237577083Y-132874047D01*
X237624702Y-132969285D01*
X237672321Y-133016904D01*
X237767559Y-133064523D01*
X238005654Y-133064523D01*
X238100892Y-133016904D01*
X238148511Y-132969285D01*
X238196130Y-132874047D01*
X238196130Y-132588333D01*
X238148511Y-132493095D01*
X238100892Y-132445476D01*
X237196130Y-133969285D02*
X237196130Y-133493095D01*
X237672321Y-133445476D01*
X237624702Y-133493095D01*
X237577083Y-133588333D01*
X237577083Y-133826428D01*
X237624702Y-133921666D01*
X237672321Y-133969285D01*
X237767559Y-134016904D01*
X238005654Y-134016904D01*
X238100892Y-133969285D01*
X238148511Y-133921666D01*
X238196130Y-133826428D01*
X238196130Y-133588333D01*
X238148511Y-133493095D01*
X238100892Y-133445476D01*
X295346130Y-131540714D02*
X294346130Y-131540714D01*
X294346130Y-131778809D01*
X294393750Y-131921666D01*
X294488988Y-132016904D01*
X294584226Y-132064523D01*
X294774702Y-132112142D01*
X294917559Y-132112142D01*
X295108035Y-132064523D01*
X295203273Y-132016904D01*
X295298511Y-131921666D01*
X295346130Y-131778809D01*
X295346130Y-131540714D01*
X294346130Y-132445476D02*
X294346130Y-133064523D01*
X294727083Y-132731190D01*
X294727083Y-132874047D01*
X294774702Y-132969285D01*
X294822321Y-133016904D01*
X294917559Y-133064523D01*
X295155654Y-133064523D01*
X295250892Y-133016904D01*
X295298511Y-132969285D01*
X295346130Y-132874047D01*
X295346130Y-132588333D01*
X295298511Y-132493095D01*
X295250892Y-132445476D01*
X294774702Y-133635952D02*
X294727083Y-133540714D01*
X294679464Y-133493095D01*
X294584226Y-133445476D01*
X294536607Y-133445476D01*
X294441369Y-133493095D01*
X294393750Y-133540714D01*
X294346130Y-133635952D01*
X294346130Y-133826428D01*
X294393750Y-133921666D01*
X294441369Y-133969285D01*
X294536607Y-134016904D01*
X294584226Y-134016904D01*
X294679464Y-133969285D01*
X294727083Y-133921666D01*
X294774702Y-133826428D01*
X294774702Y-133635952D01*
X294822321Y-133540714D01*
X294869940Y-133493095D01*
X294965178Y-133445476D01*
X295155654Y-133445476D01*
X295250892Y-133493095D01*
X295298511Y-133540714D01*
X295346130Y-133635952D01*
X295346130Y-133826428D01*
X295298511Y-133921666D01*
X295250892Y-133969285D01*
X295155654Y-134016904D01*
X294965178Y-134016904D01*
X294869940Y-133969285D01*
X294822321Y-133921666D01*
X294774702Y-133826428D01*
X252483630Y-112490714D02*
X251483630Y-112490714D01*
X251483630Y-112728809D01*
X251531250Y-112871666D01*
X251626488Y-112966904D01*
X251721726Y-113014523D01*
X251912202Y-113062142D01*
X252055059Y-113062142D01*
X252245535Y-113014523D01*
X252340773Y-112966904D01*
X252436011Y-112871666D01*
X252483630Y-112728809D01*
X252483630Y-112490714D01*
X251578869Y-113443095D02*
X251531250Y-113490714D01*
X251483630Y-113585952D01*
X251483630Y-113824047D01*
X251531250Y-113919285D01*
X251578869Y-113966904D01*
X251674107Y-114014523D01*
X251769345Y-114014523D01*
X251912202Y-113966904D01*
X252483630Y-113395476D01*
X252483630Y-114014523D01*
X251578869Y-114395476D02*
X251531250Y-114443095D01*
X251483630Y-114538333D01*
X251483630Y-114776428D01*
X251531250Y-114871666D01*
X251578869Y-114919285D01*
X251674107Y-114966904D01*
X251769345Y-114966904D01*
X251912202Y-114919285D01*
X252483630Y-114347857D01*
X252483630Y-114966904D01*
X80752380Y-85983333D02*
X80276190Y-85650000D01*
X80752380Y-85411904D02*
X79752380Y-85411904D01*
X79752380Y-85792857D01*
X79800000Y-85888095D01*
X79847619Y-85935714D01*
X79942857Y-85983333D01*
X80085714Y-85983333D01*
X80180952Y-85935714D01*
X80228571Y-85888095D01*
X80276190Y-85792857D01*
X80276190Y-85411904D01*
X79752380Y-86316666D02*
X79752380Y-86983333D01*
X80752380Y-86554761D01*
X181046130Y-131540714D02*
X180046130Y-131540714D01*
X180046130Y-131778809D01*
X180093750Y-131921666D01*
X180188988Y-132016904D01*
X180284226Y-132064523D01*
X180474702Y-132112142D01*
X180617559Y-132112142D01*
X180808035Y-132064523D01*
X180903273Y-132016904D01*
X180998511Y-131921666D01*
X181046130Y-131778809D01*
X181046130Y-131540714D01*
X180046130Y-132445476D02*
X180046130Y-133064523D01*
X180427083Y-132731190D01*
X180427083Y-132874047D01*
X180474702Y-132969285D01*
X180522321Y-133016904D01*
X180617559Y-133064523D01*
X180855654Y-133064523D01*
X180950892Y-133016904D01*
X180998511Y-132969285D01*
X181046130Y-132874047D01*
X181046130Y-132588333D01*
X180998511Y-132493095D01*
X180950892Y-132445476D01*
X180141369Y-133445476D02*
X180093750Y-133493095D01*
X180046130Y-133588333D01*
X180046130Y-133826428D01*
X180093750Y-133921666D01*
X180141369Y-133969285D01*
X180236607Y-134016904D01*
X180331845Y-134016904D01*
X180474702Y-133969285D01*
X181046130Y-133397857D01*
X181046130Y-134016904D01*
X223908630Y-93916904D02*
X222908630Y-93916904D01*
X222908630Y-94155000D01*
X222956250Y-94297857D01*
X223051488Y-94393095D01*
X223146726Y-94440714D01*
X223337202Y-94488333D01*
X223480059Y-94488333D01*
X223670535Y-94440714D01*
X223765773Y-94393095D01*
X223861011Y-94297857D01*
X223908630Y-94155000D01*
X223908630Y-93916904D01*
X222908630Y-94821666D02*
X222908630Y-95488333D01*
X223908630Y-95059761D01*
X266771130Y-169640714D02*
X265771130Y-169640714D01*
X265771130Y-169878809D01*
X265818750Y-170021666D01*
X265913988Y-170116904D01*
X266009226Y-170164523D01*
X266199702Y-170212142D01*
X266342559Y-170212142D01*
X266533035Y-170164523D01*
X266628273Y-170116904D01*
X266723511Y-170021666D01*
X266771130Y-169878809D01*
X266771130Y-169640714D01*
X265771130Y-171069285D02*
X265771130Y-170878809D01*
X265818750Y-170783571D01*
X265866369Y-170735952D01*
X266009226Y-170640714D01*
X266199702Y-170593095D01*
X266580654Y-170593095D01*
X266675892Y-170640714D01*
X266723511Y-170688333D01*
X266771130Y-170783571D01*
X266771130Y-170974047D01*
X266723511Y-171069285D01*
X266675892Y-171116904D01*
X266580654Y-171164523D01*
X266342559Y-171164523D01*
X266247321Y-171116904D01*
X266199702Y-171069285D01*
X266152083Y-170974047D01*
X266152083Y-170783571D01*
X266199702Y-170688333D01*
X266247321Y-170640714D01*
X266342559Y-170593095D01*
X265771130Y-171783571D02*
X265771130Y-171878809D01*
X265818750Y-171974047D01*
X265866369Y-172021666D01*
X265961607Y-172069285D01*
X266152083Y-172116904D01*
X266390178Y-172116904D01*
X266580654Y-172069285D01*
X266675892Y-172021666D01*
X266723511Y-171974047D01*
X266771130Y-171878809D01*
X266771130Y-171783571D01*
X266723511Y-171688333D01*
X266675892Y-171640714D01*
X266580654Y-171593095D01*
X266390178Y-171545476D01*
X266152083Y-171545476D01*
X265961607Y-171593095D01*
X265866369Y-171640714D01*
X265818750Y-171688333D01*
X265771130Y-171783571D01*
X177152380Y-176283333D02*
X176676190Y-175950000D01*
X177152380Y-175711904D02*
X176152380Y-175711904D01*
X176152380Y-176092857D01*
X176200000Y-176188095D01*
X176247619Y-176235714D01*
X176342857Y-176283333D01*
X176485714Y-176283333D01*
X176580952Y-176235714D01*
X176628571Y-176188095D01*
X176676190Y-176092857D01*
X176676190Y-175711904D01*
X176152380Y-176616666D02*
X176152380Y-177235714D01*
X176533333Y-176902380D01*
X176533333Y-177045238D01*
X176580952Y-177140476D01*
X176628571Y-177188095D01*
X176723809Y-177235714D01*
X176961904Y-177235714D01*
X177057142Y-177188095D01*
X177104761Y-177140476D01*
X177152380Y-177045238D01*
X177152380Y-176759523D01*
X177104761Y-176664285D01*
X177057142Y-176616666D01*
X195333630Y-112490714D02*
X194333630Y-112490714D01*
X194333630Y-112728809D01*
X194381250Y-112871666D01*
X194476488Y-112966904D01*
X194571726Y-113014523D01*
X194762202Y-113062142D01*
X194905059Y-113062142D01*
X195095535Y-113014523D01*
X195190773Y-112966904D01*
X195286011Y-112871666D01*
X195333630Y-112728809D01*
X195333630Y-112490714D01*
X195333630Y-114014523D02*
X195333630Y-113443095D01*
X195333630Y-113728809D02*
X194333630Y-113728809D01*
X194476488Y-113633571D01*
X194571726Y-113538333D01*
X194619345Y-113443095D01*
X195333630Y-114490714D02*
X195333630Y-114681190D01*
X195286011Y-114776428D01*
X195238392Y-114824047D01*
X195095535Y-114919285D01*
X194905059Y-114966904D01*
X194524107Y-114966904D01*
X194428869Y-114919285D01*
X194381250Y-114871666D01*
X194333630Y-114776428D01*
X194333630Y-114585952D01*
X194381250Y-114490714D01*
X194428869Y-114443095D01*
X194524107Y-114395476D01*
X194762202Y-114395476D01*
X194857440Y-114443095D01*
X194905059Y-114490714D01*
X194952678Y-114585952D01*
X194952678Y-114776428D01*
X194905059Y-114871666D01*
X194857440Y-114919285D01*
X194762202Y-114966904D01*
X266771130Y-150590714D02*
X265771130Y-150590714D01*
X265771130Y-150828809D01*
X265818750Y-150971666D01*
X265913988Y-151066904D01*
X266009226Y-151114523D01*
X266199702Y-151162142D01*
X266342559Y-151162142D01*
X266533035Y-151114523D01*
X266628273Y-151066904D01*
X266723511Y-150971666D01*
X266771130Y-150828809D01*
X266771130Y-150590714D01*
X266104464Y-152019285D02*
X266771130Y-152019285D01*
X265723511Y-151781190D02*
X266437797Y-151543095D01*
X266437797Y-152162142D01*
X266771130Y-152590714D02*
X266771130Y-152781190D01*
X266723511Y-152876428D01*
X266675892Y-152924047D01*
X266533035Y-153019285D01*
X266342559Y-153066904D01*
X265961607Y-153066904D01*
X265866369Y-153019285D01*
X265818750Y-152971666D01*
X265771130Y-152876428D01*
X265771130Y-152685952D01*
X265818750Y-152590714D01*
X265866369Y-152543095D01*
X265961607Y-152495476D01*
X266199702Y-152495476D01*
X266294940Y-152543095D01*
X266342559Y-152590714D01*
X266390178Y-152685952D01*
X266390178Y-152876428D01*
X266342559Y-152971666D01*
X266294940Y-153019285D01*
X266199702Y-153066904D01*
X281058630Y-93440714D02*
X280058630Y-93440714D01*
X280058630Y-93678809D01*
X280106250Y-93821666D01*
X280201488Y-93916904D01*
X280296726Y-93964523D01*
X280487202Y-94012142D01*
X280630059Y-94012142D01*
X280820535Y-93964523D01*
X280915773Y-93916904D01*
X281011011Y-93821666D01*
X281058630Y-93678809D01*
X281058630Y-93440714D01*
X281058630Y-94964523D02*
X281058630Y-94393095D01*
X281058630Y-94678809D02*
X280058630Y-94678809D01*
X280201488Y-94583571D01*
X280296726Y-94488333D01*
X280344345Y-94393095D01*
X280058630Y-95583571D02*
X280058630Y-95678809D01*
X280106250Y-95774047D01*
X280153869Y-95821666D01*
X280249107Y-95869285D01*
X280439583Y-95916904D01*
X280677678Y-95916904D01*
X280868154Y-95869285D01*
X280963392Y-95821666D01*
X281011011Y-95774047D01*
X281058630Y-95678809D01*
X281058630Y-95583571D01*
X281011011Y-95488333D01*
X280963392Y-95440714D01*
X280868154Y-95393095D01*
X280677678Y-95345476D01*
X280439583Y-95345476D01*
X280249107Y-95393095D01*
X280153869Y-95440714D01*
X280106250Y-95488333D01*
X280058630Y-95583571D01*
X304871130Y-150590714D02*
X303871130Y-150590714D01*
X303871130Y-150828809D01*
X303918750Y-150971666D01*
X304013988Y-151066904D01*
X304109226Y-151114523D01*
X304299702Y-151162142D01*
X304442559Y-151162142D01*
X304633035Y-151114523D01*
X304728273Y-151066904D01*
X304823511Y-150971666D01*
X304871130Y-150828809D01*
X304871130Y-150590714D01*
X303871130Y-152066904D02*
X303871130Y-151590714D01*
X304347321Y-151543095D01*
X304299702Y-151590714D01*
X304252083Y-151685952D01*
X304252083Y-151924047D01*
X304299702Y-152019285D01*
X304347321Y-152066904D01*
X304442559Y-152114523D01*
X304680654Y-152114523D01*
X304775892Y-152066904D01*
X304823511Y-152019285D01*
X304871130Y-151924047D01*
X304871130Y-151685952D01*
X304823511Y-151590714D01*
X304775892Y-151543095D01*
X304871130Y-153066904D02*
X304871130Y-152495476D01*
X304871130Y-152781190D02*
X303871130Y-152781190D01*
X304013988Y-152685952D01*
X304109226Y-152590714D01*
X304156845Y-152495476D01*
X181416666Y-171057142D02*
X181464285Y-171104761D01*
X181607142Y-171152380D01*
X181702380Y-171152380D01*
X181845238Y-171104761D01*
X181940476Y-171009523D01*
X181988095Y-170914285D01*
X182035714Y-170723809D01*
X182035714Y-170580952D01*
X181988095Y-170390476D01*
X181940476Y-170295238D01*
X181845238Y-170200000D01*
X181702380Y-170152380D01*
X181607142Y-170152380D01*
X181464285Y-170200000D01*
X181416666Y-170247619D01*
X180797619Y-170152380D02*
X180702380Y-170152380D01*
X180607142Y-170200000D01*
X180559523Y-170247619D01*
X180511904Y-170342857D01*
X180464285Y-170533333D01*
X180464285Y-170771428D01*
X180511904Y-170961904D01*
X180559523Y-171057142D01*
X180607142Y-171104761D01*
X180702380Y-171152380D01*
X180797619Y-171152380D01*
X180892857Y-171104761D01*
X180940476Y-171057142D01*
X180988095Y-170961904D01*
X181035714Y-170771428D01*
X181035714Y-170533333D01*
X180988095Y-170342857D01*
X180940476Y-170247619D01*
X180892857Y-170200000D01*
X180797619Y-170152380D01*
X110838095Y-99702380D02*
X110838095Y-98702380D01*
X110600000Y-98702380D01*
X110457142Y-98750000D01*
X110361904Y-98845238D01*
X110314285Y-98940476D01*
X110266666Y-99130952D01*
X110266666Y-99273809D01*
X110314285Y-99464285D01*
X110361904Y-99559523D01*
X110457142Y-99654761D01*
X110600000Y-99702380D01*
X110838095Y-99702380D01*
X109647619Y-98702380D02*
X109552380Y-98702380D01*
X109457142Y-98750000D01*
X109409523Y-98797619D01*
X109361904Y-98892857D01*
X109314285Y-99083333D01*
X109314285Y-99321428D01*
X109361904Y-99511904D01*
X109409523Y-99607142D01*
X109457142Y-99654761D01*
X109552380Y-99702380D01*
X109647619Y-99702380D01*
X109742857Y-99654761D01*
X109790476Y-99607142D01*
X109838095Y-99511904D01*
X109885714Y-99321428D01*
X109885714Y-99083333D01*
X109838095Y-98892857D01*
X109790476Y-98797619D01*
X109742857Y-98750000D01*
X109647619Y-98702380D01*
X246352380Y-173635714D02*
X245352380Y-173635714D01*
X245352380Y-173873809D01*
X245400000Y-174016666D01*
X245495238Y-174111904D01*
X245590476Y-174159523D01*
X245780952Y-174207142D01*
X245923809Y-174207142D01*
X246114285Y-174159523D01*
X246209523Y-174111904D01*
X246304761Y-174016666D01*
X246352380Y-173873809D01*
X246352380Y-173635714D01*
X245352380Y-175111904D02*
X245352380Y-174635714D01*
X245828571Y-174588095D01*
X245780952Y-174635714D01*
X245733333Y-174730952D01*
X245733333Y-174969047D01*
X245780952Y-175064285D01*
X245828571Y-175111904D01*
X245923809Y-175159523D01*
X246161904Y-175159523D01*
X246257142Y-175111904D01*
X246304761Y-175064285D01*
X246352380Y-174969047D01*
X246352380Y-174730952D01*
X246304761Y-174635714D01*
X246257142Y-174588095D01*
X245780952Y-175730952D02*
X245733333Y-175635714D01*
X245685714Y-175588095D01*
X245590476Y-175540476D01*
X245542857Y-175540476D01*
X245447619Y-175588095D01*
X245400000Y-175635714D01*
X245352380Y-175730952D01*
X245352380Y-175921428D01*
X245400000Y-176016666D01*
X245447619Y-176064285D01*
X245542857Y-176111904D01*
X245590476Y-176111904D01*
X245685714Y-176064285D01*
X245733333Y-176016666D01*
X245780952Y-175921428D01*
X245780952Y-175730952D01*
X245828571Y-175635714D01*
X245876190Y-175588095D01*
X245971428Y-175540476D01*
X246161904Y-175540476D01*
X246257142Y-175588095D01*
X246304761Y-175635714D01*
X246352380Y-175730952D01*
X246352380Y-175921428D01*
X246304761Y-176016666D01*
X246257142Y-176064285D01*
X246161904Y-176111904D01*
X245971428Y-176111904D01*
X245876190Y-176064285D01*
X245828571Y-176016666D01*
X245780952Y-175921428D01*
X210733630Y-165727083D02*
X210257440Y-165393750D01*
X210733630Y-165155654D02*
X209733630Y-165155654D01*
X209733630Y-165536607D01*
X209781250Y-165631845D01*
X209828869Y-165679464D01*
X209924107Y-165727083D01*
X210066964Y-165727083D01*
X210162202Y-165679464D01*
X210209821Y-165631845D01*
X210257440Y-165536607D01*
X210257440Y-165155654D01*
X209733630Y-166346130D02*
X209733630Y-166441369D01*
X209781250Y-166536607D01*
X209828869Y-166584226D01*
X209924107Y-166631845D01*
X210114583Y-166679464D01*
X210352678Y-166679464D01*
X210543154Y-166631845D01*
X210638392Y-166584226D01*
X210686011Y-166536607D01*
X210733630Y-166441369D01*
X210733630Y-166346130D01*
X210686011Y-166250892D01*
X210638392Y-166203273D01*
X210543154Y-166155654D01*
X210352678Y-166108035D01*
X210114583Y-166108035D01*
X209924107Y-166155654D01*
X209828869Y-166203273D01*
X209781250Y-166250892D01*
X209733630Y-166346130D01*
X138183630Y-112490714D02*
X137183630Y-112490714D01*
X137183630Y-112728809D01*
X137231250Y-112871666D01*
X137326488Y-112966904D01*
X137421726Y-113014523D01*
X137612202Y-113062142D01*
X137755059Y-113062142D01*
X137945535Y-113014523D01*
X138040773Y-112966904D01*
X138136011Y-112871666D01*
X138183630Y-112728809D01*
X138183630Y-112490714D01*
X138183630Y-114014523D02*
X138183630Y-113443095D01*
X138183630Y-113728809D02*
X137183630Y-113728809D01*
X137326488Y-113633571D01*
X137421726Y-113538333D01*
X137469345Y-113443095D01*
X137183630Y-114871666D02*
X137183630Y-114681190D01*
X137231250Y-114585952D01*
X137278869Y-114538333D01*
X137421726Y-114443095D01*
X137612202Y-114395476D01*
X137993154Y-114395476D01*
X138088392Y-114443095D01*
X138136011Y-114490714D01*
X138183630Y-114585952D01*
X138183630Y-114776428D01*
X138136011Y-114871666D01*
X138088392Y-114919285D01*
X137993154Y-114966904D01*
X137755059Y-114966904D01*
X137659821Y-114919285D01*
X137612202Y-114871666D01*
X137564583Y-114776428D01*
X137564583Y-114585952D01*
X137612202Y-114490714D01*
X137659821Y-114443095D01*
X137755059Y-114395476D01*
X161607142Y-156683333D02*
X161654761Y-156635714D01*
X161702380Y-156492857D01*
X161702380Y-156397619D01*
X161654761Y-156254761D01*
X161559523Y-156159523D01*
X161464285Y-156111904D01*
X161273809Y-156064285D01*
X161130952Y-156064285D01*
X160940476Y-156111904D01*
X160845238Y-156159523D01*
X160750000Y-156254761D01*
X160702380Y-156397619D01*
X160702380Y-156492857D01*
X160750000Y-156635714D01*
X160797619Y-156683333D01*
X160702380Y-157588095D02*
X160702380Y-157111904D01*
X161178571Y-157064285D01*
X161130952Y-157111904D01*
X161083333Y-157207142D01*
X161083333Y-157445238D01*
X161130952Y-157540476D01*
X161178571Y-157588095D01*
X161273809Y-157635714D01*
X161511904Y-157635714D01*
X161607142Y-157588095D01*
X161654761Y-157540476D01*
X161702380Y-157445238D01*
X161702380Y-157207142D01*
X161654761Y-157111904D01*
X161607142Y-157064285D01*
X328683630Y-112490714D02*
X327683630Y-112490714D01*
X327683630Y-112728809D01*
X327731250Y-112871666D01*
X327826488Y-112966904D01*
X327921726Y-113014523D01*
X328112202Y-113062142D01*
X328255059Y-113062142D01*
X328445535Y-113014523D01*
X328540773Y-112966904D01*
X328636011Y-112871666D01*
X328683630Y-112728809D01*
X328683630Y-112490714D01*
X327778869Y-113443095D02*
X327731250Y-113490714D01*
X327683630Y-113585952D01*
X327683630Y-113824047D01*
X327731250Y-113919285D01*
X327778869Y-113966904D01*
X327874107Y-114014523D01*
X327969345Y-114014523D01*
X328112202Y-113966904D01*
X328683630Y-113395476D01*
X328683630Y-114014523D01*
X327683630Y-114871666D02*
X327683630Y-114681190D01*
X327731250Y-114585952D01*
X327778869Y-114538333D01*
X327921726Y-114443095D01*
X328112202Y-114395476D01*
X328493154Y-114395476D01*
X328588392Y-114443095D01*
X328636011Y-114490714D01*
X328683630Y-114585952D01*
X328683630Y-114776428D01*
X328636011Y-114871666D01*
X328588392Y-114919285D01*
X328493154Y-114966904D01*
X328255059Y-114966904D01*
X328159821Y-114919285D01*
X328112202Y-114871666D01*
X328064583Y-114776428D01*
X328064583Y-114585952D01*
X328112202Y-114490714D01*
X328159821Y-114443095D01*
X328255059Y-114395476D01*
D12*
X270081250Y-115955000D02*
X270081250Y-112055000D01*
X270081250Y-115955000D02*
X268081250Y-115955000D01*
X268081250Y-115955000D02*
X268081250Y-112055000D01*
X303418750Y-173105000D02*
X301418750Y-173105000D01*
X301418750Y-173105000D02*
X301418750Y-169205000D01*
X303418750Y-173105000D02*
X303418750Y-169205000D01*
X196643750Y-135005000D02*
X196643750Y-131105000D01*
X198643750Y-135005000D02*
X196643750Y-135005000D01*
X198643750Y-135005000D02*
X198643750Y-131105000D01*
X171768750Y-169993750D02*
X171768750Y-174493750D01*
X171768750Y-174493750D02*
X166368750Y-174493750D01*
X164247500Y-159282498D02*
X164247500Y-159805002D01*
X162777500Y-159282498D02*
X162777500Y-159805002D01*
X176779186Y-155570000D02*
X177233314Y-155570000D01*
X176779186Y-157040000D02*
X177233314Y-157040000D01*
X212931250Y-115955000D02*
X212931250Y-112055000D01*
X212931250Y-115955000D02*
X210931250Y-115955000D01*
X210931250Y-115955000D02*
X210931250Y-112055000D01*
X89837500Y-99796250D02*
X92837500Y-99796250D01*
X91137500Y-102916250D02*
X89837500Y-102916250D01*
X157103750Y-159282498D02*
X157103750Y-159805002D01*
X155633750Y-159282498D02*
X155633750Y-159805002D01*
X83285000Y-89127064D02*
X83285000Y-88672936D01*
X81815000Y-89127064D02*
X81815000Y-88672936D01*
X289131250Y-115955000D02*
X289131250Y-112055000D01*
X289131250Y-115955000D02*
X287131250Y-115955000D01*
X287131250Y-115955000D02*
X287131250Y-112055000D01*
X274843750Y-135005000D02*
X274843750Y-131105000D01*
X274843750Y-135005000D02*
X272843750Y-135005000D01*
X272843750Y-135005000D02*
X272843750Y-131105000D01*
X306181250Y-115955000D02*
X306181250Y-112055000D01*
X308181250Y-115955000D02*
X306181250Y-115955000D01*
X308181250Y-115955000D02*
X308181250Y-112055000D01*
X344281250Y-96905000D02*
X344281250Y-93005000D01*
X346281250Y-96905000D02*
X344281250Y-96905000D01*
X346281250Y-96905000D02*
X346281250Y-93005000D01*
X284368750Y-173105000D02*
X282368750Y-173105000D01*
X282368750Y-173105000D02*
X282368750Y-169205000D01*
X284368750Y-173105000D02*
X284368750Y-169205000D01*
X203406250Y-96905000D02*
X201406250Y-96905000D01*
X203406250Y-96905000D02*
X203406250Y-93005000D01*
X201406250Y-96905000D02*
X201406250Y-93005000D01*
X130043750Y-138350000D02*
X126143750Y-138350000D01*
X130043750Y-136350000D02*
X126143750Y-136350000D01*
X130043750Y-136350000D02*
X130043750Y-138350000D01*
X229981250Y-115955000D02*
X229981250Y-112055000D01*
X231981250Y-115955000D02*
X231981250Y-112055000D01*
X231981250Y-115955000D02*
X229981250Y-115955000D01*
X115756250Y-95300000D02*
X111856250Y-95300000D01*
X115756250Y-97300000D02*
X111856250Y-97300000D01*
X115756250Y-95300000D02*
X115756250Y-97300000D01*
X208168750Y-154055000D02*
X206168750Y-154055000D01*
X208168750Y-154055000D02*
X208168750Y-150155000D01*
X206168750Y-154055000D02*
X206168750Y-150155000D01*
X97837500Y-101731250D02*
X97837500Y-105631250D01*
X95837500Y-101731250D02*
X95837500Y-105631250D01*
X95837500Y-101731250D02*
X97837500Y-101731250D01*
X351043750Y-115955000D02*
X349043750Y-115955000D01*
X349043750Y-115955000D02*
X349043750Y-112055000D01*
X351043750Y-115955000D02*
X351043750Y-112055000D01*
X184356250Y-96905000D02*
X184356250Y-93005000D01*
X184356250Y-96905000D02*
X182356250Y-96905000D01*
X182356250Y-96905000D02*
X182356250Y-93005000D01*
X243887500Y-173105000D02*
X243887500Y-169205000D01*
X241887500Y-173105000D02*
X241887500Y-169205000D01*
X243887500Y-173105000D02*
X241887500Y-173105000D01*
X103775000Y-173105000D02*
X103775000Y-169205000D01*
X105775000Y-173105000D02*
X105775000Y-169205000D01*
X105775000Y-173105000D02*
X103775000Y-173105000D01*
X127206250Y-96905000D02*
X125206250Y-96905000D01*
X125206250Y-96905000D02*
X125206250Y-93005000D01*
X127206250Y-96905000D02*
X127206250Y-93005000D01*
X164365000Y-172526248D02*
X164365000Y-173048752D01*
X165835000Y-172526248D02*
X165835000Y-173048752D01*
X146256250Y-173105000D02*
X144256250Y-173105000D01*
X144256250Y-173105000D02*
X144256250Y-169205000D01*
X146256250Y-173105000D02*
X146256250Y-169205000D01*
X320468750Y-173105000D02*
X320468750Y-169205000D01*
X322468750Y-173105000D02*
X322468750Y-169205000D01*
X322468750Y-173105000D02*
X320468750Y-173105000D01*
D11*
X172587500Y-159887500D02*
X172912500Y-159887500D01*
X179837500Y-159887500D02*
X179837500Y-160212500D01*
X172587500Y-167137500D02*
X172587500Y-166912500D01*
X172587500Y-166912500D02*
X171162500Y-166912500D01*
X172587500Y-167137500D02*
X172912500Y-167137500D01*
X172587500Y-159887500D02*
X172587500Y-160212500D01*
X179837500Y-159887500D02*
X179512500Y-159887500D01*
X179837500Y-167137500D02*
X179837500Y-166812500D01*
X179837500Y-167137500D02*
X179512500Y-167137500D01*
D12*
X139537500Y-157400000D02*
X135637500Y-157400000D01*
X139537500Y-155400000D02*
X139537500Y-157400000D01*
X139537500Y-155400000D02*
X135637500Y-155400000D01*
X343900000Y-135005000D02*
X343900000Y-131105000D01*
X341900000Y-135005000D02*
X341900000Y-131105000D01*
X343900000Y-135005000D02*
X341900000Y-135005000D01*
X246268750Y-154055000D02*
X244268750Y-154055000D01*
X246268750Y-154055000D02*
X246268750Y-150155000D01*
X244268750Y-154055000D02*
X244268750Y-150155000D01*
X160543750Y-135005000D02*
X158543750Y-135005000D01*
X160543750Y-135005000D02*
X160543750Y-131105000D01*
X158543750Y-135005000D02*
X158543750Y-131105000D01*
X227218750Y-154055000D02*
X225218750Y-154055000D01*
X227218750Y-154055000D02*
X227218750Y-150155000D01*
X225218750Y-154055000D02*
X225218750Y-150155000D01*
X174831250Y-115955000D02*
X174831250Y-112055000D01*
X172831250Y-115955000D02*
X172831250Y-112055000D01*
X174831250Y-115955000D02*
X172831250Y-115955000D01*
D13*
X217011750Y-170594500D02*
X217011750Y-167072608D01*
X213200750Y-167072608D02*
X213200750Y-170594500D01*
X216796428Y-166298268D02*
X216163453Y-165248123D01*
X215114299Y-164655500D02*
X215098201Y-164655500D01*
X214500751Y-171894500D02*
X215711749Y-171894500D01*
X214049047Y-165248123D02*
X213416072Y-166298268D01*
X215711748Y-171894500D02*
G75*
G03*
X217011750Y-170594500I2J1300000D01*
G01*
X213416072Y-166298268D02*
G75*
G03*
X213200750Y-167072608I1284686J-774342D01*
G01*
X215098201Y-164655500D02*
G75*
G03*
X214049047Y-165248123I0J-1225000D01*
G01*
X217011750Y-167072608D02*
G75*
G03*
X216796428Y-166298268I-1500008J-2D01*
G01*
X213200750Y-170594501D02*
G75*
G03*
X214500751Y-171894500I1300000J1D01*
G01*
X216163453Y-165248123D02*
G75*
G03*
X215114299Y-164655500I-1049152J-632373D01*
G01*
D12*
X125281250Y-117300000D02*
X121381250Y-117300000D01*
X125281250Y-119300000D02*
X121381250Y-119300000D01*
X125281250Y-117300000D02*
X125281250Y-119300000D01*
D13*
X94770000Y-88081250D02*
X94770000Y-86831250D01*
X85190000Y-82831250D02*
X94770000Y-82831250D01*
X94770000Y-82831250D02*
X94770000Y-84111250D01*
X85190000Y-84111250D02*
X85190000Y-82831250D01*
X85190000Y-88081250D02*
X85190000Y-86831250D01*
D12*
X322468750Y-154055000D02*
X322468750Y-150155000D01*
X322468750Y-154055000D02*
X320468750Y-154055000D01*
X320468750Y-154055000D02*
X320468750Y-150155000D01*
X255793750Y-135005000D02*
X253793750Y-135005000D01*
X253793750Y-135005000D02*
X253793750Y-131105000D01*
X255793750Y-135005000D02*
X255793750Y-131105000D01*
X155781250Y-115955000D02*
X155781250Y-112055000D01*
X153781250Y-115955000D02*
X153781250Y-112055000D01*
X155781250Y-115955000D02*
X153781250Y-115955000D01*
X312943750Y-135005000D02*
X310943750Y-135005000D01*
X310943750Y-135005000D02*
X310943750Y-131105000D01*
X312943750Y-135005000D02*
X312943750Y-131105000D01*
X168536252Y-176503750D02*
X168013748Y-176503750D01*
X168536252Y-175033750D02*
X168013748Y-175033750D01*
X150225000Y-173105000D02*
X148225000Y-173105000D01*
X148225000Y-173105000D02*
X148225000Y-169205000D01*
X150225000Y-173105000D02*
X150225000Y-169205000D01*
X165306250Y-96905000D02*
X163306250Y-96905000D01*
X163306250Y-96905000D02*
X163306250Y-93005000D01*
X165306250Y-96905000D02*
X165306250Y-93005000D01*
X241506250Y-96905000D02*
X239506250Y-96905000D01*
X241506250Y-96905000D02*
X241506250Y-93005000D01*
X239506250Y-96905000D02*
X239506250Y-93005000D01*
X298656250Y-96905000D02*
X298656250Y-93005000D01*
X298656250Y-96905000D02*
X296656250Y-96905000D01*
X296656250Y-96905000D02*
X296656250Y-93005000D01*
X348662500Y-154055000D02*
X346662500Y-154055000D01*
X346662500Y-154055000D02*
X346662500Y-150155000D01*
X348662500Y-154055000D02*
X348662500Y-150155000D01*
X224970000Y-166031250D02*
X224970000Y-168931250D01*
X224970000Y-168931250D02*
X224480000Y-169421250D01*
X219530000Y-168931250D02*
X220020000Y-169421250D01*
X219530000Y-166031250D02*
X220020000Y-165541250D01*
X223290000Y-164761250D02*
X221210000Y-164761250D01*
X223290000Y-170201250D02*
X221210000Y-170201250D01*
X224970000Y-166031250D02*
X224480000Y-165541250D01*
X219530000Y-166031250D02*
X219530000Y-168931250D01*
X187118750Y-154055000D02*
X187118750Y-150155000D01*
X189118750Y-154055000D02*
X187118750Y-154055000D01*
X189118750Y-154055000D02*
X189118750Y-150155000D01*
X127206250Y-173105000D02*
X125206250Y-173105000D01*
X127206250Y-173105000D02*
X127206250Y-169205000D01*
X125206250Y-173105000D02*
X125206250Y-169205000D01*
X260556250Y-96905000D02*
X260556250Y-93005000D01*
X260556250Y-96905000D02*
X258556250Y-96905000D01*
X258556250Y-96905000D02*
X258556250Y-93005000D01*
X174997500Y-173604186D02*
X174997500Y-174058314D01*
X173527500Y-173604186D02*
X173527500Y-174058314D01*
X144256250Y-96905000D02*
X144256250Y-93005000D01*
X146256250Y-96905000D02*
X144256250Y-96905000D01*
X146256250Y-96905000D02*
X146256250Y-93005000D01*
X130043750Y-133400000D02*
X130043750Y-135400000D01*
X130043750Y-135400000D02*
X126143750Y-135400000D01*
X130043750Y-133400000D02*
X126143750Y-133400000D01*
X168068750Y-154055000D02*
X168068750Y-150155000D01*
X170068750Y-154055000D02*
X170068750Y-150155000D01*
X170068750Y-154055000D02*
X168068750Y-154055000D01*
X284368750Y-154055000D02*
X284368750Y-150155000D01*
X282368750Y-154055000D02*
X282368750Y-150155000D01*
X284368750Y-154055000D02*
X282368750Y-154055000D01*
X141493750Y-135005000D02*
X141493750Y-131105000D01*
X141493750Y-135005000D02*
X139493750Y-135005000D01*
X139493750Y-135005000D02*
X139493750Y-131105000D01*
X217693750Y-135005000D02*
X215693750Y-135005000D01*
X217693750Y-135005000D02*
X217693750Y-131105000D01*
X215693750Y-135005000D02*
X215693750Y-131105000D01*
X125281250Y-114350000D02*
X125281250Y-116350000D01*
X125281250Y-114350000D02*
X121381250Y-114350000D01*
X125281250Y-116350000D02*
X121381250Y-116350000D01*
X341518750Y-173105000D02*
X341518750Y-169205000D01*
X339518750Y-173105000D02*
X339518750Y-169205000D01*
X341518750Y-173105000D02*
X339518750Y-173105000D01*
X159485000Y-159282498D02*
X159485000Y-159805002D01*
X158015000Y-159282498D02*
X158015000Y-159805002D01*
X139537500Y-154450000D02*
X135637500Y-154450000D01*
X139537500Y-152450000D02*
X139537500Y-154450000D01*
X139537500Y-152450000D02*
X135637500Y-152450000D01*
X100922500Y-104583314D02*
X100922500Y-103379186D01*
X99102500Y-104583314D02*
X99102500Y-103379186D01*
X315706250Y-96905000D02*
X315706250Y-93005000D01*
X317706250Y-96905000D02*
X315706250Y-96905000D01*
X317706250Y-96905000D02*
X317706250Y-93005000D01*
X151018750Y-154055000D02*
X151018750Y-150155000D01*
X151018750Y-154055000D02*
X149018750Y-154055000D01*
X149018750Y-154055000D02*
X149018750Y-150155000D01*
X97747500Y-87271008D02*
X97747500Y-88941492D01*
X95927500Y-87271008D02*
X95927500Y-88941492D01*
X234743750Y-135005000D02*
X234743750Y-131105000D01*
X236743750Y-135005000D02*
X236743750Y-131105000D01*
X236743750Y-135005000D02*
X234743750Y-135005000D01*
X291893750Y-135005000D02*
X291893750Y-131105000D01*
X293893750Y-135005000D02*
X293893750Y-131105000D01*
X293893750Y-135005000D02*
X291893750Y-135005000D01*
X249031250Y-115955000D02*
X249031250Y-112055000D01*
X251031250Y-115955000D02*
X251031250Y-112055000D01*
X251031250Y-115955000D02*
X249031250Y-115955000D01*
X80903750Y-89127064D02*
X80903750Y-88672936D01*
X79433750Y-89127064D02*
X79433750Y-88672936D01*
X179593750Y-135005000D02*
X179593750Y-131105000D01*
X179593750Y-135005000D02*
X177593750Y-135005000D01*
X177593750Y-135005000D02*
X177593750Y-131105000D01*
X222456250Y-96905000D02*
X220456250Y-96905000D01*
X222456250Y-96905000D02*
X222456250Y-93005000D01*
X220456250Y-96905000D02*
X220456250Y-93005000D01*
X263318750Y-173105000D02*
X263318750Y-169205000D01*
X265318750Y-173105000D02*
X265318750Y-169205000D01*
X265318750Y-173105000D02*
X263318750Y-173105000D01*
X175827500Y-173604186D02*
X175827500Y-174058314D01*
X177297500Y-173604186D02*
X177297500Y-174058314D01*
X193881250Y-115955000D02*
X193881250Y-112055000D01*
X191881250Y-115955000D02*
X191881250Y-112055000D01*
X193881250Y-115955000D02*
X191881250Y-115955000D01*
X265318750Y-154055000D02*
X263318750Y-154055000D01*
X263318750Y-154055000D02*
X263318750Y-150155000D01*
X265318750Y-154055000D02*
X265318750Y-150155000D01*
X277606250Y-96905000D02*
X277606250Y-93005000D01*
X279606250Y-96905000D02*
X277606250Y-96905000D01*
X279606250Y-96905000D02*
X279606250Y-93005000D01*
X303418750Y-154055000D02*
X303418750Y-150155000D01*
X301418750Y-154055000D02*
X301418750Y-150155000D01*
X303418750Y-154055000D02*
X301418750Y-154055000D01*
X178855002Y-169921250D02*
X178332498Y-169921250D01*
X178855002Y-171391250D02*
X178332498Y-171391250D01*
X115756250Y-98250000D02*
X115756250Y-100250000D01*
X115756250Y-100250000D02*
X111856250Y-100250000D01*
X115756250Y-98250000D02*
X111856250Y-98250000D01*
X246837500Y-173105000D02*
X246837500Y-169205000D01*
X244837500Y-173105000D02*
X244837500Y-169205000D01*
X246837500Y-173105000D02*
X244837500Y-173105000D01*
X212666250Y-165666686D02*
X212666250Y-166120814D01*
X211196250Y-165666686D02*
X211196250Y-166120814D01*
X134731250Y-115955000D02*
X134731250Y-112055000D01*
X136731250Y-115955000D02*
X134731250Y-115955000D01*
X136731250Y-115955000D02*
X136731250Y-112055000D01*
X161866250Y-159282498D02*
X161866250Y-159805002D01*
X160396250Y-159282498D02*
X160396250Y-159805002D01*
X327231250Y-115955000D02*
X325231250Y-115955000D01*
X327231250Y-115955000D02*
X327231250Y-112055000D01*
X325231250Y-115955000D02*
X325231250Y-112055000D01*
M02*
