G04 #@! TF.GenerationSoftware,KiCad,Pcbnew,(6.0.10)*
G04 #@! TF.CreationDate,2023-01-06T17:15:24+11:00*
G04 #@! TF.ProjectId,exp60,65787036-302e-46b6-9963-61645f706362,rev?*
G04 #@! TF.SameCoordinates,Original*
G04 #@! TF.FileFunction,Copper,L1,Top*
G04 #@! TF.FilePolarity,Positive*
%FSLAX46Y46*%
G04 Gerber Fmt 4.6, Leading zero omitted, Abs format (unit mm)*
G04 Created by KiCad (PCBNEW (6.0.10)) date 2023-01-06 17:15:24*
%MOMM*%
%LPD*%
G01*
G04 APERTURE LIST*
G04 #@! TA.AperFunction,ComponentPad*
%ADD10O,1.050000X2.100000*%
G04 #@! TD*
G04 #@! TA.AperFunction,ComponentPad*
%ADD11O,1.000000X2.000000*%
G04 #@! TD*
G04 #@! TA.AperFunction,ViaPad*
%ADD12C,0.600000*%
G04 #@! TD*
G04 #@! TA.AperFunction,Conductor*
%ADD13C,0.381000*%
G04 #@! TD*
G04 #@! TA.AperFunction,Conductor*
%ADD14C,0.250000*%
G04 #@! TD*
G04 #@! TA.AperFunction,Conductor*
%ADD15C,0.261112*%
G04 #@! TD*
G04 APERTURE END LIST*
D10*
X85660000Y-89611250D03*
D11*
X85660000Y-85431250D03*
X94300000Y-85431250D03*
D10*
X94300000Y-89611250D03*
D12*
X205581250Y-173037500D03*
X92868750Y-94456250D03*
X176437000Y-170656250D03*
X169007205Y-163568292D03*
X87906471Y-93862279D03*
X174625000Y-156368750D03*
X169007205Y-168213455D03*
X170262500Y-163912500D03*
X205000250Y-172347500D03*
X174388000Y-169862500D03*
X88797500Y-98425000D03*
X92868750Y-96043750D03*
X93662500Y-118268750D03*
X105568750Y-118268750D03*
X111125000Y-137318750D03*
X101600000Y-137318750D03*
X115093750Y-156368750D03*
X106362500Y-156368750D03*
X204787500Y-164306250D03*
X213518750Y-162718750D03*
X95250000Y-100806250D03*
X91360056Y-94552279D03*
X89487500Y-97043750D03*
X87312500Y-100806250D03*
X292100000Y-111918750D03*
X217487500Y-166687500D03*
X301625000Y-92868750D03*
X306387500Y-164306250D03*
X306387500Y-150018750D03*
X296862500Y-130968750D03*
X306387500Y-154079500D03*
X217487500Y-157956250D03*
X263525000Y-92868750D03*
X217487500Y-168275000D03*
X268287500Y-150018750D03*
X268287500Y-154079500D03*
X254000000Y-111918750D03*
X268287500Y-164306250D03*
X258762500Y-130968750D03*
X218455750Y-155855750D03*
X287337500Y-150018750D03*
X277812500Y-130968750D03*
X287337500Y-164306250D03*
X287337500Y-154079500D03*
X214312500Y-156368750D03*
X273050000Y-111918750D03*
X212725000Y-168275000D03*
X282575000Y-92868750D03*
X187881250Y-173419250D03*
X187325000Y-172243750D03*
X115049036Y-159499036D03*
X77787500Y-111918750D03*
X108743750Y-161925000D03*
X74612500Y-100806250D03*
X80168750Y-130968750D03*
X84931250Y-150018750D03*
X108699036Y-161086536D03*
X115138546Y-158704560D03*
X94456250Y-101600000D03*
X89693750Y-164306250D03*
X79375000Y-123031250D03*
X96043750Y-161131250D03*
X80962500Y-121443750D03*
X101600000Y-111918750D03*
X115887500Y-157956250D03*
X111125000Y-164306250D03*
X106362500Y-130968750D03*
X115887500Y-150018750D03*
X111125000Y-92868750D03*
X125412500Y-130968750D03*
X130175000Y-164306250D03*
X120650000Y-111918750D03*
X130175000Y-92868750D03*
X134937500Y-158297500D03*
X134937500Y-150018750D03*
X149225000Y-92868750D03*
X144462500Y-130968750D03*
X153987500Y-154079500D03*
X139700000Y-111918750D03*
X151606250Y-164306250D03*
X153987500Y-150018750D03*
X173037500Y-154079500D03*
X168275000Y-92868750D03*
X158750000Y-111918750D03*
X163512500Y-130968750D03*
X173037500Y-150018750D03*
X182562500Y-130968750D03*
X189706250Y-164306250D03*
X177800000Y-111918750D03*
X187325000Y-92868750D03*
X192087500Y-150018750D03*
X192087500Y-154079500D03*
X196850000Y-111918750D03*
X201612500Y-130968750D03*
X211137500Y-150018750D03*
X211137500Y-154079500D03*
X206375000Y-92868750D03*
X230187500Y-150018750D03*
X225425000Y-92868750D03*
X230187500Y-154079500D03*
X220662500Y-130968750D03*
X215900000Y-111918750D03*
X227806250Y-164306250D03*
X239712500Y-130968750D03*
X249237500Y-154079500D03*
X249237500Y-164306250D03*
X249237500Y-150018750D03*
X234950000Y-111918750D03*
X244475000Y-92868750D03*
X311150000Y-111918750D03*
X330993750Y-154079500D03*
X325437500Y-164306250D03*
X327818750Y-130968750D03*
X334962500Y-111918750D03*
X330200000Y-92868750D03*
X332581250Y-154079500D03*
X332581250Y-150018750D03*
X177800000Y-153455000D03*
X182150000Y-161512500D03*
X203993750Y-134405000D03*
X210343750Y-157162500D03*
X229393750Y-156755750D03*
X218281250Y-115355000D03*
X240506250Y-97631250D03*
X248443750Y-156368750D03*
X91281250Y-104775000D03*
X176212500Y-176212500D03*
X146843750Y-167481250D03*
X91281250Y-103351194D03*
X147643253Y-167481250D03*
X174625000Y-176212500D03*
X91360056Y-92868750D03*
X80168750Y-86518750D03*
X84137500Y-87500000D03*
X88540052Y-92544244D03*
D13*
X173992485Y-170443500D02*
X174101985Y-170553000D01*
X174674015Y-170553000D02*
X174783515Y-170443500D01*
X92274779Y-93862279D02*
X92868750Y-94456250D01*
X169007205Y-168213455D02*
X171237250Y-170443500D01*
X191293750Y-173037500D02*
X205581250Y-173037500D01*
X169007205Y-159605295D02*
X172243750Y-156368750D01*
X188699750Y-170443500D02*
X191293750Y-173037500D01*
X169007205Y-168213455D02*
X169007205Y-163568292D01*
X169007205Y-163568292D02*
X169007205Y-159605295D01*
X174783515Y-170443500D02*
X176224250Y-170443500D01*
X172243750Y-156368750D02*
X174625000Y-156368750D01*
X87906471Y-93862279D02*
X92274779Y-93862279D01*
X174101985Y-170553000D02*
X174674015Y-170553000D01*
X176224250Y-170443500D02*
X176437000Y-170656250D01*
X176649750Y-170443500D02*
X188699750Y-170443500D01*
X171237250Y-170443500D02*
X173992485Y-170443500D01*
X176437000Y-170656250D02*
X176649750Y-170443500D01*
X169588205Y-164586795D02*
X169588205Y-167817940D01*
X191534408Y-172456500D02*
X204891250Y-172456500D01*
X204891250Y-172456500D02*
X205000250Y-172347500D01*
X170262500Y-163912500D02*
X169588205Y-164586795D01*
X188940408Y-169862500D02*
X191534408Y-172456500D01*
X171477908Y-169862500D02*
X174388000Y-169862500D01*
X169697705Y-167927440D02*
X169697705Y-168082297D01*
X174388000Y-169862500D02*
X188940408Y-169862500D01*
X169588205Y-167817940D02*
X169697705Y-167927440D01*
X169697705Y-168082297D02*
X171477908Y-169862500D01*
D14*
X92868750Y-96043750D02*
X92075000Y-96043750D01*
X89693750Y-98425000D02*
X88797500Y-98425000D01*
X92075000Y-96043750D02*
X89693750Y-98425000D01*
X93662500Y-118268750D02*
X105568750Y-118268750D01*
X101600000Y-137318750D02*
X111125000Y-137318750D01*
X106362500Y-156368750D02*
X115093750Y-156368750D01*
X211931250Y-162718750D02*
X210343750Y-164306250D01*
X210343750Y-164306250D02*
X204787500Y-164306250D01*
X213518750Y-162718750D02*
X211931250Y-162718750D01*
D13*
X91360056Y-94552279D02*
X91360056Y-95171194D01*
X91360056Y-95171194D02*
X89487500Y-97043750D01*
X87312500Y-100806250D02*
X95250000Y-100806250D01*
D14*
X292100000Y-106362500D02*
X301625000Y-96837500D01*
X296862500Y-116681250D02*
X292100000Y-111918750D01*
X292100000Y-111918750D02*
X292100000Y-106362500D01*
X296862500Y-130968750D02*
X296862500Y-116681250D01*
X217487500Y-157956250D02*
X217487500Y-166687500D01*
X306387500Y-150018750D02*
X306387500Y-140493750D01*
X306387500Y-164306250D02*
X306387500Y-150018750D01*
X301625000Y-96837500D02*
X301625000Y-92868750D01*
X306387500Y-140493750D02*
X296862500Y-130968750D01*
X268287500Y-164306250D02*
X268287500Y-150018750D01*
X254000000Y-106362500D02*
X263525000Y-96837500D01*
X263525000Y-96837500D02*
X263525000Y-92868750D01*
X254000000Y-111918750D02*
X254000000Y-106362500D01*
X258762500Y-130968750D02*
X258762500Y-116681250D01*
X218455750Y-167306750D02*
X217487500Y-168275000D01*
X268287500Y-140493750D02*
X258762500Y-130968750D01*
X268287500Y-150018750D02*
X268287500Y-140493750D01*
X218455750Y-155855750D02*
X218455750Y-167306750D01*
X258762500Y-116681250D02*
X254000000Y-111918750D01*
X273050000Y-111918750D02*
X273050000Y-106362500D01*
X282575000Y-96837500D02*
X282575000Y-92868750D01*
X287337500Y-164306250D02*
X287337500Y-150018750D01*
X287337500Y-140493750D02*
X277812500Y-130968750D01*
X277812500Y-130968750D02*
X277812500Y-116681250D01*
X287337500Y-150018750D02*
X287337500Y-140493750D01*
X273050000Y-106362500D02*
X282575000Y-96837500D01*
X212725000Y-166885458D02*
X212725000Y-168275000D01*
X214312500Y-165297958D02*
X212725000Y-166885458D01*
X214312500Y-156368750D02*
X214312500Y-165297958D01*
X277812500Y-116681250D02*
X273050000Y-111918750D01*
X187881250Y-172800000D02*
X187325000Y-172243750D01*
X187881250Y-173419250D02*
X187881250Y-172800000D01*
X115004322Y-159543750D02*
X111125000Y-159543750D01*
X84931250Y-135731250D02*
X80168750Y-130968750D01*
X84931250Y-150018750D02*
X84931250Y-135731250D01*
X115049036Y-159499036D02*
X115004322Y-159543750D01*
X77787500Y-111918750D02*
X77787500Y-103981250D01*
X80168750Y-114300000D02*
X77787500Y-111918750D01*
X111125000Y-159543750D02*
X108743750Y-161925000D01*
X80168750Y-130968750D02*
X80168750Y-114300000D01*
X77787500Y-103981250D02*
X74612500Y-100806250D01*
X80157354Y-131593750D02*
X79909866Y-131593750D01*
X80962500Y-121443750D02*
X82550000Y-119856250D01*
X90487500Y-164306250D02*
X93662500Y-161131250D01*
X82550000Y-119856250D02*
X86011250Y-119856250D01*
X89693750Y-164306250D02*
X88900000Y-164306250D01*
X79718750Y-123375000D02*
X79375000Y-123031250D01*
X114570438Y-159093750D02*
X110781250Y-159093750D01*
X93662500Y-102393750D02*
X94456250Y-101600000D01*
X88900000Y-164306250D02*
X84306250Y-159712500D01*
X89693750Y-164306250D02*
X90487500Y-164306250D01*
X84306250Y-159712500D02*
X84306250Y-149759866D01*
X79543750Y-131227634D02*
X79543750Y-130709866D01*
X86011250Y-119856250D02*
X93662500Y-112205000D01*
X110781250Y-159093750D02*
X108788464Y-161086536D01*
X79909866Y-131593750D02*
X79543750Y-131227634D01*
X93662500Y-161131250D02*
X96043750Y-161131250D01*
X93662500Y-112205000D02*
X93662500Y-102393750D01*
X79718750Y-130534866D02*
X79718750Y-123375000D01*
X84481250Y-135917646D02*
X80157354Y-131593750D01*
X84306250Y-149759866D02*
X84481250Y-149584866D01*
X79543750Y-130709866D02*
X79718750Y-130534866D01*
X84481250Y-149584866D02*
X84481250Y-135917646D01*
X115138546Y-158704560D02*
X114959628Y-158704560D01*
X108788464Y-161086536D02*
X108699036Y-161086536D01*
X114959628Y-158704560D02*
X114570438Y-159093750D01*
X106362500Y-130968750D02*
X106362500Y-116681250D01*
X115887500Y-159543750D02*
X115887500Y-150018750D01*
X115887500Y-140493750D02*
X106362500Y-130968750D01*
X101600000Y-106362500D02*
X111125000Y-96837500D01*
X111125000Y-96837500D02*
X111125000Y-92868750D01*
X111125000Y-164306250D02*
X115887500Y-159543750D01*
X106362500Y-116681250D02*
X101600000Y-111918750D01*
X101600000Y-111918750D02*
X101600000Y-106362500D01*
X115887500Y-150018750D02*
X115887500Y-140493750D01*
X130175000Y-96837500D02*
X130175000Y-92868750D01*
X120650000Y-111918750D02*
X120650000Y-106362500D01*
X134937500Y-140493750D02*
X125412500Y-130968750D01*
X134937500Y-159543750D02*
X134937500Y-150018750D01*
X120650000Y-106362500D02*
X130175000Y-96837500D01*
X125412500Y-116681250D02*
X120650000Y-111918750D01*
X125412500Y-130968750D02*
X125412500Y-116681250D01*
X134937500Y-150018750D02*
X134937500Y-140493750D01*
X130175000Y-164306250D02*
X134937500Y-159543750D01*
X153987500Y-150018750D02*
X153987500Y-140493750D01*
X153987500Y-159543750D02*
X153987500Y-150018750D01*
X139700000Y-106362500D02*
X149225000Y-96837500D01*
X151606250Y-161925000D02*
X153987500Y-159543750D01*
X144462500Y-116681250D02*
X139700000Y-111918750D01*
X153987500Y-140493750D02*
X144462500Y-130968750D01*
X139700000Y-111918750D02*
X139700000Y-106362500D01*
X144462500Y-130968750D02*
X144462500Y-116681250D01*
X151606250Y-164306250D02*
X151606250Y-161925000D01*
X149225000Y-96837500D02*
X149225000Y-92868750D01*
X168275000Y-96837500D02*
X168275000Y-92868750D01*
X173037500Y-140493750D02*
X163512500Y-130968750D01*
X173037500Y-150018750D02*
X173037500Y-140493750D01*
X163512500Y-116681250D02*
X158750000Y-111918750D01*
X158750000Y-111918750D02*
X158750000Y-106362500D01*
X158750000Y-106362500D02*
X168275000Y-96837500D01*
X173037500Y-150018750D02*
X173037500Y-154079500D01*
X163512500Y-130968750D02*
X163512500Y-116681250D01*
X182562500Y-116681250D02*
X182562500Y-130968750D01*
X192087500Y-150018750D02*
X192087500Y-160337500D01*
X192087500Y-150018750D02*
X192087500Y-140493750D01*
X187325000Y-96837500D02*
X187325000Y-92868750D01*
X177800000Y-111918750D02*
X182562500Y-116681250D01*
X177800000Y-111918750D02*
X177800000Y-106362500D01*
X192087500Y-140493750D02*
X182562500Y-130968750D01*
X177800000Y-106362500D02*
X187325000Y-96837500D01*
X192087500Y-160337500D02*
X189706250Y-162718750D01*
X189706250Y-162718750D02*
X189706250Y-164306250D01*
X196850000Y-111918750D02*
X196850000Y-106362500D01*
X201612500Y-116681250D02*
X196850000Y-111918750D01*
X196850000Y-106362500D02*
X206375000Y-96837500D01*
X211137500Y-140493750D02*
X201612500Y-130968750D01*
X211137500Y-150018750D02*
X211137500Y-154079500D01*
X211137500Y-150018750D02*
X211137500Y-140493750D01*
X201612500Y-130968750D02*
X201612500Y-116681250D01*
X206375000Y-96837500D02*
X206375000Y-92868750D01*
X230187500Y-150018750D02*
X230187500Y-140493750D01*
X220662500Y-116681250D02*
X215900000Y-111918750D01*
X227806250Y-164306250D02*
X227806250Y-161925000D01*
X230187500Y-140493750D02*
X220662500Y-130968750D01*
X215900000Y-111918750D02*
X215900000Y-106362500D01*
X215900000Y-106362500D02*
X225425000Y-96837500D01*
X227806250Y-161925000D02*
X230187500Y-159543750D01*
X220662500Y-130968750D02*
X220662500Y-116681250D01*
X230187500Y-159543750D02*
X230187500Y-150018750D01*
X225425000Y-96837500D02*
X225425000Y-92868750D01*
X249237500Y-164306250D02*
X249237500Y-150018750D01*
X244475000Y-96837500D02*
X244475000Y-92868750D01*
X239712500Y-116681250D02*
X234950000Y-111918750D01*
X239712500Y-130968750D02*
X239712500Y-116681250D01*
X234950000Y-106362500D02*
X244475000Y-96837500D01*
X249237500Y-150018750D02*
X249237500Y-140493750D01*
X234950000Y-111918750D02*
X234950000Y-106362500D01*
X249237500Y-140493750D02*
X239712500Y-130968750D01*
X332131250Y-149584866D02*
X332131250Y-140680146D01*
X331956250Y-150277634D02*
X331956250Y-149759866D01*
X332131250Y-150452634D02*
X331956250Y-150277634D01*
X332131250Y-152942000D02*
X332131250Y-150452634D01*
X332131250Y-140680146D02*
X327818750Y-136367646D01*
X320675000Y-121443750D02*
X311150000Y-111918750D01*
X331956250Y-149759866D02*
X332131250Y-149584866D01*
X327818750Y-130968750D02*
X327818750Y-124618750D01*
X327818750Y-136367646D02*
X327818750Y-130968750D01*
X324643750Y-121443750D02*
X320675000Y-121443750D01*
X330993750Y-154079500D02*
X325437500Y-159635750D01*
X327818750Y-124618750D02*
X324643750Y-121443750D01*
X325437500Y-159635750D02*
X325437500Y-164306250D01*
X330993750Y-154079500D02*
X332131250Y-152942000D01*
X328268750Y-131402634D02*
X328268750Y-136181250D01*
X328268750Y-130534866D02*
X328443750Y-130709866D01*
X328443750Y-131227634D02*
X328268750Y-131402634D01*
X332581250Y-140493750D02*
X332581250Y-150018750D01*
X330200000Y-96837500D02*
X330200000Y-92868750D01*
X328268750Y-124962500D02*
X328268750Y-130534866D01*
X334962500Y-111918750D02*
X334962500Y-118268750D01*
X334962500Y-111918750D02*
X334962500Y-101600000D01*
X328443750Y-130709866D02*
X328443750Y-131227634D01*
X334962500Y-101600000D02*
X330200000Y-96837500D01*
X332581250Y-154079500D02*
X332581250Y-150018750D01*
X334962500Y-118268750D02*
X328268750Y-124962500D01*
X328268750Y-136181250D02*
X332581250Y-140493750D01*
X182150000Y-161512500D02*
X182150000Y-158337500D01*
X177800000Y-153987500D02*
X177800000Y-153455000D01*
X182150000Y-158337500D02*
X177800000Y-153987500D01*
X210687500Y-140680146D02*
X210687500Y-149584866D01*
X210512500Y-149759866D02*
X210512500Y-150277634D01*
X210687500Y-150452634D02*
X210687500Y-153645616D01*
X210512500Y-150277634D02*
X210687500Y-150452634D01*
X210687500Y-153645616D02*
X210343750Y-153989366D01*
X210687500Y-149584866D02*
X210512500Y-149759866D01*
X203993750Y-134405000D02*
X204412354Y-134405000D01*
X204412354Y-134405000D02*
X210687500Y-140680146D01*
X210343750Y-153989366D02*
X210343750Y-157162500D01*
X229737500Y-149584866D02*
X229562500Y-149759866D01*
X220037500Y-130709866D02*
X220037500Y-131227634D01*
X220651104Y-131593750D02*
X229737500Y-140680146D01*
X229562500Y-149759866D02*
X229562500Y-150277634D01*
X229562500Y-153820616D02*
X229562500Y-154338384D01*
X220212500Y-130534866D02*
X220037500Y-130709866D01*
X218281250Y-115355000D02*
X218699854Y-115355000D01*
X229562500Y-154338384D02*
X229737500Y-154513384D01*
X229737500Y-150452634D02*
X229737500Y-153645616D01*
X220403616Y-131593750D02*
X220651104Y-131593750D01*
X229737500Y-156412000D02*
X229393750Y-156755750D01*
X229562500Y-150277634D02*
X229737500Y-150452634D01*
X220212500Y-116867646D02*
X220212500Y-130534866D01*
X229737500Y-154513384D02*
X229737500Y-156412000D01*
X218699854Y-115355000D02*
X220212500Y-116867646D01*
X229737500Y-140680146D02*
X229737500Y-149584866D01*
X229737500Y-153645616D02*
X229562500Y-153820616D01*
X220037500Y-131227634D02*
X220403616Y-131593750D01*
X234691116Y-112543750D02*
X234938604Y-112543750D01*
X248787500Y-154513384D02*
X248787500Y-156025000D01*
X248787500Y-140837500D02*
X248787500Y-149584866D01*
X239262500Y-130534866D02*
X239087500Y-130709866D01*
X234325000Y-111659866D02*
X234325000Y-112177634D01*
X248612500Y-149759866D02*
X248612500Y-150277634D01*
X248787500Y-150452634D02*
X248787500Y-153645616D01*
X234500000Y-111484866D02*
X234325000Y-111659866D01*
X239543750Y-131593750D02*
X248787500Y-140837500D01*
X239087500Y-130709866D02*
X239087500Y-131227634D01*
X248787500Y-153645616D02*
X248612500Y-153820616D01*
X240506250Y-97631250D02*
X240506250Y-100169854D01*
X234500000Y-106176104D02*
X234500000Y-111484866D01*
X234325000Y-112177634D02*
X234691116Y-112543750D01*
X234938604Y-112543750D02*
X239262500Y-116867646D01*
X239453616Y-131593750D02*
X239543750Y-131593750D01*
X239087500Y-131227634D02*
X239453616Y-131593750D01*
X248612500Y-153820616D02*
X248612500Y-154338384D01*
X248612500Y-154338384D02*
X248787500Y-154513384D01*
X248787500Y-149584866D02*
X248612500Y-149759866D01*
X240506250Y-100169854D02*
X234500000Y-106176104D01*
X248612500Y-150277634D02*
X248787500Y-150452634D01*
X248787500Y-156025000D02*
X248443750Y-156368750D01*
X239262500Y-116867646D02*
X239262500Y-130534866D01*
D15*
X146843750Y-167481250D02*
X146843750Y-173831250D01*
X146843750Y-173831250D02*
X150018750Y-177006250D01*
X91281250Y-103351194D02*
X91281250Y-104775000D01*
X150018750Y-177006250D02*
X175418750Y-177006250D01*
X175418750Y-177006250D02*
X176212500Y-176212500D01*
X147304862Y-173640252D02*
X150209748Y-176545138D01*
X147643253Y-167573488D02*
X147304862Y-167911879D01*
X150209748Y-176545138D02*
X174292362Y-176545138D01*
X174292362Y-176545138D02*
X174625000Y-176212500D01*
X147304862Y-167911879D02*
X147304862Y-173640252D01*
X147643253Y-167481250D02*
X147643253Y-167573488D01*
D14*
X80406250Y-86756250D02*
X86001726Y-86756250D01*
X86007976Y-86750000D02*
X89290000Y-86750000D01*
X80168750Y-86518750D02*
X80406250Y-86756250D01*
X91750000Y-92478806D02*
X91360056Y-92868750D01*
X91750000Y-89210000D02*
X91750000Y-92478806D01*
X89290000Y-86750000D02*
X91750000Y-89210000D01*
X86001726Y-86756250D02*
X86007976Y-86750000D01*
X88725000Y-92359296D02*
X88725000Y-88725000D01*
X87500000Y-87500000D02*
X84137500Y-87500000D01*
X88725000Y-88725000D02*
X87500000Y-87500000D01*
X88540052Y-92544244D02*
X88725000Y-92359296D01*
M02*
